G75*
%MOIN*%
%OFA0B0*%
%FSLAX25Y25*%
%IPPOS*%
%LPD*%
%AMOC8*
5,1,8,0,0,1.08239X$1,22.5*
%
%ADD10C,0.00000*%
%ADD11C,0.00600*%
%ADD12C,0.00800*%
%ADD13C,0.01000*%
%ADD14C,0.00500*%
%ADD15C,0.00400*%
%ADD16C,0.08858*%
%ADD17C,0.02880*%
%ADD18R,0.02000X0.01500*%
D10*
X0050725Y0088854D02*
X0050727Y0089012D01*
X0050733Y0089170D01*
X0050743Y0089328D01*
X0050757Y0089486D01*
X0050775Y0089643D01*
X0050796Y0089800D01*
X0050822Y0089956D01*
X0050852Y0090112D01*
X0050885Y0090267D01*
X0050923Y0090420D01*
X0050964Y0090573D01*
X0051009Y0090725D01*
X0051058Y0090876D01*
X0051111Y0091025D01*
X0051167Y0091173D01*
X0051227Y0091319D01*
X0051291Y0091464D01*
X0051359Y0091607D01*
X0051430Y0091749D01*
X0051504Y0091889D01*
X0051582Y0092026D01*
X0051664Y0092162D01*
X0051748Y0092296D01*
X0051837Y0092427D01*
X0051928Y0092556D01*
X0052023Y0092683D01*
X0052120Y0092808D01*
X0052221Y0092930D01*
X0052325Y0093049D01*
X0052432Y0093166D01*
X0052542Y0093280D01*
X0052655Y0093391D01*
X0052770Y0093500D01*
X0052888Y0093605D01*
X0053009Y0093707D01*
X0053132Y0093807D01*
X0053258Y0093903D01*
X0053386Y0093996D01*
X0053516Y0094086D01*
X0053649Y0094172D01*
X0053784Y0094256D01*
X0053920Y0094335D01*
X0054059Y0094412D01*
X0054200Y0094484D01*
X0054342Y0094554D01*
X0054486Y0094619D01*
X0054632Y0094681D01*
X0054779Y0094739D01*
X0054928Y0094794D01*
X0055078Y0094845D01*
X0055229Y0094892D01*
X0055381Y0094935D01*
X0055534Y0094974D01*
X0055689Y0095010D01*
X0055844Y0095041D01*
X0056000Y0095069D01*
X0056156Y0095093D01*
X0056313Y0095113D01*
X0056471Y0095129D01*
X0056628Y0095141D01*
X0056787Y0095149D01*
X0056945Y0095153D01*
X0057103Y0095153D01*
X0057261Y0095149D01*
X0057420Y0095141D01*
X0057577Y0095129D01*
X0057735Y0095113D01*
X0057892Y0095093D01*
X0058048Y0095069D01*
X0058204Y0095041D01*
X0058359Y0095010D01*
X0058514Y0094974D01*
X0058667Y0094935D01*
X0058819Y0094892D01*
X0058970Y0094845D01*
X0059120Y0094794D01*
X0059269Y0094739D01*
X0059416Y0094681D01*
X0059562Y0094619D01*
X0059706Y0094554D01*
X0059848Y0094484D01*
X0059989Y0094412D01*
X0060128Y0094335D01*
X0060264Y0094256D01*
X0060399Y0094172D01*
X0060532Y0094086D01*
X0060662Y0093996D01*
X0060790Y0093903D01*
X0060916Y0093807D01*
X0061039Y0093707D01*
X0061160Y0093605D01*
X0061278Y0093500D01*
X0061393Y0093391D01*
X0061506Y0093280D01*
X0061616Y0093166D01*
X0061723Y0093049D01*
X0061827Y0092930D01*
X0061928Y0092808D01*
X0062025Y0092683D01*
X0062120Y0092556D01*
X0062211Y0092427D01*
X0062300Y0092296D01*
X0062384Y0092162D01*
X0062466Y0092026D01*
X0062544Y0091889D01*
X0062618Y0091749D01*
X0062689Y0091607D01*
X0062757Y0091464D01*
X0062821Y0091319D01*
X0062881Y0091173D01*
X0062937Y0091025D01*
X0062990Y0090876D01*
X0063039Y0090725D01*
X0063084Y0090573D01*
X0063125Y0090420D01*
X0063163Y0090267D01*
X0063196Y0090112D01*
X0063226Y0089956D01*
X0063252Y0089800D01*
X0063273Y0089643D01*
X0063291Y0089486D01*
X0063305Y0089328D01*
X0063315Y0089170D01*
X0063321Y0089012D01*
X0063323Y0088854D01*
X0063321Y0088696D01*
X0063315Y0088538D01*
X0063305Y0088380D01*
X0063291Y0088222D01*
X0063273Y0088065D01*
X0063252Y0087908D01*
X0063226Y0087752D01*
X0063196Y0087596D01*
X0063163Y0087441D01*
X0063125Y0087288D01*
X0063084Y0087135D01*
X0063039Y0086983D01*
X0062990Y0086832D01*
X0062937Y0086683D01*
X0062881Y0086535D01*
X0062821Y0086389D01*
X0062757Y0086244D01*
X0062689Y0086101D01*
X0062618Y0085959D01*
X0062544Y0085819D01*
X0062466Y0085682D01*
X0062384Y0085546D01*
X0062300Y0085412D01*
X0062211Y0085281D01*
X0062120Y0085152D01*
X0062025Y0085025D01*
X0061928Y0084900D01*
X0061827Y0084778D01*
X0061723Y0084659D01*
X0061616Y0084542D01*
X0061506Y0084428D01*
X0061393Y0084317D01*
X0061278Y0084208D01*
X0061160Y0084103D01*
X0061039Y0084001D01*
X0060916Y0083901D01*
X0060790Y0083805D01*
X0060662Y0083712D01*
X0060532Y0083622D01*
X0060399Y0083536D01*
X0060264Y0083452D01*
X0060128Y0083373D01*
X0059989Y0083296D01*
X0059848Y0083224D01*
X0059706Y0083154D01*
X0059562Y0083089D01*
X0059416Y0083027D01*
X0059269Y0082969D01*
X0059120Y0082914D01*
X0058970Y0082863D01*
X0058819Y0082816D01*
X0058667Y0082773D01*
X0058514Y0082734D01*
X0058359Y0082698D01*
X0058204Y0082667D01*
X0058048Y0082639D01*
X0057892Y0082615D01*
X0057735Y0082595D01*
X0057577Y0082579D01*
X0057420Y0082567D01*
X0057261Y0082559D01*
X0057103Y0082555D01*
X0056945Y0082555D01*
X0056787Y0082559D01*
X0056628Y0082567D01*
X0056471Y0082579D01*
X0056313Y0082595D01*
X0056156Y0082615D01*
X0056000Y0082639D01*
X0055844Y0082667D01*
X0055689Y0082698D01*
X0055534Y0082734D01*
X0055381Y0082773D01*
X0055229Y0082816D01*
X0055078Y0082863D01*
X0054928Y0082914D01*
X0054779Y0082969D01*
X0054632Y0083027D01*
X0054486Y0083089D01*
X0054342Y0083154D01*
X0054200Y0083224D01*
X0054059Y0083296D01*
X0053920Y0083373D01*
X0053784Y0083452D01*
X0053649Y0083536D01*
X0053516Y0083622D01*
X0053386Y0083712D01*
X0053258Y0083805D01*
X0053132Y0083901D01*
X0053009Y0084001D01*
X0052888Y0084103D01*
X0052770Y0084208D01*
X0052655Y0084317D01*
X0052542Y0084428D01*
X0052432Y0084542D01*
X0052325Y0084659D01*
X0052221Y0084778D01*
X0052120Y0084900D01*
X0052023Y0085025D01*
X0051928Y0085152D01*
X0051837Y0085281D01*
X0051748Y0085412D01*
X0051664Y0085546D01*
X0051582Y0085682D01*
X0051504Y0085819D01*
X0051430Y0085959D01*
X0051359Y0086101D01*
X0051291Y0086244D01*
X0051227Y0086389D01*
X0051167Y0086535D01*
X0051111Y0086683D01*
X0051058Y0086832D01*
X0051009Y0086983D01*
X0050964Y0087135D01*
X0050923Y0087288D01*
X0050885Y0087441D01*
X0050852Y0087596D01*
X0050822Y0087752D01*
X0050796Y0087908D01*
X0050775Y0088065D01*
X0050757Y0088222D01*
X0050743Y0088380D01*
X0050733Y0088538D01*
X0050727Y0088696D01*
X0050725Y0088854D01*
X0242615Y0350272D02*
X0242617Y0350430D01*
X0242623Y0350588D01*
X0242633Y0350746D01*
X0242647Y0350904D01*
X0242665Y0351061D01*
X0242686Y0351218D01*
X0242712Y0351374D01*
X0242742Y0351530D01*
X0242775Y0351685D01*
X0242813Y0351838D01*
X0242854Y0351991D01*
X0242899Y0352143D01*
X0242948Y0352294D01*
X0243001Y0352443D01*
X0243057Y0352591D01*
X0243117Y0352737D01*
X0243181Y0352882D01*
X0243249Y0353025D01*
X0243320Y0353167D01*
X0243394Y0353307D01*
X0243472Y0353444D01*
X0243554Y0353580D01*
X0243638Y0353714D01*
X0243727Y0353845D01*
X0243818Y0353974D01*
X0243913Y0354101D01*
X0244010Y0354226D01*
X0244111Y0354348D01*
X0244215Y0354467D01*
X0244322Y0354584D01*
X0244432Y0354698D01*
X0244545Y0354809D01*
X0244660Y0354918D01*
X0244778Y0355023D01*
X0244899Y0355125D01*
X0245022Y0355225D01*
X0245148Y0355321D01*
X0245276Y0355414D01*
X0245406Y0355504D01*
X0245539Y0355590D01*
X0245674Y0355674D01*
X0245810Y0355753D01*
X0245949Y0355830D01*
X0246090Y0355902D01*
X0246232Y0355972D01*
X0246376Y0356037D01*
X0246522Y0356099D01*
X0246669Y0356157D01*
X0246818Y0356212D01*
X0246968Y0356263D01*
X0247119Y0356310D01*
X0247271Y0356353D01*
X0247424Y0356392D01*
X0247579Y0356428D01*
X0247734Y0356459D01*
X0247890Y0356487D01*
X0248046Y0356511D01*
X0248203Y0356531D01*
X0248361Y0356547D01*
X0248518Y0356559D01*
X0248677Y0356567D01*
X0248835Y0356571D01*
X0248993Y0356571D01*
X0249151Y0356567D01*
X0249310Y0356559D01*
X0249467Y0356547D01*
X0249625Y0356531D01*
X0249782Y0356511D01*
X0249938Y0356487D01*
X0250094Y0356459D01*
X0250249Y0356428D01*
X0250404Y0356392D01*
X0250557Y0356353D01*
X0250709Y0356310D01*
X0250860Y0356263D01*
X0251010Y0356212D01*
X0251159Y0356157D01*
X0251306Y0356099D01*
X0251452Y0356037D01*
X0251596Y0355972D01*
X0251738Y0355902D01*
X0251879Y0355830D01*
X0252018Y0355753D01*
X0252154Y0355674D01*
X0252289Y0355590D01*
X0252422Y0355504D01*
X0252552Y0355414D01*
X0252680Y0355321D01*
X0252806Y0355225D01*
X0252929Y0355125D01*
X0253050Y0355023D01*
X0253168Y0354918D01*
X0253283Y0354809D01*
X0253396Y0354698D01*
X0253506Y0354584D01*
X0253613Y0354467D01*
X0253717Y0354348D01*
X0253818Y0354226D01*
X0253915Y0354101D01*
X0254010Y0353974D01*
X0254101Y0353845D01*
X0254190Y0353714D01*
X0254274Y0353580D01*
X0254356Y0353444D01*
X0254434Y0353307D01*
X0254508Y0353167D01*
X0254579Y0353025D01*
X0254647Y0352882D01*
X0254711Y0352737D01*
X0254771Y0352591D01*
X0254827Y0352443D01*
X0254880Y0352294D01*
X0254929Y0352143D01*
X0254974Y0351991D01*
X0255015Y0351838D01*
X0255053Y0351685D01*
X0255086Y0351530D01*
X0255116Y0351374D01*
X0255142Y0351218D01*
X0255163Y0351061D01*
X0255181Y0350904D01*
X0255195Y0350746D01*
X0255205Y0350588D01*
X0255211Y0350430D01*
X0255213Y0350272D01*
X0255211Y0350114D01*
X0255205Y0349956D01*
X0255195Y0349798D01*
X0255181Y0349640D01*
X0255163Y0349483D01*
X0255142Y0349326D01*
X0255116Y0349170D01*
X0255086Y0349014D01*
X0255053Y0348859D01*
X0255015Y0348706D01*
X0254974Y0348553D01*
X0254929Y0348401D01*
X0254880Y0348250D01*
X0254827Y0348101D01*
X0254771Y0347953D01*
X0254711Y0347807D01*
X0254647Y0347662D01*
X0254579Y0347519D01*
X0254508Y0347377D01*
X0254434Y0347237D01*
X0254356Y0347100D01*
X0254274Y0346964D01*
X0254190Y0346830D01*
X0254101Y0346699D01*
X0254010Y0346570D01*
X0253915Y0346443D01*
X0253818Y0346318D01*
X0253717Y0346196D01*
X0253613Y0346077D01*
X0253506Y0345960D01*
X0253396Y0345846D01*
X0253283Y0345735D01*
X0253168Y0345626D01*
X0253050Y0345521D01*
X0252929Y0345419D01*
X0252806Y0345319D01*
X0252680Y0345223D01*
X0252552Y0345130D01*
X0252422Y0345040D01*
X0252289Y0344954D01*
X0252154Y0344870D01*
X0252018Y0344791D01*
X0251879Y0344714D01*
X0251738Y0344642D01*
X0251596Y0344572D01*
X0251452Y0344507D01*
X0251306Y0344445D01*
X0251159Y0344387D01*
X0251010Y0344332D01*
X0250860Y0344281D01*
X0250709Y0344234D01*
X0250557Y0344191D01*
X0250404Y0344152D01*
X0250249Y0344116D01*
X0250094Y0344085D01*
X0249938Y0344057D01*
X0249782Y0344033D01*
X0249625Y0344013D01*
X0249467Y0343997D01*
X0249310Y0343985D01*
X0249151Y0343977D01*
X0248993Y0343973D01*
X0248835Y0343973D01*
X0248677Y0343977D01*
X0248518Y0343985D01*
X0248361Y0343997D01*
X0248203Y0344013D01*
X0248046Y0344033D01*
X0247890Y0344057D01*
X0247734Y0344085D01*
X0247579Y0344116D01*
X0247424Y0344152D01*
X0247271Y0344191D01*
X0247119Y0344234D01*
X0246968Y0344281D01*
X0246818Y0344332D01*
X0246669Y0344387D01*
X0246522Y0344445D01*
X0246376Y0344507D01*
X0246232Y0344572D01*
X0246090Y0344642D01*
X0245949Y0344714D01*
X0245810Y0344791D01*
X0245674Y0344870D01*
X0245539Y0344954D01*
X0245406Y0345040D01*
X0245276Y0345130D01*
X0245148Y0345223D01*
X0245022Y0345319D01*
X0244899Y0345419D01*
X0244778Y0345521D01*
X0244660Y0345626D01*
X0244545Y0345735D01*
X0244432Y0345846D01*
X0244322Y0345960D01*
X0244215Y0346077D01*
X0244111Y0346196D01*
X0244010Y0346318D01*
X0243913Y0346443D01*
X0243818Y0346570D01*
X0243727Y0346699D01*
X0243638Y0346830D01*
X0243554Y0346964D01*
X0243472Y0347100D01*
X0243394Y0347237D01*
X0243320Y0347377D01*
X0243249Y0347519D01*
X0243181Y0347662D01*
X0243117Y0347807D01*
X0243057Y0347953D01*
X0243001Y0348101D01*
X0242948Y0348250D01*
X0242899Y0348401D01*
X0242854Y0348553D01*
X0242813Y0348706D01*
X0242775Y0348859D01*
X0242742Y0349014D01*
X0242712Y0349170D01*
X0242686Y0349326D01*
X0242665Y0349483D01*
X0242647Y0349640D01*
X0242633Y0349798D01*
X0242623Y0349956D01*
X0242617Y0350114D01*
X0242615Y0350272D01*
X0433954Y0088854D02*
X0433956Y0089012D01*
X0433962Y0089170D01*
X0433972Y0089328D01*
X0433986Y0089486D01*
X0434004Y0089643D01*
X0434025Y0089800D01*
X0434051Y0089956D01*
X0434081Y0090112D01*
X0434114Y0090267D01*
X0434152Y0090420D01*
X0434193Y0090573D01*
X0434238Y0090725D01*
X0434287Y0090876D01*
X0434340Y0091025D01*
X0434396Y0091173D01*
X0434456Y0091319D01*
X0434520Y0091464D01*
X0434588Y0091607D01*
X0434659Y0091749D01*
X0434733Y0091889D01*
X0434811Y0092026D01*
X0434893Y0092162D01*
X0434977Y0092296D01*
X0435066Y0092427D01*
X0435157Y0092556D01*
X0435252Y0092683D01*
X0435349Y0092808D01*
X0435450Y0092930D01*
X0435554Y0093049D01*
X0435661Y0093166D01*
X0435771Y0093280D01*
X0435884Y0093391D01*
X0435999Y0093500D01*
X0436117Y0093605D01*
X0436238Y0093707D01*
X0436361Y0093807D01*
X0436487Y0093903D01*
X0436615Y0093996D01*
X0436745Y0094086D01*
X0436878Y0094172D01*
X0437013Y0094256D01*
X0437149Y0094335D01*
X0437288Y0094412D01*
X0437429Y0094484D01*
X0437571Y0094554D01*
X0437715Y0094619D01*
X0437861Y0094681D01*
X0438008Y0094739D01*
X0438157Y0094794D01*
X0438307Y0094845D01*
X0438458Y0094892D01*
X0438610Y0094935D01*
X0438763Y0094974D01*
X0438918Y0095010D01*
X0439073Y0095041D01*
X0439229Y0095069D01*
X0439385Y0095093D01*
X0439542Y0095113D01*
X0439700Y0095129D01*
X0439857Y0095141D01*
X0440016Y0095149D01*
X0440174Y0095153D01*
X0440332Y0095153D01*
X0440490Y0095149D01*
X0440649Y0095141D01*
X0440806Y0095129D01*
X0440964Y0095113D01*
X0441121Y0095093D01*
X0441277Y0095069D01*
X0441433Y0095041D01*
X0441588Y0095010D01*
X0441743Y0094974D01*
X0441896Y0094935D01*
X0442048Y0094892D01*
X0442199Y0094845D01*
X0442349Y0094794D01*
X0442498Y0094739D01*
X0442645Y0094681D01*
X0442791Y0094619D01*
X0442935Y0094554D01*
X0443077Y0094484D01*
X0443218Y0094412D01*
X0443357Y0094335D01*
X0443493Y0094256D01*
X0443628Y0094172D01*
X0443761Y0094086D01*
X0443891Y0093996D01*
X0444019Y0093903D01*
X0444145Y0093807D01*
X0444268Y0093707D01*
X0444389Y0093605D01*
X0444507Y0093500D01*
X0444622Y0093391D01*
X0444735Y0093280D01*
X0444845Y0093166D01*
X0444952Y0093049D01*
X0445056Y0092930D01*
X0445157Y0092808D01*
X0445254Y0092683D01*
X0445349Y0092556D01*
X0445440Y0092427D01*
X0445529Y0092296D01*
X0445613Y0092162D01*
X0445695Y0092026D01*
X0445773Y0091889D01*
X0445847Y0091749D01*
X0445918Y0091607D01*
X0445986Y0091464D01*
X0446050Y0091319D01*
X0446110Y0091173D01*
X0446166Y0091025D01*
X0446219Y0090876D01*
X0446268Y0090725D01*
X0446313Y0090573D01*
X0446354Y0090420D01*
X0446392Y0090267D01*
X0446425Y0090112D01*
X0446455Y0089956D01*
X0446481Y0089800D01*
X0446502Y0089643D01*
X0446520Y0089486D01*
X0446534Y0089328D01*
X0446544Y0089170D01*
X0446550Y0089012D01*
X0446552Y0088854D01*
X0446550Y0088696D01*
X0446544Y0088538D01*
X0446534Y0088380D01*
X0446520Y0088222D01*
X0446502Y0088065D01*
X0446481Y0087908D01*
X0446455Y0087752D01*
X0446425Y0087596D01*
X0446392Y0087441D01*
X0446354Y0087288D01*
X0446313Y0087135D01*
X0446268Y0086983D01*
X0446219Y0086832D01*
X0446166Y0086683D01*
X0446110Y0086535D01*
X0446050Y0086389D01*
X0445986Y0086244D01*
X0445918Y0086101D01*
X0445847Y0085959D01*
X0445773Y0085819D01*
X0445695Y0085682D01*
X0445613Y0085546D01*
X0445529Y0085412D01*
X0445440Y0085281D01*
X0445349Y0085152D01*
X0445254Y0085025D01*
X0445157Y0084900D01*
X0445056Y0084778D01*
X0444952Y0084659D01*
X0444845Y0084542D01*
X0444735Y0084428D01*
X0444622Y0084317D01*
X0444507Y0084208D01*
X0444389Y0084103D01*
X0444268Y0084001D01*
X0444145Y0083901D01*
X0444019Y0083805D01*
X0443891Y0083712D01*
X0443761Y0083622D01*
X0443628Y0083536D01*
X0443493Y0083452D01*
X0443357Y0083373D01*
X0443218Y0083296D01*
X0443077Y0083224D01*
X0442935Y0083154D01*
X0442791Y0083089D01*
X0442645Y0083027D01*
X0442498Y0082969D01*
X0442349Y0082914D01*
X0442199Y0082863D01*
X0442048Y0082816D01*
X0441896Y0082773D01*
X0441743Y0082734D01*
X0441588Y0082698D01*
X0441433Y0082667D01*
X0441277Y0082639D01*
X0441121Y0082615D01*
X0440964Y0082595D01*
X0440806Y0082579D01*
X0440649Y0082567D01*
X0440490Y0082559D01*
X0440332Y0082555D01*
X0440174Y0082555D01*
X0440016Y0082559D01*
X0439857Y0082567D01*
X0439700Y0082579D01*
X0439542Y0082595D01*
X0439385Y0082615D01*
X0439229Y0082639D01*
X0439073Y0082667D01*
X0438918Y0082698D01*
X0438763Y0082734D01*
X0438610Y0082773D01*
X0438458Y0082816D01*
X0438307Y0082863D01*
X0438157Y0082914D01*
X0438008Y0082969D01*
X0437861Y0083027D01*
X0437715Y0083089D01*
X0437571Y0083154D01*
X0437429Y0083224D01*
X0437288Y0083296D01*
X0437149Y0083373D01*
X0437013Y0083452D01*
X0436878Y0083536D01*
X0436745Y0083622D01*
X0436615Y0083712D01*
X0436487Y0083805D01*
X0436361Y0083901D01*
X0436238Y0084001D01*
X0436117Y0084103D01*
X0435999Y0084208D01*
X0435884Y0084317D01*
X0435771Y0084428D01*
X0435661Y0084542D01*
X0435554Y0084659D01*
X0435450Y0084778D01*
X0435349Y0084900D01*
X0435252Y0085025D01*
X0435157Y0085152D01*
X0435066Y0085281D01*
X0434977Y0085412D01*
X0434893Y0085546D01*
X0434811Y0085682D01*
X0434733Y0085819D01*
X0434659Y0085959D01*
X0434588Y0086101D01*
X0434520Y0086244D01*
X0434456Y0086389D01*
X0434396Y0086535D01*
X0434340Y0086683D01*
X0434287Y0086832D01*
X0434238Y0086983D01*
X0434193Y0087135D01*
X0434152Y0087288D01*
X0434114Y0087441D01*
X0434081Y0087596D01*
X0434051Y0087752D01*
X0434025Y0087908D01*
X0434004Y0088065D01*
X0433986Y0088222D01*
X0433972Y0088380D01*
X0433962Y0088538D01*
X0433956Y0088696D01*
X0433954Y0088854D01*
D11*
X0043009Y0076650D02*
X0043009Y0233343D01*
X0055450Y0233343D02*
X0055453Y0233588D01*
X0055462Y0233834D01*
X0055477Y0234079D01*
X0055498Y0234323D01*
X0055525Y0234567D01*
X0055558Y0234810D01*
X0055597Y0235053D01*
X0055642Y0235294D01*
X0055693Y0235534D01*
X0055750Y0235773D01*
X0055812Y0236010D01*
X0055881Y0236246D01*
X0055955Y0236480D01*
X0056035Y0236712D01*
X0056120Y0236942D01*
X0056211Y0237170D01*
X0056308Y0237395D01*
X0056410Y0237619D01*
X0056518Y0237839D01*
X0056631Y0238057D01*
X0056749Y0238272D01*
X0056873Y0238484D01*
X0057001Y0238693D01*
X0057135Y0238899D01*
X0057274Y0239101D01*
X0057418Y0239300D01*
X0057567Y0239495D01*
X0057720Y0239687D01*
X0057878Y0239875D01*
X0058040Y0240059D01*
X0058208Y0240238D01*
X0058379Y0240414D01*
X0058555Y0240585D01*
X0058734Y0240753D01*
X0058918Y0240915D01*
X0059106Y0241073D01*
X0059298Y0241226D01*
X0059493Y0241375D01*
X0059692Y0241519D01*
X0059894Y0241658D01*
X0060100Y0241792D01*
X0060309Y0241920D01*
X0060521Y0242044D01*
X0060736Y0242162D01*
X0060954Y0242275D01*
X0061174Y0242383D01*
X0061398Y0242485D01*
X0061623Y0242582D01*
X0061851Y0242673D01*
X0062081Y0242758D01*
X0062313Y0242838D01*
X0062547Y0242912D01*
X0062783Y0242981D01*
X0063020Y0243043D01*
X0063259Y0243100D01*
X0063499Y0243151D01*
X0063740Y0243196D01*
X0063983Y0243235D01*
X0064226Y0243268D01*
X0064470Y0243295D01*
X0064714Y0243316D01*
X0064959Y0243331D01*
X0065205Y0243340D01*
X0065450Y0243343D01*
X0065695Y0243340D01*
X0065941Y0243331D01*
X0066186Y0243316D01*
X0066430Y0243295D01*
X0066674Y0243268D01*
X0066917Y0243235D01*
X0067160Y0243196D01*
X0067401Y0243151D01*
X0067641Y0243100D01*
X0067880Y0243043D01*
X0068117Y0242981D01*
X0068353Y0242912D01*
X0068587Y0242838D01*
X0068819Y0242758D01*
X0069049Y0242673D01*
X0069277Y0242582D01*
X0069502Y0242485D01*
X0069726Y0242383D01*
X0069946Y0242275D01*
X0070164Y0242162D01*
X0070379Y0242044D01*
X0070591Y0241920D01*
X0070800Y0241792D01*
X0071006Y0241658D01*
X0071208Y0241519D01*
X0071407Y0241375D01*
X0071602Y0241226D01*
X0071794Y0241073D01*
X0071982Y0240915D01*
X0072166Y0240753D01*
X0072345Y0240585D01*
X0072521Y0240414D01*
X0072692Y0240238D01*
X0072860Y0240059D01*
X0073022Y0239875D01*
X0073180Y0239687D01*
X0073333Y0239495D01*
X0073482Y0239300D01*
X0073626Y0239101D01*
X0073765Y0238899D01*
X0073899Y0238693D01*
X0074027Y0238484D01*
X0074151Y0238272D01*
X0074269Y0238057D01*
X0074382Y0237839D01*
X0074490Y0237619D01*
X0074592Y0237395D01*
X0074689Y0237170D01*
X0074780Y0236942D01*
X0074865Y0236712D01*
X0074945Y0236480D01*
X0075019Y0236246D01*
X0075088Y0236010D01*
X0075150Y0235773D01*
X0075207Y0235534D01*
X0075258Y0235294D01*
X0075303Y0235053D01*
X0075342Y0234810D01*
X0075375Y0234567D01*
X0075402Y0234323D01*
X0075423Y0234079D01*
X0075438Y0233834D01*
X0075447Y0233588D01*
X0075450Y0233343D01*
X0075447Y0233098D01*
X0075438Y0232852D01*
X0075423Y0232607D01*
X0075402Y0232363D01*
X0075375Y0232119D01*
X0075342Y0231876D01*
X0075303Y0231633D01*
X0075258Y0231392D01*
X0075207Y0231152D01*
X0075150Y0230913D01*
X0075088Y0230676D01*
X0075019Y0230440D01*
X0074945Y0230206D01*
X0074865Y0229974D01*
X0074780Y0229744D01*
X0074689Y0229516D01*
X0074592Y0229291D01*
X0074490Y0229067D01*
X0074382Y0228847D01*
X0074269Y0228629D01*
X0074151Y0228414D01*
X0074027Y0228202D01*
X0073899Y0227993D01*
X0073765Y0227787D01*
X0073626Y0227585D01*
X0073482Y0227386D01*
X0073333Y0227191D01*
X0073180Y0226999D01*
X0073022Y0226811D01*
X0072860Y0226627D01*
X0072692Y0226448D01*
X0072521Y0226272D01*
X0072345Y0226101D01*
X0072166Y0225933D01*
X0071982Y0225771D01*
X0071794Y0225613D01*
X0071602Y0225460D01*
X0071407Y0225311D01*
X0071208Y0225167D01*
X0071006Y0225028D01*
X0070800Y0224894D01*
X0070591Y0224766D01*
X0070379Y0224642D01*
X0070164Y0224524D01*
X0069946Y0224411D01*
X0069726Y0224303D01*
X0069502Y0224201D01*
X0069277Y0224104D01*
X0069049Y0224013D01*
X0068819Y0223928D01*
X0068587Y0223848D01*
X0068353Y0223774D01*
X0068117Y0223705D01*
X0067880Y0223643D01*
X0067641Y0223586D01*
X0067401Y0223535D01*
X0067160Y0223490D01*
X0066917Y0223451D01*
X0066674Y0223418D01*
X0066430Y0223391D01*
X0066186Y0223370D01*
X0065941Y0223355D01*
X0065695Y0223346D01*
X0065450Y0223343D01*
X0065205Y0223346D01*
X0064959Y0223355D01*
X0064714Y0223370D01*
X0064470Y0223391D01*
X0064226Y0223418D01*
X0063983Y0223451D01*
X0063740Y0223490D01*
X0063499Y0223535D01*
X0063259Y0223586D01*
X0063020Y0223643D01*
X0062783Y0223705D01*
X0062547Y0223774D01*
X0062313Y0223848D01*
X0062081Y0223928D01*
X0061851Y0224013D01*
X0061623Y0224104D01*
X0061398Y0224201D01*
X0061174Y0224303D01*
X0060954Y0224411D01*
X0060736Y0224524D01*
X0060521Y0224642D01*
X0060309Y0224766D01*
X0060100Y0224894D01*
X0059894Y0225028D01*
X0059692Y0225167D01*
X0059493Y0225311D01*
X0059298Y0225460D01*
X0059106Y0225613D01*
X0058918Y0225771D01*
X0058734Y0225933D01*
X0058555Y0226101D01*
X0058379Y0226272D01*
X0058208Y0226448D01*
X0058040Y0226627D01*
X0057878Y0226811D01*
X0057720Y0226999D01*
X0057567Y0227191D01*
X0057418Y0227386D01*
X0057274Y0227585D01*
X0057135Y0227787D01*
X0057001Y0227993D01*
X0056873Y0228202D01*
X0056749Y0228414D01*
X0056631Y0228629D01*
X0056518Y0228847D01*
X0056410Y0229067D01*
X0056308Y0229291D01*
X0056211Y0229516D01*
X0056120Y0229744D01*
X0056035Y0229974D01*
X0055955Y0230206D01*
X0055881Y0230440D01*
X0055812Y0230676D01*
X0055750Y0230913D01*
X0055693Y0231152D01*
X0055642Y0231392D01*
X0055597Y0231633D01*
X0055558Y0231876D01*
X0055525Y0232119D01*
X0055498Y0232363D01*
X0055477Y0232607D01*
X0055462Y0232852D01*
X0055453Y0233098D01*
X0055450Y0233343D01*
X0066490Y0295956D02*
X0066493Y0296201D01*
X0066502Y0296447D01*
X0066517Y0296692D01*
X0066538Y0296936D01*
X0066565Y0297180D01*
X0066598Y0297423D01*
X0066637Y0297666D01*
X0066682Y0297907D01*
X0066733Y0298147D01*
X0066790Y0298386D01*
X0066852Y0298623D01*
X0066921Y0298859D01*
X0066995Y0299093D01*
X0067075Y0299325D01*
X0067160Y0299555D01*
X0067251Y0299783D01*
X0067348Y0300008D01*
X0067450Y0300232D01*
X0067558Y0300452D01*
X0067671Y0300670D01*
X0067789Y0300885D01*
X0067913Y0301097D01*
X0068041Y0301306D01*
X0068175Y0301512D01*
X0068314Y0301714D01*
X0068458Y0301913D01*
X0068607Y0302108D01*
X0068760Y0302300D01*
X0068918Y0302488D01*
X0069080Y0302672D01*
X0069248Y0302851D01*
X0069419Y0303027D01*
X0069595Y0303198D01*
X0069774Y0303366D01*
X0069958Y0303528D01*
X0070146Y0303686D01*
X0070338Y0303839D01*
X0070533Y0303988D01*
X0070732Y0304132D01*
X0070934Y0304271D01*
X0071140Y0304405D01*
X0071349Y0304533D01*
X0071561Y0304657D01*
X0071776Y0304775D01*
X0071994Y0304888D01*
X0072214Y0304996D01*
X0072438Y0305098D01*
X0072663Y0305195D01*
X0072891Y0305286D01*
X0073121Y0305371D01*
X0073353Y0305451D01*
X0073587Y0305525D01*
X0073823Y0305594D01*
X0074060Y0305656D01*
X0074299Y0305713D01*
X0074539Y0305764D01*
X0074780Y0305809D01*
X0075023Y0305848D01*
X0075266Y0305881D01*
X0075510Y0305908D01*
X0075754Y0305929D01*
X0075999Y0305944D01*
X0076245Y0305953D01*
X0076490Y0305956D01*
X0076735Y0305953D01*
X0076981Y0305944D01*
X0077226Y0305929D01*
X0077470Y0305908D01*
X0077714Y0305881D01*
X0077957Y0305848D01*
X0078200Y0305809D01*
X0078441Y0305764D01*
X0078681Y0305713D01*
X0078920Y0305656D01*
X0079157Y0305594D01*
X0079393Y0305525D01*
X0079627Y0305451D01*
X0079859Y0305371D01*
X0080089Y0305286D01*
X0080317Y0305195D01*
X0080542Y0305098D01*
X0080766Y0304996D01*
X0080986Y0304888D01*
X0081204Y0304775D01*
X0081419Y0304657D01*
X0081631Y0304533D01*
X0081840Y0304405D01*
X0082046Y0304271D01*
X0082248Y0304132D01*
X0082447Y0303988D01*
X0082642Y0303839D01*
X0082834Y0303686D01*
X0083022Y0303528D01*
X0083206Y0303366D01*
X0083385Y0303198D01*
X0083561Y0303027D01*
X0083732Y0302851D01*
X0083900Y0302672D01*
X0084062Y0302488D01*
X0084220Y0302300D01*
X0084373Y0302108D01*
X0084522Y0301913D01*
X0084666Y0301714D01*
X0084805Y0301512D01*
X0084939Y0301306D01*
X0085067Y0301097D01*
X0085191Y0300885D01*
X0085309Y0300670D01*
X0085422Y0300452D01*
X0085530Y0300232D01*
X0085632Y0300008D01*
X0085729Y0299783D01*
X0085820Y0299555D01*
X0085905Y0299325D01*
X0085985Y0299093D01*
X0086059Y0298859D01*
X0086128Y0298623D01*
X0086190Y0298386D01*
X0086247Y0298147D01*
X0086298Y0297907D01*
X0086343Y0297666D01*
X0086382Y0297423D01*
X0086415Y0297180D01*
X0086442Y0296936D01*
X0086463Y0296692D01*
X0086478Y0296447D01*
X0086487Y0296201D01*
X0086490Y0295956D01*
X0086487Y0295711D01*
X0086478Y0295465D01*
X0086463Y0295220D01*
X0086442Y0294976D01*
X0086415Y0294732D01*
X0086382Y0294489D01*
X0086343Y0294246D01*
X0086298Y0294005D01*
X0086247Y0293765D01*
X0086190Y0293526D01*
X0086128Y0293289D01*
X0086059Y0293053D01*
X0085985Y0292819D01*
X0085905Y0292587D01*
X0085820Y0292357D01*
X0085729Y0292129D01*
X0085632Y0291904D01*
X0085530Y0291680D01*
X0085422Y0291460D01*
X0085309Y0291242D01*
X0085191Y0291027D01*
X0085067Y0290815D01*
X0084939Y0290606D01*
X0084805Y0290400D01*
X0084666Y0290198D01*
X0084522Y0289999D01*
X0084373Y0289804D01*
X0084220Y0289612D01*
X0084062Y0289424D01*
X0083900Y0289240D01*
X0083732Y0289061D01*
X0083561Y0288885D01*
X0083385Y0288714D01*
X0083206Y0288546D01*
X0083022Y0288384D01*
X0082834Y0288226D01*
X0082642Y0288073D01*
X0082447Y0287924D01*
X0082248Y0287780D01*
X0082046Y0287641D01*
X0081840Y0287507D01*
X0081631Y0287379D01*
X0081419Y0287255D01*
X0081204Y0287137D01*
X0080986Y0287024D01*
X0080766Y0286916D01*
X0080542Y0286814D01*
X0080317Y0286717D01*
X0080089Y0286626D01*
X0079859Y0286541D01*
X0079627Y0286461D01*
X0079393Y0286387D01*
X0079157Y0286318D01*
X0078920Y0286256D01*
X0078681Y0286199D01*
X0078441Y0286148D01*
X0078200Y0286103D01*
X0077957Y0286064D01*
X0077714Y0286031D01*
X0077470Y0286004D01*
X0077226Y0285983D01*
X0076981Y0285968D01*
X0076735Y0285959D01*
X0076490Y0285956D01*
X0076245Y0285959D01*
X0075999Y0285968D01*
X0075754Y0285983D01*
X0075510Y0286004D01*
X0075266Y0286031D01*
X0075023Y0286064D01*
X0074780Y0286103D01*
X0074539Y0286148D01*
X0074299Y0286199D01*
X0074060Y0286256D01*
X0073823Y0286318D01*
X0073587Y0286387D01*
X0073353Y0286461D01*
X0073121Y0286541D01*
X0072891Y0286626D01*
X0072663Y0286717D01*
X0072438Y0286814D01*
X0072214Y0286916D01*
X0071994Y0287024D01*
X0071776Y0287137D01*
X0071561Y0287255D01*
X0071349Y0287379D01*
X0071140Y0287507D01*
X0070934Y0287641D01*
X0070732Y0287780D01*
X0070533Y0287924D01*
X0070338Y0288073D01*
X0070146Y0288226D01*
X0069958Y0288384D01*
X0069774Y0288546D01*
X0069595Y0288714D01*
X0069419Y0288885D01*
X0069248Y0289061D01*
X0069080Y0289240D01*
X0068918Y0289424D01*
X0068760Y0289612D01*
X0068607Y0289804D01*
X0068458Y0289999D01*
X0068314Y0290198D01*
X0068175Y0290400D01*
X0068041Y0290606D01*
X0067913Y0290815D01*
X0067789Y0291027D01*
X0067671Y0291242D01*
X0067558Y0291460D01*
X0067450Y0291680D01*
X0067348Y0291904D01*
X0067251Y0292129D01*
X0067160Y0292357D01*
X0067075Y0292587D01*
X0066995Y0292819D01*
X0066921Y0293053D01*
X0066852Y0293289D01*
X0066790Y0293526D01*
X0066733Y0293765D01*
X0066682Y0294005D01*
X0066637Y0294246D01*
X0066598Y0294489D01*
X0066565Y0294732D01*
X0066538Y0294976D01*
X0066517Y0295220D01*
X0066502Y0295465D01*
X0066493Y0295711D01*
X0066490Y0295956D01*
X0098280Y0351018D02*
X0098283Y0351263D01*
X0098292Y0351509D01*
X0098307Y0351754D01*
X0098328Y0351998D01*
X0098355Y0352242D01*
X0098388Y0352485D01*
X0098427Y0352728D01*
X0098472Y0352969D01*
X0098523Y0353209D01*
X0098580Y0353448D01*
X0098642Y0353685D01*
X0098711Y0353921D01*
X0098785Y0354155D01*
X0098865Y0354387D01*
X0098950Y0354617D01*
X0099041Y0354845D01*
X0099138Y0355070D01*
X0099240Y0355294D01*
X0099348Y0355514D01*
X0099461Y0355732D01*
X0099579Y0355947D01*
X0099703Y0356159D01*
X0099831Y0356368D01*
X0099965Y0356574D01*
X0100104Y0356776D01*
X0100248Y0356975D01*
X0100397Y0357170D01*
X0100550Y0357362D01*
X0100708Y0357550D01*
X0100870Y0357734D01*
X0101038Y0357913D01*
X0101209Y0358089D01*
X0101385Y0358260D01*
X0101564Y0358428D01*
X0101748Y0358590D01*
X0101936Y0358748D01*
X0102128Y0358901D01*
X0102323Y0359050D01*
X0102522Y0359194D01*
X0102724Y0359333D01*
X0102930Y0359467D01*
X0103139Y0359595D01*
X0103351Y0359719D01*
X0103566Y0359837D01*
X0103784Y0359950D01*
X0104004Y0360058D01*
X0104228Y0360160D01*
X0104453Y0360257D01*
X0104681Y0360348D01*
X0104911Y0360433D01*
X0105143Y0360513D01*
X0105377Y0360587D01*
X0105613Y0360656D01*
X0105850Y0360718D01*
X0106089Y0360775D01*
X0106329Y0360826D01*
X0106570Y0360871D01*
X0106813Y0360910D01*
X0107056Y0360943D01*
X0107300Y0360970D01*
X0107544Y0360991D01*
X0107789Y0361006D01*
X0108035Y0361015D01*
X0108280Y0361018D01*
X0108525Y0361015D01*
X0108771Y0361006D01*
X0109016Y0360991D01*
X0109260Y0360970D01*
X0109504Y0360943D01*
X0109747Y0360910D01*
X0109990Y0360871D01*
X0110231Y0360826D01*
X0110471Y0360775D01*
X0110710Y0360718D01*
X0110947Y0360656D01*
X0111183Y0360587D01*
X0111417Y0360513D01*
X0111649Y0360433D01*
X0111879Y0360348D01*
X0112107Y0360257D01*
X0112332Y0360160D01*
X0112556Y0360058D01*
X0112776Y0359950D01*
X0112994Y0359837D01*
X0113209Y0359719D01*
X0113421Y0359595D01*
X0113630Y0359467D01*
X0113836Y0359333D01*
X0114038Y0359194D01*
X0114237Y0359050D01*
X0114432Y0358901D01*
X0114624Y0358748D01*
X0114812Y0358590D01*
X0114996Y0358428D01*
X0115175Y0358260D01*
X0115351Y0358089D01*
X0115522Y0357913D01*
X0115690Y0357734D01*
X0115852Y0357550D01*
X0116010Y0357362D01*
X0116163Y0357170D01*
X0116312Y0356975D01*
X0116456Y0356776D01*
X0116595Y0356574D01*
X0116729Y0356368D01*
X0116857Y0356159D01*
X0116981Y0355947D01*
X0117099Y0355732D01*
X0117212Y0355514D01*
X0117320Y0355294D01*
X0117422Y0355070D01*
X0117519Y0354845D01*
X0117610Y0354617D01*
X0117695Y0354387D01*
X0117775Y0354155D01*
X0117849Y0353921D01*
X0117918Y0353685D01*
X0117980Y0353448D01*
X0118037Y0353209D01*
X0118088Y0352969D01*
X0118133Y0352728D01*
X0118172Y0352485D01*
X0118205Y0352242D01*
X0118232Y0351998D01*
X0118253Y0351754D01*
X0118268Y0351509D01*
X0118277Y0351263D01*
X0118280Y0351018D01*
X0118277Y0350773D01*
X0118268Y0350527D01*
X0118253Y0350282D01*
X0118232Y0350038D01*
X0118205Y0349794D01*
X0118172Y0349551D01*
X0118133Y0349308D01*
X0118088Y0349067D01*
X0118037Y0348827D01*
X0117980Y0348588D01*
X0117918Y0348351D01*
X0117849Y0348115D01*
X0117775Y0347881D01*
X0117695Y0347649D01*
X0117610Y0347419D01*
X0117519Y0347191D01*
X0117422Y0346966D01*
X0117320Y0346742D01*
X0117212Y0346522D01*
X0117099Y0346304D01*
X0116981Y0346089D01*
X0116857Y0345877D01*
X0116729Y0345668D01*
X0116595Y0345462D01*
X0116456Y0345260D01*
X0116312Y0345061D01*
X0116163Y0344866D01*
X0116010Y0344674D01*
X0115852Y0344486D01*
X0115690Y0344302D01*
X0115522Y0344123D01*
X0115351Y0343947D01*
X0115175Y0343776D01*
X0114996Y0343608D01*
X0114812Y0343446D01*
X0114624Y0343288D01*
X0114432Y0343135D01*
X0114237Y0342986D01*
X0114038Y0342842D01*
X0113836Y0342703D01*
X0113630Y0342569D01*
X0113421Y0342441D01*
X0113209Y0342317D01*
X0112994Y0342199D01*
X0112776Y0342086D01*
X0112556Y0341978D01*
X0112332Y0341876D01*
X0112107Y0341779D01*
X0111879Y0341688D01*
X0111649Y0341603D01*
X0111417Y0341523D01*
X0111183Y0341449D01*
X0110947Y0341380D01*
X0110710Y0341318D01*
X0110471Y0341261D01*
X0110231Y0341210D01*
X0109990Y0341165D01*
X0109747Y0341126D01*
X0109504Y0341093D01*
X0109260Y0341066D01*
X0109016Y0341045D01*
X0108771Y0341030D01*
X0108525Y0341021D01*
X0108280Y0341018D01*
X0108035Y0341021D01*
X0107789Y0341030D01*
X0107544Y0341045D01*
X0107300Y0341066D01*
X0107056Y0341093D01*
X0106813Y0341126D01*
X0106570Y0341165D01*
X0106329Y0341210D01*
X0106089Y0341261D01*
X0105850Y0341318D01*
X0105613Y0341380D01*
X0105377Y0341449D01*
X0105143Y0341523D01*
X0104911Y0341603D01*
X0104681Y0341688D01*
X0104453Y0341779D01*
X0104228Y0341876D01*
X0104004Y0341978D01*
X0103784Y0342086D01*
X0103566Y0342199D01*
X0103351Y0342317D01*
X0103139Y0342441D01*
X0102930Y0342569D01*
X0102724Y0342703D01*
X0102522Y0342842D01*
X0102323Y0342986D01*
X0102128Y0343135D01*
X0101936Y0343288D01*
X0101748Y0343446D01*
X0101564Y0343608D01*
X0101385Y0343776D01*
X0101209Y0343947D01*
X0101038Y0344123D01*
X0100870Y0344302D01*
X0100708Y0344486D01*
X0100550Y0344674D01*
X0100397Y0344866D01*
X0100248Y0345061D01*
X0100104Y0345260D01*
X0099965Y0345462D01*
X0099831Y0345668D01*
X0099703Y0345877D01*
X0099579Y0346089D01*
X0099461Y0346304D01*
X0099348Y0346522D01*
X0099240Y0346742D01*
X0099138Y0346966D01*
X0099041Y0347191D01*
X0098950Y0347419D01*
X0098865Y0347649D01*
X0098785Y0347881D01*
X0098711Y0348115D01*
X0098642Y0348351D01*
X0098580Y0348588D01*
X0098523Y0348827D01*
X0098472Y0349067D01*
X0098427Y0349308D01*
X0098388Y0349551D01*
X0098355Y0349794D01*
X0098328Y0350038D01*
X0098307Y0350282D01*
X0098292Y0350527D01*
X0098283Y0350773D01*
X0098280Y0351018D01*
X0146985Y0391887D02*
X0146988Y0392132D01*
X0146997Y0392378D01*
X0147012Y0392623D01*
X0147033Y0392867D01*
X0147060Y0393111D01*
X0147093Y0393354D01*
X0147132Y0393597D01*
X0147177Y0393838D01*
X0147228Y0394078D01*
X0147285Y0394317D01*
X0147347Y0394554D01*
X0147416Y0394790D01*
X0147490Y0395024D01*
X0147570Y0395256D01*
X0147655Y0395486D01*
X0147746Y0395714D01*
X0147843Y0395939D01*
X0147945Y0396163D01*
X0148053Y0396383D01*
X0148166Y0396601D01*
X0148284Y0396816D01*
X0148408Y0397028D01*
X0148536Y0397237D01*
X0148670Y0397443D01*
X0148809Y0397645D01*
X0148953Y0397844D01*
X0149102Y0398039D01*
X0149255Y0398231D01*
X0149413Y0398419D01*
X0149575Y0398603D01*
X0149743Y0398782D01*
X0149914Y0398958D01*
X0150090Y0399129D01*
X0150269Y0399297D01*
X0150453Y0399459D01*
X0150641Y0399617D01*
X0150833Y0399770D01*
X0151028Y0399919D01*
X0151227Y0400063D01*
X0151429Y0400202D01*
X0151635Y0400336D01*
X0151844Y0400464D01*
X0152056Y0400588D01*
X0152271Y0400706D01*
X0152489Y0400819D01*
X0152709Y0400927D01*
X0152933Y0401029D01*
X0153158Y0401126D01*
X0153386Y0401217D01*
X0153616Y0401302D01*
X0153848Y0401382D01*
X0154082Y0401456D01*
X0154318Y0401525D01*
X0154555Y0401587D01*
X0154794Y0401644D01*
X0155034Y0401695D01*
X0155275Y0401740D01*
X0155518Y0401779D01*
X0155761Y0401812D01*
X0156005Y0401839D01*
X0156249Y0401860D01*
X0156494Y0401875D01*
X0156740Y0401884D01*
X0156985Y0401887D01*
X0157230Y0401884D01*
X0157476Y0401875D01*
X0157721Y0401860D01*
X0157965Y0401839D01*
X0158209Y0401812D01*
X0158452Y0401779D01*
X0158695Y0401740D01*
X0158936Y0401695D01*
X0159176Y0401644D01*
X0159415Y0401587D01*
X0159652Y0401525D01*
X0159888Y0401456D01*
X0160122Y0401382D01*
X0160354Y0401302D01*
X0160584Y0401217D01*
X0160812Y0401126D01*
X0161037Y0401029D01*
X0161261Y0400927D01*
X0161481Y0400819D01*
X0161699Y0400706D01*
X0161914Y0400588D01*
X0162126Y0400464D01*
X0162335Y0400336D01*
X0162541Y0400202D01*
X0162743Y0400063D01*
X0162942Y0399919D01*
X0163137Y0399770D01*
X0163329Y0399617D01*
X0163517Y0399459D01*
X0163701Y0399297D01*
X0163880Y0399129D01*
X0164056Y0398958D01*
X0164227Y0398782D01*
X0164395Y0398603D01*
X0164557Y0398419D01*
X0164715Y0398231D01*
X0164868Y0398039D01*
X0165017Y0397844D01*
X0165161Y0397645D01*
X0165300Y0397443D01*
X0165434Y0397237D01*
X0165562Y0397028D01*
X0165686Y0396816D01*
X0165804Y0396601D01*
X0165917Y0396383D01*
X0166025Y0396163D01*
X0166127Y0395939D01*
X0166224Y0395714D01*
X0166315Y0395486D01*
X0166400Y0395256D01*
X0166480Y0395024D01*
X0166554Y0394790D01*
X0166623Y0394554D01*
X0166685Y0394317D01*
X0166742Y0394078D01*
X0166793Y0393838D01*
X0166838Y0393597D01*
X0166877Y0393354D01*
X0166910Y0393111D01*
X0166937Y0392867D01*
X0166958Y0392623D01*
X0166973Y0392378D01*
X0166982Y0392132D01*
X0166985Y0391887D01*
X0166982Y0391642D01*
X0166973Y0391396D01*
X0166958Y0391151D01*
X0166937Y0390907D01*
X0166910Y0390663D01*
X0166877Y0390420D01*
X0166838Y0390177D01*
X0166793Y0389936D01*
X0166742Y0389696D01*
X0166685Y0389457D01*
X0166623Y0389220D01*
X0166554Y0388984D01*
X0166480Y0388750D01*
X0166400Y0388518D01*
X0166315Y0388288D01*
X0166224Y0388060D01*
X0166127Y0387835D01*
X0166025Y0387611D01*
X0165917Y0387391D01*
X0165804Y0387173D01*
X0165686Y0386958D01*
X0165562Y0386746D01*
X0165434Y0386537D01*
X0165300Y0386331D01*
X0165161Y0386129D01*
X0165017Y0385930D01*
X0164868Y0385735D01*
X0164715Y0385543D01*
X0164557Y0385355D01*
X0164395Y0385171D01*
X0164227Y0384992D01*
X0164056Y0384816D01*
X0163880Y0384645D01*
X0163701Y0384477D01*
X0163517Y0384315D01*
X0163329Y0384157D01*
X0163137Y0384004D01*
X0162942Y0383855D01*
X0162743Y0383711D01*
X0162541Y0383572D01*
X0162335Y0383438D01*
X0162126Y0383310D01*
X0161914Y0383186D01*
X0161699Y0383068D01*
X0161481Y0382955D01*
X0161261Y0382847D01*
X0161037Y0382745D01*
X0160812Y0382648D01*
X0160584Y0382557D01*
X0160354Y0382472D01*
X0160122Y0382392D01*
X0159888Y0382318D01*
X0159652Y0382249D01*
X0159415Y0382187D01*
X0159176Y0382130D01*
X0158936Y0382079D01*
X0158695Y0382034D01*
X0158452Y0381995D01*
X0158209Y0381962D01*
X0157965Y0381935D01*
X0157721Y0381914D01*
X0157476Y0381899D01*
X0157230Y0381890D01*
X0156985Y0381887D01*
X0156740Y0381890D01*
X0156494Y0381899D01*
X0156249Y0381914D01*
X0156005Y0381935D01*
X0155761Y0381962D01*
X0155518Y0381995D01*
X0155275Y0382034D01*
X0155034Y0382079D01*
X0154794Y0382130D01*
X0154555Y0382187D01*
X0154318Y0382249D01*
X0154082Y0382318D01*
X0153848Y0382392D01*
X0153616Y0382472D01*
X0153386Y0382557D01*
X0153158Y0382648D01*
X0152933Y0382745D01*
X0152709Y0382847D01*
X0152489Y0382955D01*
X0152271Y0383068D01*
X0152056Y0383186D01*
X0151844Y0383310D01*
X0151635Y0383438D01*
X0151429Y0383572D01*
X0151227Y0383711D01*
X0151028Y0383855D01*
X0150833Y0384004D01*
X0150641Y0384157D01*
X0150453Y0384315D01*
X0150269Y0384477D01*
X0150090Y0384645D01*
X0149914Y0384816D01*
X0149743Y0384992D01*
X0149575Y0385171D01*
X0149413Y0385355D01*
X0149255Y0385543D01*
X0149102Y0385735D01*
X0148953Y0385930D01*
X0148809Y0386129D01*
X0148670Y0386331D01*
X0148536Y0386537D01*
X0148408Y0386746D01*
X0148284Y0386958D01*
X0148166Y0387173D01*
X0148053Y0387391D01*
X0147945Y0387611D01*
X0147843Y0387835D01*
X0147746Y0388060D01*
X0147655Y0388288D01*
X0147570Y0388518D01*
X0147490Y0388750D01*
X0147416Y0388984D01*
X0147347Y0389220D01*
X0147285Y0389457D01*
X0147228Y0389696D01*
X0147177Y0389936D01*
X0147132Y0390177D01*
X0147093Y0390420D01*
X0147060Y0390663D01*
X0147033Y0390907D01*
X0147012Y0391151D01*
X0146997Y0391396D01*
X0146988Y0391642D01*
X0146985Y0391887D01*
X0206731Y0413632D02*
X0206734Y0413877D01*
X0206743Y0414123D01*
X0206758Y0414368D01*
X0206779Y0414612D01*
X0206806Y0414856D01*
X0206839Y0415099D01*
X0206878Y0415342D01*
X0206923Y0415583D01*
X0206974Y0415823D01*
X0207031Y0416062D01*
X0207093Y0416299D01*
X0207162Y0416535D01*
X0207236Y0416769D01*
X0207316Y0417001D01*
X0207401Y0417231D01*
X0207492Y0417459D01*
X0207589Y0417684D01*
X0207691Y0417908D01*
X0207799Y0418128D01*
X0207912Y0418346D01*
X0208030Y0418561D01*
X0208154Y0418773D01*
X0208282Y0418982D01*
X0208416Y0419188D01*
X0208555Y0419390D01*
X0208699Y0419589D01*
X0208848Y0419784D01*
X0209001Y0419976D01*
X0209159Y0420164D01*
X0209321Y0420348D01*
X0209489Y0420527D01*
X0209660Y0420703D01*
X0209836Y0420874D01*
X0210015Y0421042D01*
X0210199Y0421204D01*
X0210387Y0421362D01*
X0210579Y0421515D01*
X0210774Y0421664D01*
X0210973Y0421808D01*
X0211175Y0421947D01*
X0211381Y0422081D01*
X0211590Y0422209D01*
X0211802Y0422333D01*
X0212017Y0422451D01*
X0212235Y0422564D01*
X0212455Y0422672D01*
X0212679Y0422774D01*
X0212904Y0422871D01*
X0213132Y0422962D01*
X0213362Y0423047D01*
X0213594Y0423127D01*
X0213828Y0423201D01*
X0214064Y0423270D01*
X0214301Y0423332D01*
X0214540Y0423389D01*
X0214780Y0423440D01*
X0215021Y0423485D01*
X0215264Y0423524D01*
X0215507Y0423557D01*
X0215751Y0423584D01*
X0215995Y0423605D01*
X0216240Y0423620D01*
X0216486Y0423629D01*
X0216731Y0423632D01*
X0216976Y0423629D01*
X0217222Y0423620D01*
X0217467Y0423605D01*
X0217711Y0423584D01*
X0217955Y0423557D01*
X0218198Y0423524D01*
X0218441Y0423485D01*
X0218682Y0423440D01*
X0218922Y0423389D01*
X0219161Y0423332D01*
X0219398Y0423270D01*
X0219634Y0423201D01*
X0219868Y0423127D01*
X0220100Y0423047D01*
X0220330Y0422962D01*
X0220558Y0422871D01*
X0220783Y0422774D01*
X0221007Y0422672D01*
X0221227Y0422564D01*
X0221445Y0422451D01*
X0221660Y0422333D01*
X0221872Y0422209D01*
X0222081Y0422081D01*
X0222287Y0421947D01*
X0222489Y0421808D01*
X0222688Y0421664D01*
X0222883Y0421515D01*
X0223075Y0421362D01*
X0223263Y0421204D01*
X0223447Y0421042D01*
X0223626Y0420874D01*
X0223802Y0420703D01*
X0223973Y0420527D01*
X0224141Y0420348D01*
X0224303Y0420164D01*
X0224461Y0419976D01*
X0224614Y0419784D01*
X0224763Y0419589D01*
X0224907Y0419390D01*
X0225046Y0419188D01*
X0225180Y0418982D01*
X0225308Y0418773D01*
X0225432Y0418561D01*
X0225550Y0418346D01*
X0225663Y0418128D01*
X0225771Y0417908D01*
X0225873Y0417684D01*
X0225970Y0417459D01*
X0226061Y0417231D01*
X0226146Y0417001D01*
X0226226Y0416769D01*
X0226300Y0416535D01*
X0226369Y0416299D01*
X0226431Y0416062D01*
X0226488Y0415823D01*
X0226539Y0415583D01*
X0226584Y0415342D01*
X0226623Y0415099D01*
X0226656Y0414856D01*
X0226683Y0414612D01*
X0226704Y0414368D01*
X0226719Y0414123D01*
X0226728Y0413877D01*
X0226731Y0413632D01*
X0226728Y0413387D01*
X0226719Y0413141D01*
X0226704Y0412896D01*
X0226683Y0412652D01*
X0226656Y0412408D01*
X0226623Y0412165D01*
X0226584Y0411922D01*
X0226539Y0411681D01*
X0226488Y0411441D01*
X0226431Y0411202D01*
X0226369Y0410965D01*
X0226300Y0410729D01*
X0226226Y0410495D01*
X0226146Y0410263D01*
X0226061Y0410033D01*
X0225970Y0409805D01*
X0225873Y0409580D01*
X0225771Y0409356D01*
X0225663Y0409136D01*
X0225550Y0408918D01*
X0225432Y0408703D01*
X0225308Y0408491D01*
X0225180Y0408282D01*
X0225046Y0408076D01*
X0224907Y0407874D01*
X0224763Y0407675D01*
X0224614Y0407480D01*
X0224461Y0407288D01*
X0224303Y0407100D01*
X0224141Y0406916D01*
X0223973Y0406737D01*
X0223802Y0406561D01*
X0223626Y0406390D01*
X0223447Y0406222D01*
X0223263Y0406060D01*
X0223075Y0405902D01*
X0222883Y0405749D01*
X0222688Y0405600D01*
X0222489Y0405456D01*
X0222287Y0405317D01*
X0222081Y0405183D01*
X0221872Y0405055D01*
X0221660Y0404931D01*
X0221445Y0404813D01*
X0221227Y0404700D01*
X0221007Y0404592D01*
X0220783Y0404490D01*
X0220558Y0404393D01*
X0220330Y0404302D01*
X0220100Y0404217D01*
X0219868Y0404137D01*
X0219634Y0404063D01*
X0219398Y0403994D01*
X0219161Y0403932D01*
X0218922Y0403875D01*
X0218682Y0403824D01*
X0218441Y0403779D01*
X0218198Y0403740D01*
X0217955Y0403707D01*
X0217711Y0403680D01*
X0217467Y0403659D01*
X0217222Y0403644D01*
X0216976Y0403635D01*
X0216731Y0403632D01*
X0216486Y0403635D01*
X0216240Y0403644D01*
X0215995Y0403659D01*
X0215751Y0403680D01*
X0215507Y0403707D01*
X0215264Y0403740D01*
X0215021Y0403779D01*
X0214780Y0403824D01*
X0214540Y0403875D01*
X0214301Y0403932D01*
X0214064Y0403994D01*
X0213828Y0404063D01*
X0213594Y0404137D01*
X0213362Y0404217D01*
X0213132Y0404302D01*
X0212904Y0404393D01*
X0212679Y0404490D01*
X0212455Y0404592D01*
X0212235Y0404700D01*
X0212017Y0404813D01*
X0211802Y0404931D01*
X0211590Y0405055D01*
X0211381Y0405183D01*
X0211175Y0405317D01*
X0210973Y0405456D01*
X0210774Y0405600D01*
X0210579Y0405749D01*
X0210387Y0405902D01*
X0210199Y0406060D01*
X0210015Y0406222D01*
X0209836Y0406390D01*
X0209660Y0406561D01*
X0209489Y0406737D01*
X0209321Y0406916D01*
X0209159Y0407100D01*
X0209001Y0407288D01*
X0208848Y0407480D01*
X0208699Y0407675D01*
X0208555Y0407874D01*
X0208416Y0408076D01*
X0208282Y0408282D01*
X0208154Y0408491D01*
X0208030Y0408703D01*
X0207912Y0408918D01*
X0207799Y0409136D01*
X0207691Y0409356D01*
X0207589Y0409580D01*
X0207492Y0409805D01*
X0207401Y0410033D01*
X0207316Y0410263D01*
X0207236Y0410495D01*
X0207162Y0410729D01*
X0207093Y0410965D01*
X0207031Y0411202D01*
X0206974Y0411441D01*
X0206923Y0411681D01*
X0206878Y0411922D01*
X0206839Y0412165D01*
X0206806Y0412408D01*
X0206779Y0412652D01*
X0206758Y0412896D01*
X0206743Y0413141D01*
X0206734Y0413387D01*
X0206731Y0413632D01*
X0270310Y0413632D02*
X0270313Y0413877D01*
X0270322Y0414123D01*
X0270337Y0414368D01*
X0270358Y0414612D01*
X0270385Y0414856D01*
X0270418Y0415099D01*
X0270457Y0415342D01*
X0270502Y0415583D01*
X0270553Y0415823D01*
X0270610Y0416062D01*
X0270672Y0416299D01*
X0270741Y0416535D01*
X0270815Y0416769D01*
X0270895Y0417001D01*
X0270980Y0417231D01*
X0271071Y0417459D01*
X0271168Y0417684D01*
X0271270Y0417908D01*
X0271378Y0418128D01*
X0271491Y0418346D01*
X0271609Y0418561D01*
X0271733Y0418773D01*
X0271861Y0418982D01*
X0271995Y0419188D01*
X0272134Y0419390D01*
X0272278Y0419589D01*
X0272427Y0419784D01*
X0272580Y0419976D01*
X0272738Y0420164D01*
X0272900Y0420348D01*
X0273068Y0420527D01*
X0273239Y0420703D01*
X0273415Y0420874D01*
X0273594Y0421042D01*
X0273778Y0421204D01*
X0273966Y0421362D01*
X0274158Y0421515D01*
X0274353Y0421664D01*
X0274552Y0421808D01*
X0274754Y0421947D01*
X0274960Y0422081D01*
X0275169Y0422209D01*
X0275381Y0422333D01*
X0275596Y0422451D01*
X0275814Y0422564D01*
X0276034Y0422672D01*
X0276258Y0422774D01*
X0276483Y0422871D01*
X0276711Y0422962D01*
X0276941Y0423047D01*
X0277173Y0423127D01*
X0277407Y0423201D01*
X0277643Y0423270D01*
X0277880Y0423332D01*
X0278119Y0423389D01*
X0278359Y0423440D01*
X0278600Y0423485D01*
X0278843Y0423524D01*
X0279086Y0423557D01*
X0279330Y0423584D01*
X0279574Y0423605D01*
X0279819Y0423620D01*
X0280065Y0423629D01*
X0280310Y0423632D01*
X0280555Y0423629D01*
X0280801Y0423620D01*
X0281046Y0423605D01*
X0281290Y0423584D01*
X0281534Y0423557D01*
X0281777Y0423524D01*
X0282020Y0423485D01*
X0282261Y0423440D01*
X0282501Y0423389D01*
X0282740Y0423332D01*
X0282977Y0423270D01*
X0283213Y0423201D01*
X0283447Y0423127D01*
X0283679Y0423047D01*
X0283909Y0422962D01*
X0284137Y0422871D01*
X0284362Y0422774D01*
X0284586Y0422672D01*
X0284806Y0422564D01*
X0285024Y0422451D01*
X0285239Y0422333D01*
X0285451Y0422209D01*
X0285660Y0422081D01*
X0285866Y0421947D01*
X0286068Y0421808D01*
X0286267Y0421664D01*
X0286462Y0421515D01*
X0286654Y0421362D01*
X0286842Y0421204D01*
X0287026Y0421042D01*
X0287205Y0420874D01*
X0287381Y0420703D01*
X0287552Y0420527D01*
X0287720Y0420348D01*
X0287882Y0420164D01*
X0288040Y0419976D01*
X0288193Y0419784D01*
X0288342Y0419589D01*
X0288486Y0419390D01*
X0288625Y0419188D01*
X0288759Y0418982D01*
X0288887Y0418773D01*
X0289011Y0418561D01*
X0289129Y0418346D01*
X0289242Y0418128D01*
X0289350Y0417908D01*
X0289452Y0417684D01*
X0289549Y0417459D01*
X0289640Y0417231D01*
X0289725Y0417001D01*
X0289805Y0416769D01*
X0289879Y0416535D01*
X0289948Y0416299D01*
X0290010Y0416062D01*
X0290067Y0415823D01*
X0290118Y0415583D01*
X0290163Y0415342D01*
X0290202Y0415099D01*
X0290235Y0414856D01*
X0290262Y0414612D01*
X0290283Y0414368D01*
X0290298Y0414123D01*
X0290307Y0413877D01*
X0290310Y0413632D01*
X0290307Y0413387D01*
X0290298Y0413141D01*
X0290283Y0412896D01*
X0290262Y0412652D01*
X0290235Y0412408D01*
X0290202Y0412165D01*
X0290163Y0411922D01*
X0290118Y0411681D01*
X0290067Y0411441D01*
X0290010Y0411202D01*
X0289948Y0410965D01*
X0289879Y0410729D01*
X0289805Y0410495D01*
X0289725Y0410263D01*
X0289640Y0410033D01*
X0289549Y0409805D01*
X0289452Y0409580D01*
X0289350Y0409356D01*
X0289242Y0409136D01*
X0289129Y0408918D01*
X0289011Y0408703D01*
X0288887Y0408491D01*
X0288759Y0408282D01*
X0288625Y0408076D01*
X0288486Y0407874D01*
X0288342Y0407675D01*
X0288193Y0407480D01*
X0288040Y0407288D01*
X0287882Y0407100D01*
X0287720Y0406916D01*
X0287552Y0406737D01*
X0287381Y0406561D01*
X0287205Y0406390D01*
X0287026Y0406222D01*
X0286842Y0406060D01*
X0286654Y0405902D01*
X0286462Y0405749D01*
X0286267Y0405600D01*
X0286068Y0405456D01*
X0285866Y0405317D01*
X0285660Y0405183D01*
X0285451Y0405055D01*
X0285239Y0404931D01*
X0285024Y0404813D01*
X0284806Y0404700D01*
X0284586Y0404592D01*
X0284362Y0404490D01*
X0284137Y0404393D01*
X0283909Y0404302D01*
X0283679Y0404217D01*
X0283447Y0404137D01*
X0283213Y0404063D01*
X0282977Y0403994D01*
X0282740Y0403932D01*
X0282501Y0403875D01*
X0282261Y0403824D01*
X0282020Y0403779D01*
X0281777Y0403740D01*
X0281534Y0403707D01*
X0281290Y0403680D01*
X0281046Y0403659D01*
X0280801Y0403644D01*
X0280555Y0403635D01*
X0280310Y0403632D01*
X0280065Y0403635D01*
X0279819Y0403644D01*
X0279574Y0403659D01*
X0279330Y0403680D01*
X0279086Y0403707D01*
X0278843Y0403740D01*
X0278600Y0403779D01*
X0278359Y0403824D01*
X0278119Y0403875D01*
X0277880Y0403932D01*
X0277643Y0403994D01*
X0277407Y0404063D01*
X0277173Y0404137D01*
X0276941Y0404217D01*
X0276711Y0404302D01*
X0276483Y0404393D01*
X0276258Y0404490D01*
X0276034Y0404592D01*
X0275814Y0404700D01*
X0275596Y0404813D01*
X0275381Y0404931D01*
X0275169Y0405055D01*
X0274960Y0405183D01*
X0274754Y0405317D01*
X0274552Y0405456D01*
X0274353Y0405600D01*
X0274158Y0405749D01*
X0273966Y0405902D01*
X0273778Y0406060D01*
X0273594Y0406222D01*
X0273415Y0406390D01*
X0273239Y0406561D01*
X0273068Y0406737D01*
X0272900Y0406916D01*
X0272738Y0407100D01*
X0272580Y0407288D01*
X0272427Y0407480D01*
X0272278Y0407675D01*
X0272134Y0407874D01*
X0271995Y0408076D01*
X0271861Y0408282D01*
X0271733Y0408491D01*
X0271609Y0408703D01*
X0271491Y0408918D01*
X0271378Y0409136D01*
X0271270Y0409356D01*
X0271168Y0409580D01*
X0271071Y0409805D01*
X0270980Y0410033D01*
X0270895Y0410263D01*
X0270815Y0410495D01*
X0270741Y0410729D01*
X0270672Y0410965D01*
X0270610Y0411202D01*
X0270553Y0411441D01*
X0270502Y0411681D01*
X0270457Y0411922D01*
X0270418Y0412165D01*
X0270385Y0412408D01*
X0270358Y0412652D01*
X0270337Y0412896D01*
X0270322Y0413141D01*
X0270313Y0413387D01*
X0270310Y0413632D01*
X0330056Y0391887D02*
X0330059Y0392132D01*
X0330068Y0392378D01*
X0330083Y0392623D01*
X0330104Y0392867D01*
X0330131Y0393111D01*
X0330164Y0393354D01*
X0330203Y0393597D01*
X0330248Y0393838D01*
X0330299Y0394078D01*
X0330356Y0394317D01*
X0330418Y0394554D01*
X0330487Y0394790D01*
X0330561Y0395024D01*
X0330641Y0395256D01*
X0330726Y0395486D01*
X0330817Y0395714D01*
X0330914Y0395939D01*
X0331016Y0396163D01*
X0331124Y0396383D01*
X0331237Y0396601D01*
X0331355Y0396816D01*
X0331479Y0397028D01*
X0331607Y0397237D01*
X0331741Y0397443D01*
X0331880Y0397645D01*
X0332024Y0397844D01*
X0332173Y0398039D01*
X0332326Y0398231D01*
X0332484Y0398419D01*
X0332646Y0398603D01*
X0332814Y0398782D01*
X0332985Y0398958D01*
X0333161Y0399129D01*
X0333340Y0399297D01*
X0333524Y0399459D01*
X0333712Y0399617D01*
X0333904Y0399770D01*
X0334099Y0399919D01*
X0334298Y0400063D01*
X0334500Y0400202D01*
X0334706Y0400336D01*
X0334915Y0400464D01*
X0335127Y0400588D01*
X0335342Y0400706D01*
X0335560Y0400819D01*
X0335780Y0400927D01*
X0336004Y0401029D01*
X0336229Y0401126D01*
X0336457Y0401217D01*
X0336687Y0401302D01*
X0336919Y0401382D01*
X0337153Y0401456D01*
X0337389Y0401525D01*
X0337626Y0401587D01*
X0337865Y0401644D01*
X0338105Y0401695D01*
X0338346Y0401740D01*
X0338589Y0401779D01*
X0338832Y0401812D01*
X0339076Y0401839D01*
X0339320Y0401860D01*
X0339565Y0401875D01*
X0339811Y0401884D01*
X0340056Y0401887D01*
X0340301Y0401884D01*
X0340547Y0401875D01*
X0340792Y0401860D01*
X0341036Y0401839D01*
X0341280Y0401812D01*
X0341523Y0401779D01*
X0341766Y0401740D01*
X0342007Y0401695D01*
X0342247Y0401644D01*
X0342486Y0401587D01*
X0342723Y0401525D01*
X0342959Y0401456D01*
X0343193Y0401382D01*
X0343425Y0401302D01*
X0343655Y0401217D01*
X0343883Y0401126D01*
X0344108Y0401029D01*
X0344332Y0400927D01*
X0344552Y0400819D01*
X0344770Y0400706D01*
X0344985Y0400588D01*
X0345197Y0400464D01*
X0345406Y0400336D01*
X0345612Y0400202D01*
X0345814Y0400063D01*
X0346013Y0399919D01*
X0346208Y0399770D01*
X0346400Y0399617D01*
X0346588Y0399459D01*
X0346772Y0399297D01*
X0346951Y0399129D01*
X0347127Y0398958D01*
X0347298Y0398782D01*
X0347466Y0398603D01*
X0347628Y0398419D01*
X0347786Y0398231D01*
X0347939Y0398039D01*
X0348088Y0397844D01*
X0348232Y0397645D01*
X0348371Y0397443D01*
X0348505Y0397237D01*
X0348633Y0397028D01*
X0348757Y0396816D01*
X0348875Y0396601D01*
X0348988Y0396383D01*
X0349096Y0396163D01*
X0349198Y0395939D01*
X0349295Y0395714D01*
X0349386Y0395486D01*
X0349471Y0395256D01*
X0349551Y0395024D01*
X0349625Y0394790D01*
X0349694Y0394554D01*
X0349756Y0394317D01*
X0349813Y0394078D01*
X0349864Y0393838D01*
X0349909Y0393597D01*
X0349948Y0393354D01*
X0349981Y0393111D01*
X0350008Y0392867D01*
X0350029Y0392623D01*
X0350044Y0392378D01*
X0350053Y0392132D01*
X0350056Y0391887D01*
X0350053Y0391642D01*
X0350044Y0391396D01*
X0350029Y0391151D01*
X0350008Y0390907D01*
X0349981Y0390663D01*
X0349948Y0390420D01*
X0349909Y0390177D01*
X0349864Y0389936D01*
X0349813Y0389696D01*
X0349756Y0389457D01*
X0349694Y0389220D01*
X0349625Y0388984D01*
X0349551Y0388750D01*
X0349471Y0388518D01*
X0349386Y0388288D01*
X0349295Y0388060D01*
X0349198Y0387835D01*
X0349096Y0387611D01*
X0348988Y0387391D01*
X0348875Y0387173D01*
X0348757Y0386958D01*
X0348633Y0386746D01*
X0348505Y0386537D01*
X0348371Y0386331D01*
X0348232Y0386129D01*
X0348088Y0385930D01*
X0347939Y0385735D01*
X0347786Y0385543D01*
X0347628Y0385355D01*
X0347466Y0385171D01*
X0347298Y0384992D01*
X0347127Y0384816D01*
X0346951Y0384645D01*
X0346772Y0384477D01*
X0346588Y0384315D01*
X0346400Y0384157D01*
X0346208Y0384004D01*
X0346013Y0383855D01*
X0345814Y0383711D01*
X0345612Y0383572D01*
X0345406Y0383438D01*
X0345197Y0383310D01*
X0344985Y0383186D01*
X0344770Y0383068D01*
X0344552Y0382955D01*
X0344332Y0382847D01*
X0344108Y0382745D01*
X0343883Y0382648D01*
X0343655Y0382557D01*
X0343425Y0382472D01*
X0343193Y0382392D01*
X0342959Y0382318D01*
X0342723Y0382249D01*
X0342486Y0382187D01*
X0342247Y0382130D01*
X0342007Y0382079D01*
X0341766Y0382034D01*
X0341523Y0381995D01*
X0341280Y0381962D01*
X0341036Y0381935D01*
X0340792Y0381914D01*
X0340547Y0381899D01*
X0340301Y0381890D01*
X0340056Y0381887D01*
X0339811Y0381890D01*
X0339565Y0381899D01*
X0339320Y0381914D01*
X0339076Y0381935D01*
X0338832Y0381962D01*
X0338589Y0381995D01*
X0338346Y0382034D01*
X0338105Y0382079D01*
X0337865Y0382130D01*
X0337626Y0382187D01*
X0337389Y0382249D01*
X0337153Y0382318D01*
X0336919Y0382392D01*
X0336687Y0382472D01*
X0336457Y0382557D01*
X0336229Y0382648D01*
X0336004Y0382745D01*
X0335780Y0382847D01*
X0335560Y0382955D01*
X0335342Y0383068D01*
X0335127Y0383186D01*
X0334915Y0383310D01*
X0334706Y0383438D01*
X0334500Y0383572D01*
X0334298Y0383711D01*
X0334099Y0383855D01*
X0333904Y0384004D01*
X0333712Y0384157D01*
X0333524Y0384315D01*
X0333340Y0384477D01*
X0333161Y0384645D01*
X0332985Y0384816D01*
X0332814Y0384992D01*
X0332646Y0385171D01*
X0332484Y0385355D01*
X0332326Y0385543D01*
X0332173Y0385735D01*
X0332024Y0385930D01*
X0331880Y0386129D01*
X0331741Y0386331D01*
X0331607Y0386537D01*
X0331479Y0386746D01*
X0331355Y0386958D01*
X0331237Y0387173D01*
X0331124Y0387391D01*
X0331016Y0387611D01*
X0330914Y0387835D01*
X0330817Y0388060D01*
X0330726Y0388288D01*
X0330641Y0388518D01*
X0330561Y0388750D01*
X0330487Y0388984D01*
X0330418Y0389220D01*
X0330356Y0389457D01*
X0330299Y0389696D01*
X0330248Y0389936D01*
X0330203Y0390177D01*
X0330164Y0390420D01*
X0330131Y0390663D01*
X0330104Y0390907D01*
X0330083Y0391151D01*
X0330068Y0391396D01*
X0330059Y0391642D01*
X0330056Y0391887D01*
X0378761Y0351018D02*
X0378764Y0351263D01*
X0378773Y0351509D01*
X0378788Y0351754D01*
X0378809Y0351998D01*
X0378836Y0352242D01*
X0378869Y0352485D01*
X0378908Y0352728D01*
X0378953Y0352969D01*
X0379004Y0353209D01*
X0379061Y0353448D01*
X0379123Y0353685D01*
X0379192Y0353921D01*
X0379266Y0354155D01*
X0379346Y0354387D01*
X0379431Y0354617D01*
X0379522Y0354845D01*
X0379619Y0355070D01*
X0379721Y0355294D01*
X0379829Y0355514D01*
X0379942Y0355732D01*
X0380060Y0355947D01*
X0380184Y0356159D01*
X0380312Y0356368D01*
X0380446Y0356574D01*
X0380585Y0356776D01*
X0380729Y0356975D01*
X0380878Y0357170D01*
X0381031Y0357362D01*
X0381189Y0357550D01*
X0381351Y0357734D01*
X0381519Y0357913D01*
X0381690Y0358089D01*
X0381866Y0358260D01*
X0382045Y0358428D01*
X0382229Y0358590D01*
X0382417Y0358748D01*
X0382609Y0358901D01*
X0382804Y0359050D01*
X0383003Y0359194D01*
X0383205Y0359333D01*
X0383411Y0359467D01*
X0383620Y0359595D01*
X0383832Y0359719D01*
X0384047Y0359837D01*
X0384265Y0359950D01*
X0384485Y0360058D01*
X0384709Y0360160D01*
X0384934Y0360257D01*
X0385162Y0360348D01*
X0385392Y0360433D01*
X0385624Y0360513D01*
X0385858Y0360587D01*
X0386094Y0360656D01*
X0386331Y0360718D01*
X0386570Y0360775D01*
X0386810Y0360826D01*
X0387051Y0360871D01*
X0387294Y0360910D01*
X0387537Y0360943D01*
X0387781Y0360970D01*
X0388025Y0360991D01*
X0388270Y0361006D01*
X0388516Y0361015D01*
X0388761Y0361018D01*
X0389006Y0361015D01*
X0389252Y0361006D01*
X0389497Y0360991D01*
X0389741Y0360970D01*
X0389985Y0360943D01*
X0390228Y0360910D01*
X0390471Y0360871D01*
X0390712Y0360826D01*
X0390952Y0360775D01*
X0391191Y0360718D01*
X0391428Y0360656D01*
X0391664Y0360587D01*
X0391898Y0360513D01*
X0392130Y0360433D01*
X0392360Y0360348D01*
X0392588Y0360257D01*
X0392813Y0360160D01*
X0393037Y0360058D01*
X0393257Y0359950D01*
X0393475Y0359837D01*
X0393690Y0359719D01*
X0393902Y0359595D01*
X0394111Y0359467D01*
X0394317Y0359333D01*
X0394519Y0359194D01*
X0394718Y0359050D01*
X0394913Y0358901D01*
X0395105Y0358748D01*
X0395293Y0358590D01*
X0395477Y0358428D01*
X0395656Y0358260D01*
X0395832Y0358089D01*
X0396003Y0357913D01*
X0396171Y0357734D01*
X0396333Y0357550D01*
X0396491Y0357362D01*
X0396644Y0357170D01*
X0396793Y0356975D01*
X0396937Y0356776D01*
X0397076Y0356574D01*
X0397210Y0356368D01*
X0397338Y0356159D01*
X0397462Y0355947D01*
X0397580Y0355732D01*
X0397693Y0355514D01*
X0397801Y0355294D01*
X0397903Y0355070D01*
X0398000Y0354845D01*
X0398091Y0354617D01*
X0398176Y0354387D01*
X0398256Y0354155D01*
X0398330Y0353921D01*
X0398399Y0353685D01*
X0398461Y0353448D01*
X0398518Y0353209D01*
X0398569Y0352969D01*
X0398614Y0352728D01*
X0398653Y0352485D01*
X0398686Y0352242D01*
X0398713Y0351998D01*
X0398734Y0351754D01*
X0398749Y0351509D01*
X0398758Y0351263D01*
X0398761Y0351018D01*
X0398758Y0350773D01*
X0398749Y0350527D01*
X0398734Y0350282D01*
X0398713Y0350038D01*
X0398686Y0349794D01*
X0398653Y0349551D01*
X0398614Y0349308D01*
X0398569Y0349067D01*
X0398518Y0348827D01*
X0398461Y0348588D01*
X0398399Y0348351D01*
X0398330Y0348115D01*
X0398256Y0347881D01*
X0398176Y0347649D01*
X0398091Y0347419D01*
X0398000Y0347191D01*
X0397903Y0346966D01*
X0397801Y0346742D01*
X0397693Y0346522D01*
X0397580Y0346304D01*
X0397462Y0346089D01*
X0397338Y0345877D01*
X0397210Y0345668D01*
X0397076Y0345462D01*
X0396937Y0345260D01*
X0396793Y0345061D01*
X0396644Y0344866D01*
X0396491Y0344674D01*
X0396333Y0344486D01*
X0396171Y0344302D01*
X0396003Y0344123D01*
X0395832Y0343947D01*
X0395656Y0343776D01*
X0395477Y0343608D01*
X0395293Y0343446D01*
X0395105Y0343288D01*
X0394913Y0343135D01*
X0394718Y0342986D01*
X0394519Y0342842D01*
X0394317Y0342703D01*
X0394111Y0342569D01*
X0393902Y0342441D01*
X0393690Y0342317D01*
X0393475Y0342199D01*
X0393257Y0342086D01*
X0393037Y0341978D01*
X0392813Y0341876D01*
X0392588Y0341779D01*
X0392360Y0341688D01*
X0392130Y0341603D01*
X0391898Y0341523D01*
X0391664Y0341449D01*
X0391428Y0341380D01*
X0391191Y0341318D01*
X0390952Y0341261D01*
X0390712Y0341210D01*
X0390471Y0341165D01*
X0390228Y0341126D01*
X0389985Y0341093D01*
X0389741Y0341066D01*
X0389497Y0341045D01*
X0389252Y0341030D01*
X0389006Y0341021D01*
X0388761Y0341018D01*
X0388516Y0341021D01*
X0388270Y0341030D01*
X0388025Y0341045D01*
X0387781Y0341066D01*
X0387537Y0341093D01*
X0387294Y0341126D01*
X0387051Y0341165D01*
X0386810Y0341210D01*
X0386570Y0341261D01*
X0386331Y0341318D01*
X0386094Y0341380D01*
X0385858Y0341449D01*
X0385624Y0341523D01*
X0385392Y0341603D01*
X0385162Y0341688D01*
X0384934Y0341779D01*
X0384709Y0341876D01*
X0384485Y0341978D01*
X0384265Y0342086D01*
X0384047Y0342199D01*
X0383832Y0342317D01*
X0383620Y0342441D01*
X0383411Y0342569D01*
X0383205Y0342703D01*
X0383003Y0342842D01*
X0382804Y0342986D01*
X0382609Y0343135D01*
X0382417Y0343288D01*
X0382229Y0343446D01*
X0382045Y0343608D01*
X0381866Y0343776D01*
X0381690Y0343947D01*
X0381519Y0344123D01*
X0381351Y0344302D01*
X0381189Y0344486D01*
X0381031Y0344674D01*
X0380878Y0344866D01*
X0380729Y0345061D01*
X0380585Y0345260D01*
X0380446Y0345462D01*
X0380312Y0345668D01*
X0380184Y0345877D01*
X0380060Y0346089D01*
X0379942Y0346304D01*
X0379829Y0346522D01*
X0379721Y0346742D01*
X0379619Y0346966D01*
X0379522Y0347191D01*
X0379431Y0347419D01*
X0379346Y0347649D01*
X0379266Y0347881D01*
X0379192Y0348115D01*
X0379123Y0348351D01*
X0379061Y0348588D01*
X0379004Y0348827D01*
X0378953Y0349067D01*
X0378908Y0349308D01*
X0378869Y0349551D01*
X0378836Y0349794D01*
X0378809Y0350038D01*
X0378788Y0350282D01*
X0378773Y0350527D01*
X0378764Y0350773D01*
X0378761Y0351018D01*
X0410551Y0295956D02*
X0410554Y0296201D01*
X0410563Y0296447D01*
X0410578Y0296692D01*
X0410599Y0296936D01*
X0410626Y0297180D01*
X0410659Y0297423D01*
X0410698Y0297666D01*
X0410743Y0297907D01*
X0410794Y0298147D01*
X0410851Y0298386D01*
X0410913Y0298623D01*
X0410982Y0298859D01*
X0411056Y0299093D01*
X0411136Y0299325D01*
X0411221Y0299555D01*
X0411312Y0299783D01*
X0411409Y0300008D01*
X0411511Y0300232D01*
X0411619Y0300452D01*
X0411732Y0300670D01*
X0411850Y0300885D01*
X0411974Y0301097D01*
X0412102Y0301306D01*
X0412236Y0301512D01*
X0412375Y0301714D01*
X0412519Y0301913D01*
X0412668Y0302108D01*
X0412821Y0302300D01*
X0412979Y0302488D01*
X0413141Y0302672D01*
X0413309Y0302851D01*
X0413480Y0303027D01*
X0413656Y0303198D01*
X0413835Y0303366D01*
X0414019Y0303528D01*
X0414207Y0303686D01*
X0414399Y0303839D01*
X0414594Y0303988D01*
X0414793Y0304132D01*
X0414995Y0304271D01*
X0415201Y0304405D01*
X0415410Y0304533D01*
X0415622Y0304657D01*
X0415837Y0304775D01*
X0416055Y0304888D01*
X0416275Y0304996D01*
X0416499Y0305098D01*
X0416724Y0305195D01*
X0416952Y0305286D01*
X0417182Y0305371D01*
X0417414Y0305451D01*
X0417648Y0305525D01*
X0417884Y0305594D01*
X0418121Y0305656D01*
X0418360Y0305713D01*
X0418600Y0305764D01*
X0418841Y0305809D01*
X0419084Y0305848D01*
X0419327Y0305881D01*
X0419571Y0305908D01*
X0419815Y0305929D01*
X0420060Y0305944D01*
X0420306Y0305953D01*
X0420551Y0305956D01*
X0420796Y0305953D01*
X0421042Y0305944D01*
X0421287Y0305929D01*
X0421531Y0305908D01*
X0421775Y0305881D01*
X0422018Y0305848D01*
X0422261Y0305809D01*
X0422502Y0305764D01*
X0422742Y0305713D01*
X0422981Y0305656D01*
X0423218Y0305594D01*
X0423454Y0305525D01*
X0423688Y0305451D01*
X0423920Y0305371D01*
X0424150Y0305286D01*
X0424378Y0305195D01*
X0424603Y0305098D01*
X0424827Y0304996D01*
X0425047Y0304888D01*
X0425265Y0304775D01*
X0425480Y0304657D01*
X0425692Y0304533D01*
X0425901Y0304405D01*
X0426107Y0304271D01*
X0426309Y0304132D01*
X0426508Y0303988D01*
X0426703Y0303839D01*
X0426895Y0303686D01*
X0427083Y0303528D01*
X0427267Y0303366D01*
X0427446Y0303198D01*
X0427622Y0303027D01*
X0427793Y0302851D01*
X0427961Y0302672D01*
X0428123Y0302488D01*
X0428281Y0302300D01*
X0428434Y0302108D01*
X0428583Y0301913D01*
X0428727Y0301714D01*
X0428866Y0301512D01*
X0429000Y0301306D01*
X0429128Y0301097D01*
X0429252Y0300885D01*
X0429370Y0300670D01*
X0429483Y0300452D01*
X0429591Y0300232D01*
X0429693Y0300008D01*
X0429790Y0299783D01*
X0429881Y0299555D01*
X0429966Y0299325D01*
X0430046Y0299093D01*
X0430120Y0298859D01*
X0430189Y0298623D01*
X0430251Y0298386D01*
X0430308Y0298147D01*
X0430359Y0297907D01*
X0430404Y0297666D01*
X0430443Y0297423D01*
X0430476Y0297180D01*
X0430503Y0296936D01*
X0430524Y0296692D01*
X0430539Y0296447D01*
X0430548Y0296201D01*
X0430551Y0295956D01*
X0430548Y0295711D01*
X0430539Y0295465D01*
X0430524Y0295220D01*
X0430503Y0294976D01*
X0430476Y0294732D01*
X0430443Y0294489D01*
X0430404Y0294246D01*
X0430359Y0294005D01*
X0430308Y0293765D01*
X0430251Y0293526D01*
X0430189Y0293289D01*
X0430120Y0293053D01*
X0430046Y0292819D01*
X0429966Y0292587D01*
X0429881Y0292357D01*
X0429790Y0292129D01*
X0429693Y0291904D01*
X0429591Y0291680D01*
X0429483Y0291460D01*
X0429370Y0291242D01*
X0429252Y0291027D01*
X0429128Y0290815D01*
X0429000Y0290606D01*
X0428866Y0290400D01*
X0428727Y0290198D01*
X0428583Y0289999D01*
X0428434Y0289804D01*
X0428281Y0289612D01*
X0428123Y0289424D01*
X0427961Y0289240D01*
X0427793Y0289061D01*
X0427622Y0288885D01*
X0427446Y0288714D01*
X0427267Y0288546D01*
X0427083Y0288384D01*
X0426895Y0288226D01*
X0426703Y0288073D01*
X0426508Y0287924D01*
X0426309Y0287780D01*
X0426107Y0287641D01*
X0425901Y0287507D01*
X0425692Y0287379D01*
X0425480Y0287255D01*
X0425265Y0287137D01*
X0425047Y0287024D01*
X0424827Y0286916D01*
X0424603Y0286814D01*
X0424378Y0286717D01*
X0424150Y0286626D01*
X0423920Y0286541D01*
X0423688Y0286461D01*
X0423454Y0286387D01*
X0423218Y0286318D01*
X0422981Y0286256D01*
X0422742Y0286199D01*
X0422502Y0286148D01*
X0422261Y0286103D01*
X0422018Y0286064D01*
X0421775Y0286031D01*
X0421531Y0286004D01*
X0421287Y0285983D01*
X0421042Y0285968D01*
X0420796Y0285959D01*
X0420551Y0285956D01*
X0420306Y0285959D01*
X0420060Y0285968D01*
X0419815Y0285983D01*
X0419571Y0286004D01*
X0419327Y0286031D01*
X0419084Y0286064D01*
X0418841Y0286103D01*
X0418600Y0286148D01*
X0418360Y0286199D01*
X0418121Y0286256D01*
X0417884Y0286318D01*
X0417648Y0286387D01*
X0417414Y0286461D01*
X0417182Y0286541D01*
X0416952Y0286626D01*
X0416724Y0286717D01*
X0416499Y0286814D01*
X0416275Y0286916D01*
X0416055Y0287024D01*
X0415837Y0287137D01*
X0415622Y0287255D01*
X0415410Y0287379D01*
X0415201Y0287507D01*
X0414995Y0287641D01*
X0414793Y0287780D01*
X0414594Y0287924D01*
X0414399Y0288073D01*
X0414207Y0288226D01*
X0414019Y0288384D01*
X0413835Y0288546D01*
X0413656Y0288714D01*
X0413480Y0288885D01*
X0413309Y0289061D01*
X0413141Y0289240D01*
X0412979Y0289424D01*
X0412821Y0289612D01*
X0412668Y0289804D01*
X0412519Y0289999D01*
X0412375Y0290198D01*
X0412236Y0290400D01*
X0412102Y0290606D01*
X0411974Y0290815D01*
X0411850Y0291027D01*
X0411732Y0291242D01*
X0411619Y0291460D01*
X0411511Y0291680D01*
X0411409Y0291904D01*
X0411312Y0292129D01*
X0411221Y0292357D01*
X0411136Y0292587D01*
X0411056Y0292819D01*
X0410982Y0293053D01*
X0410913Y0293289D01*
X0410851Y0293526D01*
X0410794Y0293765D01*
X0410743Y0294005D01*
X0410698Y0294246D01*
X0410659Y0294489D01*
X0410626Y0294732D01*
X0410599Y0294976D01*
X0410578Y0295220D01*
X0410563Y0295465D01*
X0410554Y0295711D01*
X0410551Y0295956D01*
X0421591Y0233343D02*
X0421594Y0233588D01*
X0421603Y0233834D01*
X0421618Y0234079D01*
X0421639Y0234323D01*
X0421666Y0234567D01*
X0421699Y0234810D01*
X0421738Y0235053D01*
X0421783Y0235294D01*
X0421834Y0235534D01*
X0421891Y0235773D01*
X0421953Y0236010D01*
X0422022Y0236246D01*
X0422096Y0236480D01*
X0422176Y0236712D01*
X0422261Y0236942D01*
X0422352Y0237170D01*
X0422449Y0237395D01*
X0422551Y0237619D01*
X0422659Y0237839D01*
X0422772Y0238057D01*
X0422890Y0238272D01*
X0423014Y0238484D01*
X0423142Y0238693D01*
X0423276Y0238899D01*
X0423415Y0239101D01*
X0423559Y0239300D01*
X0423708Y0239495D01*
X0423861Y0239687D01*
X0424019Y0239875D01*
X0424181Y0240059D01*
X0424349Y0240238D01*
X0424520Y0240414D01*
X0424696Y0240585D01*
X0424875Y0240753D01*
X0425059Y0240915D01*
X0425247Y0241073D01*
X0425439Y0241226D01*
X0425634Y0241375D01*
X0425833Y0241519D01*
X0426035Y0241658D01*
X0426241Y0241792D01*
X0426450Y0241920D01*
X0426662Y0242044D01*
X0426877Y0242162D01*
X0427095Y0242275D01*
X0427315Y0242383D01*
X0427539Y0242485D01*
X0427764Y0242582D01*
X0427992Y0242673D01*
X0428222Y0242758D01*
X0428454Y0242838D01*
X0428688Y0242912D01*
X0428924Y0242981D01*
X0429161Y0243043D01*
X0429400Y0243100D01*
X0429640Y0243151D01*
X0429881Y0243196D01*
X0430124Y0243235D01*
X0430367Y0243268D01*
X0430611Y0243295D01*
X0430855Y0243316D01*
X0431100Y0243331D01*
X0431346Y0243340D01*
X0431591Y0243343D01*
X0431836Y0243340D01*
X0432082Y0243331D01*
X0432327Y0243316D01*
X0432571Y0243295D01*
X0432815Y0243268D01*
X0433058Y0243235D01*
X0433301Y0243196D01*
X0433542Y0243151D01*
X0433782Y0243100D01*
X0434021Y0243043D01*
X0434258Y0242981D01*
X0434494Y0242912D01*
X0434728Y0242838D01*
X0434960Y0242758D01*
X0435190Y0242673D01*
X0435418Y0242582D01*
X0435643Y0242485D01*
X0435867Y0242383D01*
X0436087Y0242275D01*
X0436305Y0242162D01*
X0436520Y0242044D01*
X0436732Y0241920D01*
X0436941Y0241792D01*
X0437147Y0241658D01*
X0437349Y0241519D01*
X0437548Y0241375D01*
X0437743Y0241226D01*
X0437935Y0241073D01*
X0438123Y0240915D01*
X0438307Y0240753D01*
X0438486Y0240585D01*
X0438662Y0240414D01*
X0438833Y0240238D01*
X0439001Y0240059D01*
X0439163Y0239875D01*
X0439321Y0239687D01*
X0439474Y0239495D01*
X0439623Y0239300D01*
X0439767Y0239101D01*
X0439906Y0238899D01*
X0440040Y0238693D01*
X0440168Y0238484D01*
X0440292Y0238272D01*
X0440410Y0238057D01*
X0440523Y0237839D01*
X0440631Y0237619D01*
X0440733Y0237395D01*
X0440830Y0237170D01*
X0440921Y0236942D01*
X0441006Y0236712D01*
X0441086Y0236480D01*
X0441160Y0236246D01*
X0441229Y0236010D01*
X0441291Y0235773D01*
X0441348Y0235534D01*
X0441399Y0235294D01*
X0441444Y0235053D01*
X0441483Y0234810D01*
X0441516Y0234567D01*
X0441543Y0234323D01*
X0441564Y0234079D01*
X0441579Y0233834D01*
X0441588Y0233588D01*
X0441591Y0233343D01*
X0441588Y0233098D01*
X0441579Y0232852D01*
X0441564Y0232607D01*
X0441543Y0232363D01*
X0441516Y0232119D01*
X0441483Y0231876D01*
X0441444Y0231633D01*
X0441399Y0231392D01*
X0441348Y0231152D01*
X0441291Y0230913D01*
X0441229Y0230676D01*
X0441160Y0230440D01*
X0441086Y0230206D01*
X0441006Y0229974D01*
X0440921Y0229744D01*
X0440830Y0229516D01*
X0440733Y0229291D01*
X0440631Y0229067D01*
X0440523Y0228847D01*
X0440410Y0228629D01*
X0440292Y0228414D01*
X0440168Y0228202D01*
X0440040Y0227993D01*
X0439906Y0227787D01*
X0439767Y0227585D01*
X0439623Y0227386D01*
X0439474Y0227191D01*
X0439321Y0226999D01*
X0439163Y0226811D01*
X0439001Y0226627D01*
X0438833Y0226448D01*
X0438662Y0226272D01*
X0438486Y0226101D01*
X0438307Y0225933D01*
X0438123Y0225771D01*
X0437935Y0225613D01*
X0437743Y0225460D01*
X0437548Y0225311D01*
X0437349Y0225167D01*
X0437147Y0225028D01*
X0436941Y0224894D01*
X0436732Y0224766D01*
X0436520Y0224642D01*
X0436305Y0224524D01*
X0436087Y0224411D01*
X0435867Y0224303D01*
X0435643Y0224201D01*
X0435418Y0224104D01*
X0435190Y0224013D01*
X0434960Y0223928D01*
X0434728Y0223848D01*
X0434494Y0223774D01*
X0434258Y0223705D01*
X0434021Y0223643D01*
X0433782Y0223586D01*
X0433542Y0223535D01*
X0433301Y0223490D01*
X0433058Y0223451D01*
X0432815Y0223418D01*
X0432571Y0223391D01*
X0432327Y0223370D01*
X0432082Y0223355D01*
X0431836Y0223346D01*
X0431591Y0223343D01*
X0431346Y0223346D01*
X0431100Y0223355D01*
X0430855Y0223370D01*
X0430611Y0223391D01*
X0430367Y0223418D01*
X0430124Y0223451D01*
X0429881Y0223490D01*
X0429640Y0223535D01*
X0429400Y0223586D01*
X0429161Y0223643D01*
X0428924Y0223705D01*
X0428688Y0223774D01*
X0428454Y0223848D01*
X0428222Y0223928D01*
X0427992Y0224013D01*
X0427764Y0224104D01*
X0427539Y0224201D01*
X0427315Y0224303D01*
X0427095Y0224411D01*
X0426877Y0224524D01*
X0426662Y0224642D01*
X0426450Y0224766D01*
X0426241Y0224894D01*
X0426035Y0225028D01*
X0425833Y0225167D01*
X0425634Y0225311D01*
X0425439Y0225460D01*
X0425247Y0225613D01*
X0425059Y0225771D01*
X0424875Y0225933D01*
X0424696Y0226101D01*
X0424520Y0226272D01*
X0424349Y0226448D01*
X0424181Y0226627D01*
X0424019Y0226811D01*
X0423861Y0226999D01*
X0423708Y0227191D01*
X0423559Y0227386D01*
X0423415Y0227585D01*
X0423276Y0227787D01*
X0423142Y0227993D01*
X0423014Y0228202D01*
X0422890Y0228414D01*
X0422772Y0228629D01*
X0422659Y0228847D01*
X0422551Y0229067D01*
X0422449Y0229291D01*
X0422352Y0229516D01*
X0422261Y0229744D01*
X0422176Y0229974D01*
X0422096Y0230206D01*
X0422022Y0230440D01*
X0421953Y0230676D01*
X0421891Y0230913D01*
X0421834Y0231152D01*
X0421783Y0231392D01*
X0421738Y0231633D01*
X0421699Y0231876D01*
X0421666Y0232119D01*
X0421639Y0232363D01*
X0421618Y0232607D01*
X0421603Y0232852D01*
X0421594Y0233098D01*
X0421591Y0233343D01*
X0454032Y0233343D02*
X0454032Y0076650D01*
X0043009Y0076650D01*
X0201776Y0172539D02*
X0201776Y0305583D01*
X0295658Y0305583D01*
X0295658Y0172539D01*
X0201776Y0172539D01*
X0250426Y0148642D02*
X0250426Y0147142D01*
X0250926Y0146642D01*
X0250926Y0132642D01*
X0250426Y0132142D01*
X0250426Y0130642D01*
X0250428Y0130582D01*
X0250433Y0130521D01*
X0250442Y0130462D01*
X0250455Y0130403D01*
X0250471Y0130344D01*
X0250491Y0130287D01*
X0250514Y0130232D01*
X0250541Y0130177D01*
X0250570Y0130125D01*
X0250603Y0130074D01*
X0250639Y0130025D01*
X0250677Y0129979D01*
X0250719Y0129935D01*
X0250763Y0129893D01*
X0250809Y0129855D01*
X0250858Y0129819D01*
X0250909Y0129786D01*
X0250961Y0129757D01*
X0251016Y0129730D01*
X0251071Y0129707D01*
X0251128Y0129687D01*
X0251187Y0129671D01*
X0251246Y0129658D01*
X0251305Y0129649D01*
X0251366Y0129644D01*
X0251426Y0129642D01*
X0257426Y0129642D01*
X0257486Y0129644D01*
X0257547Y0129649D01*
X0257606Y0129658D01*
X0257665Y0129671D01*
X0257724Y0129687D01*
X0257781Y0129707D01*
X0257836Y0129730D01*
X0257891Y0129757D01*
X0257943Y0129786D01*
X0257994Y0129819D01*
X0258043Y0129855D01*
X0258089Y0129893D01*
X0258133Y0129935D01*
X0258175Y0129979D01*
X0258213Y0130025D01*
X0258249Y0130074D01*
X0258282Y0130125D01*
X0258311Y0130177D01*
X0258338Y0130232D01*
X0258361Y0130287D01*
X0258381Y0130344D01*
X0258397Y0130403D01*
X0258410Y0130462D01*
X0258419Y0130521D01*
X0258424Y0130582D01*
X0258426Y0130642D01*
X0258426Y0132142D01*
X0257926Y0132642D01*
X0257926Y0146642D01*
X0258426Y0147142D01*
X0258426Y0148642D01*
X0258424Y0148702D01*
X0258419Y0148763D01*
X0258410Y0148822D01*
X0258397Y0148881D01*
X0258381Y0148940D01*
X0258361Y0148997D01*
X0258338Y0149052D01*
X0258311Y0149107D01*
X0258282Y0149159D01*
X0258249Y0149210D01*
X0258213Y0149259D01*
X0258175Y0149305D01*
X0258133Y0149349D01*
X0258089Y0149391D01*
X0258043Y0149429D01*
X0257994Y0149465D01*
X0257943Y0149498D01*
X0257891Y0149527D01*
X0257836Y0149554D01*
X0257781Y0149577D01*
X0257724Y0149597D01*
X0257665Y0149613D01*
X0257606Y0149626D01*
X0257547Y0149635D01*
X0257486Y0149640D01*
X0257426Y0149642D01*
X0251426Y0149642D01*
X0251366Y0149640D01*
X0251305Y0149635D01*
X0251246Y0149626D01*
X0251187Y0149613D01*
X0251128Y0149597D01*
X0251071Y0149577D01*
X0251016Y0149554D01*
X0250961Y0149527D01*
X0250909Y0149498D01*
X0250858Y0149465D01*
X0250809Y0149429D01*
X0250763Y0149391D01*
X0250719Y0149349D01*
X0250677Y0149305D01*
X0250639Y0149259D01*
X0250603Y0149210D01*
X0250570Y0149159D01*
X0250541Y0149107D01*
X0250514Y0149052D01*
X0250491Y0148997D01*
X0250471Y0148940D01*
X0250455Y0148881D01*
X0250442Y0148822D01*
X0250433Y0148763D01*
X0250428Y0148702D01*
X0250426Y0148642D01*
X0266961Y0148717D02*
X0266961Y0150217D01*
X0266963Y0150277D01*
X0266968Y0150338D01*
X0266977Y0150397D01*
X0266990Y0150456D01*
X0267006Y0150515D01*
X0267026Y0150572D01*
X0267049Y0150627D01*
X0267076Y0150682D01*
X0267105Y0150734D01*
X0267138Y0150785D01*
X0267174Y0150834D01*
X0267212Y0150880D01*
X0267254Y0150924D01*
X0267298Y0150966D01*
X0267344Y0151004D01*
X0267393Y0151040D01*
X0267444Y0151073D01*
X0267496Y0151102D01*
X0267551Y0151129D01*
X0267606Y0151152D01*
X0267663Y0151172D01*
X0267722Y0151188D01*
X0267781Y0151201D01*
X0267840Y0151210D01*
X0267901Y0151215D01*
X0267961Y0151217D01*
X0273961Y0151217D01*
X0274021Y0151215D01*
X0274082Y0151210D01*
X0274141Y0151201D01*
X0274200Y0151188D01*
X0274259Y0151172D01*
X0274316Y0151152D01*
X0274371Y0151129D01*
X0274426Y0151102D01*
X0274478Y0151073D01*
X0274529Y0151040D01*
X0274578Y0151004D01*
X0274624Y0150966D01*
X0274668Y0150924D01*
X0274710Y0150880D01*
X0274748Y0150834D01*
X0274784Y0150785D01*
X0274817Y0150734D01*
X0274846Y0150682D01*
X0274873Y0150627D01*
X0274896Y0150572D01*
X0274916Y0150515D01*
X0274932Y0150456D01*
X0274945Y0150397D01*
X0274954Y0150338D01*
X0274959Y0150277D01*
X0274961Y0150217D01*
X0274961Y0148717D01*
X0274461Y0148217D01*
X0274461Y0134217D01*
X0274961Y0133717D01*
X0274961Y0132217D01*
X0274959Y0132157D01*
X0274954Y0132096D01*
X0274945Y0132037D01*
X0274932Y0131978D01*
X0274916Y0131919D01*
X0274896Y0131862D01*
X0274873Y0131807D01*
X0274846Y0131752D01*
X0274817Y0131700D01*
X0274784Y0131649D01*
X0274748Y0131600D01*
X0274710Y0131554D01*
X0274668Y0131510D01*
X0274624Y0131468D01*
X0274578Y0131430D01*
X0274529Y0131394D01*
X0274478Y0131361D01*
X0274426Y0131332D01*
X0274371Y0131305D01*
X0274316Y0131282D01*
X0274259Y0131262D01*
X0274200Y0131246D01*
X0274141Y0131233D01*
X0274082Y0131224D01*
X0274021Y0131219D01*
X0273961Y0131217D01*
X0267961Y0131217D01*
X0267901Y0131219D01*
X0267840Y0131224D01*
X0267781Y0131233D01*
X0267722Y0131246D01*
X0267663Y0131262D01*
X0267606Y0131282D01*
X0267551Y0131305D01*
X0267496Y0131332D01*
X0267444Y0131361D01*
X0267393Y0131394D01*
X0267344Y0131430D01*
X0267298Y0131468D01*
X0267254Y0131510D01*
X0267212Y0131554D01*
X0267174Y0131600D01*
X0267138Y0131649D01*
X0267105Y0131700D01*
X0267076Y0131752D01*
X0267049Y0131807D01*
X0267026Y0131862D01*
X0267006Y0131919D01*
X0266990Y0131978D01*
X0266977Y0132037D01*
X0266968Y0132096D01*
X0266963Y0132157D01*
X0266961Y0132217D01*
X0266961Y0133717D01*
X0267461Y0134217D01*
X0267461Y0148217D01*
X0266961Y0148717D01*
X0283103Y0148717D02*
X0283103Y0150217D01*
X0283105Y0150277D01*
X0283110Y0150338D01*
X0283119Y0150397D01*
X0283132Y0150456D01*
X0283148Y0150515D01*
X0283168Y0150572D01*
X0283191Y0150627D01*
X0283218Y0150682D01*
X0283247Y0150734D01*
X0283280Y0150785D01*
X0283316Y0150834D01*
X0283354Y0150880D01*
X0283396Y0150924D01*
X0283440Y0150966D01*
X0283486Y0151004D01*
X0283535Y0151040D01*
X0283586Y0151073D01*
X0283638Y0151102D01*
X0283693Y0151129D01*
X0283748Y0151152D01*
X0283805Y0151172D01*
X0283864Y0151188D01*
X0283923Y0151201D01*
X0283982Y0151210D01*
X0284043Y0151215D01*
X0284103Y0151217D01*
X0290103Y0151217D01*
X0290163Y0151215D01*
X0290224Y0151210D01*
X0290283Y0151201D01*
X0290342Y0151188D01*
X0290401Y0151172D01*
X0290458Y0151152D01*
X0290513Y0151129D01*
X0290568Y0151102D01*
X0290620Y0151073D01*
X0290671Y0151040D01*
X0290720Y0151004D01*
X0290766Y0150966D01*
X0290810Y0150924D01*
X0290852Y0150880D01*
X0290890Y0150834D01*
X0290926Y0150785D01*
X0290959Y0150734D01*
X0290988Y0150682D01*
X0291015Y0150627D01*
X0291038Y0150572D01*
X0291058Y0150515D01*
X0291074Y0150456D01*
X0291087Y0150397D01*
X0291096Y0150338D01*
X0291101Y0150277D01*
X0291103Y0150217D01*
X0291103Y0148717D01*
X0290603Y0148217D01*
X0290603Y0134217D01*
X0291103Y0133717D01*
X0291103Y0132217D01*
X0291101Y0132157D01*
X0291096Y0132096D01*
X0291087Y0132037D01*
X0291074Y0131978D01*
X0291058Y0131919D01*
X0291038Y0131862D01*
X0291015Y0131807D01*
X0290988Y0131752D01*
X0290959Y0131700D01*
X0290926Y0131649D01*
X0290890Y0131600D01*
X0290852Y0131554D01*
X0290810Y0131510D01*
X0290766Y0131468D01*
X0290720Y0131430D01*
X0290671Y0131394D01*
X0290620Y0131361D01*
X0290568Y0131332D01*
X0290513Y0131305D01*
X0290458Y0131282D01*
X0290401Y0131262D01*
X0290342Y0131246D01*
X0290283Y0131233D01*
X0290224Y0131224D01*
X0290163Y0131219D01*
X0290103Y0131217D01*
X0284103Y0131217D01*
X0284043Y0131219D01*
X0283982Y0131224D01*
X0283923Y0131233D01*
X0283864Y0131246D01*
X0283805Y0131262D01*
X0283748Y0131282D01*
X0283693Y0131305D01*
X0283638Y0131332D01*
X0283586Y0131361D01*
X0283535Y0131394D01*
X0283486Y0131430D01*
X0283440Y0131468D01*
X0283396Y0131510D01*
X0283354Y0131554D01*
X0283316Y0131600D01*
X0283280Y0131649D01*
X0283247Y0131700D01*
X0283218Y0131752D01*
X0283191Y0131807D01*
X0283168Y0131862D01*
X0283148Y0131919D01*
X0283132Y0131978D01*
X0283119Y0132037D01*
X0283110Y0132096D01*
X0283105Y0132157D01*
X0283103Y0132217D01*
X0283103Y0133717D01*
X0283603Y0134217D01*
X0283603Y0148217D01*
X0283103Y0148717D01*
X0296883Y0149504D02*
X0296883Y0151004D01*
X0296885Y0151064D01*
X0296890Y0151125D01*
X0296899Y0151184D01*
X0296912Y0151243D01*
X0296928Y0151302D01*
X0296948Y0151359D01*
X0296971Y0151414D01*
X0296998Y0151469D01*
X0297027Y0151521D01*
X0297060Y0151572D01*
X0297096Y0151621D01*
X0297134Y0151667D01*
X0297176Y0151711D01*
X0297220Y0151753D01*
X0297266Y0151791D01*
X0297315Y0151827D01*
X0297366Y0151860D01*
X0297418Y0151889D01*
X0297473Y0151916D01*
X0297528Y0151939D01*
X0297585Y0151959D01*
X0297644Y0151975D01*
X0297703Y0151988D01*
X0297762Y0151997D01*
X0297823Y0152002D01*
X0297883Y0152004D01*
X0303883Y0152004D01*
X0303943Y0152002D01*
X0304004Y0151997D01*
X0304063Y0151988D01*
X0304122Y0151975D01*
X0304181Y0151959D01*
X0304238Y0151939D01*
X0304293Y0151916D01*
X0304348Y0151889D01*
X0304400Y0151860D01*
X0304451Y0151827D01*
X0304500Y0151791D01*
X0304546Y0151753D01*
X0304590Y0151711D01*
X0304632Y0151667D01*
X0304670Y0151621D01*
X0304706Y0151572D01*
X0304739Y0151521D01*
X0304768Y0151469D01*
X0304795Y0151414D01*
X0304818Y0151359D01*
X0304838Y0151302D01*
X0304854Y0151243D01*
X0304867Y0151184D01*
X0304876Y0151125D01*
X0304881Y0151064D01*
X0304883Y0151004D01*
X0304883Y0149504D01*
X0304383Y0149004D01*
X0304383Y0135004D01*
X0304883Y0134504D01*
X0304883Y0133004D01*
X0304881Y0132944D01*
X0304876Y0132883D01*
X0304867Y0132824D01*
X0304854Y0132765D01*
X0304838Y0132706D01*
X0304818Y0132649D01*
X0304795Y0132594D01*
X0304768Y0132539D01*
X0304739Y0132487D01*
X0304706Y0132436D01*
X0304670Y0132387D01*
X0304632Y0132341D01*
X0304590Y0132297D01*
X0304546Y0132255D01*
X0304500Y0132217D01*
X0304451Y0132181D01*
X0304400Y0132148D01*
X0304348Y0132119D01*
X0304293Y0132092D01*
X0304238Y0132069D01*
X0304181Y0132049D01*
X0304122Y0132033D01*
X0304063Y0132020D01*
X0304004Y0132011D01*
X0303943Y0132006D01*
X0303883Y0132004D01*
X0297883Y0132004D01*
X0297823Y0132006D01*
X0297762Y0132011D01*
X0297703Y0132020D01*
X0297644Y0132033D01*
X0297585Y0132049D01*
X0297528Y0132069D01*
X0297473Y0132092D01*
X0297418Y0132119D01*
X0297366Y0132148D01*
X0297315Y0132181D01*
X0297266Y0132217D01*
X0297220Y0132255D01*
X0297176Y0132297D01*
X0297134Y0132341D01*
X0297096Y0132387D01*
X0297060Y0132436D01*
X0297027Y0132487D01*
X0296998Y0132539D01*
X0296971Y0132594D01*
X0296948Y0132649D01*
X0296928Y0132706D01*
X0296912Y0132765D01*
X0296899Y0132824D01*
X0296890Y0132883D01*
X0296885Y0132944D01*
X0296883Y0133004D01*
X0296883Y0134504D01*
X0297383Y0135004D01*
X0297383Y0149004D01*
X0296883Y0149504D01*
X0311450Y0149110D02*
X0311450Y0150610D01*
X0311452Y0150670D01*
X0311457Y0150731D01*
X0311466Y0150790D01*
X0311479Y0150849D01*
X0311495Y0150908D01*
X0311515Y0150965D01*
X0311538Y0151020D01*
X0311565Y0151075D01*
X0311594Y0151127D01*
X0311627Y0151178D01*
X0311663Y0151227D01*
X0311701Y0151273D01*
X0311743Y0151317D01*
X0311787Y0151359D01*
X0311833Y0151397D01*
X0311882Y0151433D01*
X0311933Y0151466D01*
X0311985Y0151495D01*
X0312040Y0151522D01*
X0312095Y0151545D01*
X0312152Y0151565D01*
X0312211Y0151581D01*
X0312270Y0151594D01*
X0312329Y0151603D01*
X0312390Y0151608D01*
X0312450Y0151610D01*
X0318450Y0151610D01*
X0318510Y0151608D01*
X0318571Y0151603D01*
X0318630Y0151594D01*
X0318689Y0151581D01*
X0318748Y0151565D01*
X0318805Y0151545D01*
X0318860Y0151522D01*
X0318915Y0151495D01*
X0318967Y0151466D01*
X0319018Y0151433D01*
X0319067Y0151397D01*
X0319113Y0151359D01*
X0319157Y0151317D01*
X0319199Y0151273D01*
X0319237Y0151227D01*
X0319273Y0151178D01*
X0319306Y0151127D01*
X0319335Y0151075D01*
X0319362Y0151020D01*
X0319385Y0150965D01*
X0319405Y0150908D01*
X0319421Y0150849D01*
X0319434Y0150790D01*
X0319443Y0150731D01*
X0319448Y0150670D01*
X0319450Y0150610D01*
X0319450Y0149110D01*
X0318950Y0148610D01*
X0318950Y0134610D01*
X0319450Y0134110D01*
X0319450Y0132610D01*
X0319448Y0132550D01*
X0319443Y0132489D01*
X0319434Y0132430D01*
X0319421Y0132371D01*
X0319405Y0132312D01*
X0319385Y0132255D01*
X0319362Y0132200D01*
X0319335Y0132145D01*
X0319306Y0132093D01*
X0319273Y0132042D01*
X0319237Y0131993D01*
X0319199Y0131947D01*
X0319157Y0131903D01*
X0319113Y0131861D01*
X0319067Y0131823D01*
X0319018Y0131787D01*
X0318967Y0131754D01*
X0318915Y0131725D01*
X0318860Y0131698D01*
X0318805Y0131675D01*
X0318748Y0131655D01*
X0318689Y0131639D01*
X0318630Y0131626D01*
X0318571Y0131617D01*
X0318510Y0131612D01*
X0318450Y0131610D01*
X0312450Y0131610D01*
X0312390Y0131612D01*
X0312329Y0131617D01*
X0312270Y0131626D01*
X0312211Y0131639D01*
X0312152Y0131655D01*
X0312095Y0131675D01*
X0312040Y0131698D01*
X0311985Y0131725D01*
X0311933Y0131754D01*
X0311882Y0131787D01*
X0311833Y0131823D01*
X0311787Y0131861D01*
X0311743Y0131903D01*
X0311701Y0131947D01*
X0311663Y0131993D01*
X0311627Y0132042D01*
X0311594Y0132093D01*
X0311565Y0132145D01*
X0311538Y0132200D01*
X0311515Y0132255D01*
X0311495Y0132312D01*
X0311479Y0132371D01*
X0311466Y0132430D01*
X0311457Y0132489D01*
X0311452Y0132550D01*
X0311450Y0132610D01*
X0311450Y0134110D01*
X0311950Y0134610D01*
X0311950Y0148610D01*
X0311450Y0149110D01*
X0328379Y0149110D02*
X0328379Y0150610D01*
X0328381Y0150670D01*
X0328386Y0150731D01*
X0328395Y0150790D01*
X0328408Y0150849D01*
X0328424Y0150908D01*
X0328444Y0150965D01*
X0328467Y0151020D01*
X0328494Y0151075D01*
X0328523Y0151127D01*
X0328556Y0151178D01*
X0328592Y0151227D01*
X0328630Y0151273D01*
X0328672Y0151317D01*
X0328716Y0151359D01*
X0328762Y0151397D01*
X0328811Y0151433D01*
X0328862Y0151466D01*
X0328914Y0151495D01*
X0328969Y0151522D01*
X0329024Y0151545D01*
X0329081Y0151565D01*
X0329140Y0151581D01*
X0329199Y0151594D01*
X0329258Y0151603D01*
X0329319Y0151608D01*
X0329379Y0151610D01*
X0335379Y0151610D01*
X0335439Y0151608D01*
X0335500Y0151603D01*
X0335559Y0151594D01*
X0335618Y0151581D01*
X0335677Y0151565D01*
X0335734Y0151545D01*
X0335789Y0151522D01*
X0335844Y0151495D01*
X0335896Y0151466D01*
X0335947Y0151433D01*
X0335996Y0151397D01*
X0336042Y0151359D01*
X0336086Y0151317D01*
X0336128Y0151273D01*
X0336166Y0151227D01*
X0336202Y0151178D01*
X0336235Y0151127D01*
X0336264Y0151075D01*
X0336291Y0151020D01*
X0336314Y0150965D01*
X0336334Y0150908D01*
X0336350Y0150849D01*
X0336363Y0150790D01*
X0336372Y0150731D01*
X0336377Y0150670D01*
X0336379Y0150610D01*
X0336379Y0149110D01*
X0335879Y0148610D01*
X0335879Y0134610D01*
X0336379Y0134110D01*
X0336379Y0132610D01*
X0336377Y0132550D01*
X0336372Y0132489D01*
X0336363Y0132430D01*
X0336350Y0132371D01*
X0336334Y0132312D01*
X0336314Y0132255D01*
X0336291Y0132200D01*
X0336264Y0132145D01*
X0336235Y0132093D01*
X0336202Y0132042D01*
X0336166Y0131993D01*
X0336128Y0131947D01*
X0336086Y0131903D01*
X0336042Y0131861D01*
X0335996Y0131823D01*
X0335947Y0131787D01*
X0335896Y0131754D01*
X0335844Y0131725D01*
X0335789Y0131698D01*
X0335734Y0131675D01*
X0335677Y0131655D01*
X0335618Y0131639D01*
X0335559Y0131626D01*
X0335500Y0131617D01*
X0335439Y0131612D01*
X0335379Y0131610D01*
X0329379Y0131610D01*
X0329319Y0131612D01*
X0329258Y0131617D01*
X0329199Y0131626D01*
X0329140Y0131639D01*
X0329081Y0131655D01*
X0329024Y0131675D01*
X0328969Y0131698D01*
X0328914Y0131725D01*
X0328862Y0131754D01*
X0328811Y0131787D01*
X0328762Y0131823D01*
X0328716Y0131861D01*
X0328672Y0131903D01*
X0328630Y0131947D01*
X0328592Y0131993D01*
X0328556Y0132042D01*
X0328523Y0132093D01*
X0328494Y0132145D01*
X0328467Y0132200D01*
X0328444Y0132255D01*
X0328424Y0132312D01*
X0328408Y0132371D01*
X0328395Y0132430D01*
X0328386Y0132489D01*
X0328381Y0132550D01*
X0328379Y0132610D01*
X0328379Y0134110D01*
X0328879Y0134610D01*
X0328879Y0148610D01*
X0328379Y0149110D01*
X0344127Y0149898D02*
X0344627Y0149398D01*
X0344627Y0135398D01*
X0344127Y0134898D01*
X0344127Y0133398D01*
X0344129Y0133338D01*
X0344134Y0133277D01*
X0344143Y0133218D01*
X0344156Y0133159D01*
X0344172Y0133100D01*
X0344192Y0133043D01*
X0344215Y0132988D01*
X0344242Y0132933D01*
X0344271Y0132881D01*
X0344304Y0132830D01*
X0344340Y0132781D01*
X0344378Y0132735D01*
X0344420Y0132691D01*
X0344464Y0132649D01*
X0344510Y0132611D01*
X0344559Y0132575D01*
X0344610Y0132542D01*
X0344662Y0132513D01*
X0344717Y0132486D01*
X0344772Y0132463D01*
X0344829Y0132443D01*
X0344888Y0132427D01*
X0344947Y0132414D01*
X0345006Y0132405D01*
X0345067Y0132400D01*
X0345127Y0132398D01*
X0351127Y0132398D01*
X0351187Y0132400D01*
X0351248Y0132405D01*
X0351307Y0132414D01*
X0351366Y0132427D01*
X0351425Y0132443D01*
X0351482Y0132463D01*
X0351537Y0132486D01*
X0351592Y0132513D01*
X0351644Y0132542D01*
X0351695Y0132575D01*
X0351744Y0132611D01*
X0351790Y0132649D01*
X0351834Y0132691D01*
X0351876Y0132735D01*
X0351914Y0132781D01*
X0351950Y0132830D01*
X0351983Y0132881D01*
X0352012Y0132933D01*
X0352039Y0132988D01*
X0352062Y0133043D01*
X0352082Y0133100D01*
X0352098Y0133159D01*
X0352111Y0133218D01*
X0352120Y0133277D01*
X0352125Y0133338D01*
X0352127Y0133398D01*
X0352127Y0134898D01*
X0351627Y0135398D01*
X0351627Y0149398D01*
X0352127Y0149898D01*
X0352127Y0151398D01*
X0352125Y0151458D01*
X0352120Y0151519D01*
X0352111Y0151578D01*
X0352098Y0151637D01*
X0352082Y0151696D01*
X0352062Y0151753D01*
X0352039Y0151808D01*
X0352012Y0151863D01*
X0351983Y0151915D01*
X0351950Y0151966D01*
X0351914Y0152015D01*
X0351876Y0152061D01*
X0351834Y0152105D01*
X0351790Y0152147D01*
X0351744Y0152185D01*
X0351695Y0152221D01*
X0351644Y0152254D01*
X0351592Y0152283D01*
X0351537Y0152310D01*
X0351482Y0152333D01*
X0351425Y0152353D01*
X0351366Y0152369D01*
X0351307Y0152382D01*
X0351248Y0152391D01*
X0351187Y0152396D01*
X0351127Y0152398D01*
X0345127Y0152398D01*
X0345067Y0152396D01*
X0345006Y0152391D01*
X0344947Y0152382D01*
X0344888Y0152369D01*
X0344829Y0152353D01*
X0344772Y0152333D01*
X0344717Y0152310D01*
X0344662Y0152283D01*
X0344610Y0152254D01*
X0344559Y0152221D01*
X0344510Y0152185D01*
X0344464Y0152147D01*
X0344420Y0152105D01*
X0344378Y0152061D01*
X0344340Y0152015D01*
X0344304Y0151966D01*
X0344271Y0151915D01*
X0344242Y0151863D01*
X0344215Y0151808D01*
X0344192Y0151753D01*
X0344172Y0151696D01*
X0344156Y0151637D01*
X0344143Y0151578D01*
X0344134Y0151519D01*
X0344129Y0151458D01*
X0344127Y0151398D01*
X0344127Y0149898D01*
X0366737Y0140193D02*
X0366737Y0130193D01*
X0366739Y0130133D01*
X0366744Y0130072D01*
X0366753Y0130013D01*
X0366766Y0129954D01*
X0366782Y0129895D01*
X0366802Y0129838D01*
X0366825Y0129783D01*
X0366852Y0129728D01*
X0366881Y0129676D01*
X0366914Y0129625D01*
X0366950Y0129576D01*
X0366988Y0129530D01*
X0367030Y0129486D01*
X0367074Y0129444D01*
X0367120Y0129406D01*
X0367169Y0129370D01*
X0367220Y0129337D01*
X0367272Y0129308D01*
X0367327Y0129281D01*
X0367382Y0129258D01*
X0367439Y0129238D01*
X0367498Y0129222D01*
X0367557Y0129209D01*
X0367616Y0129200D01*
X0367677Y0129195D01*
X0367737Y0129193D01*
X0384737Y0129193D01*
X0384797Y0129195D01*
X0384858Y0129200D01*
X0384917Y0129209D01*
X0384976Y0129222D01*
X0385035Y0129238D01*
X0385092Y0129258D01*
X0385147Y0129281D01*
X0385202Y0129308D01*
X0385254Y0129337D01*
X0385305Y0129370D01*
X0385354Y0129406D01*
X0385400Y0129444D01*
X0385444Y0129486D01*
X0385486Y0129530D01*
X0385524Y0129576D01*
X0385560Y0129625D01*
X0385593Y0129676D01*
X0385622Y0129728D01*
X0385649Y0129783D01*
X0385672Y0129838D01*
X0385692Y0129895D01*
X0385708Y0129954D01*
X0385721Y0130013D01*
X0385730Y0130072D01*
X0385735Y0130133D01*
X0385737Y0130193D01*
X0385737Y0140193D01*
X0385735Y0140253D01*
X0385730Y0140314D01*
X0385721Y0140373D01*
X0385708Y0140432D01*
X0385692Y0140491D01*
X0385672Y0140548D01*
X0385649Y0140603D01*
X0385622Y0140658D01*
X0385593Y0140710D01*
X0385560Y0140761D01*
X0385524Y0140810D01*
X0385486Y0140856D01*
X0385444Y0140900D01*
X0385400Y0140942D01*
X0385354Y0140980D01*
X0385305Y0141016D01*
X0385254Y0141049D01*
X0385202Y0141078D01*
X0385147Y0141105D01*
X0385092Y0141128D01*
X0385035Y0141148D01*
X0384976Y0141164D01*
X0384917Y0141177D01*
X0384858Y0141186D01*
X0384797Y0141191D01*
X0384737Y0141193D01*
X0367737Y0141193D01*
X0367677Y0141191D01*
X0367616Y0141186D01*
X0367557Y0141177D01*
X0367498Y0141164D01*
X0367439Y0141148D01*
X0367382Y0141128D01*
X0367327Y0141105D01*
X0367272Y0141078D01*
X0367220Y0141049D01*
X0367169Y0141016D01*
X0367120Y0140980D01*
X0367074Y0140942D01*
X0367030Y0140900D01*
X0366988Y0140856D01*
X0366950Y0140810D01*
X0366914Y0140761D01*
X0366881Y0140710D01*
X0366852Y0140658D01*
X0366825Y0140603D01*
X0366802Y0140548D01*
X0366782Y0140491D01*
X0366766Y0140432D01*
X0366753Y0140373D01*
X0366744Y0140314D01*
X0366739Y0140253D01*
X0366737Y0140193D01*
X0374737Y0135193D02*
X0375237Y0135193D01*
X0377237Y0135193D02*
X0377737Y0135193D01*
X0454033Y0233343D02*
X0453972Y0238347D01*
X0453789Y0243349D01*
X0453485Y0248344D01*
X0453059Y0253331D01*
X0452511Y0258306D01*
X0451843Y0263266D01*
X0451054Y0268208D01*
X0450145Y0273130D01*
X0449116Y0278028D01*
X0447969Y0282899D01*
X0446703Y0287741D01*
X0445319Y0292551D01*
X0443819Y0297326D01*
X0442203Y0302062D01*
X0440473Y0306758D01*
X0438628Y0311411D01*
X0436670Y0316017D01*
X0434601Y0320574D01*
X0432422Y0325079D01*
X0430134Y0329530D01*
X0427738Y0333924D01*
X0425235Y0338259D01*
X0422628Y0342531D01*
X0419918Y0346738D01*
X0417105Y0350878D01*
X0414193Y0354948D01*
X0411183Y0358947D01*
X0408076Y0362870D01*
X0404875Y0366717D01*
X0401581Y0370485D01*
X0398196Y0374172D01*
X0394722Y0377774D01*
X0391162Y0381292D01*
X0387517Y0384721D01*
X0383789Y0388061D01*
X0379981Y0391309D01*
X0376096Y0394464D01*
X0372135Y0397522D01*
X0368100Y0400484D01*
X0363994Y0403346D01*
X0359820Y0406108D01*
X0355580Y0408767D01*
X0351277Y0411322D01*
X0346913Y0413771D01*
X0342490Y0416113D01*
X0338011Y0418348D01*
X0333480Y0420472D01*
X0328898Y0422485D01*
X0324268Y0424386D01*
X0319594Y0426174D01*
X0314877Y0427848D01*
X0310121Y0429406D01*
X0305328Y0430848D01*
X0300502Y0432173D01*
X0295645Y0433379D01*
X0290760Y0434468D01*
X0285850Y0435436D01*
X0280917Y0436286D01*
X0275966Y0437014D01*
X0270998Y0437622D01*
X0266017Y0438109D01*
X0261026Y0438474D01*
X0256027Y0438718D01*
X0251023Y0438840D01*
X0246019Y0438840D01*
X0241015Y0438718D01*
X0236016Y0438474D01*
X0231025Y0438109D01*
X0226044Y0437622D01*
X0221076Y0437014D01*
X0216125Y0436286D01*
X0211192Y0435436D01*
X0206282Y0434468D01*
X0201397Y0433379D01*
X0196540Y0432173D01*
X0191714Y0430848D01*
X0186921Y0429406D01*
X0182165Y0427848D01*
X0177448Y0426174D01*
X0172774Y0424386D01*
X0168144Y0422485D01*
X0163562Y0420472D01*
X0159031Y0418348D01*
X0154552Y0416113D01*
X0150129Y0413771D01*
X0145765Y0411322D01*
X0141462Y0408767D01*
X0137222Y0406108D01*
X0133048Y0403346D01*
X0128942Y0400484D01*
X0124907Y0397522D01*
X0120946Y0394464D01*
X0117061Y0391309D01*
X0113253Y0388061D01*
X0109525Y0384721D01*
X0105880Y0381292D01*
X0102320Y0377774D01*
X0098846Y0374172D01*
X0095461Y0370485D01*
X0092167Y0366717D01*
X0088966Y0362870D01*
X0085859Y0358947D01*
X0082849Y0354948D01*
X0079937Y0350878D01*
X0077124Y0346738D01*
X0074414Y0342531D01*
X0071807Y0338259D01*
X0069304Y0333924D01*
X0066908Y0329530D01*
X0064620Y0325079D01*
X0062441Y0320574D01*
X0060372Y0316017D01*
X0058414Y0311411D01*
X0056569Y0306758D01*
X0054839Y0302062D01*
X0053223Y0297326D01*
X0051723Y0292551D01*
X0050339Y0287741D01*
X0049073Y0282899D01*
X0047926Y0278028D01*
X0046897Y0273130D01*
X0045988Y0268208D01*
X0045199Y0263266D01*
X0044531Y0258306D01*
X0043983Y0253331D01*
X0043557Y0248344D01*
X0043253Y0243349D01*
X0043070Y0238347D01*
X0043009Y0233343D01*
D12*
X0075450Y0225843D02*
X0075450Y0240843D01*
X0086490Y0288456D02*
X0086490Y0303456D01*
X0118280Y0343518D02*
X0118280Y0358518D01*
X0149485Y0381887D02*
X0164485Y0381887D01*
X0209231Y0403632D02*
X0224231Y0403632D01*
X0272810Y0403632D02*
X0287810Y0403632D01*
X0332556Y0381887D02*
X0347556Y0381887D01*
X0378761Y0358518D02*
X0378761Y0343518D01*
X0410551Y0303456D02*
X0410551Y0288456D01*
X0421591Y0240843D02*
X0421591Y0225843D01*
X0393284Y0121571D02*
X0386198Y0121571D01*
X0386198Y0112024D01*
X0370469Y0112024D01*
X0370469Y0121571D01*
X0363383Y0121571D01*
X0363383Y0083087D01*
X0393284Y0083087D01*
X0393284Y0121571D01*
X0386198Y0121571D02*
X0370469Y0121571D01*
X0355332Y0121689D02*
X0355332Y0083205D01*
X0247477Y0083205D01*
X0247477Y0121689D01*
X0254564Y0121689D01*
X0254564Y0112142D01*
X0348245Y0112142D01*
X0348245Y0121689D01*
X0254564Y0121689D01*
X0348245Y0121689D02*
X0355332Y0121689D01*
D13*
X0375237Y0132193D02*
X0375237Y0135193D01*
X0375237Y0138193D01*
X0377237Y0138193D02*
X0377237Y0135193D01*
X0377237Y0132193D01*
X0421591Y0225843D02*
X0421778Y0225600D01*
X0421970Y0225362D01*
X0422169Y0225129D01*
X0422373Y0224901D01*
X0422582Y0224678D01*
X0422797Y0224460D01*
X0423017Y0224247D01*
X0423242Y0224040D01*
X0423473Y0223838D01*
X0423708Y0223642D01*
X0423948Y0223452D01*
X0424192Y0223268D01*
X0424441Y0223090D01*
X0424695Y0222918D01*
X0424952Y0222752D01*
X0425213Y0222592D01*
X0425478Y0222439D01*
X0425747Y0222293D01*
X0426020Y0222153D01*
X0426295Y0222020D01*
X0426574Y0221894D01*
X0426856Y0221774D01*
X0427141Y0221662D01*
X0427428Y0221557D01*
X0427718Y0221458D01*
X0428010Y0221367D01*
X0428305Y0221283D01*
X0428601Y0221206D01*
X0428899Y0221136D01*
X0429199Y0221074D01*
X0429500Y0221019D01*
X0429802Y0220972D01*
X0430106Y0220932D01*
X0430410Y0220899D01*
X0430715Y0220874D01*
X0431021Y0220856D01*
X0431327Y0220846D01*
X0431633Y0220843D01*
X0431939Y0220848D01*
X0432245Y0220860D01*
X0432551Y0220880D01*
X0432855Y0220907D01*
X0433160Y0220942D01*
X0433463Y0220984D01*
X0433765Y0221033D01*
X0434066Y0221090D01*
X0434365Y0221155D01*
X0434663Y0221226D01*
X0434958Y0221305D01*
X0435252Y0221391D01*
X0435544Y0221484D01*
X0435833Y0221585D01*
X0436120Y0221692D01*
X0436404Y0221807D01*
X0436685Y0221928D01*
X0436963Y0222056D01*
X0437238Y0222191D01*
X0437509Y0222333D01*
X0437777Y0222481D01*
X0438041Y0222636D01*
X0438301Y0222797D01*
X0438557Y0222964D01*
X0438810Y0223138D01*
X0439057Y0223318D01*
X0439301Y0223504D01*
X0439539Y0223695D01*
X0439773Y0223893D01*
X0440002Y0224096D01*
X0440226Y0224305D01*
X0440445Y0224519D01*
X0440658Y0224739D01*
X0440866Y0224963D01*
X0441069Y0225193D01*
X0441265Y0225427D01*
X0441456Y0225667D01*
X0441641Y0225910D01*
X0441820Y0226159D01*
X0441993Y0226411D01*
X0442160Y0226668D01*
X0442320Y0226929D01*
X0442474Y0227194D01*
X0442621Y0227462D01*
X0442762Y0227734D01*
X0442896Y0228009D01*
X0443023Y0228288D01*
X0443144Y0228569D01*
X0443257Y0228854D01*
X0443363Y0229141D01*
X0443463Y0229430D01*
X0443555Y0229722D01*
X0443640Y0230016D01*
X0443718Y0230312D01*
X0443789Y0230610D01*
X0443852Y0230910D01*
X0443908Y0231211D01*
X0443956Y0231513D01*
X0443997Y0231816D01*
X0444031Y0232120D01*
X0444057Y0232425D01*
X0444076Y0232731D01*
X0444087Y0233037D01*
X0444091Y0233343D01*
X0444087Y0233649D01*
X0444076Y0233955D01*
X0444057Y0234261D01*
X0444031Y0234566D01*
X0443997Y0234870D01*
X0443956Y0235173D01*
X0443908Y0235475D01*
X0443852Y0235776D01*
X0443789Y0236076D01*
X0443718Y0236374D01*
X0443640Y0236670D01*
X0443555Y0236964D01*
X0443463Y0237256D01*
X0443363Y0237545D01*
X0443257Y0237832D01*
X0443144Y0238117D01*
X0443023Y0238398D01*
X0442896Y0238677D01*
X0442762Y0238952D01*
X0442621Y0239224D01*
X0442474Y0239492D01*
X0442320Y0239757D01*
X0442160Y0240018D01*
X0441993Y0240275D01*
X0441820Y0240527D01*
X0441641Y0240776D01*
X0441456Y0241019D01*
X0441265Y0241259D01*
X0441069Y0241493D01*
X0440866Y0241723D01*
X0440658Y0241947D01*
X0440445Y0242167D01*
X0440226Y0242381D01*
X0440002Y0242590D01*
X0439773Y0242793D01*
X0439539Y0242991D01*
X0439301Y0243182D01*
X0439057Y0243368D01*
X0438810Y0243548D01*
X0438557Y0243722D01*
X0438301Y0243889D01*
X0438041Y0244050D01*
X0437777Y0244205D01*
X0437509Y0244353D01*
X0437238Y0244495D01*
X0436963Y0244630D01*
X0436685Y0244758D01*
X0436404Y0244879D01*
X0436120Y0244994D01*
X0435833Y0245101D01*
X0435544Y0245202D01*
X0435252Y0245295D01*
X0434958Y0245381D01*
X0434663Y0245460D01*
X0434365Y0245531D01*
X0434066Y0245596D01*
X0433765Y0245653D01*
X0433463Y0245702D01*
X0433160Y0245744D01*
X0432855Y0245779D01*
X0432551Y0245806D01*
X0432245Y0245826D01*
X0431939Y0245838D01*
X0431633Y0245843D01*
X0431327Y0245840D01*
X0431021Y0245830D01*
X0430715Y0245812D01*
X0430410Y0245787D01*
X0430106Y0245754D01*
X0429802Y0245714D01*
X0429500Y0245667D01*
X0429199Y0245612D01*
X0428899Y0245550D01*
X0428601Y0245480D01*
X0428305Y0245403D01*
X0428010Y0245319D01*
X0427718Y0245228D01*
X0427428Y0245129D01*
X0427141Y0245024D01*
X0426856Y0244912D01*
X0426574Y0244792D01*
X0426295Y0244666D01*
X0426020Y0244533D01*
X0425747Y0244393D01*
X0425478Y0244247D01*
X0425213Y0244094D01*
X0424952Y0243934D01*
X0424695Y0243768D01*
X0424441Y0243596D01*
X0424192Y0243418D01*
X0423948Y0243234D01*
X0423708Y0243044D01*
X0423473Y0242848D01*
X0423242Y0242646D01*
X0423017Y0242439D01*
X0422797Y0242226D01*
X0422582Y0242008D01*
X0422373Y0241785D01*
X0422169Y0241557D01*
X0421970Y0241324D01*
X0421778Y0241086D01*
X0421591Y0240843D01*
X0410551Y0288456D02*
X0410738Y0288213D01*
X0410930Y0287975D01*
X0411129Y0287742D01*
X0411333Y0287514D01*
X0411542Y0287291D01*
X0411757Y0287073D01*
X0411977Y0286860D01*
X0412202Y0286653D01*
X0412433Y0286451D01*
X0412668Y0286255D01*
X0412908Y0286065D01*
X0413152Y0285881D01*
X0413401Y0285703D01*
X0413655Y0285531D01*
X0413912Y0285365D01*
X0414173Y0285205D01*
X0414438Y0285052D01*
X0414707Y0284906D01*
X0414980Y0284766D01*
X0415255Y0284633D01*
X0415534Y0284507D01*
X0415816Y0284387D01*
X0416101Y0284275D01*
X0416388Y0284170D01*
X0416678Y0284071D01*
X0416970Y0283980D01*
X0417265Y0283896D01*
X0417561Y0283819D01*
X0417859Y0283749D01*
X0418159Y0283687D01*
X0418460Y0283632D01*
X0418762Y0283585D01*
X0419066Y0283545D01*
X0419370Y0283512D01*
X0419675Y0283487D01*
X0419981Y0283469D01*
X0420287Y0283459D01*
X0420593Y0283456D01*
X0420899Y0283461D01*
X0421205Y0283473D01*
X0421511Y0283493D01*
X0421815Y0283520D01*
X0422120Y0283555D01*
X0422423Y0283597D01*
X0422725Y0283646D01*
X0423026Y0283703D01*
X0423325Y0283768D01*
X0423623Y0283839D01*
X0423918Y0283918D01*
X0424212Y0284004D01*
X0424504Y0284097D01*
X0424793Y0284198D01*
X0425080Y0284305D01*
X0425364Y0284420D01*
X0425645Y0284541D01*
X0425923Y0284669D01*
X0426198Y0284804D01*
X0426469Y0284946D01*
X0426737Y0285094D01*
X0427001Y0285249D01*
X0427261Y0285410D01*
X0427517Y0285577D01*
X0427770Y0285751D01*
X0428017Y0285931D01*
X0428261Y0286117D01*
X0428499Y0286308D01*
X0428733Y0286506D01*
X0428962Y0286709D01*
X0429186Y0286918D01*
X0429405Y0287132D01*
X0429618Y0287352D01*
X0429826Y0287576D01*
X0430029Y0287806D01*
X0430225Y0288040D01*
X0430416Y0288280D01*
X0430601Y0288523D01*
X0430780Y0288772D01*
X0430953Y0289024D01*
X0431120Y0289281D01*
X0431280Y0289542D01*
X0431434Y0289807D01*
X0431581Y0290075D01*
X0431722Y0290347D01*
X0431856Y0290622D01*
X0431983Y0290901D01*
X0432104Y0291182D01*
X0432217Y0291467D01*
X0432323Y0291754D01*
X0432423Y0292043D01*
X0432515Y0292335D01*
X0432600Y0292629D01*
X0432678Y0292925D01*
X0432749Y0293223D01*
X0432812Y0293523D01*
X0432868Y0293824D01*
X0432916Y0294126D01*
X0432957Y0294429D01*
X0432991Y0294733D01*
X0433017Y0295038D01*
X0433036Y0295344D01*
X0433047Y0295650D01*
X0433051Y0295956D01*
X0433047Y0296262D01*
X0433036Y0296568D01*
X0433017Y0296874D01*
X0432991Y0297179D01*
X0432957Y0297483D01*
X0432916Y0297786D01*
X0432868Y0298088D01*
X0432812Y0298389D01*
X0432749Y0298689D01*
X0432678Y0298987D01*
X0432600Y0299283D01*
X0432515Y0299577D01*
X0432423Y0299869D01*
X0432323Y0300158D01*
X0432217Y0300445D01*
X0432104Y0300730D01*
X0431983Y0301011D01*
X0431856Y0301290D01*
X0431722Y0301565D01*
X0431581Y0301837D01*
X0431434Y0302105D01*
X0431280Y0302370D01*
X0431120Y0302631D01*
X0430953Y0302888D01*
X0430780Y0303140D01*
X0430601Y0303389D01*
X0430416Y0303632D01*
X0430225Y0303872D01*
X0430029Y0304106D01*
X0429826Y0304336D01*
X0429618Y0304560D01*
X0429405Y0304780D01*
X0429186Y0304994D01*
X0428962Y0305203D01*
X0428733Y0305406D01*
X0428499Y0305604D01*
X0428261Y0305795D01*
X0428017Y0305981D01*
X0427770Y0306161D01*
X0427517Y0306335D01*
X0427261Y0306502D01*
X0427001Y0306663D01*
X0426737Y0306818D01*
X0426469Y0306966D01*
X0426198Y0307108D01*
X0425923Y0307243D01*
X0425645Y0307371D01*
X0425364Y0307492D01*
X0425080Y0307607D01*
X0424793Y0307714D01*
X0424504Y0307815D01*
X0424212Y0307908D01*
X0423918Y0307994D01*
X0423623Y0308073D01*
X0423325Y0308144D01*
X0423026Y0308209D01*
X0422725Y0308266D01*
X0422423Y0308315D01*
X0422120Y0308357D01*
X0421815Y0308392D01*
X0421511Y0308419D01*
X0421205Y0308439D01*
X0420899Y0308451D01*
X0420593Y0308456D01*
X0420287Y0308453D01*
X0419981Y0308443D01*
X0419675Y0308425D01*
X0419370Y0308400D01*
X0419066Y0308367D01*
X0418762Y0308327D01*
X0418460Y0308280D01*
X0418159Y0308225D01*
X0417859Y0308163D01*
X0417561Y0308093D01*
X0417265Y0308016D01*
X0416970Y0307932D01*
X0416678Y0307841D01*
X0416388Y0307742D01*
X0416101Y0307637D01*
X0415816Y0307525D01*
X0415534Y0307405D01*
X0415255Y0307279D01*
X0414980Y0307146D01*
X0414707Y0307006D01*
X0414438Y0306860D01*
X0414173Y0306707D01*
X0413912Y0306547D01*
X0413655Y0306381D01*
X0413401Y0306209D01*
X0413152Y0306031D01*
X0412908Y0305847D01*
X0412668Y0305657D01*
X0412433Y0305461D01*
X0412202Y0305259D01*
X0411977Y0305052D01*
X0411757Y0304839D01*
X0411542Y0304621D01*
X0411333Y0304398D01*
X0411129Y0304170D01*
X0410930Y0303937D01*
X0410738Y0303699D01*
X0410551Y0303456D01*
X0378761Y0343518D02*
X0378948Y0343275D01*
X0379140Y0343037D01*
X0379339Y0342804D01*
X0379543Y0342576D01*
X0379752Y0342353D01*
X0379967Y0342135D01*
X0380187Y0341922D01*
X0380412Y0341715D01*
X0380643Y0341513D01*
X0380878Y0341317D01*
X0381118Y0341127D01*
X0381362Y0340943D01*
X0381611Y0340765D01*
X0381865Y0340593D01*
X0382122Y0340427D01*
X0382383Y0340267D01*
X0382648Y0340114D01*
X0382917Y0339968D01*
X0383190Y0339828D01*
X0383465Y0339695D01*
X0383744Y0339569D01*
X0384026Y0339449D01*
X0384311Y0339337D01*
X0384598Y0339232D01*
X0384888Y0339133D01*
X0385180Y0339042D01*
X0385475Y0338958D01*
X0385771Y0338881D01*
X0386069Y0338811D01*
X0386369Y0338749D01*
X0386670Y0338694D01*
X0386972Y0338647D01*
X0387276Y0338607D01*
X0387580Y0338574D01*
X0387885Y0338549D01*
X0388191Y0338531D01*
X0388497Y0338521D01*
X0388803Y0338518D01*
X0389109Y0338523D01*
X0389415Y0338535D01*
X0389721Y0338555D01*
X0390025Y0338582D01*
X0390330Y0338617D01*
X0390633Y0338659D01*
X0390935Y0338708D01*
X0391236Y0338765D01*
X0391535Y0338830D01*
X0391833Y0338901D01*
X0392128Y0338980D01*
X0392422Y0339066D01*
X0392714Y0339159D01*
X0393003Y0339260D01*
X0393290Y0339367D01*
X0393574Y0339482D01*
X0393855Y0339603D01*
X0394133Y0339731D01*
X0394408Y0339866D01*
X0394679Y0340008D01*
X0394947Y0340156D01*
X0395211Y0340311D01*
X0395471Y0340472D01*
X0395727Y0340639D01*
X0395980Y0340813D01*
X0396227Y0340993D01*
X0396471Y0341179D01*
X0396709Y0341370D01*
X0396943Y0341568D01*
X0397172Y0341771D01*
X0397396Y0341980D01*
X0397615Y0342194D01*
X0397828Y0342414D01*
X0398036Y0342638D01*
X0398239Y0342868D01*
X0398435Y0343102D01*
X0398626Y0343342D01*
X0398811Y0343585D01*
X0398990Y0343834D01*
X0399163Y0344086D01*
X0399330Y0344343D01*
X0399490Y0344604D01*
X0399644Y0344869D01*
X0399791Y0345137D01*
X0399932Y0345409D01*
X0400066Y0345684D01*
X0400193Y0345963D01*
X0400314Y0346244D01*
X0400427Y0346529D01*
X0400533Y0346816D01*
X0400633Y0347105D01*
X0400725Y0347397D01*
X0400810Y0347691D01*
X0400888Y0347987D01*
X0400959Y0348285D01*
X0401022Y0348585D01*
X0401078Y0348886D01*
X0401126Y0349188D01*
X0401167Y0349491D01*
X0401201Y0349795D01*
X0401227Y0350100D01*
X0401246Y0350406D01*
X0401257Y0350712D01*
X0401261Y0351018D01*
X0401257Y0351324D01*
X0401246Y0351630D01*
X0401227Y0351936D01*
X0401201Y0352241D01*
X0401167Y0352545D01*
X0401126Y0352848D01*
X0401078Y0353150D01*
X0401022Y0353451D01*
X0400959Y0353751D01*
X0400888Y0354049D01*
X0400810Y0354345D01*
X0400725Y0354639D01*
X0400633Y0354931D01*
X0400533Y0355220D01*
X0400427Y0355507D01*
X0400314Y0355792D01*
X0400193Y0356073D01*
X0400066Y0356352D01*
X0399932Y0356627D01*
X0399791Y0356899D01*
X0399644Y0357167D01*
X0399490Y0357432D01*
X0399330Y0357693D01*
X0399163Y0357950D01*
X0398990Y0358202D01*
X0398811Y0358451D01*
X0398626Y0358694D01*
X0398435Y0358934D01*
X0398239Y0359168D01*
X0398036Y0359398D01*
X0397828Y0359622D01*
X0397615Y0359842D01*
X0397396Y0360056D01*
X0397172Y0360265D01*
X0396943Y0360468D01*
X0396709Y0360666D01*
X0396471Y0360857D01*
X0396227Y0361043D01*
X0395980Y0361223D01*
X0395727Y0361397D01*
X0395471Y0361564D01*
X0395211Y0361725D01*
X0394947Y0361880D01*
X0394679Y0362028D01*
X0394408Y0362170D01*
X0394133Y0362305D01*
X0393855Y0362433D01*
X0393574Y0362554D01*
X0393290Y0362669D01*
X0393003Y0362776D01*
X0392714Y0362877D01*
X0392422Y0362970D01*
X0392128Y0363056D01*
X0391833Y0363135D01*
X0391535Y0363206D01*
X0391236Y0363271D01*
X0390935Y0363328D01*
X0390633Y0363377D01*
X0390330Y0363419D01*
X0390025Y0363454D01*
X0389721Y0363481D01*
X0389415Y0363501D01*
X0389109Y0363513D01*
X0388803Y0363518D01*
X0388497Y0363515D01*
X0388191Y0363505D01*
X0387885Y0363487D01*
X0387580Y0363462D01*
X0387276Y0363429D01*
X0386972Y0363389D01*
X0386670Y0363342D01*
X0386369Y0363287D01*
X0386069Y0363225D01*
X0385771Y0363155D01*
X0385475Y0363078D01*
X0385180Y0362994D01*
X0384888Y0362903D01*
X0384598Y0362804D01*
X0384311Y0362699D01*
X0384026Y0362587D01*
X0383744Y0362467D01*
X0383465Y0362341D01*
X0383190Y0362208D01*
X0382917Y0362068D01*
X0382648Y0361922D01*
X0382383Y0361769D01*
X0382122Y0361609D01*
X0381865Y0361443D01*
X0381611Y0361271D01*
X0381362Y0361093D01*
X0381118Y0360909D01*
X0380878Y0360719D01*
X0380643Y0360523D01*
X0380412Y0360321D01*
X0380187Y0360114D01*
X0379967Y0359901D01*
X0379752Y0359683D01*
X0379543Y0359460D01*
X0379339Y0359232D01*
X0379140Y0358999D01*
X0378948Y0358761D01*
X0378761Y0358518D01*
X0347556Y0381887D02*
X0347799Y0382074D01*
X0348037Y0382266D01*
X0348270Y0382465D01*
X0348498Y0382669D01*
X0348721Y0382878D01*
X0348939Y0383093D01*
X0349152Y0383313D01*
X0349359Y0383538D01*
X0349561Y0383769D01*
X0349757Y0384004D01*
X0349947Y0384244D01*
X0350131Y0384488D01*
X0350309Y0384737D01*
X0350481Y0384991D01*
X0350647Y0385248D01*
X0350807Y0385509D01*
X0350960Y0385774D01*
X0351106Y0386043D01*
X0351246Y0386316D01*
X0351379Y0386591D01*
X0351505Y0386870D01*
X0351625Y0387152D01*
X0351737Y0387437D01*
X0351842Y0387724D01*
X0351941Y0388014D01*
X0352032Y0388306D01*
X0352116Y0388601D01*
X0352193Y0388897D01*
X0352263Y0389195D01*
X0352325Y0389495D01*
X0352380Y0389796D01*
X0352427Y0390098D01*
X0352467Y0390402D01*
X0352500Y0390706D01*
X0352525Y0391011D01*
X0352543Y0391317D01*
X0352553Y0391623D01*
X0352556Y0391929D01*
X0352551Y0392235D01*
X0352539Y0392541D01*
X0352519Y0392847D01*
X0352492Y0393151D01*
X0352457Y0393456D01*
X0352415Y0393759D01*
X0352366Y0394061D01*
X0352309Y0394362D01*
X0352244Y0394661D01*
X0352173Y0394959D01*
X0352094Y0395254D01*
X0352008Y0395548D01*
X0351915Y0395840D01*
X0351814Y0396129D01*
X0351707Y0396416D01*
X0351592Y0396700D01*
X0351471Y0396981D01*
X0351343Y0397259D01*
X0351208Y0397534D01*
X0351066Y0397805D01*
X0350918Y0398073D01*
X0350763Y0398337D01*
X0350602Y0398597D01*
X0350435Y0398853D01*
X0350261Y0399106D01*
X0350081Y0399353D01*
X0349895Y0399597D01*
X0349704Y0399835D01*
X0349506Y0400069D01*
X0349303Y0400298D01*
X0349094Y0400522D01*
X0348880Y0400741D01*
X0348660Y0400954D01*
X0348436Y0401162D01*
X0348206Y0401365D01*
X0347972Y0401561D01*
X0347732Y0401752D01*
X0347489Y0401937D01*
X0347240Y0402116D01*
X0346988Y0402289D01*
X0346731Y0402456D01*
X0346470Y0402616D01*
X0346205Y0402770D01*
X0345937Y0402917D01*
X0345665Y0403058D01*
X0345390Y0403192D01*
X0345111Y0403319D01*
X0344830Y0403440D01*
X0344545Y0403553D01*
X0344258Y0403659D01*
X0343969Y0403759D01*
X0343677Y0403851D01*
X0343383Y0403936D01*
X0343087Y0404014D01*
X0342789Y0404085D01*
X0342489Y0404148D01*
X0342188Y0404204D01*
X0341886Y0404252D01*
X0341583Y0404293D01*
X0341279Y0404327D01*
X0340974Y0404353D01*
X0340668Y0404372D01*
X0340362Y0404383D01*
X0340056Y0404387D01*
X0339750Y0404383D01*
X0339444Y0404372D01*
X0339138Y0404353D01*
X0338833Y0404327D01*
X0338529Y0404293D01*
X0338226Y0404252D01*
X0337924Y0404204D01*
X0337623Y0404148D01*
X0337323Y0404085D01*
X0337025Y0404014D01*
X0336729Y0403936D01*
X0336435Y0403851D01*
X0336143Y0403759D01*
X0335854Y0403659D01*
X0335567Y0403553D01*
X0335282Y0403440D01*
X0335001Y0403319D01*
X0334722Y0403192D01*
X0334447Y0403058D01*
X0334175Y0402917D01*
X0333907Y0402770D01*
X0333642Y0402616D01*
X0333381Y0402456D01*
X0333124Y0402289D01*
X0332872Y0402116D01*
X0332623Y0401937D01*
X0332380Y0401752D01*
X0332140Y0401561D01*
X0331906Y0401365D01*
X0331676Y0401162D01*
X0331452Y0400954D01*
X0331232Y0400741D01*
X0331018Y0400522D01*
X0330809Y0400298D01*
X0330606Y0400069D01*
X0330408Y0399835D01*
X0330217Y0399597D01*
X0330031Y0399353D01*
X0329851Y0399106D01*
X0329677Y0398853D01*
X0329510Y0398597D01*
X0329349Y0398337D01*
X0329194Y0398073D01*
X0329046Y0397805D01*
X0328904Y0397534D01*
X0328769Y0397259D01*
X0328641Y0396981D01*
X0328520Y0396700D01*
X0328405Y0396416D01*
X0328298Y0396129D01*
X0328197Y0395840D01*
X0328104Y0395548D01*
X0328018Y0395254D01*
X0327939Y0394959D01*
X0327868Y0394661D01*
X0327803Y0394362D01*
X0327746Y0394061D01*
X0327697Y0393759D01*
X0327655Y0393456D01*
X0327620Y0393151D01*
X0327593Y0392847D01*
X0327573Y0392541D01*
X0327561Y0392235D01*
X0327556Y0391929D01*
X0327559Y0391623D01*
X0327569Y0391317D01*
X0327587Y0391011D01*
X0327612Y0390706D01*
X0327645Y0390402D01*
X0327685Y0390098D01*
X0327732Y0389796D01*
X0327787Y0389495D01*
X0327849Y0389195D01*
X0327919Y0388897D01*
X0327996Y0388601D01*
X0328080Y0388306D01*
X0328171Y0388014D01*
X0328270Y0387724D01*
X0328375Y0387437D01*
X0328487Y0387152D01*
X0328607Y0386870D01*
X0328733Y0386591D01*
X0328866Y0386316D01*
X0329006Y0386043D01*
X0329152Y0385774D01*
X0329305Y0385509D01*
X0329465Y0385248D01*
X0329631Y0384991D01*
X0329803Y0384737D01*
X0329981Y0384488D01*
X0330165Y0384244D01*
X0330355Y0384004D01*
X0330551Y0383769D01*
X0330753Y0383538D01*
X0330960Y0383313D01*
X0331173Y0383093D01*
X0331391Y0382878D01*
X0331614Y0382669D01*
X0331842Y0382465D01*
X0332075Y0382266D01*
X0332313Y0382074D01*
X0332556Y0381887D01*
X0287810Y0403632D02*
X0288053Y0403819D01*
X0288291Y0404011D01*
X0288524Y0404210D01*
X0288752Y0404414D01*
X0288975Y0404623D01*
X0289193Y0404838D01*
X0289406Y0405058D01*
X0289613Y0405283D01*
X0289815Y0405514D01*
X0290011Y0405749D01*
X0290201Y0405989D01*
X0290385Y0406233D01*
X0290563Y0406482D01*
X0290735Y0406736D01*
X0290901Y0406993D01*
X0291061Y0407254D01*
X0291214Y0407519D01*
X0291360Y0407788D01*
X0291500Y0408061D01*
X0291633Y0408336D01*
X0291759Y0408615D01*
X0291879Y0408897D01*
X0291991Y0409182D01*
X0292096Y0409469D01*
X0292195Y0409759D01*
X0292286Y0410051D01*
X0292370Y0410346D01*
X0292447Y0410642D01*
X0292517Y0410940D01*
X0292579Y0411240D01*
X0292634Y0411541D01*
X0292681Y0411843D01*
X0292721Y0412147D01*
X0292754Y0412451D01*
X0292779Y0412756D01*
X0292797Y0413062D01*
X0292807Y0413368D01*
X0292810Y0413674D01*
X0292805Y0413980D01*
X0292793Y0414286D01*
X0292773Y0414592D01*
X0292746Y0414896D01*
X0292711Y0415201D01*
X0292669Y0415504D01*
X0292620Y0415806D01*
X0292563Y0416107D01*
X0292498Y0416406D01*
X0292427Y0416704D01*
X0292348Y0416999D01*
X0292262Y0417293D01*
X0292169Y0417585D01*
X0292068Y0417874D01*
X0291961Y0418161D01*
X0291846Y0418445D01*
X0291725Y0418726D01*
X0291597Y0419004D01*
X0291462Y0419279D01*
X0291320Y0419550D01*
X0291172Y0419818D01*
X0291017Y0420082D01*
X0290856Y0420342D01*
X0290689Y0420598D01*
X0290515Y0420851D01*
X0290335Y0421098D01*
X0290149Y0421342D01*
X0289958Y0421580D01*
X0289760Y0421814D01*
X0289557Y0422043D01*
X0289348Y0422267D01*
X0289134Y0422486D01*
X0288914Y0422699D01*
X0288690Y0422907D01*
X0288460Y0423110D01*
X0288226Y0423306D01*
X0287986Y0423497D01*
X0287743Y0423682D01*
X0287494Y0423861D01*
X0287242Y0424034D01*
X0286985Y0424201D01*
X0286724Y0424361D01*
X0286459Y0424515D01*
X0286191Y0424662D01*
X0285919Y0424803D01*
X0285644Y0424937D01*
X0285365Y0425064D01*
X0285084Y0425185D01*
X0284799Y0425298D01*
X0284512Y0425404D01*
X0284223Y0425504D01*
X0283931Y0425596D01*
X0283637Y0425681D01*
X0283341Y0425759D01*
X0283043Y0425830D01*
X0282743Y0425893D01*
X0282442Y0425949D01*
X0282140Y0425997D01*
X0281837Y0426038D01*
X0281533Y0426072D01*
X0281228Y0426098D01*
X0280922Y0426117D01*
X0280616Y0426128D01*
X0280310Y0426132D01*
X0280004Y0426128D01*
X0279698Y0426117D01*
X0279392Y0426098D01*
X0279087Y0426072D01*
X0278783Y0426038D01*
X0278480Y0425997D01*
X0278178Y0425949D01*
X0277877Y0425893D01*
X0277577Y0425830D01*
X0277279Y0425759D01*
X0276983Y0425681D01*
X0276689Y0425596D01*
X0276397Y0425504D01*
X0276108Y0425404D01*
X0275821Y0425298D01*
X0275536Y0425185D01*
X0275255Y0425064D01*
X0274976Y0424937D01*
X0274701Y0424803D01*
X0274429Y0424662D01*
X0274161Y0424515D01*
X0273896Y0424361D01*
X0273635Y0424201D01*
X0273378Y0424034D01*
X0273126Y0423861D01*
X0272877Y0423682D01*
X0272634Y0423497D01*
X0272394Y0423306D01*
X0272160Y0423110D01*
X0271930Y0422907D01*
X0271706Y0422699D01*
X0271486Y0422486D01*
X0271272Y0422267D01*
X0271063Y0422043D01*
X0270860Y0421814D01*
X0270662Y0421580D01*
X0270471Y0421342D01*
X0270285Y0421098D01*
X0270105Y0420851D01*
X0269931Y0420598D01*
X0269764Y0420342D01*
X0269603Y0420082D01*
X0269448Y0419818D01*
X0269300Y0419550D01*
X0269158Y0419279D01*
X0269023Y0419004D01*
X0268895Y0418726D01*
X0268774Y0418445D01*
X0268659Y0418161D01*
X0268552Y0417874D01*
X0268451Y0417585D01*
X0268358Y0417293D01*
X0268272Y0416999D01*
X0268193Y0416704D01*
X0268122Y0416406D01*
X0268057Y0416107D01*
X0268000Y0415806D01*
X0267951Y0415504D01*
X0267909Y0415201D01*
X0267874Y0414896D01*
X0267847Y0414592D01*
X0267827Y0414286D01*
X0267815Y0413980D01*
X0267810Y0413674D01*
X0267813Y0413368D01*
X0267823Y0413062D01*
X0267841Y0412756D01*
X0267866Y0412451D01*
X0267899Y0412147D01*
X0267939Y0411843D01*
X0267986Y0411541D01*
X0268041Y0411240D01*
X0268103Y0410940D01*
X0268173Y0410642D01*
X0268250Y0410346D01*
X0268334Y0410051D01*
X0268425Y0409759D01*
X0268524Y0409469D01*
X0268629Y0409182D01*
X0268741Y0408897D01*
X0268861Y0408615D01*
X0268987Y0408336D01*
X0269120Y0408061D01*
X0269260Y0407788D01*
X0269406Y0407519D01*
X0269559Y0407254D01*
X0269719Y0406993D01*
X0269885Y0406736D01*
X0270057Y0406482D01*
X0270235Y0406233D01*
X0270419Y0405989D01*
X0270609Y0405749D01*
X0270805Y0405514D01*
X0271007Y0405283D01*
X0271214Y0405058D01*
X0271427Y0404838D01*
X0271645Y0404623D01*
X0271868Y0404414D01*
X0272096Y0404210D01*
X0272329Y0404011D01*
X0272567Y0403819D01*
X0272810Y0403632D01*
X0224231Y0403632D02*
X0224474Y0403819D01*
X0224712Y0404011D01*
X0224945Y0404210D01*
X0225173Y0404414D01*
X0225396Y0404623D01*
X0225614Y0404838D01*
X0225827Y0405058D01*
X0226034Y0405283D01*
X0226236Y0405514D01*
X0226432Y0405749D01*
X0226622Y0405989D01*
X0226806Y0406233D01*
X0226984Y0406482D01*
X0227156Y0406736D01*
X0227322Y0406993D01*
X0227482Y0407254D01*
X0227635Y0407519D01*
X0227781Y0407788D01*
X0227921Y0408061D01*
X0228054Y0408336D01*
X0228180Y0408615D01*
X0228300Y0408897D01*
X0228412Y0409182D01*
X0228517Y0409469D01*
X0228616Y0409759D01*
X0228707Y0410051D01*
X0228791Y0410346D01*
X0228868Y0410642D01*
X0228938Y0410940D01*
X0229000Y0411240D01*
X0229055Y0411541D01*
X0229102Y0411843D01*
X0229142Y0412147D01*
X0229175Y0412451D01*
X0229200Y0412756D01*
X0229218Y0413062D01*
X0229228Y0413368D01*
X0229231Y0413674D01*
X0229226Y0413980D01*
X0229214Y0414286D01*
X0229194Y0414592D01*
X0229167Y0414896D01*
X0229132Y0415201D01*
X0229090Y0415504D01*
X0229041Y0415806D01*
X0228984Y0416107D01*
X0228919Y0416406D01*
X0228848Y0416704D01*
X0228769Y0416999D01*
X0228683Y0417293D01*
X0228590Y0417585D01*
X0228489Y0417874D01*
X0228382Y0418161D01*
X0228267Y0418445D01*
X0228146Y0418726D01*
X0228018Y0419004D01*
X0227883Y0419279D01*
X0227741Y0419550D01*
X0227593Y0419818D01*
X0227438Y0420082D01*
X0227277Y0420342D01*
X0227110Y0420598D01*
X0226936Y0420851D01*
X0226756Y0421098D01*
X0226570Y0421342D01*
X0226379Y0421580D01*
X0226181Y0421814D01*
X0225978Y0422043D01*
X0225769Y0422267D01*
X0225555Y0422486D01*
X0225335Y0422699D01*
X0225111Y0422907D01*
X0224881Y0423110D01*
X0224647Y0423306D01*
X0224407Y0423497D01*
X0224164Y0423682D01*
X0223915Y0423861D01*
X0223663Y0424034D01*
X0223406Y0424201D01*
X0223145Y0424361D01*
X0222880Y0424515D01*
X0222612Y0424662D01*
X0222340Y0424803D01*
X0222065Y0424937D01*
X0221786Y0425064D01*
X0221505Y0425185D01*
X0221220Y0425298D01*
X0220933Y0425404D01*
X0220644Y0425504D01*
X0220352Y0425596D01*
X0220058Y0425681D01*
X0219762Y0425759D01*
X0219464Y0425830D01*
X0219164Y0425893D01*
X0218863Y0425949D01*
X0218561Y0425997D01*
X0218258Y0426038D01*
X0217954Y0426072D01*
X0217649Y0426098D01*
X0217343Y0426117D01*
X0217037Y0426128D01*
X0216731Y0426132D01*
X0216425Y0426128D01*
X0216119Y0426117D01*
X0215813Y0426098D01*
X0215508Y0426072D01*
X0215204Y0426038D01*
X0214901Y0425997D01*
X0214599Y0425949D01*
X0214298Y0425893D01*
X0213998Y0425830D01*
X0213700Y0425759D01*
X0213404Y0425681D01*
X0213110Y0425596D01*
X0212818Y0425504D01*
X0212529Y0425404D01*
X0212242Y0425298D01*
X0211957Y0425185D01*
X0211676Y0425064D01*
X0211397Y0424937D01*
X0211122Y0424803D01*
X0210850Y0424662D01*
X0210582Y0424515D01*
X0210317Y0424361D01*
X0210056Y0424201D01*
X0209799Y0424034D01*
X0209547Y0423861D01*
X0209298Y0423682D01*
X0209055Y0423497D01*
X0208815Y0423306D01*
X0208581Y0423110D01*
X0208351Y0422907D01*
X0208127Y0422699D01*
X0207907Y0422486D01*
X0207693Y0422267D01*
X0207484Y0422043D01*
X0207281Y0421814D01*
X0207083Y0421580D01*
X0206892Y0421342D01*
X0206706Y0421098D01*
X0206526Y0420851D01*
X0206352Y0420598D01*
X0206185Y0420342D01*
X0206024Y0420082D01*
X0205869Y0419818D01*
X0205721Y0419550D01*
X0205579Y0419279D01*
X0205444Y0419004D01*
X0205316Y0418726D01*
X0205195Y0418445D01*
X0205080Y0418161D01*
X0204973Y0417874D01*
X0204872Y0417585D01*
X0204779Y0417293D01*
X0204693Y0416999D01*
X0204614Y0416704D01*
X0204543Y0416406D01*
X0204478Y0416107D01*
X0204421Y0415806D01*
X0204372Y0415504D01*
X0204330Y0415201D01*
X0204295Y0414896D01*
X0204268Y0414592D01*
X0204248Y0414286D01*
X0204236Y0413980D01*
X0204231Y0413674D01*
X0204234Y0413368D01*
X0204244Y0413062D01*
X0204262Y0412756D01*
X0204287Y0412451D01*
X0204320Y0412147D01*
X0204360Y0411843D01*
X0204407Y0411541D01*
X0204462Y0411240D01*
X0204524Y0410940D01*
X0204594Y0410642D01*
X0204671Y0410346D01*
X0204755Y0410051D01*
X0204846Y0409759D01*
X0204945Y0409469D01*
X0205050Y0409182D01*
X0205162Y0408897D01*
X0205282Y0408615D01*
X0205408Y0408336D01*
X0205541Y0408061D01*
X0205681Y0407788D01*
X0205827Y0407519D01*
X0205980Y0407254D01*
X0206140Y0406993D01*
X0206306Y0406736D01*
X0206478Y0406482D01*
X0206656Y0406233D01*
X0206840Y0405989D01*
X0207030Y0405749D01*
X0207226Y0405514D01*
X0207428Y0405283D01*
X0207635Y0405058D01*
X0207848Y0404838D01*
X0208066Y0404623D01*
X0208289Y0404414D01*
X0208517Y0404210D01*
X0208750Y0404011D01*
X0208988Y0403819D01*
X0209231Y0403632D01*
X0164485Y0381887D02*
X0164728Y0382074D01*
X0164966Y0382266D01*
X0165199Y0382465D01*
X0165427Y0382669D01*
X0165650Y0382878D01*
X0165868Y0383093D01*
X0166081Y0383313D01*
X0166288Y0383538D01*
X0166490Y0383769D01*
X0166686Y0384004D01*
X0166876Y0384244D01*
X0167060Y0384488D01*
X0167238Y0384737D01*
X0167410Y0384991D01*
X0167576Y0385248D01*
X0167736Y0385509D01*
X0167889Y0385774D01*
X0168035Y0386043D01*
X0168175Y0386316D01*
X0168308Y0386591D01*
X0168434Y0386870D01*
X0168554Y0387152D01*
X0168666Y0387437D01*
X0168771Y0387724D01*
X0168870Y0388014D01*
X0168961Y0388306D01*
X0169045Y0388601D01*
X0169122Y0388897D01*
X0169192Y0389195D01*
X0169254Y0389495D01*
X0169309Y0389796D01*
X0169356Y0390098D01*
X0169396Y0390402D01*
X0169429Y0390706D01*
X0169454Y0391011D01*
X0169472Y0391317D01*
X0169482Y0391623D01*
X0169485Y0391929D01*
X0169480Y0392235D01*
X0169468Y0392541D01*
X0169448Y0392847D01*
X0169421Y0393151D01*
X0169386Y0393456D01*
X0169344Y0393759D01*
X0169295Y0394061D01*
X0169238Y0394362D01*
X0169173Y0394661D01*
X0169102Y0394959D01*
X0169023Y0395254D01*
X0168937Y0395548D01*
X0168844Y0395840D01*
X0168743Y0396129D01*
X0168636Y0396416D01*
X0168521Y0396700D01*
X0168400Y0396981D01*
X0168272Y0397259D01*
X0168137Y0397534D01*
X0167995Y0397805D01*
X0167847Y0398073D01*
X0167692Y0398337D01*
X0167531Y0398597D01*
X0167364Y0398853D01*
X0167190Y0399106D01*
X0167010Y0399353D01*
X0166824Y0399597D01*
X0166633Y0399835D01*
X0166435Y0400069D01*
X0166232Y0400298D01*
X0166023Y0400522D01*
X0165809Y0400741D01*
X0165589Y0400954D01*
X0165365Y0401162D01*
X0165135Y0401365D01*
X0164901Y0401561D01*
X0164661Y0401752D01*
X0164418Y0401937D01*
X0164169Y0402116D01*
X0163917Y0402289D01*
X0163660Y0402456D01*
X0163399Y0402616D01*
X0163134Y0402770D01*
X0162866Y0402917D01*
X0162594Y0403058D01*
X0162319Y0403192D01*
X0162040Y0403319D01*
X0161759Y0403440D01*
X0161474Y0403553D01*
X0161187Y0403659D01*
X0160898Y0403759D01*
X0160606Y0403851D01*
X0160312Y0403936D01*
X0160016Y0404014D01*
X0159718Y0404085D01*
X0159418Y0404148D01*
X0159117Y0404204D01*
X0158815Y0404252D01*
X0158512Y0404293D01*
X0158208Y0404327D01*
X0157903Y0404353D01*
X0157597Y0404372D01*
X0157291Y0404383D01*
X0156985Y0404387D01*
X0156679Y0404383D01*
X0156373Y0404372D01*
X0156067Y0404353D01*
X0155762Y0404327D01*
X0155458Y0404293D01*
X0155155Y0404252D01*
X0154853Y0404204D01*
X0154552Y0404148D01*
X0154252Y0404085D01*
X0153954Y0404014D01*
X0153658Y0403936D01*
X0153364Y0403851D01*
X0153072Y0403759D01*
X0152783Y0403659D01*
X0152496Y0403553D01*
X0152211Y0403440D01*
X0151930Y0403319D01*
X0151651Y0403192D01*
X0151376Y0403058D01*
X0151104Y0402917D01*
X0150836Y0402770D01*
X0150571Y0402616D01*
X0150310Y0402456D01*
X0150053Y0402289D01*
X0149801Y0402116D01*
X0149552Y0401937D01*
X0149309Y0401752D01*
X0149069Y0401561D01*
X0148835Y0401365D01*
X0148605Y0401162D01*
X0148381Y0400954D01*
X0148161Y0400741D01*
X0147947Y0400522D01*
X0147738Y0400298D01*
X0147535Y0400069D01*
X0147337Y0399835D01*
X0147146Y0399597D01*
X0146960Y0399353D01*
X0146780Y0399106D01*
X0146606Y0398853D01*
X0146439Y0398597D01*
X0146278Y0398337D01*
X0146123Y0398073D01*
X0145975Y0397805D01*
X0145833Y0397534D01*
X0145698Y0397259D01*
X0145570Y0396981D01*
X0145449Y0396700D01*
X0145334Y0396416D01*
X0145227Y0396129D01*
X0145126Y0395840D01*
X0145033Y0395548D01*
X0144947Y0395254D01*
X0144868Y0394959D01*
X0144797Y0394661D01*
X0144732Y0394362D01*
X0144675Y0394061D01*
X0144626Y0393759D01*
X0144584Y0393456D01*
X0144549Y0393151D01*
X0144522Y0392847D01*
X0144502Y0392541D01*
X0144490Y0392235D01*
X0144485Y0391929D01*
X0144488Y0391623D01*
X0144498Y0391317D01*
X0144516Y0391011D01*
X0144541Y0390706D01*
X0144574Y0390402D01*
X0144614Y0390098D01*
X0144661Y0389796D01*
X0144716Y0389495D01*
X0144778Y0389195D01*
X0144848Y0388897D01*
X0144925Y0388601D01*
X0145009Y0388306D01*
X0145100Y0388014D01*
X0145199Y0387724D01*
X0145304Y0387437D01*
X0145416Y0387152D01*
X0145536Y0386870D01*
X0145662Y0386591D01*
X0145795Y0386316D01*
X0145935Y0386043D01*
X0146081Y0385774D01*
X0146234Y0385509D01*
X0146394Y0385248D01*
X0146560Y0384991D01*
X0146732Y0384737D01*
X0146910Y0384488D01*
X0147094Y0384244D01*
X0147284Y0384004D01*
X0147480Y0383769D01*
X0147682Y0383538D01*
X0147889Y0383313D01*
X0148102Y0383093D01*
X0148320Y0382878D01*
X0148543Y0382669D01*
X0148771Y0382465D01*
X0149004Y0382266D01*
X0149242Y0382074D01*
X0149485Y0381887D01*
X0118280Y0358518D02*
X0118093Y0358761D01*
X0117901Y0358999D01*
X0117702Y0359232D01*
X0117498Y0359460D01*
X0117289Y0359683D01*
X0117074Y0359901D01*
X0116854Y0360114D01*
X0116629Y0360321D01*
X0116398Y0360523D01*
X0116163Y0360719D01*
X0115923Y0360909D01*
X0115679Y0361093D01*
X0115430Y0361271D01*
X0115176Y0361443D01*
X0114919Y0361609D01*
X0114658Y0361769D01*
X0114393Y0361922D01*
X0114124Y0362068D01*
X0113851Y0362208D01*
X0113576Y0362341D01*
X0113297Y0362467D01*
X0113015Y0362587D01*
X0112730Y0362699D01*
X0112443Y0362804D01*
X0112153Y0362903D01*
X0111861Y0362994D01*
X0111566Y0363078D01*
X0111270Y0363155D01*
X0110972Y0363225D01*
X0110672Y0363287D01*
X0110371Y0363342D01*
X0110069Y0363389D01*
X0109765Y0363429D01*
X0109461Y0363462D01*
X0109156Y0363487D01*
X0108850Y0363505D01*
X0108544Y0363515D01*
X0108238Y0363518D01*
X0107932Y0363513D01*
X0107626Y0363501D01*
X0107320Y0363481D01*
X0107016Y0363454D01*
X0106711Y0363419D01*
X0106408Y0363377D01*
X0106106Y0363328D01*
X0105805Y0363271D01*
X0105506Y0363206D01*
X0105208Y0363135D01*
X0104913Y0363056D01*
X0104619Y0362970D01*
X0104327Y0362877D01*
X0104038Y0362776D01*
X0103751Y0362669D01*
X0103467Y0362554D01*
X0103186Y0362433D01*
X0102908Y0362305D01*
X0102633Y0362170D01*
X0102362Y0362028D01*
X0102094Y0361880D01*
X0101830Y0361725D01*
X0101570Y0361564D01*
X0101314Y0361397D01*
X0101061Y0361223D01*
X0100814Y0361043D01*
X0100570Y0360857D01*
X0100332Y0360666D01*
X0100098Y0360468D01*
X0099869Y0360265D01*
X0099645Y0360056D01*
X0099426Y0359842D01*
X0099213Y0359622D01*
X0099005Y0359398D01*
X0098802Y0359168D01*
X0098606Y0358934D01*
X0098415Y0358694D01*
X0098230Y0358451D01*
X0098051Y0358202D01*
X0097878Y0357950D01*
X0097711Y0357693D01*
X0097551Y0357432D01*
X0097397Y0357167D01*
X0097250Y0356899D01*
X0097109Y0356627D01*
X0096975Y0356352D01*
X0096848Y0356073D01*
X0096727Y0355792D01*
X0096614Y0355507D01*
X0096508Y0355220D01*
X0096408Y0354931D01*
X0096316Y0354639D01*
X0096231Y0354345D01*
X0096153Y0354049D01*
X0096082Y0353751D01*
X0096019Y0353451D01*
X0095963Y0353150D01*
X0095915Y0352848D01*
X0095874Y0352545D01*
X0095840Y0352241D01*
X0095814Y0351936D01*
X0095795Y0351630D01*
X0095784Y0351324D01*
X0095780Y0351018D01*
X0095784Y0350712D01*
X0095795Y0350406D01*
X0095814Y0350100D01*
X0095840Y0349795D01*
X0095874Y0349491D01*
X0095915Y0349188D01*
X0095963Y0348886D01*
X0096019Y0348585D01*
X0096082Y0348285D01*
X0096153Y0347987D01*
X0096231Y0347691D01*
X0096316Y0347397D01*
X0096408Y0347105D01*
X0096508Y0346816D01*
X0096614Y0346529D01*
X0096727Y0346244D01*
X0096848Y0345963D01*
X0096975Y0345684D01*
X0097109Y0345409D01*
X0097250Y0345137D01*
X0097397Y0344869D01*
X0097551Y0344604D01*
X0097711Y0344343D01*
X0097878Y0344086D01*
X0098051Y0343834D01*
X0098230Y0343585D01*
X0098415Y0343342D01*
X0098606Y0343102D01*
X0098802Y0342868D01*
X0099005Y0342638D01*
X0099213Y0342414D01*
X0099426Y0342194D01*
X0099645Y0341980D01*
X0099869Y0341771D01*
X0100098Y0341568D01*
X0100332Y0341370D01*
X0100570Y0341179D01*
X0100814Y0340993D01*
X0101061Y0340813D01*
X0101314Y0340639D01*
X0101570Y0340472D01*
X0101830Y0340311D01*
X0102094Y0340156D01*
X0102362Y0340008D01*
X0102633Y0339866D01*
X0102908Y0339731D01*
X0103186Y0339603D01*
X0103467Y0339482D01*
X0103751Y0339367D01*
X0104038Y0339260D01*
X0104327Y0339159D01*
X0104619Y0339066D01*
X0104913Y0338980D01*
X0105208Y0338901D01*
X0105506Y0338830D01*
X0105805Y0338765D01*
X0106106Y0338708D01*
X0106408Y0338659D01*
X0106711Y0338617D01*
X0107016Y0338582D01*
X0107320Y0338555D01*
X0107626Y0338535D01*
X0107932Y0338523D01*
X0108238Y0338518D01*
X0108544Y0338521D01*
X0108850Y0338531D01*
X0109156Y0338549D01*
X0109461Y0338574D01*
X0109765Y0338607D01*
X0110069Y0338647D01*
X0110371Y0338694D01*
X0110672Y0338749D01*
X0110972Y0338811D01*
X0111270Y0338881D01*
X0111566Y0338958D01*
X0111861Y0339042D01*
X0112153Y0339133D01*
X0112443Y0339232D01*
X0112730Y0339337D01*
X0113015Y0339449D01*
X0113297Y0339569D01*
X0113576Y0339695D01*
X0113851Y0339828D01*
X0114124Y0339968D01*
X0114393Y0340114D01*
X0114658Y0340267D01*
X0114919Y0340427D01*
X0115176Y0340593D01*
X0115430Y0340765D01*
X0115679Y0340943D01*
X0115923Y0341127D01*
X0116163Y0341317D01*
X0116398Y0341513D01*
X0116629Y0341715D01*
X0116854Y0341922D01*
X0117074Y0342135D01*
X0117289Y0342353D01*
X0117498Y0342576D01*
X0117702Y0342804D01*
X0117901Y0343037D01*
X0118093Y0343275D01*
X0118280Y0343518D01*
X0086490Y0303456D02*
X0086303Y0303699D01*
X0086111Y0303937D01*
X0085912Y0304170D01*
X0085708Y0304398D01*
X0085499Y0304621D01*
X0085284Y0304839D01*
X0085064Y0305052D01*
X0084839Y0305259D01*
X0084608Y0305461D01*
X0084373Y0305657D01*
X0084133Y0305847D01*
X0083889Y0306031D01*
X0083640Y0306209D01*
X0083386Y0306381D01*
X0083129Y0306547D01*
X0082868Y0306707D01*
X0082603Y0306860D01*
X0082334Y0307006D01*
X0082061Y0307146D01*
X0081786Y0307279D01*
X0081507Y0307405D01*
X0081225Y0307525D01*
X0080940Y0307637D01*
X0080653Y0307742D01*
X0080363Y0307841D01*
X0080071Y0307932D01*
X0079776Y0308016D01*
X0079480Y0308093D01*
X0079182Y0308163D01*
X0078882Y0308225D01*
X0078581Y0308280D01*
X0078279Y0308327D01*
X0077975Y0308367D01*
X0077671Y0308400D01*
X0077366Y0308425D01*
X0077060Y0308443D01*
X0076754Y0308453D01*
X0076448Y0308456D01*
X0076142Y0308451D01*
X0075836Y0308439D01*
X0075530Y0308419D01*
X0075226Y0308392D01*
X0074921Y0308357D01*
X0074618Y0308315D01*
X0074316Y0308266D01*
X0074015Y0308209D01*
X0073716Y0308144D01*
X0073418Y0308073D01*
X0073123Y0307994D01*
X0072829Y0307908D01*
X0072537Y0307815D01*
X0072248Y0307714D01*
X0071961Y0307607D01*
X0071677Y0307492D01*
X0071396Y0307371D01*
X0071118Y0307243D01*
X0070843Y0307108D01*
X0070572Y0306966D01*
X0070304Y0306818D01*
X0070040Y0306663D01*
X0069780Y0306502D01*
X0069524Y0306335D01*
X0069271Y0306161D01*
X0069024Y0305981D01*
X0068780Y0305795D01*
X0068542Y0305604D01*
X0068308Y0305406D01*
X0068079Y0305203D01*
X0067855Y0304994D01*
X0067636Y0304780D01*
X0067423Y0304560D01*
X0067215Y0304336D01*
X0067012Y0304106D01*
X0066816Y0303872D01*
X0066625Y0303632D01*
X0066440Y0303389D01*
X0066261Y0303140D01*
X0066088Y0302888D01*
X0065921Y0302631D01*
X0065761Y0302370D01*
X0065607Y0302105D01*
X0065460Y0301837D01*
X0065319Y0301565D01*
X0065185Y0301290D01*
X0065058Y0301011D01*
X0064937Y0300730D01*
X0064824Y0300445D01*
X0064718Y0300158D01*
X0064618Y0299869D01*
X0064526Y0299577D01*
X0064441Y0299283D01*
X0064363Y0298987D01*
X0064292Y0298689D01*
X0064229Y0298389D01*
X0064173Y0298088D01*
X0064125Y0297786D01*
X0064084Y0297483D01*
X0064050Y0297179D01*
X0064024Y0296874D01*
X0064005Y0296568D01*
X0063994Y0296262D01*
X0063990Y0295956D01*
X0063994Y0295650D01*
X0064005Y0295344D01*
X0064024Y0295038D01*
X0064050Y0294733D01*
X0064084Y0294429D01*
X0064125Y0294126D01*
X0064173Y0293824D01*
X0064229Y0293523D01*
X0064292Y0293223D01*
X0064363Y0292925D01*
X0064441Y0292629D01*
X0064526Y0292335D01*
X0064618Y0292043D01*
X0064718Y0291754D01*
X0064824Y0291467D01*
X0064937Y0291182D01*
X0065058Y0290901D01*
X0065185Y0290622D01*
X0065319Y0290347D01*
X0065460Y0290075D01*
X0065607Y0289807D01*
X0065761Y0289542D01*
X0065921Y0289281D01*
X0066088Y0289024D01*
X0066261Y0288772D01*
X0066440Y0288523D01*
X0066625Y0288280D01*
X0066816Y0288040D01*
X0067012Y0287806D01*
X0067215Y0287576D01*
X0067423Y0287352D01*
X0067636Y0287132D01*
X0067855Y0286918D01*
X0068079Y0286709D01*
X0068308Y0286506D01*
X0068542Y0286308D01*
X0068780Y0286117D01*
X0069024Y0285931D01*
X0069271Y0285751D01*
X0069524Y0285577D01*
X0069780Y0285410D01*
X0070040Y0285249D01*
X0070304Y0285094D01*
X0070572Y0284946D01*
X0070843Y0284804D01*
X0071118Y0284669D01*
X0071396Y0284541D01*
X0071677Y0284420D01*
X0071961Y0284305D01*
X0072248Y0284198D01*
X0072537Y0284097D01*
X0072829Y0284004D01*
X0073123Y0283918D01*
X0073418Y0283839D01*
X0073716Y0283768D01*
X0074015Y0283703D01*
X0074316Y0283646D01*
X0074618Y0283597D01*
X0074921Y0283555D01*
X0075226Y0283520D01*
X0075530Y0283493D01*
X0075836Y0283473D01*
X0076142Y0283461D01*
X0076448Y0283456D01*
X0076754Y0283459D01*
X0077060Y0283469D01*
X0077366Y0283487D01*
X0077671Y0283512D01*
X0077975Y0283545D01*
X0078279Y0283585D01*
X0078581Y0283632D01*
X0078882Y0283687D01*
X0079182Y0283749D01*
X0079480Y0283819D01*
X0079776Y0283896D01*
X0080071Y0283980D01*
X0080363Y0284071D01*
X0080653Y0284170D01*
X0080940Y0284275D01*
X0081225Y0284387D01*
X0081507Y0284507D01*
X0081786Y0284633D01*
X0082061Y0284766D01*
X0082334Y0284906D01*
X0082603Y0285052D01*
X0082868Y0285205D01*
X0083129Y0285365D01*
X0083386Y0285531D01*
X0083640Y0285703D01*
X0083889Y0285881D01*
X0084133Y0286065D01*
X0084373Y0286255D01*
X0084608Y0286451D01*
X0084839Y0286653D01*
X0085064Y0286860D01*
X0085284Y0287073D01*
X0085499Y0287291D01*
X0085708Y0287514D01*
X0085912Y0287742D01*
X0086111Y0287975D01*
X0086303Y0288213D01*
X0086490Y0288456D01*
X0075450Y0240843D02*
X0075263Y0241086D01*
X0075071Y0241324D01*
X0074872Y0241557D01*
X0074668Y0241785D01*
X0074459Y0242008D01*
X0074244Y0242226D01*
X0074024Y0242439D01*
X0073799Y0242646D01*
X0073568Y0242848D01*
X0073333Y0243044D01*
X0073093Y0243234D01*
X0072849Y0243418D01*
X0072600Y0243596D01*
X0072346Y0243768D01*
X0072089Y0243934D01*
X0071828Y0244094D01*
X0071563Y0244247D01*
X0071294Y0244393D01*
X0071021Y0244533D01*
X0070746Y0244666D01*
X0070467Y0244792D01*
X0070185Y0244912D01*
X0069900Y0245024D01*
X0069613Y0245129D01*
X0069323Y0245228D01*
X0069031Y0245319D01*
X0068736Y0245403D01*
X0068440Y0245480D01*
X0068142Y0245550D01*
X0067842Y0245612D01*
X0067541Y0245667D01*
X0067239Y0245714D01*
X0066935Y0245754D01*
X0066631Y0245787D01*
X0066326Y0245812D01*
X0066020Y0245830D01*
X0065714Y0245840D01*
X0065408Y0245843D01*
X0065102Y0245838D01*
X0064796Y0245826D01*
X0064490Y0245806D01*
X0064186Y0245779D01*
X0063881Y0245744D01*
X0063578Y0245702D01*
X0063276Y0245653D01*
X0062975Y0245596D01*
X0062676Y0245531D01*
X0062378Y0245460D01*
X0062083Y0245381D01*
X0061789Y0245295D01*
X0061497Y0245202D01*
X0061208Y0245101D01*
X0060921Y0244994D01*
X0060637Y0244879D01*
X0060356Y0244758D01*
X0060078Y0244630D01*
X0059803Y0244495D01*
X0059532Y0244353D01*
X0059264Y0244205D01*
X0059000Y0244050D01*
X0058740Y0243889D01*
X0058484Y0243722D01*
X0058231Y0243548D01*
X0057984Y0243368D01*
X0057740Y0243182D01*
X0057502Y0242991D01*
X0057268Y0242793D01*
X0057039Y0242590D01*
X0056815Y0242381D01*
X0056596Y0242167D01*
X0056383Y0241947D01*
X0056175Y0241723D01*
X0055972Y0241493D01*
X0055776Y0241259D01*
X0055585Y0241019D01*
X0055400Y0240776D01*
X0055221Y0240527D01*
X0055048Y0240275D01*
X0054881Y0240018D01*
X0054721Y0239757D01*
X0054567Y0239492D01*
X0054420Y0239224D01*
X0054279Y0238952D01*
X0054145Y0238677D01*
X0054018Y0238398D01*
X0053897Y0238117D01*
X0053784Y0237832D01*
X0053678Y0237545D01*
X0053578Y0237256D01*
X0053486Y0236964D01*
X0053401Y0236670D01*
X0053323Y0236374D01*
X0053252Y0236076D01*
X0053189Y0235776D01*
X0053133Y0235475D01*
X0053085Y0235173D01*
X0053044Y0234870D01*
X0053010Y0234566D01*
X0052984Y0234261D01*
X0052965Y0233955D01*
X0052954Y0233649D01*
X0052950Y0233343D01*
X0052954Y0233037D01*
X0052965Y0232731D01*
X0052984Y0232425D01*
X0053010Y0232120D01*
X0053044Y0231816D01*
X0053085Y0231513D01*
X0053133Y0231211D01*
X0053189Y0230910D01*
X0053252Y0230610D01*
X0053323Y0230312D01*
X0053401Y0230016D01*
X0053486Y0229722D01*
X0053578Y0229430D01*
X0053678Y0229141D01*
X0053784Y0228854D01*
X0053897Y0228569D01*
X0054018Y0228288D01*
X0054145Y0228009D01*
X0054279Y0227734D01*
X0054420Y0227462D01*
X0054567Y0227194D01*
X0054721Y0226929D01*
X0054881Y0226668D01*
X0055048Y0226411D01*
X0055221Y0226159D01*
X0055400Y0225910D01*
X0055585Y0225667D01*
X0055776Y0225427D01*
X0055972Y0225193D01*
X0056175Y0224963D01*
X0056383Y0224739D01*
X0056596Y0224519D01*
X0056815Y0224305D01*
X0057039Y0224096D01*
X0057268Y0223893D01*
X0057502Y0223695D01*
X0057740Y0223504D01*
X0057984Y0223318D01*
X0058231Y0223138D01*
X0058484Y0222964D01*
X0058740Y0222797D01*
X0059000Y0222636D01*
X0059264Y0222481D01*
X0059532Y0222333D01*
X0059803Y0222191D01*
X0060078Y0222056D01*
X0060356Y0221928D01*
X0060637Y0221807D01*
X0060921Y0221692D01*
X0061208Y0221585D01*
X0061497Y0221484D01*
X0061789Y0221391D01*
X0062083Y0221305D01*
X0062378Y0221226D01*
X0062676Y0221155D01*
X0062975Y0221090D01*
X0063276Y0221033D01*
X0063578Y0220984D01*
X0063881Y0220942D01*
X0064186Y0220907D01*
X0064490Y0220880D01*
X0064796Y0220860D01*
X0065102Y0220848D01*
X0065408Y0220843D01*
X0065714Y0220846D01*
X0066020Y0220856D01*
X0066326Y0220874D01*
X0066631Y0220899D01*
X0066935Y0220932D01*
X0067239Y0220972D01*
X0067541Y0221019D01*
X0067842Y0221074D01*
X0068142Y0221136D01*
X0068440Y0221206D01*
X0068736Y0221283D01*
X0069031Y0221367D01*
X0069323Y0221458D01*
X0069613Y0221557D01*
X0069900Y0221662D01*
X0070185Y0221774D01*
X0070467Y0221894D01*
X0070746Y0222020D01*
X0071021Y0222153D01*
X0071294Y0222293D01*
X0071563Y0222439D01*
X0071828Y0222592D01*
X0072089Y0222752D01*
X0072346Y0222918D01*
X0072600Y0223090D01*
X0072849Y0223268D01*
X0073093Y0223452D01*
X0073333Y0223642D01*
X0073568Y0223838D01*
X0073799Y0224040D01*
X0074024Y0224247D01*
X0074244Y0224460D01*
X0074459Y0224678D01*
X0074668Y0224901D01*
X0074872Y0225129D01*
X0075071Y0225362D01*
X0075263Y0225600D01*
X0075450Y0225843D01*
D14*
X0078200Y0235693D02*
X0080200Y0235693D01*
X0082100Y0235693D02*
X0082100Y0240193D01*
X0084100Y0240193D01*
X0085990Y0240193D02*
X0087240Y0240193D01*
X0085990Y0240193D02*
X0085990Y0235693D01*
X0087240Y0235693D01*
X0087308Y0235695D01*
X0087375Y0235700D01*
X0087442Y0235709D01*
X0087509Y0235722D01*
X0087574Y0235739D01*
X0087639Y0235758D01*
X0087703Y0235782D01*
X0087765Y0235809D01*
X0087826Y0235839D01*
X0087884Y0235872D01*
X0087941Y0235908D01*
X0087996Y0235948D01*
X0088049Y0235990D01*
X0088100Y0236036D01*
X0088147Y0236083D01*
X0088193Y0236134D01*
X0088235Y0236187D01*
X0088275Y0236242D01*
X0088311Y0236299D01*
X0088344Y0236357D01*
X0088374Y0236418D01*
X0088401Y0236480D01*
X0088425Y0236544D01*
X0088444Y0236609D01*
X0088461Y0236674D01*
X0088474Y0236741D01*
X0088483Y0236808D01*
X0088488Y0236875D01*
X0088490Y0236943D01*
X0088490Y0238943D01*
X0088488Y0239011D01*
X0088483Y0239078D01*
X0088474Y0239145D01*
X0088461Y0239212D01*
X0088444Y0239277D01*
X0088425Y0239342D01*
X0088401Y0239406D01*
X0088374Y0239468D01*
X0088344Y0239529D01*
X0088311Y0239587D01*
X0088275Y0239644D01*
X0088235Y0239699D01*
X0088193Y0239752D01*
X0088147Y0239803D01*
X0088100Y0239850D01*
X0088049Y0239896D01*
X0087996Y0239938D01*
X0087941Y0239978D01*
X0087884Y0240014D01*
X0087826Y0240047D01*
X0087765Y0240077D01*
X0087703Y0240104D01*
X0087639Y0240128D01*
X0087574Y0240147D01*
X0087509Y0240164D01*
X0087442Y0240177D01*
X0087375Y0240186D01*
X0087308Y0240191D01*
X0087240Y0240193D01*
X0090640Y0239193D02*
X0091890Y0240193D01*
X0091890Y0235693D01*
X0090640Y0235693D02*
X0093140Y0235693D01*
X0097264Y0236318D02*
X0097315Y0236427D01*
X0097362Y0236537D01*
X0097406Y0236649D01*
X0097446Y0236763D01*
X0097482Y0236877D01*
X0097515Y0236993D01*
X0097544Y0237109D01*
X0097569Y0237227D01*
X0097590Y0237345D01*
X0097608Y0237464D01*
X0097621Y0237583D01*
X0097631Y0237703D01*
X0097637Y0237823D01*
X0097639Y0237943D01*
X0095140Y0237943D02*
X0095142Y0237823D01*
X0095148Y0237703D01*
X0095158Y0237583D01*
X0095171Y0237464D01*
X0095189Y0237345D01*
X0095210Y0237227D01*
X0095235Y0237109D01*
X0095264Y0236993D01*
X0095297Y0236877D01*
X0095333Y0236763D01*
X0095373Y0236649D01*
X0095417Y0236537D01*
X0095464Y0236427D01*
X0095515Y0236318D01*
X0095390Y0236693D02*
X0097390Y0239193D01*
X0097265Y0239568D02*
X0097244Y0239624D01*
X0097218Y0239679D01*
X0097190Y0239733D01*
X0097158Y0239784D01*
X0097123Y0239833D01*
X0097084Y0239879D01*
X0097043Y0239923D01*
X0096999Y0239965D01*
X0096952Y0240003D01*
X0096903Y0240038D01*
X0096851Y0240070D01*
X0096798Y0240098D01*
X0096743Y0240123D01*
X0096687Y0240144D01*
X0096629Y0240162D01*
X0096570Y0240175D01*
X0096510Y0240185D01*
X0096450Y0240191D01*
X0096390Y0240193D01*
X0096330Y0240191D01*
X0096270Y0240185D01*
X0096210Y0240175D01*
X0096151Y0240162D01*
X0096093Y0240144D01*
X0096037Y0240123D01*
X0095982Y0240098D01*
X0095929Y0240070D01*
X0095877Y0240038D01*
X0095828Y0240003D01*
X0095781Y0239965D01*
X0095737Y0239923D01*
X0095696Y0239879D01*
X0095657Y0239833D01*
X0095622Y0239784D01*
X0095590Y0239733D01*
X0095562Y0239679D01*
X0095536Y0239624D01*
X0095515Y0239568D01*
X0097264Y0239568D02*
X0097315Y0239459D01*
X0097362Y0239349D01*
X0097406Y0239237D01*
X0097446Y0239123D01*
X0097482Y0239009D01*
X0097515Y0238893D01*
X0097544Y0238777D01*
X0097569Y0238659D01*
X0097590Y0238541D01*
X0097608Y0238422D01*
X0097621Y0238303D01*
X0097631Y0238183D01*
X0097637Y0238063D01*
X0097639Y0237943D01*
X0095140Y0237943D02*
X0095142Y0238063D01*
X0095148Y0238183D01*
X0095158Y0238303D01*
X0095171Y0238422D01*
X0095189Y0238541D01*
X0095210Y0238659D01*
X0095235Y0238777D01*
X0095264Y0238893D01*
X0095297Y0239009D01*
X0095333Y0239123D01*
X0095373Y0239237D01*
X0095417Y0239349D01*
X0095464Y0239459D01*
X0095515Y0239568D01*
X0097265Y0236318D02*
X0097244Y0236262D01*
X0097218Y0236207D01*
X0097190Y0236153D01*
X0097158Y0236102D01*
X0097123Y0236053D01*
X0097084Y0236007D01*
X0097043Y0235963D01*
X0096999Y0235921D01*
X0096952Y0235883D01*
X0096903Y0235848D01*
X0096851Y0235816D01*
X0096798Y0235788D01*
X0096743Y0235763D01*
X0096687Y0235742D01*
X0096629Y0235724D01*
X0096570Y0235711D01*
X0096510Y0235701D01*
X0096450Y0235695D01*
X0096390Y0235693D01*
X0096330Y0235695D01*
X0096270Y0235701D01*
X0096210Y0235711D01*
X0096151Y0235724D01*
X0096093Y0235742D01*
X0096037Y0235763D01*
X0095982Y0235788D01*
X0095929Y0235816D01*
X0095877Y0235848D01*
X0095828Y0235883D01*
X0095781Y0235921D01*
X0095737Y0235963D01*
X0095696Y0236007D01*
X0095657Y0236053D01*
X0095622Y0236102D01*
X0095590Y0236153D01*
X0095562Y0236207D01*
X0095536Y0236262D01*
X0095515Y0236318D01*
X0084100Y0235693D02*
X0082100Y0235693D01*
X0082100Y0238193D02*
X0083600Y0238193D01*
X0078200Y0240193D02*
X0078200Y0235693D01*
X0089240Y0298306D02*
X0091240Y0298306D01*
X0093140Y0298306D02*
X0093140Y0302806D01*
X0095140Y0302806D01*
X0097030Y0302806D02*
X0098280Y0302806D01*
X0098348Y0302804D01*
X0098415Y0302799D01*
X0098482Y0302790D01*
X0098549Y0302777D01*
X0098614Y0302760D01*
X0098679Y0302741D01*
X0098743Y0302717D01*
X0098805Y0302690D01*
X0098866Y0302660D01*
X0098924Y0302627D01*
X0098981Y0302591D01*
X0099036Y0302551D01*
X0099089Y0302509D01*
X0099140Y0302463D01*
X0099187Y0302416D01*
X0099233Y0302365D01*
X0099275Y0302312D01*
X0099315Y0302257D01*
X0099351Y0302200D01*
X0099384Y0302142D01*
X0099414Y0302081D01*
X0099441Y0302019D01*
X0099465Y0301955D01*
X0099484Y0301890D01*
X0099501Y0301825D01*
X0099514Y0301758D01*
X0099523Y0301691D01*
X0099528Y0301624D01*
X0099530Y0301556D01*
X0099530Y0299556D01*
X0099528Y0299488D01*
X0099523Y0299421D01*
X0099514Y0299354D01*
X0099501Y0299287D01*
X0099484Y0299222D01*
X0099465Y0299157D01*
X0099441Y0299093D01*
X0099414Y0299031D01*
X0099384Y0298970D01*
X0099351Y0298912D01*
X0099315Y0298855D01*
X0099275Y0298800D01*
X0099233Y0298747D01*
X0099187Y0298696D01*
X0099140Y0298649D01*
X0099089Y0298603D01*
X0099036Y0298561D01*
X0098981Y0298521D01*
X0098924Y0298485D01*
X0098866Y0298452D01*
X0098805Y0298422D01*
X0098743Y0298395D01*
X0098679Y0298371D01*
X0098614Y0298352D01*
X0098549Y0298335D01*
X0098482Y0298322D01*
X0098415Y0298313D01*
X0098348Y0298308D01*
X0098280Y0298306D01*
X0097030Y0298306D01*
X0097030Y0302806D01*
X0094640Y0300806D02*
X0093140Y0300806D01*
X0093140Y0298306D02*
X0095140Y0298306D01*
X0089240Y0298306D02*
X0089240Y0302806D01*
X0101680Y0301556D02*
X0101680Y0301306D01*
X0101682Y0301246D01*
X0101687Y0301185D01*
X0101696Y0301126D01*
X0101709Y0301067D01*
X0101725Y0301008D01*
X0101745Y0300951D01*
X0101768Y0300896D01*
X0101795Y0300841D01*
X0101824Y0300789D01*
X0101857Y0300738D01*
X0101893Y0300689D01*
X0101931Y0300643D01*
X0101973Y0300599D01*
X0102017Y0300557D01*
X0102063Y0300519D01*
X0102112Y0300483D01*
X0102163Y0300450D01*
X0102215Y0300421D01*
X0102270Y0300394D01*
X0102325Y0300371D01*
X0102382Y0300351D01*
X0102441Y0300335D01*
X0102500Y0300322D01*
X0102559Y0300313D01*
X0102620Y0300308D01*
X0102680Y0300306D01*
X0104180Y0300306D01*
X0104180Y0301556D01*
X0104178Y0301625D01*
X0104172Y0301694D01*
X0104163Y0301762D01*
X0104150Y0301829D01*
X0104133Y0301896D01*
X0104112Y0301962D01*
X0104088Y0302026D01*
X0104060Y0302089D01*
X0104029Y0302151D01*
X0103995Y0302211D01*
X0103957Y0302268D01*
X0103916Y0302324D01*
X0103873Y0302377D01*
X0103826Y0302428D01*
X0103777Y0302476D01*
X0103725Y0302521D01*
X0103670Y0302563D01*
X0103614Y0302602D01*
X0103555Y0302639D01*
X0103494Y0302671D01*
X0103432Y0302701D01*
X0103368Y0302727D01*
X0103303Y0302749D01*
X0103237Y0302768D01*
X0103170Y0302783D01*
X0103102Y0302794D01*
X0103033Y0302802D01*
X0102964Y0302806D01*
X0102896Y0302806D01*
X0102827Y0302802D01*
X0102758Y0302794D01*
X0102690Y0302783D01*
X0102623Y0302768D01*
X0102557Y0302749D01*
X0102492Y0302727D01*
X0102428Y0302701D01*
X0102366Y0302671D01*
X0102305Y0302639D01*
X0102246Y0302602D01*
X0102190Y0302563D01*
X0102135Y0302521D01*
X0102083Y0302476D01*
X0102034Y0302428D01*
X0101987Y0302377D01*
X0101944Y0302324D01*
X0101903Y0302268D01*
X0101865Y0302211D01*
X0101831Y0302151D01*
X0101800Y0302089D01*
X0101772Y0302026D01*
X0101748Y0301962D01*
X0101727Y0301896D01*
X0101710Y0301829D01*
X0101697Y0301762D01*
X0101688Y0301694D01*
X0101682Y0301625D01*
X0101680Y0301556D01*
X0104180Y0300306D02*
X0104178Y0300219D01*
X0104172Y0300132D01*
X0104163Y0300045D01*
X0104150Y0299959D01*
X0104133Y0299873D01*
X0104112Y0299788D01*
X0104087Y0299705D01*
X0104059Y0299622D01*
X0104028Y0299541D01*
X0103993Y0299461D01*
X0103954Y0299383D01*
X0103912Y0299306D01*
X0103867Y0299231D01*
X0103818Y0299159D01*
X0103767Y0299088D01*
X0103712Y0299020D01*
X0103655Y0298955D01*
X0103594Y0298892D01*
X0103531Y0298831D01*
X0103466Y0298774D01*
X0103398Y0298719D01*
X0103327Y0298668D01*
X0103255Y0298619D01*
X0103180Y0298574D01*
X0103103Y0298532D01*
X0103025Y0298493D01*
X0102945Y0298458D01*
X0102864Y0298427D01*
X0102781Y0298399D01*
X0102698Y0298374D01*
X0102613Y0298353D01*
X0102527Y0298336D01*
X0102441Y0298323D01*
X0102354Y0298314D01*
X0102267Y0298308D01*
X0102180Y0298306D01*
X0121030Y0353368D02*
X0123030Y0353368D01*
X0124930Y0353368D02*
X0124930Y0357868D01*
X0126930Y0357868D01*
X0128820Y0357868D02*
X0130070Y0357868D01*
X0130138Y0357866D01*
X0130205Y0357861D01*
X0130272Y0357852D01*
X0130339Y0357839D01*
X0130404Y0357822D01*
X0130469Y0357803D01*
X0130533Y0357779D01*
X0130595Y0357752D01*
X0130656Y0357722D01*
X0130714Y0357689D01*
X0130771Y0357653D01*
X0130826Y0357613D01*
X0130879Y0357571D01*
X0130930Y0357525D01*
X0130977Y0357478D01*
X0131023Y0357427D01*
X0131065Y0357374D01*
X0131105Y0357319D01*
X0131141Y0357262D01*
X0131174Y0357204D01*
X0131204Y0357143D01*
X0131231Y0357081D01*
X0131255Y0357017D01*
X0131274Y0356952D01*
X0131291Y0356887D01*
X0131304Y0356820D01*
X0131313Y0356753D01*
X0131318Y0356686D01*
X0131320Y0356618D01*
X0131320Y0354618D01*
X0131318Y0354550D01*
X0131313Y0354483D01*
X0131304Y0354416D01*
X0131291Y0354349D01*
X0131274Y0354284D01*
X0131255Y0354219D01*
X0131231Y0354155D01*
X0131204Y0354093D01*
X0131174Y0354032D01*
X0131141Y0353974D01*
X0131105Y0353917D01*
X0131065Y0353862D01*
X0131023Y0353809D01*
X0130977Y0353758D01*
X0130930Y0353711D01*
X0130879Y0353665D01*
X0130826Y0353623D01*
X0130771Y0353583D01*
X0130714Y0353547D01*
X0130656Y0353514D01*
X0130595Y0353484D01*
X0130533Y0353457D01*
X0130469Y0353433D01*
X0130404Y0353414D01*
X0130339Y0353397D01*
X0130272Y0353384D01*
X0130205Y0353375D01*
X0130138Y0353370D01*
X0130070Y0353368D01*
X0128820Y0353368D01*
X0128820Y0357868D01*
X0126430Y0355868D02*
X0124930Y0355868D01*
X0124930Y0353368D02*
X0126930Y0353368D01*
X0133470Y0354618D02*
X0133472Y0354549D01*
X0133478Y0354480D01*
X0133487Y0354412D01*
X0133500Y0354345D01*
X0133517Y0354278D01*
X0133538Y0354212D01*
X0133562Y0354148D01*
X0133590Y0354085D01*
X0133621Y0354023D01*
X0133655Y0353963D01*
X0133693Y0353906D01*
X0133734Y0353850D01*
X0133777Y0353797D01*
X0133824Y0353746D01*
X0133873Y0353698D01*
X0133925Y0353653D01*
X0133980Y0353611D01*
X0134036Y0353572D01*
X0134095Y0353535D01*
X0134156Y0353503D01*
X0134218Y0353473D01*
X0134282Y0353447D01*
X0134347Y0353425D01*
X0134413Y0353406D01*
X0134480Y0353391D01*
X0134548Y0353380D01*
X0134617Y0353372D01*
X0134686Y0353368D01*
X0134754Y0353368D01*
X0134823Y0353372D01*
X0134892Y0353380D01*
X0134960Y0353391D01*
X0135027Y0353406D01*
X0135093Y0353425D01*
X0135158Y0353447D01*
X0135222Y0353473D01*
X0135284Y0353503D01*
X0135345Y0353535D01*
X0135404Y0353572D01*
X0135460Y0353611D01*
X0135515Y0353653D01*
X0135567Y0353698D01*
X0135616Y0353746D01*
X0135663Y0353797D01*
X0135706Y0353850D01*
X0135747Y0353906D01*
X0135785Y0353963D01*
X0135819Y0354023D01*
X0135850Y0354085D01*
X0135878Y0354148D01*
X0135902Y0354212D01*
X0135923Y0354278D01*
X0135940Y0354345D01*
X0135953Y0354412D01*
X0135962Y0354480D01*
X0135968Y0354549D01*
X0135970Y0354618D01*
X0135968Y0354687D01*
X0135962Y0354756D01*
X0135953Y0354824D01*
X0135940Y0354891D01*
X0135923Y0354958D01*
X0135902Y0355024D01*
X0135878Y0355088D01*
X0135850Y0355151D01*
X0135819Y0355213D01*
X0135785Y0355273D01*
X0135747Y0355330D01*
X0135706Y0355386D01*
X0135663Y0355439D01*
X0135616Y0355490D01*
X0135567Y0355538D01*
X0135515Y0355583D01*
X0135460Y0355625D01*
X0135404Y0355664D01*
X0135345Y0355701D01*
X0135284Y0355733D01*
X0135222Y0355763D01*
X0135158Y0355789D01*
X0135093Y0355811D01*
X0135027Y0355830D01*
X0134960Y0355845D01*
X0134892Y0355856D01*
X0134823Y0355864D01*
X0134754Y0355868D01*
X0134686Y0355868D01*
X0134617Y0355864D01*
X0134548Y0355856D01*
X0134480Y0355845D01*
X0134413Y0355830D01*
X0134347Y0355811D01*
X0134282Y0355789D01*
X0134218Y0355763D01*
X0134156Y0355733D01*
X0134095Y0355701D01*
X0134036Y0355664D01*
X0133980Y0355625D01*
X0133925Y0355583D01*
X0133873Y0355538D01*
X0133824Y0355490D01*
X0133777Y0355439D01*
X0133734Y0355386D01*
X0133693Y0355330D01*
X0133655Y0355273D01*
X0133621Y0355213D01*
X0133590Y0355151D01*
X0133562Y0355088D01*
X0133538Y0355024D01*
X0133517Y0354958D01*
X0133500Y0354891D01*
X0133487Y0354824D01*
X0133478Y0354756D01*
X0133472Y0354687D01*
X0133470Y0354618D01*
X0133720Y0356868D02*
X0133722Y0356806D01*
X0133728Y0356745D01*
X0133737Y0356684D01*
X0133750Y0356624D01*
X0133767Y0356565D01*
X0133788Y0356507D01*
X0133812Y0356450D01*
X0133839Y0356395D01*
X0133870Y0356342D01*
X0133904Y0356290D01*
X0133941Y0356241D01*
X0133981Y0356194D01*
X0134024Y0356150D01*
X0134069Y0356109D01*
X0134117Y0356070D01*
X0134168Y0356034D01*
X0134220Y0356002D01*
X0134274Y0355973D01*
X0134330Y0355947D01*
X0134388Y0355925D01*
X0134446Y0355906D01*
X0134506Y0355891D01*
X0134567Y0355880D01*
X0134628Y0355872D01*
X0134689Y0355868D01*
X0134751Y0355868D01*
X0134812Y0355872D01*
X0134873Y0355880D01*
X0134934Y0355891D01*
X0134994Y0355906D01*
X0135052Y0355925D01*
X0135110Y0355947D01*
X0135166Y0355973D01*
X0135220Y0356002D01*
X0135272Y0356034D01*
X0135323Y0356070D01*
X0135371Y0356109D01*
X0135416Y0356150D01*
X0135459Y0356194D01*
X0135499Y0356241D01*
X0135536Y0356290D01*
X0135570Y0356342D01*
X0135601Y0356395D01*
X0135628Y0356450D01*
X0135652Y0356507D01*
X0135673Y0356565D01*
X0135690Y0356624D01*
X0135703Y0356684D01*
X0135712Y0356745D01*
X0135718Y0356806D01*
X0135720Y0356868D01*
X0135718Y0356930D01*
X0135712Y0356991D01*
X0135703Y0357052D01*
X0135690Y0357112D01*
X0135673Y0357171D01*
X0135652Y0357229D01*
X0135628Y0357286D01*
X0135601Y0357341D01*
X0135570Y0357394D01*
X0135536Y0357446D01*
X0135499Y0357495D01*
X0135459Y0357542D01*
X0135416Y0357586D01*
X0135371Y0357627D01*
X0135323Y0357666D01*
X0135272Y0357702D01*
X0135220Y0357734D01*
X0135166Y0357763D01*
X0135110Y0357789D01*
X0135052Y0357811D01*
X0134994Y0357830D01*
X0134934Y0357845D01*
X0134873Y0357856D01*
X0134812Y0357864D01*
X0134751Y0357868D01*
X0134689Y0357868D01*
X0134628Y0357864D01*
X0134567Y0357856D01*
X0134506Y0357845D01*
X0134446Y0357830D01*
X0134388Y0357811D01*
X0134330Y0357789D01*
X0134274Y0357763D01*
X0134220Y0357734D01*
X0134168Y0357702D01*
X0134117Y0357666D01*
X0134069Y0357627D01*
X0134024Y0357586D01*
X0133981Y0357542D01*
X0133941Y0357495D01*
X0133904Y0357446D01*
X0133870Y0357394D01*
X0133839Y0357341D01*
X0133812Y0357286D01*
X0133788Y0357229D01*
X0133767Y0357171D01*
X0133750Y0357112D01*
X0133737Y0357052D01*
X0133728Y0356991D01*
X0133722Y0356930D01*
X0133720Y0356868D01*
X0121030Y0357868D02*
X0121030Y0353368D01*
X0159335Y0364197D02*
X0163835Y0364197D01*
X0163835Y0366197D01*
X0163835Y0368097D02*
X0159335Y0368097D01*
X0159335Y0370097D01*
X0159335Y0371987D02*
X0159335Y0373237D01*
X0159337Y0373305D01*
X0159342Y0373372D01*
X0159351Y0373439D01*
X0159364Y0373506D01*
X0159381Y0373571D01*
X0159400Y0373636D01*
X0159424Y0373700D01*
X0159451Y0373762D01*
X0159481Y0373823D01*
X0159514Y0373881D01*
X0159550Y0373938D01*
X0159590Y0373993D01*
X0159632Y0374046D01*
X0159678Y0374097D01*
X0159725Y0374144D01*
X0159776Y0374190D01*
X0159829Y0374232D01*
X0159884Y0374272D01*
X0159941Y0374308D01*
X0159999Y0374341D01*
X0160060Y0374371D01*
X0160122Y0374398D01*
X0160186Y0374422D01*
X0160251Y0374441D01*
X0160316Y0374458D01*
X0160383Y0374471D01*
X0160450Y0374480D01*
X0160517Y0374485D01*
X0160585Y0374487D01*
X0162585Y0374487D01*
X0162653Y0374485D01*
X0162720Y0374480D01*
X0162787Y0374471D01*
X0162854Y0374458D01*
X0162919Y0374441D01*
X0162984Y0374422D01*
X0163048Y0374398D01*
X0163110Y0374371D01*
X0163171Y0374341D01*
X0163229Y0374308D01*
X0163286Y0374272D01*
X0163341Y0374232D01*
X0163394Y0374190D01*
X0163445Y0374144D01*
X0163492Y0374097D01*
X0163538Y0374046D01*
X0163580Y0373993D01*
X0163620Y0373938D01*
X0163656Y0373881D01*
X0163689Y0373823D01*
X0163719Y0373762D01*
X0163746Y0373700D01*
X0163770Y0373636D01*
X0163789Y0373571D01*
X0163806Y0373506D01*
X0163819Y0373439D01*
X0163828Y0373372D01*
X0163833Y0373305D01*
X0163835Y0373237D01*
X0163835Y0371987D01*
X0159335Y0371987D01*
X0161335Y0369597D02*
X0161335Y0368097D01*
X0163835Y0368097D02*
X0163835Y0370097D01*
X0159835Y0376637D02*
X0159335Y0376637D01*
X0159335Y0379137D01*
X0163835Y0377887D01*
X0219081Y0385942D02*
X0223581Y0385942D01*
X0223581Y0387942D01*
X0223581Y0389842D02*
X0219081Y0389842D01*
X0219081Y0391842D01*
X0219081Y0393732D02*
X0219081Y0394982D01*
X0219081Y0393732D02*
X0223581Y0393732D01*
X0223581Y0394982D01*
X0223579Y0395050D01*
X0223574Y0395117D01*
X0223565Y0395184D01*
X0223552Y0395251D01*
X0223535Y0395316D01*
X0223516Y0395381D01*
X0223492Y0395445D01*
X0223465Y0395507D01*
X0223435Y0395568D01*
X0223402Y0395626D01*
X0223366Y0395683D01*
X0223326Y0395738D01*
X0223284Y0395791D01*
X0223238Y0395842D01*
X0223191Y0395889D01*
X0223140Y0395935D01*
X0223087Y0395977D01*
X0223032Y0396017D01*
X0222975Y0396053D01*
X0222917Y0396086D01*
X0222856Y0396116D01*
X0222794Y0396143D01*
X0222730Y0396167D01*
X0222665Y0396186D01*
X0222600Y0396203D01*
X0222533Y0396216D01*
X0222466Y0396225D01*
X0222399Y0396230D01*
X0222331Y0396232D01*
X0220331Y0396232D01*
X0220263Y0396230D01*
X0220196Y0396225D01*
X0220129Y0396216D01*
X0220062Y0396203D01*
X0219997Y0396186D01*
X0219932Y0396167D01*
X0219868Y0396143D01*
X0219806Y0396116D01*
X0219745Y0396086D01*
X0219687Y0396053D01*
X0219630Y0396017D01*
X0219575Y0395977D01*
X0219522Y0395935D01*
X0219471Y0395889D01*
X0219424Y0395842D01*
X0219378Y0395791D01*
X0219336Y0395738D01*
X0219296Y0395683D01*
X0219260Y0395626D01*
X0219227Y0395568D01*
X0219197Y0395507D01*
X0219170Y0395445D01*
X0219146Y0395381D01*
X0219127Y0395316D01*
X0219110Y0395251D01*
X0219097Y0395184D01*
X0219088Y0395117D01*
X0219083Y0395050D01*
X0219081Y0394982D01*
X0221081Y0398382D02*
X0222331Y0398382D01*
X0221081Y0398382D02*
X0221081Y0399882D01*
X0221081Y0398382D02*
X0220994Y0398384D01*
X0220907Y0398390D01*
X0220820Y0398399D01*
X0220734Y0398412D01*
X0220648Y0398429D01*
X0220563Y0398450D01*
X0220480Y0398475D01*
X0220397Y0398503D01*
X0220316Y0398534D01*
X0220236Y0398569D01*
X0220158Y0398608D01*
X0220081Y0398650D01*
X0220006Y0398695D01*
X0219934Y0398744D01*
X0219863Y0398795D01*
X0219795Y0398850D01*
X0219730Y0398907D01*
X0219667Y0398968D01*
X0219606Y0399031D01*
X0219549Y0399096D01*
X0219494Y0399164D01*
X0219443Y0399235D01*
X0219394Y0399307D01*
X0219349Y0399382D01*
X0219307Y0399459D01*
X0219268Y0399537D01*
X0219233Y0399617D01*
X0219202Y0399698D01*
X0219174Y0399781D01*
X0219149Y0399864D01*
X0219128Y0399949D01*
X0219111Y0400035D01*
X0219098Y0400121D01*
X0219089Y0400208D01*
X0219083Y0400295D01*
X0219081Y0400382D01*
X0221081Y0399882D02*
X0221083Y0399942D01*
X0221088Y0400003D01*
X0221097Y0400062D01*
X0221110Y0400121D01*
X0221126Y0400180D01*
X0221146Y0400237D01*
X0221169Y0400292D01*
X0221196Y0400347D01*
X0221225Y0400399D01*
X0221258Y0400450D01*
X0221294Y0400499D01*
X0221332Y0400545D01*
X0221374Y0400589D01*
X0221418Y0400631D01*
X0221464Y0400669D01*
X0221513Y0400705D01*
X0221564Y0400738D01*
X0221616Y0400767D01*
X0221671Y0400794D01*
X0221726Y0400817D01*
X0221783Y0400837D01*
X0221842Y0400853D01*
X0221901Y0400866D01*
X0221960Y0400875D01*
X0222021Y0400880D01*
X0222081Y0400882D01*
X0222331Y0400882D01*
X0222400Y0400880D01*
X0222469Y0400874D01*
X0222537Y0400865D01*
X0222604Y0400852D01*
X0222671Y0400835D01*
X0222737Y0400814D01*
X0222801Y0400790D01*
X0222864Y0400762D01*
X0222926Y0400731D01*
X0222986Y0400697D01*
X0223043Y0400659D01*
X0223099Y0400618D01*
X0223152Y0400575D01*
X0223203Y0400528D01*
X0223251Y0400479D01*
X0223296Y0400427D01*
X0223338Y0400372D01*
X0223377Y0400316D01*
X0223414Y0400257D01*
X0223446Y0400196D01*
X0223476Y0400134D01*
X0223502Y0400070D01*
X0223524Y0400005D01*
X0223543Y0399939D01*
X0223558Y0399872D01*
X0223569Y0399804D01*
X0223577Y0399735D01*
X0223581Y0399666D01*
X0223581Y0399598D01*
X0223577Y0399529D01*
X0223569Y0399460D01*
X0223558Y0399392D01*
X0223543Y0399325D01*
X0223524Y0399259D01*
X0223502Y0399194D01*
X0223476Y0399130D01*
X0223446Y0399068D01*
X0223414Y0399007D01*
X0223377Y0398948D01*
X0223338Y0398892D01*
X0223296Y0398837D01*
X0223251Y0398785D01*
X0223203Y0398736D01*
X0223152Y0398689D01*
X0223099Y0398646D01*
X0223043Y0398605D01*
X0222986Y0398567D01*
X0222926Y0398533D01*
X0222864Y0398502D01*
X0222801Y0398474D01*
X0222737Y0398450D01*
X0222671Y0398429D01*
X0222604Y0398412D01*
X0222537Y0398399D01*
X0222469Y0398390D01*
X0222400Y0398384D01*
X0222331Y0398382D01*
X0223581Y0391842D02*
X0223581Y0389842D01*
X0221081Y0389842D02*
X0221081Y0391342D01*
X0282660Y0391842D02*
X0282660Y0389842D01*
X0287160Y0389842D01*
X0287160Y0391842D01*
X0287160Y0393732D02*
X0287160Y0394982D01*
X0287158Y0395050D01*
X0287153Y0395117D01*
X0287144Y0395184D01*
X0287131Y0395251D01*
X0287114Y0395316D01*
X0287095Y0395381D01*
X0287071Y0395445D01*
X0287044Y0395507D01*
X0287014Y0395568D01*
X0286981Y0395626D01*
X0286945Y0395683D01*
X0286905Y0395738D01*
X0286863Y0395791D01*
X0286817Y0395842D01*
X0286770Y0395889D01*
X0286719Y0395935D01*
X0286666Y0395977D01*
X0286611Y0396017D01*
X0286554Y0396053D01*
X0286496Y0396086D01*
X0286435Y0396116D01*
X0286373Y0396143D01*
X0286309Y0396167D01*
X0286244Y0396186D01*
X0286179Y0396203D01*
X0286112Y0396216D01*
X0286045Y0396225D01*
X0285978Y0396230D01*
X0285910Y0396232D01*
X0283910Y0396232D01*
X0283842Y0396230D01*
X0283775Y0396225D01*
X0283708Y0396216D01*
X0283641Y0396203D01*
X0283576Y0396186D01*
X0283511Y0396167D01*
X0283447Y0396143D01*
X0283385Y0396116D01*
X0283324Y0396086D01*
X0283266Y0396053D01*
X0283209Y0396017D01*
X0283154Y0395977D01*
X0283101Y0395935D01*
X0283050Y0395889D01*
X0283003Y0395842D01*
X0282957Y0395791D01*
X0282915Y0395738D01*
X0282875Y0395683D01*
X0282839Y0395626D01*
X0282806Y0395568D01*
X0282776Y0395507D01*
X0282749Y0395445D01*
X0282725Y0395381D01*
X0282706Y0395316D01*
X0282689Y0395251D01*
X0282676Y0395184D01*
X0282667Y0395117D01*
X0282662Y0395050D01*
X0282660Y0394982D01*
X0282660Y0393732D01*
X0287160Y0393732D01*
X0284660Y0391342D02*
X0284660Y0389842D01*
X0287160Y0387942D02*
X0287160Y0385942D01*
X0282660Y0385942D01*
X0282660Y0398382D02*
X0282660Y0400882D01*
X0284660Y0399882D02*
X0284660Y0398382D01*
X0282660Y0398382D01*
X0284660Y0399882D02*
X0284662Y0399942D01*
X0284667Y0400003D01*
X0284676Y0400062D01*
X0284689Y0400121D01*
X0284705Y0400180D01*
X0284725Y0400237D01*
X0284748Y0400292D01*
X0284775Y0400347D01*
X0284804Y0400399D01*
X0284837Y0400450D01*
X0284873Y0400499D01*
X0284911Y0400545D01*
X0284953Y0400589D01*
X0284997Y0400631D01*
X0285043Y0400669D01*
X0285092Y0400705D01*
X0285143Y0400738D01*
X0285195Y0400767D01*
X0285250Y0400794D01*
X0285305Y0400817D01*
X0285362Y0400837D01*
X0285421Y0400853D01*
X0285480Y0400866D01*
X0285539Y0400875D01*
X0285600Y0400880D01*
X0285660Y0400882D01*
X0286160Y0400882D01*
X0286220Y0400880D01*
X0286281Y0400875D01*
X0286340Y0400866D01*
X0286399Y0400853D01*
X0286458Y0400837D01*
X0286515Y0400817D01*
X0286570Y0400794D01*
X0286625Y0400767D01*
X0286677Y0400738D01*
X0286728Y0400705D01*
X0286777Y0400669D01*
X0286823Y0400631D01*
X0286867Y0400589D01*
X0286909Y0400545D01*
X0286947Y0400499D01*
X0286983Y0400450D01*
X0287016Y0400399D01*
X0287045Y0400347D01*
X0287072Y0400292D01*
X0287095Y0400237D01*
X0287115Y0400180D01*
X0287131Y0400121D01*
X0287144Y0400062D01*
X0287153Y0400003D01*
X0287158Y0399942D01*
X0287160Y0399882D01*
X0287160Y0398382D01*
X0342406Y0377637D02*
X0345906Y0376637D01*
X0345906Y0379137D01*
X0344906Y0378387D02*
X0346906Y0378387D01*
X0345656Y0374487D02*
X0343656Y0374487D01*
X0343588Y0374485D01*
X0343521Y0374480D01*
X0343454Y0374471D01*
X0343387Y0374458D01*
X0343322Y0374441D01*
X0343257Y0374422D01*
X0343193Y0374398D01*
X0343131Y0374371D01*
X0343070Y0374341D01*
X0343012Y0374308D01*
X0342955Y0374272D01*
X0342900Y0374232D01*
X0342847Y0374190D01*
X0342796Y0374144D01*
X0342749Y0374097D01*
X0342703Y0374046D01*
X0342661Y0373993D01*
X0342621Y0373938D01*
X0342585Y0373881D01*
X0342552Y0373823D01*
X0342522Y0373762D01*
X0342495Y0373700D01*
X0342471Y0373636D01*
X0342452Y0373571D01*
X0342435Y0373506D01*
X0342422Y0373439D01*
X0342413Y0373372D01*
X0342408Y0373305D01*
X0342406Y0373237D01*
X0342406Y0371987D01*
X0346906Y0371987D01*
X0346906Y0373237D01*
X0346904Y0373305D01*
X0346899Y0373372D01*
X0346890Y0373439D01*
X0346877Y0373506D01*
X0346860Y0373571D01*
X0346841Y0373636D01*
X0346817Y0373700D01*
X0346790Y0373762D01*
X0346760Y0373823D01*
X0346727Y0373881D01*
X0346691Y0373938D01*
X0346651Y0373993D01*
X0346609Y0374046D01*
X0346563Y0374097D01*
X0346516Y0374144D01*
X0346465Y0374190D01*
X0346412Y0374232D01*
X0346357Y0374272D01*
X0346300Y0374308D01*
X0346242Y0374341D01*
X0346181Y0374371D01*
X0346119Y0374398D01*
X0346055Y0374422D01*
X0345990Y0374441D01*
X0345925Y0374458D01*
X0345858Y0374471D01*
X0345791Y0374480D01*
X0345724Y0374485D01*
X0345656Y0374487D01*
X0346906Y0370097D02*
X0346906Y0368097D01*
X0342406Y0368097D01*
X0342406Y0370097D01*
X0344406Y0369597D02*
X0344406Y0368097D01*
X0346906Y0366197D02*
X0346906Y0364197D01*
X0342406Y0364197D01*
X0361071Y0348668D02*
X0361071Y0344168D01*
X0363071Y0344168D01*
X0364971Y0344168D02*
X0364971Y0348668D01*
X0366971Y0348668D01*
X0368861Y0348668D02*
X0370111Y0348668D01*
X0370179Y0348666D01*
X0370246Y0348661D01*
X0370313Y0348652D01*
X0370380Y0348639D01*
X0370445Y0348622D01*
X0370510Y0348603D01*
X0370574Y0348579D01*
X0370636Y0348552D01*
X0370697Y0348522D01*
X0370755Y0348489D01*
X0370812Y0348453D01*
X0370867Y0348413D01*
X0370920Y0348371D01*
X0370971Y0348325D01*
X0371018Y0348278D01*
X0371064Y0348227D01*
X0371106Y0348174D01*
X0371146Y0348119D01*
X0371182Y0348062D01*
X0371215Y0348004D01*
X0371245Y0347943D01*
X0371272Y0347881D01*
X0371296Y0347817D01*
X0371315Y0347752D01*
X0371332Y0347687D01*
X0371345Y0347620D01*
X0371354Y0347553D01*
X0371359Y0347486D01*
X0371361Y0347418D01*
X0371361Y0345418D01*
X0371359Y0345350D01*
X0371354Y0345283D01*
X0371345Y0345216D01*
X0371332Y0345149D01*
X0371315Y0345084D01*
X0371296Y0345019D01*
X0371272Y0344955D01*
X0371245Y0344893D01*
X0371215Y0344832D01*
X0371182Y0344774D01*
X0371146Y0344717D01*
X0371106Y0344662D01*
X0371064Y0344609D01*
X0371018Y0344558D01*
X0370971Y0344511D01*
X0370920Y0344465D01*
X0370867Y0344423D01*
X0370812Y0344383D01*
X0370755Y0344347D01*
X0370697Y0344314D01*
X0370636Y0344284D01*
X0370574Y0344257D01*
X0370510Y0344233D01*
X0370445Y0344214D01*
X0370380Y0344197D01*
X0370313Y0344184D01*
X0370246Y0344175D01*
X0370179Y0344170D01*
X0370111Y0344168D01*
X0368861Y0344168D01*
X0368861Y0348668D01*
X0366471Y0346668D02*
X0364971Y0346668D01*
X0364971Y0344168D02*
X0366971Y0344168D01*
X0373511Y0344168D02*
X0374761Y0344168D01*
X0374830Y0344170D01*
X0374899Y0344176D01*
X0374967Y0344185D01*
X0375034Y0344198D01*
X0375101Y0344215D01*
X0375167Y0344236D01*
X0375231Y0344260D01*
X0375294Y0344288D01*
X0375356Y0344319D01*
X0375416Y0344353D01*
X0375473Y0344391D01*
X0375529Y0344432D01*
X0375582Y0344475D01*
X0375633Y0344522D01*
X0375681Y0344571D01*
X0375726Y0344623D01*
X0375768Y0344678D01*
X0375807Y0344734D01*
X0375844Y0344793D01*
X0375876Y0344854D01*
X0375906Y0344916D01*
X0375932Y0344980D01*
X0375954Y0345045D01*
X0375973Y0345111D01*
X0375988Y0345178D01*
X0375999Y0345246D01*
X0376007Y0345315D01*
X0376011Y0345384D01*
X0376011Y0345452D01*
X0376007Y0345521D01*
X0375999Y0345590D01*
X0375988Y0345658D01*
X0375973Y0345725D01*
X0375954Y0345791D01*
X0375932Y0345856D01*
X0375906Y0345920D01*
X0375876Y0345982D01*
X0375844Y0346043D01*
X0375807Y0346102D01*
X0375768Y0346158D01*
X0375726Y0346213D01*
X0375681Y0346265D01*
X0375633Y0346314D01*
X0375582Y0346361D01*
X0375529Y0346404D01*
X0375473Y0346445D01*
X0375416Y0346483D01*
X0375356Y0346517D01*
X0375294Y0346548D01*
X0375231Y0346576D01*
X0375167Y0346600D01*
X0375101Y0346621D01*
X0375034Y0346638D01*
X0374967Y0346651D01*
X0374899Y0346660D01*
X0374830Y0346666D01*
X0374761Y0346668D01*
X0375011Y0346668D02*
X0374011Y0346668D01*
X0375011Y0346668D02*
X0375073Y0346670D01*
X0375134Y0346676D01*
X0375195Y0346685D01*
X0375255Y0346698D01*
X0375314Y0346715D01*
X0375372Y0346736D01*
X0375429Y0346760D01*
X0375484Y0346787D01*
X0375537Y0346818D01*
X0375589Y0346852D01*
X0375638Y0346889D01*
X0375685Y0346929D01*
X0375729Y0346972D01*
X0375770Y0347017D01*
X0375809Y0347065D01*
X0375845Y0347116D01*
X0375877Y0347168D01*
X0375906Y0347222D01*
X0375932Y0347278D01*
X0375954Y0347336D01*
X0375973Y0347394D01*
X0375988Y0347454D01*
X0375999Y0347515D01*
X0376007Y0347576D01*
X0376011Y0347637D01*
X0376011Y0347699D01*
X0376007Y0347760D01*
X0375999Y0347821D01*
X0375988Y0347882D01*
X0375973Y0347942D01*
X0375954Y0348000D01*
X0375932Y0348058D01*
X0375906Y0348114D01*
X0375877Y0348168D01*
X0375845Y0348220D01*
X0375809Y0348271D01*
X0375770Y0348319D01*
X0375729Y0348364D01*
X0375685Y0348407D01*
X0375638Y0348447D01*
X0375589Y0348484D01*
X0375537Y0348518D01*
X0375484Y0348549D01*
X0375429Y0348576D01*
X0375372Y0348600D01*
X0375314Y0348621D01*
X0375255Y0348638D01*
X0375195Y0348651D01*
X0375134Y0348660D01*
X0375073Y0348666D01*
X0375011Y0348668D01*
X0373511Y0348668D01*
X0392861Y0293606D02*
X0392861Y0289106D01*
X0394861Y0289106D01*
X0396761Y0289106D02*
X0396761Y0293606D01*
X0398761Y0293606D01*
X0400651Y0293606D02*
X0400651Y0289106D01*
X0401901Y0289106D01*
X0401969Y0289108D01*
X0402036Y0289113D01*
X0402103Y0289122D01*
X0402170Y0289135D01*
X0402235Y0289152D01*
X0402300Y0289171D01*
X0402364Y0289195D01*
X0402426Y0289222D01*
X0402487Y0289252D01*
X0402545Y0289285D01*
X0402602Y0289321D01*
X0402657Y0289361D01*
X0402710Y0289403D01*
X0402761Y0289449D01*
X0402808Y0289496D01*
X0402854Y0289547D01*
X0402896Y0289600D01*
X0402936Y0289655D01*
X0402972Y0289712D01*
X0403005Y0289770D01*
X0403035Y0289831D01*
X0403062Y0289893D01*
X0403086Y0289957D01*
X0403105Y0290022D01*
X0403122Y0290087D01*
X0403135Y0290154D01*
X0403144Y0290221D01*
X0403149Y0290288D01*
X0403151Y0290356D01*
X0403151Y0292356D01*
X0403149Y0292424D01*
X0403144Y0292491D01*
X0403135Y0292558D01*
X0403122Y0292625D01*
X0403105Y0292690D01*
X0403086Y0292755D01*
X0403062Y0292819D01*
X0403035Y0292881D01*
X0403005Y0292942D01*
X0402972Y0293000D01*
X0402936Y0293057D01*
X0402896Y0293112D01*
X0402854Y0293165D01*
X0402808Y0293216D01*
X0402761Y0293263D01*
X0402710Y0293309D01*
X0402657Y0293351D01*
X0402602Y0293391D01*
X0402545Y0293427D01*
X0402487Y0293460D01*
X0402426Y0293490D01*
X0402364Y0293517D01*
X0402300Y0293541D01*
X0402235Y0293560D01*
X0402170Y0293577D01*
X0402103Y0293590D01*
X0402036Y0293599D01*
X0401969Y0293604D01*
X0401901Y0293606D01*
X0400651Y0293606D01*
X0398261Y0291606D02*
X0396761Y0291606D01*
X0396761Y0289106D02*
X0398761Y0289106D01*
X0405301Y0289106D02*
X0407801Y0289106D01*
X0405301Y0289106D02*
X0407426Y0291606D01*
X0406676Y0293606D02*
X0406603Y0293604D01*
X0406531Y0293599D01*
X0406459Y0293590D01*
X0406387Y0293577D01*
X0406316Y0293561D01*
X0406246Y0293541D01*
X0406178Y0293517D01*
X0406110Y0293491D01*
X0406044Y0293460D01*
X0405979Y0293427D01*
X0405917Y0293390D01*
X0405856Y0293351D01*
X0405797Y0293308D01*
X0405740Y0293262D01*
X0405686Y0293214D01*
X0405635Y0293163D01*
X0405585Y0293109D01*
X0405539Y0293053D01*
X0405496Y0292995D01*
X0405455Y0292934D01*
X0405418Y0292872D01*
X0405384Y0292808D01*
X0405353Y0292742D01*
X0405325Y0292675D01*
X0405301Y0292606D01*
X0407426Y0291606D02*
X0407472Y0291652D01*
X0407516Y0291701D01*
X0407556Y0291752D01*
X0407594Y0291805D01*
X0407629Y0291860D01*
X0407661Y0291917D01*
X0407690Y0291975D01*
X0407716Y0292035D01*
X0407738Y0292097D01*
X0407757Y0292159D01*
X0407773Y0292222D01*
X0407785Y0292286D01*
X0407794Y0292351D01*
X0407799Y0292416D01*
X0407801Y0292481D01*
X0407799Y0292546D01*
X0407793Y0292612D01*
X0407784Y0292676D01*
X0407771Y0292740D01*
X0407754Y0292804D01*
X0407733Y0292866D01*
X0407709Y0292927D01*
X0407681Y0292986D01*
X0407650Y0293044D01*
X0407616Y0293099D01*
X0407578Y0293153D01*
X0407538Y0293204D01*
X0407494Y0293253D01*
X0407448Y0293299D01*
X0407399Y0293343D01*
X0407348Y0293383D01*
X0407294Y0293421D01*
X0407239Y0293455D01*
X0407181Y0293486D01*
X0407122Y0293514D01*
X0407061Y0293538D01*
X0406999Y0293559D01*
X0406935Y0293576D01*
X0406871Y0293589D01*
X0406807Y0293598D01*
X0406741Y0293604D01*
X0406676Y0293606D01*
X0407801Y0230993D02*
X0409801Y0230993D01*
X0411691Y0230993D02*
X0412941Y0230993D01*
X0411691Y0230993D02*
X0411691Y0226493D01*
X0412941Y0226493D01*
X0413009Y0226495D01*
X0413076Y0226500D01*
X0413143Y0226509D01*
X0413210Y0226522D01*
X0413275Y0226539D01*
X0413340Y0226558D01*
X0413404Y0226582D01*
X0413466Y0226609D01*
X0413527Y0226639D01*
X0413585Y0226672D01*
X0413642Y0226708D01*
X0413697Y0226748D01*
X0413750Y0226790D01*
X0413801Y0226836D01*
X0413848Y0226883D01*
X0413894Y0226934D01*
X0413936Y0226987D01*
X0413976Y0227042D01*
X0414012Y0227099D01*
X0414045Y0227157D01*
X0414075Y0227218D01*
X0414102Y0227280D01*
X0414126Y0227344D01*
X0414145Y0227409D01*
X0414162Y0227474D01*
X0414175Y0227541D01*
X0414184Y0227608D01*
X0414189Y0227675D01*
X0414191Y0227743D01*
X0414191Y0229743D01*
X0414189Y0229811D01*
X0414184Y0229878D01*
X0414175Y0229945D01*
X0414162Y0230012D01*
X0414145Y0230077D01*
X0414126Y0230142D01*
X0414102Y0230206D01*
X0414075Y0230268D01*
X0414045Y0230329D01*
X0414012Y0230387D01*
X0413976Y0230444D01*
X0413936Y0230499D01*
X0413894Y0230552D01*
X0413848Y0230603D01*
X0413801Y0230650D01*
X0413750Y0230696D01*
X0413697Y0230738D01*
X0413642Y0230778D01*
X0413585Y0230814D01*
X0413527Y0230847D01*
X0413466Y0230877D01*
X0413404Y0230904D01*
X0413340Y0230928D01*
X0413275Y0230947D01*
X0413210Y0230964D01*
X0413143Y0230977D01*
X0413076Y0230986D01*
X0413009Y0230991D01*
X0412941Y0230993D01*
X0416341Y0229993D02*
X0417591Y0230993D01*
X0417591Y0226493D01*
X0416341Y0226493D02*
X0418841Y0226493D01*
X0409801Y0226493D02*
X0407801Y0226493D01*
X0407801Y0230993D01*
X0407801Y0228993D02*
X0409301Y0228993D01*
X0405901Y0226493D02*
X0403901Y0226493D01*
X0403901Y0230993D01*
X0372502Y0147443D02*
X0372502Y0142943D01*
X0371252Y0142943D02*
X0373752Y0142943D01*
X0369487Y0142943D02*
X0368487Y0142943D01*
X0368427Y0142945D01*
X0368366Y0142950D01*
X0368307Y0142959D01*
X0368248Y0142972D01*
X0368189Y0142988D01*
X0368132Y0143008D01*
X0368077Y0143031D01*
X0368022Y0143058D01*
X0367970Y0143087D01*
X0367919Y0143120D01*
X0367870Y0143156D01*
X0367824Y0143194D01*
X0367780Y0143236D01*
X0367738Y0143280D01*
X0367700Y0143326D01*
X0367664Y0143375D01*
X0367631Y0143426D01*
X0367602Y0143478D01*
X0367575Y0143533D01*
X0367552Y0143588D01*
X0367532Y0143645D01*
X0367516Y0143704D01*
X0367503Y0143763D01*
X0367494Y0143822D01*
X0367489Y0143883D01*
X0367487Y0143943D01*
X0367487Y0146443D01*
X0367489Y0146503D01*
X0367494Y0146564D01*
X0367503Y0146623D01*
X0367516Y0146682D01*
X0367532Y0146741D01*
X0367552Y0146798D01*
X0367575Y0146853D01*
X0367602Y0146908D01*
X0367631Y0146960D01*
X0367664Y0147011D01*
X0367700Y0147060D01*
X0367738Y0147106D01*
X0367780Y0147150D01*
X0367824Y0147192D01*
X0367870Y0147230D01*
X0367919Y0147266D01*
X0367970Y0147299D01*
X0368022Y0147328D01*
X0368077Y0147355D01*
X0368132Y0147378D01*
X0368189Y0147398D01*
X0368248Y0147414D01*
X0368307Y0147427D01*
X0368366Y0147436D01*
X0368427Y0147441D01*
X0368487Y0147443D01*
X0369487Y0147443D01*
X0371252Y0146443D02*
X0372502Y0147443D01*
X0223407Y0309262D02*
X0220907Y0309262D01*
X0222157Y0309262D02*
X0222157Y0313762D01*
X0220907Y0312762D01*
X0217657Y0313762D02*
X0217657Y0309262D01*
X0216407Y0309262D02*
X0218907Y0309262D01*
X0216407Y0312762D02*
X0217657Y0313762D01*
X0214257Y0312512D02*
X0214257Y0310512D01*
X0214255Y0310444D01*
X0214250Y0310377D01*
X0214241Y0310310D01*
X0214228Y0310243D01*
X0214211Y0310178D01*
X0214192Y0310113D01*
X0214168Y0310049D01*
X0214141Y0309987D01*
X0214111Y0309926D01*
X0214078Y0309868D01*
X0214042Y0309811D01*
X0214002Y0309756D01*
X0213960Y0309703D01*
X0213914Y0309652D01*
X0213867Y0309605D01*
X0213816Y0309559D01*
X0213763Y0309517D01*
X0213708Y0309477D01*
X0213651Y0309441D01*
X0213593Y0309408D01*
X0213532Y0309378D01*
X0213470Y0309351D01*
X0213406Y0309327D01*
X0213341Y0309308D01*
X0213276Y0309291D01*
X0213209Y0309278D01*
X0213142Y0309269D01*
X0213075Y0309264D01*
X0213007Y0309262D01*
X0211757Y0309262D01*
X0211757Y0313762D01*
X0213007Y0313762D01*
X0213075Y0313760D01*
X0213142Y0313755D01*
X0213209Y0313746D01*
X0213276Y0313733D01*
X0213341Y0313716D01*
X0213406Y0313697D01*
X0213470Y0313673D01*
X0213532Y0313646D01*
X0213593Y0313616D01*
X0213651Y0313583D01*
X0213708Y0313547D01*
X0213763Y0313507D01*
X0213816Y0313465D01*
X0213867Y0313419D01*
X0213914Y0313372D01*
X0213960Y0313321D01*
X0214002Y0313268D01*
X0214042Y0313213D01*
X0214078Y0313156D01*
X0214111Y0313098D01*
X0214141Y0313037D01*
X0214168Y0312975D01*
X0214192Y0312911D01*
X0214211Y0312846D01*
X0214228Y0312781D01*
X0214241Y0312714D01*
X0214250Y0312647D01*
X0214255Y0312580D01*
X0214257Y0312512D01*
X0209867Y0313762D02*
X0207867Y0313762D01*
X0207867Y0309262D01*
X0209867Y0309262D01*
X0209367Y0311762D02*
X0207867Y0311762D01*
X0205967Y0309262D02*
X0203967Y0309262D01*
X0203967Y0313762D01*
D15*
X0264495Y0136845D02*
X0264689Y0136845D01*
X0264495Y0136845D02*
X0264439Y0136843D01*
X0264384Y0136837D01*
X0264330Y0136827D01*
X0264276Y0136813D01*
X0264223Y0136796D01*
X0264172Y0136775D01*
X0264122Y0136750D01*
X0264074Y0136721D01*
X0264029Y0136690D01*
X0263986Y0136655D01*
X0263945Y0136617D01*
X0263907Y0136576D01*
X0263872Y0136533D01*
X0263841Y0136488D01*
X0263812Y0136440D01*
X0263787Y0136390D01*
X0263766Y0136339D01*
X0263749Y0136286D01*
X0263735Y0136232D01*
X0263725Y0136178D01*
X0263719Y0136123D01*
X0263717Y0136067D01*
X0263717Y0134901D01*
X0264689Y0134901D01*
X0264750Y0134903D01*
X0264811Y0134909D01*
X0264871Y0134918D01*
X0264931Y0134932D01*
X0264989Y0134949D01*
X0265047Y0134969D01*
X0265103Y0134994D01*
X0265157Y0135021D01*
X0265210Y0135052D01*
X0265260Y0135087D01*
X0265309Y0135124D01*
X0265354Y0135164D01*
X0265398Y0135208D01*
X0265438Y0135253D01*
X0265475Y0135302D01*
X0265510Y0135352D01*
X0265541Y0135405D01*
X0265568Y0135459D01*
X0265593Y0135515D01*
X0265613Y0135573D01*
X0265630Y0135631D01*
X0265644Y0135691D01*
X0265653Y0135751D01*
X0265659Y0135812D01*
X0265661Y0135873D01*
X0265659Y0135934D01*
X0265653Y0135995D01*
X0265644Y0136055D01*
X0265630Y0136115D01*
X0265613Y0136173D01*
X0265593Y0136231D01*
X0265568Y0136287D01*
X0265541Y0136341D01*
X0265510Y0136394D01*
X0265475Y0136444D01*
X0265438Y0136493D01*
X0265398Y0136538D01*
X0265354Y0136582D01*
X0265309Y0136622D01*
X0265260Y0136659D01*
X0265210Y0136694D01*
X0265157Y0136725D01*
X0265103Y0136752D01*
X0265047Y0136777D01*
X0264989Y0136797D01*
X0264931Y0136814D01*
X0264871Y0136828D01*
X0264811Y0136837D01*
X0264750Y0136843D01*
X0264689Y0136845D01*
X0263717Y0134900D02*
X0263638Y0134902D01*
X0263560Y0134908D01*
X0263481Y0134918D01*
X0263404Y0134932D01*
X0263327Y0134950D01*
X0263251Y0134971D01*
X0263177Y0134997D01*
X0263103Y0135026D01*
X0263032Y0135059D01*
X0262962Y0135096D01*
X0262894Y0135136D01*
X0262828Y0135179D01*
X0262765Y0135226D01*
X0262703Y0135275D01*
X0262645Y0135328D01*
X0262589Y0135384D01*
X0262536Y0135442D01*
X0262487Y0135504D01*
X0262440Y0135567D01*
X0262397Y0135633D01*
X0262357Y0135701D01*
X0262320Y0135771D01*
X0262287Y0135842D01*
X0262258Y0135916D01*
X0262232Y0135990D01*
X0262211Y0136066D01*
X0262193Y0136143D01*
X0262179Y0136220D01*
X0262169Y0136299D01*
X0262163Y0136377D01*
X0262161Y0136456D01*
X0262161Y0132389D02*
X0262161Y0131417D01*
X0265661Y0131417D01*
X0264106Y0131417D02*
X0264106Y0132389D01*
X0264106Y0132583D02*
X0265661Y0133361D01*
X0264106Y0132389D02*
X0264104Y0132450D01*
X0264098Y0132511D01*
X0264089Y0132571D01*
X0264075Y0132631D01*
X0264058Y0132689D01*
X0264038Y0132747D01*
X0264013Y0132803D01*
X0263986Y0132857D01*
X0263955Y0132910D01*
X0263920Y0132960D01*
X0263883Y0133009D01*
X0263843Y0133054D01*
X0263799Y0133098D01*
X0263754Y0133138D01*
X0263705Y0133175D01*
X0263655Y0133210D01*
X0263602Y0133241D01*
X0263548Y0133268D01*
X0263492Y0133293D01*
X0263434Y0133313D01*
X0263376Y0133330D01*
X0263316Y0133344D01*
X0263256Y0133353D01*
X0263195Y0133359D01*
X0263134Y0133361D01*
X0263073Y0133359D01*
X0263012Y0133353D01*
X0262952Y0133344D01*
X0262892Y0133330D01*
X0262834Y0133313D01*
X0262776Y0133293D01*
X0262720Y0133268D01*
X0262666Y0133241D01*
X0262613Y0133210D01*
X0262563Y0133175D01*
X0262514Y0133138D01*
X0262469Y0133098D01*
X0262425Y0133054D01*
X0262385Y0133009D01*
X0262348Y0132960D01*
X0262313Y0132910D01*
X0262282Y0132857D01*
X0262255Y0132803D01*
X0262230Y0132747D01*
X0262210Y0132689D01*
X0262193Y0132631D01*
X0262179Y0132571D01*
X0262170Y0132511D01*
X0262164Y0132450D01*
X0262162Y0132389D01*
X0249126Y0131786D02*
X0247571Y0131008D01*
X0247571Y0130814D02*
X0247571Y0129842D01*
X0247570Y0130814D02*
X0247568Y0130875D01*
X0247562Y0130936D01*
X0247553Y0130996D01*
X0247539Y0131056D01*
X0247522Y0131114D01*
X0247502Y0131172D01*
X0247477Y0131228D01*
X0247450Y0131282D01*
X0247419Y0131335D01*
X0247384Y0131385D01*
X0247347Y0131434D01*
X0247307Y0131479D01*
X0247263Y0131523D01*
X0247218Y0131563D01*
X0247169Y0131600D01*
X0247119Y0131635D01*
X0247066Y0131666D01*
X0247012Y0131693D01*
X0246956Y0131718D01*
X0246898Y0131738D01*
X0246840Y0131755D01*
X0246780Y0131769D01*
X0246720Y0131778D01*
X0246659Y0131784D01*
X0246598Y0131786D01*
X0246537Y0131784D01*
X0246476Y0131778D01*
X0246416Y0131769D01*
X0246356Y0131755D01*
X0246298Y0131738D01*
X0246240Y0131718D01*
X0246184Y0131693D01*
X0246130Y0131666D01*
X0246077Y0131635D01*
X0246027Y0131600D01*
X0245978Y0131563D01*
X0245933Y0131523D01*
X0245889Y0131479D01*
X0245849Y0131434D01*
X0245812Y0131385D01*
X0245777Y0131335D01*
X0245746Y0131282D01*
X0245719Y0131228D01*
X0245694Y0131172D01*
X0245674Y0131114D01*
X0245657Y0131056D01*
X0245643Y0130996D01*
X0245634Y0130936D01*
X0245628Y0130875D01*
X0245626Y0130814D01*
X0245626Y0129842D01*
X0249126Y0129842D01*
X0249126Y0134298D02*
X0245626Y0135270D01*
X0245626Y0133326D01*
X0246015Y0133326D01*
X0278303Y0132389D02*
X0278303Y0131417D01*
X0281803Y0131417D01*
X0280248Y0131417D02*
X0280248Y0132389D01*
X0280248Y0132583D02*
X0281803Y0133361D01*
X0281803Y0134901D02*
X0281803Y0136067D01*
X0281801Y0136123D01*
X0281795Y0136178D01*
X0281785Y0136232D01*
X0281771Y0136286D01*
X0281754Y0136339D01*
X0281733Y0136390D01*
X0281708Y0136440D01*
X0281680Y0136488D01*
X0281648Y0136533D01*
X0281613Y0136576D01*
X0281575Y0136617D01*
X0281534Y0136655D01*
X0281491Y0136690D01*
X0281446Y0136721D01*
X0281398Y0136750D01*
X0281348Y0136775D01*
X0281297Y0136796D01*
X0281244Y0136813D01*
X0281190Y0136827D01*
X0281136Y0136837D01*
X0281081Y0136843D01*
X0281025Y0136845D01*
X0280637Y0136845D01*
X0280581Y0136843D01*
X0280526Y0136837D01*
X0280472Y0136827D01*
X0280418Y0136813D01*
X0280365Y0136796D01*
X0280314Y0136775D01*
X0280264Y0136750D01*
X0280216Y0136721D01*
X0280171Y0136690D01*
X0280128Y0136655D01*
X0280087Y0136617D01*
X0280049Y0136576D01*
X0280014Y0136533D01*
X0279983Y0136488D01*
X0279954Y0136440D01*
X0279929Y0136390D01*
X0279908Y0136339D01*
X0279891Y0136286D01*
X0279877Y0136232D01*
X0279867Y0136178D01*
X0279861Y0136123D01*
X0279859Y0136067D01*
X0279859Y0134901D01*
X0278303Y0134901D01*
X0278303Y0136845D01*
X0278303Y0132389D02*
X0278305Y0132450D01*
X0278311Y0132511D01*
X0278320Y0132571D01*
X0278334Y0132631D01*
X0278351Y0132689D01*
X0278371Y0132747D01*
X0278396Y0132803D01*
X0278423Y0132857D01*
X0278454Y0132910D01*
X0278489Y0132960D01*
X0278526Y0133009D01*
X0278566Y0133054D01*
X0278610Y0133098D01*
X0278655Y0133138D01*
X0278704Y0133175D01*
X0278754Y0133210D01*
X0278807Y0133241D01*
X0278861Y0133268D01*
X0278917Y0133293D01*
X0278975Y0133313D01*
X0279033Y0133330D01*
X0279093Y0133344D01*
X0279153Y0133353D01*
X0279214Y0133359D01*
X0279275Y0133361D01*
X0279336Y0133359D01*
X0279397Y0133353D01*
X0279457Y0133344D01*
X0279517Y0133330D01*
X0279575Y0133313D01*
X0279633Y0133293D01*
X0279689Y0133268D01*
X0279743Y0133241D01*
X0279796Y0133210D01*
X0279846Y0133175D01*
X0279895Y0133138D01*
X0279940Y0133098D01*
X0279984Y0133054D01*
X0280024Y0133009D01*
X0280061Y0132960D01*
X0280096Y0132910D01*
X0280127Y0132857D01*
X0280154Y0132803D01*
X0280179Y0132747D01*
X0280199Y0132689D01*
X0280216Y0132631D01*
X0280230Y0132571D01*
X0280239Y0132511D01*
X0280245Y0132450D01*
X0280247Y0132389D01*
X0292083Y0132204D02*
X0292083Y0133176D01*
X0292085Y0133237D01*
X0292091Y0133298D01*
X0292100Y0133358D01*
X0292114Y0133418D01*
X0292131Y0133476D01*
X0292151Y0133534D01*
X0292176Y0133590D01*
X0292203Y0133644D01*
X0292234Y0133697D01*
X0292269Y0133747D01*
X0292306Y0133796D01*
X0292346Y0133841D01*
X0292390Y0133885D01*
X0292435Y0133925D01*
X0292484Y0133962D01*
X0292534Y0133997D01*
X0292587Y0134028D01*
X0292641Y0134055D01*
X0292697Y0134080D01*
X0292755Y0134100D01*
X0292813Y0134117D01*
X0292873Y0134131D01*
X0292933Y0134140D01*
X0292994Y0134146D01*
X0293055Y0134148D01*
X0293116Y0134146D01*
X0293177Y0134140D01*
X0293237Y0134131D01*
X0293297Y0134117D01*
X0293355Y0134100D01*
X0293413Y0134080D01*
X0293469Y0134055D01*
X0293523Y0134028D01*
X0293576Y0133997D01*
X0293626Y0133962D01*
X0293675Y0133925D01*
X0293720Y0133885D01*
X0293764Y0133841D01*
X0293804Y0133796D01*
X0293841Y0133747D01*
X0293876Y0133697D01*
X0293907Y0133644D01*
X0293934Y0133590D01*
X0293959Y0133534D01*
X0293979Y0133476D01*
X0293996Y0133418D01*
X0294010Y0133358D01*
X0294019Y0133298D01*
X0294025Y0133237D01*
X0294027Y0133176D01*
X0294027Y0132204D01*
X0294027Y0133371D02*
X0295583Y0134148D01*
X0294805Y0135688D02*
X0294805Y0137633D01*
X0294027Y0137049D02*
X0295583Y0137049D01*
X0294805Y0135688D02*
X0292083Y0136466D01*
X0292083Y0132204D02*
X0295583Y0132204D01*
X0306650Y0131810D02*
X0306650Y0132782D01*
X0306650Y0131810D02*
X0310150Y0131810D01*
X0308594Y0131810D02*
X0308594Y0132782D01*
X0308594Y0132977D02*
X0310150Y0133755D01*
X0310150Y0135294D02*
X0310150Y0136267D01*
X0310149Y0136267D02*
X0310147Y0136328D01*
X0310141Y0136389D01*
X0310132Y0136449D01*
X0310118Y0136509D01*
X0310101Y0136567D01*
X0310081Y0136625D01*
X0310056Y0136681D01*
X0310029Y0136735D01*
X0309998Y0136788D01*
X0309963Y0136838D01*
X0309926Y0136887D01*
X0309886Y0136932D01*
X0309842Y0136976D01*
X0309797Y0137016D01*
X0309748Y0137053D01*
X0309698Y0137088D01*
X0309645Y0137119D01*
X0309591Y0137146D01*
X0309535Y0137171D01*
X0309477Y0137191D01*
X0309419Y0137208D01*
X0309359Y0137222D01*
X0309299Y0137231D01*
X0309238Y0137237D01*
X0309177Y0137239D01*
X0309116Y0137237D01*
X0309055Y0137231D01*
X0308995Y0137222D01*
X0308935Y0137208D01*
X0308877Y0137191D01*
X0308819Y0137171D01*
X0308763Y0137146D01*
X0308709Y0137119D01*
X0308656Y0137088D01*
X0308606Y0137053D01*
X0308557Y0137016D01*
X0308512Y0136976D01*
X0308468Y0136932D01*
X0308428Y0136887D01*
X0308391Y0136838D01*
X0308356Y0136788D01*
X0308325Y0136735D01*
X0308298Y0136681D01*
X0308273Y0136625D01*
X0308253Y0136567D01*
X0308236Y0136509D01*
X0308222Y0136449D01*
X0308213Y0136389D01*
X0308207Y0136328D01*
X0308205Y0136267D01*
X0308205Y0136461D02*
X0308205Y0135683D01*
X0308205Y0136461D02*
X0308203Y0136517D01*
X0308197Y0136572D01*
X0308187Y0136626D01*
X0308173Y0136680D01*
X0308156Y0136733D01*
X0308135Y0136784D01*
X0308110Y0136834D01*
X0308081Y0136882D01*
X0308050Y0136927D01*
X0308015Y0136970D01*
X0307977Y0137011D01*
X0307936Y0137049D01*
X0307893Y0137084D01*
X0307848Y0137115D01*
X0307800Y0137144D01*
X0307750Y0137169D01*
X0307699Y0137190D01*
X0307646Y0137207D01*
X0307592Y0137221D01*
X0307538Y0137231D01*
X0307483Y0137237D01*
X0307427Y0137239D01*
X0307371Y0137237D01*
X0307316Y0137231D01*
X0307262Y0137221D01*
X0307208Y0137207D01*
X0307155Y0137190D01*
X0307104Y0137169D01*
X0307054Y0137144D01*
X0307006Y0137115D01*
X0306961Y0137084D01*
X0306918Y0137049D01*
X0306877Y0137011D01*
X0306839Y0136970D01*
X0306804Y0136927D01*
X0306773Y0136882D01*
X0306744Y0136834D01*
X0306719Y0136784D01*
X0306698Y0136733D01*
X0306681Y0136680D01*
X0306667Y0136626D01*
X0306657Y0136572D01*
X0306651Y0136517D01*
X0306649Y0136461D01*
X0306650Y0136461D02*
X0306650Y0135294D01*
X0306650Y0132782D02*
X0306652Y0132843D01*
X0306658Y0132904D01*
X0306667Y0132964D01*
X0306681Y0133024D01*
X0306698Y0133082D01*
X0306718Y0133140D01*
X0306743Y0133196D01*
X0306770Y0133250D01*
X0306801Y0133303D01*
X0306836Y0133353D01*
X0306873Y0133402D01*
X0306913Y0133447D01*
X0306957Y0133491D01*
X0307002Y0133531D01*
X0307051Y0133568D01*
X0307101Y0133603D01*
X0307154Y0133634D01*
X0307208Y0133661D01*
X0307264Y0133686D01*
X0307322Y0133706D01*
X0307380Y0133723D01*
X0307440Y0133737D01*
X0307500Y0133746D01*
X0307561Y0133752D01*
X0307622Y0133754D01*
X0307683Y0133752D01*
X0307744Y0133746D01*
X0307804Y0133737D01*
X0307864Y0133723D01*
X0307922Y0133706D01*
X0307980Y0133686D01*
X0308036Y0133661D01*
X0308090Y0133634D01*
X0308143Y0133603D01*
X0308193Y0133568D01*
X0308242Y0133531D01*
X0308287Y0133491D01*
X0308331Y0133447D01*
X0308371Y0133402D01*
X0308408Y0133353D01*
X0308443Y0133303D01*
X0308474Y0133250D01*
X0308501Y0133196D01*
X0308526Y0133140D01*
X0308546Y0133082D01*
X0308563Y0133024D01*
X0308577Y0132964D01*
X0308586Y0132904D01*
X0308592Y0132843D01*
X0308594Y0132782D01*
X0323579Y0132782D02*
X0323579Y0131810D01*
X0327079Y0131810D01*
X0325523Y0131810D02*
X0325523Y0132782D01*
X0325523Y0132977D02*
X0327079Y0133755D01*
X0327079Y0135294D02*
X0327079Y0137239D01*
X0327079Y0135294D02*
X0325134Y0136947D01*
X0323579Y0136364D02*
X0323581Y0136300D01*
X0323586Y0136236D01*
X0323595Y0136172D01*
X0323608Y0136109D01*
X0323625Y0136047D01*
X0323644Y0135986D01*
X0323668Y0135926D01*
X0323694Y0135868D01*
X0323724Y0135811D01*
X0323758Y0135756D01*
X0323794Y0135703D01*
X0323833Y0135652D01*
X0323875Y0135604D01*
X0323920Y0135557D01*
X0323967Y0135514D01*
X0324017Y0135473D01*
X0324069Y0135436D01*
X0324123Y0135401D01*
X0324179Y0135369D01*
X0324237Y0135341D01*
X0324296Y0135316D01*
X0324357Y0135295D01*
X0325135Y0136947D02*
X0325093Y0136988D01*
X0325049Y0137027D01*
X0325002Y0137062D01*
X0324954Y0137095D01*
X0324903Y0137125D01*
X0324851Y0137151D01*
X0324797Y0137174D01*
X0324742Y0137194D01*
X0324686Y0137210D01*
X0324629Y0137223D01*
X0324571Y0137232D01*
X0324513Y0137237D01*
X0324454Y0137239D01*
X0324397Y0137237D01*
X0324340Y0137232D01*
X0324283Y0137222D01*
X0324228Y0137209D01*
X0324173Y0137193D01*
X0324119Y0137172D01*
X0324067Y0137149D01*
X0324017Y0137122D01*
X0323968Y0137092D01*
X0323921Y0137058D01*
X0323877Y0137022D01*
X0323835Y0136983D01*
X0323796Y0136941D01*
X0323760Y0136897D01*
X0323726Y0136850D01*
X0323696Y0136802D01*
X0323669Y0136751D01*
X0323646Y0136699D01*
X0323625Y0136645D01*
X0323609Y0136590D01*
X0323596Y0136535D01*
X0323586Y0136478D01*
X0323581Y0136421D01*
X0323579Y0136364D01*
X0323579Y0132782D02*
X0323581Y0132843D01*
X0323587Y0132904D01*
X0323596Y0132964D01*
X0323610Y0133024D01*
X0323627Y0133082D01*
X0323647Y0133140D01*
X0323672Y0133196D01*
X0323699Y0133250D01*
X0323730Y0133303D01*
X0323765Y0133353D01*
X0323802Y0133402D01*
X0323842Y0133447D01*
X0323886Y0133491D01*
X0323931Y0133531D01*
X0323980Y0133568D01*
X0324030Y0133603D01*
X0324083Y0133634D01*
X0324137Y0133661D01*
X0324193Y0133686D01*
X0324251Y0133706D01*
X0324309Y0133723D01*
X0324369Y0133737D01*
X0324429Y0133746D01*
X0324490Y0133752D01*
X0324551Y0133754D01*
X0324612Y0133752D01*
X0324673Y0133746D01*
X0324733Y0133737D01*
X0324793Y0133723D01*
X0324851Y0133706D01*
X0324909Y0133686D01*
X0324965Y0133661D01*
X0325019Y0133634D01*
X0325072Y0133603D01*
X0325122Y0133568D01*
X0325171Y0133531D01*
X0325216Y0133491D01*
X0325260Y0133447D01*
X0325300Y0133402D01*
X0325337Y0133353D01*
X0325372Y0133303D01*
X0325403Y0133250D01*
X0325430Y0133196D01*
X0325455Y0133140D01*
X0325475Y0133082D01*
X0325492Y0133024D01*
X0325506Y0132964D01*
X0325515Y0132904D01*
X0325521Y0132843D01*
X0325523Y0132782D01*
X0339327Y0132598D02*
X0339327Y0133570D01*
X0339329Y0133631D01*
X0339335Y0133692D01*
X0339344Y0133752D01*
X0339358Y0133812D01*
X0339375Y0133870D01*
X0339395Y0133928D01*
X0339420Y0133984D01*
X0339447Y0134038D01*
X0339478Y0134091D01*
X0339513Y0134141D01*
X0339550Y0134190D01*
X0339590Y0134235D01*
X0339634Y0134279D01*
X0339679Y0134319D01*
X0339728Y0134356D01*
X0339778Y0134391D01*
X0339831Y0134422D01*
X0339885Y0134449D01*
X0339941Y0134474D01*
X0339999Y0134494D01*
X0340057Y0134511D01*
X0340117Y0134525D01*
X0340177Y0134534D01*
X0340238Y0134540D01*
X0340299Y0134542D01*
X0340360Y0134540D01*
X0340421Y0134534D01*
X0340481Y0134525D01*
X0340541Y0134511D01*
X0340599Y0134494D01*
X0340657Y0134474D01*
X0340713Y0134449D01*
X0340767Y0134422D01*
X0340820Y0134391D01*
X0340870Y0134356D01*
X0340919Y0134319D01*
X0340964Y0134279D01*
X0341008Y0134235D01*
X0341048Y0134190D01*
X0341085Y0134141D01*
X0341120Y0134091D01*
X0341151Y0134038D01*
X0341178Y0133984D01*
X0341203Y0133928D01*
X0341223Y0133870D01*
X0341240Y0133812D01*
X0341254Y0133752D01*
X0341263Y0133692D01*
X0341269Y0133631D01*
X0341271Y0133570D01*
X0341271Y0132598D01*
X0341271Y0133764D02*
X0342827Y0134542D01*
X0342827Y0136082D02*
X0342827Y0138026D01*
X0342827Y0137054D02*
X0339327Y0137054D01*
X0340105Y0136082D01*
X0339327Y0132598D02*
X0342827Y0132598D01*
X0357891Y0091710D02*
X0360447Y0089538D01*
X0360447Y0092094D01*
X0356869Y0089539D02*
X0356799Y0089564D01*
X0356730Y0089592D01*
X0356663Y0089623D01*
X0356597Y0089658D01*
X0356534Y0089696D01*
X0356472Y0089738D01*
X0356412Y0089782D01*
X0356355Y0089829D01*
X0356300Y0089879D01*
X0356248Y0089932D01*
X0356198Y0089988D01*
X0356152Y0090045D01*
X0356108Y0090106D01*
X0356067Y0090168D01*
X0356030Y0090232D01*
X0355996Y0090298D01*
X0355965Y0090366D01*
X0355938Y0090435D01*
X0355914Y0090505D01*
X0355893Y0090576D01*
X0355877Y0090649D01*
X0355864Y0090722D01*
X0355854Y0090796D01*
X0355849Y0090870D01*
X0355847Y0090944D01*
X0355849Y0091011D01*
X0355855Y0091078D01*
X0355864Y0091144D01*
X0355878Y0091209D01*
X0355895Y0091274D01*
X0355916Y0091337D01*
X0355941Y0091399D01*
X0355969Y0091460D01*
X0356001Y0091519D01*
X0356036Y0091576D01*
X0356075Y0091631D01*
X0356116Y0091683D01*
X0356161Y0091733D01*
X0356208Y0091780D01*
X0356258Y0091825D01*
X0356310Y0091866D01*
X0356365Y0091905D01*
X0356422Y0091940D01*
X0356481Y0091972D01*
X0356542Y0092000D01*
X0356604Y0092025D01*
X0356667Y0092046D01*
X0356732Y0092063D01*
X0356797Y0092077D01*
X0356863Y0092086D01*
X0356930Y0092092D01*
X0356997Y0092094D01*
X0357064Y0092092D01*
X0357130Y0092087D01*
X0357196Y0092078D01*
X0357262Y0092065D01*
X0357326Y0092049D01*
X0357390Y0092030D01*
X0357453Y0092007D01*
X0357514Y0091981D01*
X0357574Y0091951D01*
X0357632Y0091918D01*
X0357688Y0091883D01*
X0357742Y0091844D01*
X0357794Y0091802D01*
X0357844Y0091758D01*
X0357891Y0091711D01*
X0355847Y0087849D02*
X0360447Y0084783D01*
X0360447Y0087849D02*
X0355847Y0084783D01*
X0244541Y0084901D02*
X0239941Y0087967D01*
X0239941Y0089656D02*
X0239941Y0091190D01*
X0239943Y0091253D01*
X0239949Y0091316D01*
X0239958Y0091378D01*
X0239972Y0091439D01*
X0239989Y0091500D01*
X0240010Y0091559D01*
X0240035Y0091617D01*
X0240063Y0091674D01*
X0240094Y0091728D01*
X0240129Y0091780D01*
X0240167Y0091831D01*
X0240208Y0091879D01*
X0240252Y0091924D01*
X0240298Y0091966D01*
X0240347Y0092006D01*
X0240398Y0092042D01*
X0240452Y0092075D01*
X0240507Y0092105D01*
X0240565Y0092131D01*
X0240623Y0092154D01*
X0240683Y0092173D01*
X0240744Y0092188D01*
X0240806Y0092200D01*
X0240869Y0092208D01*
X0240932Y0092212D01*
X0240994Y0092212D01*
X0241057Y0092208D01*
X0241120Y0092200D01*
X0241182Y0092188D01*
X0241243Y0092173D01*
X0241303Y0092154D01*
X0241361Y0092131D01*
X0241419Y0092105D01*
X0241474Y0092075D01*
X0241528Y0092042D01*
X0241579Y0092006D01*
X0241628Y0091966D01*
X0241674Y0091924D01*
X0241718Y0091879D01*
X0241759Y0091831D01*
X0241797Y0091780D01*
X0241832Y0091728D01*
X0241863Y0091674D01*
X0241891Y0091617D01*
X0241916Y0091559D01*
X0241937Y0091500D01*
X0241954Y0091439D01*
X0241968Y0091378D01*
X0241977Y0091316D01*
X0241983Y0091253D01*
X0241985Y0091190D01*
X0241985Y0090167D01*
X0241985Y0090934D02*
X0241987Y0091004D01*
X0241993Y0091075D01*
X0242002Y0091144D01*
X0242016Y0091213D01*
X0242033Y0091282D01*
X0242054Y0091349D01*
X0242079Y0091415D01*
X0242107Y0091479D01*
X0242139Y0091542D01*
X0242174Y0091603D01*
X0242213Y0091662D01*
X0242254Y0091719D01*
X0242299Y0091773D01*
X0242347Y0091825D01*
X0242397Y0091874D01*
X0242451Y0091921D01*
X0242506Y0091964D01*
X0242564Y0092004D01*
X0242624Y0092041D01*
X0242686Y0092074D01*
X0242750Y0092104D01*
X0242815Y0092131D01*
X0242881Y0092154D01*
X0242949Y0092173D01*
X0243018Y0092188D01*
X0243087Y0092200D01*
X0243157Y0092208D01*
X0243228Y0092212D01*
X0243298Y0092212D01*
X0243369Y0092208D01*
X0243439Y0092200D01*
X0243508Y0092188D01*
X0243577Y0092173D01*
X0243645Y0092154D01*
X0243711Y0092131D01*
X0243776Y0092104D01*
X0243840Y0092074D01*
X0243902Y0092041D01*
X0243962Y0092004D01*
X0244020Y0091964D01*
X0244075Y0091921D01*
X0244129Y0091874D01*
X0244179Y0091825D01*
X0244227Y0091773D01*
X0244272Y0091719D01*
X0244313Y0091662D01*
X0244352Y0091603D01*
X0244387Y0091542D01*
X0244419Y0091479D01*
X0244447Y0091415D01*
X0244472Y0091349D01*
X0244493Y0091282D01*
X0244510Y0091213D01*
X0244524Y0091144D01*
X0244533Y0091075D01*
X0244539Y0091004D01*
X0244541Y0090934D01*
X0244541Y0089656D01*
X0244541Y0087967D02*
X0239941Y0084901D01*
D16*
X0284347Y0188224D03*
D17*
X0270714Y0194727D02*
X0271040Y0195783D01*
X0277773Y0236000D01*
X0273698Y0236000D01*
X0269800Y0232102D01*
X0262713Y0190646D01*
X0264662Y0190646D01*
X0265764Y0190739D01*
X0266833Y0191017D01*
X0267841Y0191472D01*
X0268757Y0192090D01*
X0269556Y0192854D01*
X0270215Y0193741D01*
X0270714Y0194727D01*
X0270982Y0195596D02*
X0263560Y0195596D01*
X0263068Y0192718D02*
X0269414Y0192718D01*
X0271491Y0198474D02*
X0264052Y0198474D01*
X0264544Y0201352D02*
X0271972Y0201352D01*
X0272454Y0204230D02*
X0265036Y0204230D01*
X0265528Y0207108D02*
X0272936Y0207108D01*
X0273418Y0209986D02*
X0266020Y0209986D01*
X0266512Y0212864D02*
X0273900Y0212864D01*
X0274381Y0215742D02*
X0267003Y0215742D01*
X0267495Y0218620D02*
X0274863Y0218620D01*
X0275345Y0221498D02*
X0267987Y0221498D01*
X0268479Y0224376D02*
X0275827Y0224376D01*
X0276309Y0227255D02*
X0268971Y0227255D01*
X0269463Y0230133D02*
X0276790Y0230133D01*
X0277272Y0233011D02*
X0270708Y0233011D01*
X0273586Y0235889D02*
X0277754Y0235889D01*
X0278481Y0242555D02*
X0275115Y0242555D01*
X0271795Y0246492D01*
X0279280Y0289004D01*
X0281472Y0289062D01*
X0282337Y0288962D01*
X0283169Y0288707D01*
X0283941Y0288306D01*
X0284627Y0287770D01*
X0285205Y0287118D01*
X0285654Y0286373D01*
X0285961Y0285558D01*
X0286114Y0284701D01*
X0286109Y0283831D01*
X0285945Y0282976D01*
X0278481Y0242555D01*
X0278845Y0244523D02*
X0273456Y0244523D01*
X0271955Y0247401D02*
X0279376Y0247401D01*
X0279907Y0250279D02*
X0272462Y0250279D01*
X0272969Y0253157D02*
X0280439Y0253157D01*
X0280970Y0256035D02*
X0273475Y0256035D01*
X0273982Y0258913D02*
X0281502Y0258913D01*
X0282033Y0261791D02*
X0274489Y0261791D01*
X0274996Y0264669D02*
X0282565Y0264669D01*
X0283096Y0267547D02*
X0275502Y0267547D01*
X0276009Y0270425D02*
X0283628Y0270425D01*
X0284159Y0273303D02*
X0276516Y0273303D01*
X0277023Y0276181D02*
X0284691Y0276181D01*
X0285222Y0279059D02*
X0277529Y0279059D01*
X0278036Y0281937D02*
X0285754Y0281937D01*
X0286093Y0284815D02*
X0278543Y0284815D01*
X0279050Y0287693D02*
X0284695Y0287693D01*
X0274761Y0289327D02*
X0273875Y0282240D01*
X0238619Y0282240D01*
X0239859Y0289327D01*
X0274761Y0289327D01*
X0274557Y0287693D02*
X0239573Y0287693D01*
X0239070Y0284815D02*
X0274197Y0284815D01*
X0235253Y0289327D02*
X0233304Y0289327D01*
X0232203Y0289233D01*
X0231133Y0288955D01*
X0230125Y0288501D01*
X0229209Y0287883D01*
X0228410Y0287119D01*
X0227751Y0286231D01*
X0227252Y0285245D01*
X0226926Y0284189D01*
X0219662Y0242555D01*
X0223737Y0242555D01*
X0227812Y0246807D01*
X0235253Y0289327D01*
X0234967Y0287693D02*
X0229011Y0287693D01*
X0227119Y0284815D02*
X0234463Y0284815D01*
X0233960Y0281937D02*
X0226533Y0281937D01*
X0226031Y0279059D02*
X0233456Y0279059D01*
X0232952Y0276181D02*
X0225529Y0276181D01*
X0225027Y0273303D02*
X0232449Y0273303D01*
X0231945Y0270425D02*
X0224525Y0270425D01*
X0224023Y0267547D02*
X0231441Y0267547D01*
X0230938Y0264669D02*
X0223520Y0264669D01*
X0223018Y0261791D02*
X0230434Y0261791D01*
X0229930Y0258913D02*
X0222516Y0258913D01*
X0222014Y0256035D02*
X0229427Y0256035D01*
X0228923Y0253157D02*
X0221512Y0253157D01*
X0221010Y0250279D02*
X0228419Y0250279D01*
X0227916Y0247401D02*
X0220508Y0247401D01*
X0220006Y0244523D02*
X0225623Y0244523D01*
X0229559Y0241645D02*
X0269261Y0241645D01*
X0270509Y0239898D02*
X0267320Y0236531D01*
X0229761Y0236531D01*
X0227103Y0239189D01*
X0231532Y0243618D01*
X0267851Y0243618D01*
X0270509Y0239898D01*
X0269437Y0238767D02*
X0227526Y0238767D01*
X0223908Y0235889D02*
X0218633Y0235889D01*
X0218954Y0237772D02*
X0222320Y0237772D01*
X0225640Y0233835D01*
X0218686Y0190969D01*
X0216495Y0190911D01*
X0215630Y0191010D01*
X0214797Y0191265D01*
X0214025Y0191667D01*
X0213339Y0192203D01*
X0212762Y0192854D01*
X0212312Y0193600D01*
X0212006Y0194414D01*
X0211853Y0195271D01*
X0211858Y0196142D01*
X0212021Y0196997D01*
X0218954Y0237772D01*
X0218144Y0233011D02*
X0225506Y0233011D01*
X0225039Y0230133D02*
X0217655Y0230133D01*
X0217165Y0227255D02*
X0224572Y0227255D01*
X0224105Y0224376D02*
X0216676Y0224376D01*
X0216187Y0221498D02*
X0223639Y0221498D01*
X0223172Y0218620D02*
X0215697Y0218620D01*
X0215208Y0215742D02*
X0222705Y0215742D01*
X0222238Y0212864D02*
X0214719Y0212864D01*
X0214229Y0209986D02*
X0221771Y0209986D01*
X0221304Y0207108D02*
X0213740Y0207108D01*
X0213251Y0204230D02*
X0220837Y0204230D01*
X0220370Y0201352D02*
X0212761Y0201352D01*
X0212272Y0198474D02*
X0219903Y0198474D01*
X0219437Y0195596D02*
X0211854Y0195596D01*
X0212882Y0192718D02*
X0218970Y0192718D01*
X0223465Y0192718D02*
X0258470Y0192718D01*
X0258107Y0190646D02*
X0223206Y0190646D01*
X0224091Y0197732D01*
X0259347Y0197732D01*
X0258107Y0190646D01*
X0258973Y0195596D02*
X0223824Y0195596D01*
D18*
X0254426Y0150392D03*
X0270961Y0151967D03*
X0287103Y0151967D03*
X0300883Y0152754D03*
X0315450Y0152360D03*
X0332379Y0152360D03*
X0348127Y0153148D03*
X0348127Y0131648D03*
X0332379Y0130860D03*
X0315450Y0130860D03*
X0300883Y0131254D03*
X0287103Y0130467D03*
X0270961Y0130467D03*
X0254426Y0128892D03*
M02*
