%
M48
M72
T01C0.01378
T02C0.03150
T03C0.03200
T04C0.06693
T05C0.12598
%
T01
X223642Y156412
X229442Y207912
T02
X228717Y179169
X238717Y179169
X248717Y179169
X258717Y179169
X268717Y179169
X268717Y298854
X258717Y298854
X248717Y298854
X238717Y298854
X228717Y298854
T03
X156985Y386887
X156985Y396887
X113280Y351018
X103280Y351018
X81490Y295956
X71490Y295956
X70450Y233343
X60450Y233343
X216731Y408632
X216731Y418632
X280310Y418632
X280310Y408632
X340056Y396887
X340056Y386887
X383761Y351018
X393761Y351018
X415551Y295956
X425551Y295956
X426591Y233343
X436591Y233343
X348127Y157398
X332379Y156610
X315450Y156610
X300883Y157004
X287103Y156217
X270961Y156217
X254426Y154642
X254426Y124642
X270961Y126217
X287103Y126217
X300883Y127004
X315450Y126610
X332379Y126610
X348127Y127398
X371237Y135193
X381237Y135193
T04
X386080Y102083
X370489Y102083
X348127Y102201
X332536Y102201
X316946Y102201
X301355Y102201
X285765Y102201
X270174Y102201
X254584Y102201
X232851Y102358
X217261Y102358
X201670Y102358
X186080Y102358
X170489Y102358
X154898Y102358
X139308Y102358
X123717Y102358
X108127Y102358
X92536Y102358
T05
X57024Y88854
X248914Y350272
X440253Y88854
M30
