G75*
%MOIN*%
%OFA0B0*%
%FSLAX25Y25*%
%IPPOS*%
%LPD*%
%AMOC8*
5,1,8,0,0,1.08239X$1,22.5*
%
%ADD10OC8,0.05200*%
%ADD11C,0.10039*%
%ADD12C,0.05150*%
%ADD13C,0.02400*%
%ADD14C,0.01600*%
%ADD15OC8,0.02978*%
D10*
X0254426Y0124642D03*
X0270961Y0126217D03*
X0287103Y0126217D03*
X0300883Y0127004D03*
X0315450Y0126610D03*
X0332379Y0126610D03*
X0348127Y0127398D03*
X0371237Y0135193D03*
X0381237Y0135193D03*
X0348127Y0157398D03*
X0332379Y0156610D03*
X0315450Y0156610D03*
X0300883Y0157004D03*
X0287103Y0156217D03*
X0270961Y0156217D03*
X0254426Y0154642D03*
X0415551Y0295956D03*
X0425551Y0295956D03*
X0393761Y0351018D03*
X0383761Y0351018D03*
X0340056Y0386887D03*
X0340056Y0396887D03*
X0280310Y0408632D03*
X0280310Y0418632D03*
X0216731Y0418632D03*
X0216731Y0408632D03*
X0156985Y0396887D03*
X0156985Y0386887D03*
X0113280Y0351018D03*
X0103280Y0351018D03*
X0081490Y0295956D03*
X0071490Y0295956D03*
X0070450Y0233343D03*
X0060450Y0233343D03*
X0426591Y0233343D03*
X0436591Y0233343D03*
D11*
X0092536Y0107378D02*
X0092536Y0097339D01*
X0108127Y0097339D02*
X0108127Y0107378D01*
X0123717Y0107378D02*
X0123717Y0097339D01*
X0139308Y0097339D02*
X0139308Y0107378D01*
X0154898Y0107378D02*
X0154898Y0097339D01*
X0170489Y0097339D02*
X0170489Y0107378D01*
X0186080Y0107378D02*
X0186080Y0097339D01*
X0201670Y0097339D02*
X0201670Y0107378D01*
X0217261Y0107378D02*
X0217261Y0097339D01*
X0232851Y0097339D02*
X0232851Y0107378D01*
X0254584Y0107220D02*
X0254584Y0097181D01*
X0270174Y0097181D02*
X0270174Y0107220D01*
X0285765Y0107220D02*
X0285765Y0097181D01*
X0301355Y0097181D02*
X0301355Y0107220D01*
X0316946Y0107220D02*
X0316946Y0097181D01*
X0332536Y0097181D02*
X0332536Y0107220D01*
X0348127Y0107220D02*
X0348127Y0097181D01*
X0370489Y0097063D02*
X0370489Y0107102D01*
X0386080Y0107102D02*
X0386080Y0097063D01*
D12*
X0268717Y0176594D02*
X0268717Y0181744D01*
X0258717Y0181744D02*
X0258717Y0176594D01*
X0248717Y0176594D02*
X0248717Y0181744D01*
X0238717Y0181744D02*
X0238717Y0176594D01*
X0228717Y0176594D02*
X0228717Y0181744D01*
X0228717Y0296280D02*
X0228717Y0301429D01*
X0238717Y0301429D02*
X0238717Y0296280D01*
X0248717Y0296280D02*
X0248717Y0301429D01*
X0258717Y0301429D02*
X0258717Y0296280D01*
X0268717Y0296280D02*
X0268717Y0301429D01*
D13*
X0248717Y0298854D02*
X0248717Y0179169D01*
D14*
X0258717Y0179169D02*
X0274275Y0163612D01*
X0283142Y0163612D01*
X0287103Y0159650D01*
X0287103Y0156217D01*
X0270961Y0156217D02*
X0258508Y0156217D01*
X0256083Y0158642D01*
X0232512Y0158642D01*
X0222242Y0168912D01*
X0222242Y0285112D01*
X0228842Y0291712D01*
X0228842Y0298730D01*
X0228717Y0298854D01*
X0238717Y0298854D02*
X0238717Y0217187D01*
X0229442Y0207912D01*
X0203142Y0180912D02*
X0203142Y0310112D01*
X0216242Y0323212D01*
X0276381Y0323212D01*
X0340056Y0386887D01*
X0279642Y0401512D02*
X0279642Y0407964D01*
X0280310Y0408632D01*
X0279642Y0401512D02*
X0271042Y0392912D01*
X0266642Y0392912D01*
X0195342Y0321612D01*
X0195342Y0198012D01*
X0170489Y0173159D01*
X0170489Y0102358D01*
X0186080Y0102358D02*
X0186442Y0102720D01*
X0186442Y0164212D01*
X0203142Y0180912D01*
X0179942Y0198012D02*
X0179942Y0334912D01*
X0216142Y0371112D01*
X0216142Y0408043D01*
X0216731Y0408632D01*
X0156985Y0386887D02*
X0156985Y0193055D01*
X0138442Y0174512D01*
X0138442Y0103224D01*
X0139308Y0102358D01*
X0154898Y0102358D02*
X0154898Y0172969D01*
X0179942Y0198012D01*
X0223642Y0156412D02*
X0225412Y0154642D01*
X0254426Y0154642D01*
X0232851Y0102358D02*
X0250898Y0084312D01*
X0393242Y0084312D01*
X0426591Y0117661D01*
X0426591Y0233343D01*
X0348127Y0219445D02*
X0348127Y0157398D01*
X0332379Y0156610D02*
X0332379Y0225193D01*
X0258717Y0298854D01*
X0268717Y0298854D02*
X0348127Y0219445D01*
X0123717Y0102358D02*
X0123717Y0340581D01*
X0113280Y0351018D01*
X0086097Y0295956D02*
X0081490Y0295956D01*
X0086097Y0295956D02*
X0099042Y0283012D01*
X0099042Y0111443D01*
X0108127Y0102358D01*
X0092536Y0102358D02*
X0092536Y0211256D01*
X0070450Y0233343D01*
D15*
X0223642Y0156412D03*
X0229442Y0207912D03*
M02*
