G75*
%MOIN*%
%OFA0B0*%
%FSLAX25Y25*%
%IPPOS*%
%LPD*%
%AMOC8*
5,1,8,0,0,1.08239X$1,22.5*
%
%ADD10C,0.05150*%
%ADD11C,0.05937*%
%ADD12C,0.10039*%
%ADD13OC8,0.05200*%
%ADD14C,0.01600*%
%ADD15C,0.02400*%
%ADD16OC8,0.02978*%
D10*
X0086000Y0118338D03*
X0086000Y0128338D03*
X0086000Y0138338D03*
X0096000Y0143338D03*
X0096000Y0133338D03*
X0096000Y0123338D03*
D11*
X0084858Y0079618D03*
X0084858Y0069775D03*
X0084858Y0061901D03*
X0084858Y0052058D03*
D12*
X0031020Y0054657D02*
X0020980Y0054657D01*
X0020980Y0070247D02*
X0031020Y0070247D01*
X0031020Y0085838D02*
X0020980Y0085838D01*
X0020980Y0101428D02*
X0031020Y0101428D01*
X0031020Y0117019D02*
X0020980Y0117019D01*
X0020980Y0138043D02*
X0031020Y0138043D01*
X0031020Y0153633D02*
X0020980Y0153633D01*
X0020980Y0033633D02*
X0031020Y0033633D01*
X0031020Y0018043D02*
X0020980Y0018043D01*
D13*
X0071000Y0020838D03*
X0081000Y0020838D03*
D14*
X0015650Y0011748D02*
X0012089Y0011748D01*
X0013200Y0010638D02*
X0010000Y0013838D01*
X0010000Y0066615D01*
X0010098Y0066517D01*
X0011715Y0065847D01*
X0013906Y0065847D01*
X0014012Y0065591D01*
X0016324Y0063279D01*
X0018321Y0062452D01*
X0016324Y0061625D01*
X0014012Y0059313D01*
X0012761Y0056292D01*
X0012761Y0053022D01*
X0014012Y0050001D01*
X0016324Y0047688D01*
X0019345Y0046437D01*
X0032655Y0046437D01*
X0035676Y0047688D01*
X0037988Y0050001D01*
X0039239Y0053022D01*
X0039239Y0056292D01*
X0037988Y0059313D01*
X0035676Y0061625D01*
X0033679Y0062452D01*
X0035676Y0063279D01*
X0037988Y0065591D01*
X0038094Y0065847D01*
X0064846Y0065847D01*
X0078689Y0052004D01*
X0078689Y0050831D01*
X0079628Y0048564D01*
X0080458Y0047734D01*
X0080458Y0026638D01*
X0078598Y0026638D01*
X0075200Y0023240D01*
X0075200Y0022860D01*
X0072823Y0025238D01*
X0071000Y0025238D01*
X0069177Y0025238D01*
X0066600Y0022660D01*
X0066600Y0020838D01*
X0071000Y0020838D01*
X0071000Y0020838D01*
X0071000Y0025238D01*
X0071000Y0020838D01*
X0071000Y0020838D01*
X0066600Y0020838D01*
X0066600Y0019015D01*
X0069177Y0016438D01*
X0071000Y0016438D01*
X0072823Y0016438D01*
X0075200Y0018815D01*
X0075200Y0018435D01*
X0078598Y0015038D01*
X0083402Y0015038D01*
X0086800Y0018435D01*
X0086800Y0020415D01*
X0087350Y0020966D01*
X0088588Y0022203D01*
X0089258Y0023820D01*
X0089258Y0033051D01*
X0090244Y0032064D01*
X0093673Y0030644D01*
X0097383Y0030644D01*
X0100812Y0032064D01*
X0103435Y0034688D01*
X0104855Y0038116D01*
X0104855Y0041827D01*
X0103435Y0045255D01*
X0100812Y0047879D01*
X0097383Y0049299D01*
X0093673Y0049299D01*
X0090244Y0047879D01*
X0089258Y0046893D01*
X0089258Y0047734D01*
X0090087Y0048564D01*
X0091026Y0050831D01*
X0091026Y0053285D01*
X0090087Y0055552D01*
X0088660Y0056979D01*
X0090087Y0058407D01*
X0091026Y0060674D01*
X0091026Y0063128D01*
X0090087Y0065395D01*
X0089644Y0065838D01*
X0090087Y0066281D01*
X0091026Y0068548D01*
X0091026Y0071002D01*
X0090087Y0073269D01*
X0088352Y0075004D01*
X0087224Y0075471D01*
X0087357Y0075539D01*
X0087964Y0075980D01*
X0088495Y0076511D01*
X0088936Y0077118D01*
X0089277Y0077787D01*
X0089509Y0078501D01*
X0089626Y0079242D01*
X0089626Y0079433D01*
X0085042Y0079433D01*
X0085042Y0079802D01*
X0084674Y0079802D01*
X0084674Y0084386D01*
X0084483Y0084386D01*
X0083741Y0084269D01*
X0083027Y0084037D01*
X0082359Y0083696D01*
X0081751Y0083255D01*
X0081221Y0082724D01*
X0080779Y0082117D01*
X0080439Y0081448D01*
X0080207Y0080734D01*
X0080089Y0079993D01*
X0080089Y0079802D01*
X0084674Y0079802D01*
X0084674Y0079433D01*
X0080089Y0079433D01*
X0080089Y0079242D01*
X0080207Y0078501D01*
X0080439Y0077787D01*
X0080779Y0077118D01*
X0081221Y0076511D01*
X0081751Y0075980D01*
X0082359Y0075539D01*
X0082492Y0075471D01*
X0081364Y0075004D01*
X0079628Y0073269D01*
X0078689Y0071002D01*
X0078689Y0068548D01*
X0079628Y0066281D01*
X0080071Y0065838D01*
X0079628Y0065395D01*
X0079076Y0064062D01*
X0070399Y0072740D01*
X0069161Y0073977D01*
X0067544Y0074647D01*
X0056441Y0074647D01*
X0057689Y0075896D01*
X0057689Y0076870D01*
X0088266Y0107447D01*
X0089391Y0108572D01*
X0090000Y0110042D01*
X0090000Y0114171D01*
X0090896Y0115067D01*
X0091775Y0117189D01*
X0091775Y0119396D01*
X0092729Y0118442D01*
X0094851Y0117563D01*
X0097149Y0117563D01*
X0099271Y0118442D01*
X0100896Y0120067D01*
X0101775Y0122189D01*
X0101775Y0122890D01*
X0109730Y0130845D01*
X0110400Y0132463D01*
X0110400Y0146713D01*
X0109730Y0148330D01*
X0108492Y0149568D01*
X0100697Y0157363D01*
X0099080Y0158033D01*
X0038094Y0158033D01*
X0037988Y0158289D01*
X0036539Y0159739D01*
X0111099Y0159739D01*
X0112582Y0158256D01*
X0112040Y0157713D01*
X0110565Y0155160D01*
X0109802Y0152312D01*
X0109802Y0149364D01*
X0110565Y0146516D01*
X0112040Y0143962D01*
X0114124Y0141877D01*
X0116678Y0140403D01*
X0119526Y0139640D01*
X0122000Y0139640D01*
X0122000Y0122035D01*
X0119526Y0122035D01*
X0116678Y0121272D01*
X0114124Y0119798D01*
X0112040Y0117713D01*
X0110565Y0115160D01*
X0109802Y0112312D01*
X0109802Y0109364D01*
X0110565Y0106516D01*
X0112040Y0103962D01*
X0114124Y0101877D01*
X0116678Y0100403D01*
X0119526Y0099640D01*
X0120000Y0099640D01*
X0120000Y0040838D01*
X0100000Y0020838D01*
X0100000Y0012838D01*
X0097800Y0010638D01*
X0034622Y0010638D01*
X0035676Y0011074D01*
X0037988Y0013386D01*
X0039239Y0016408D01*
X0039239Y0019678D01*
X0037988Y0022699D01*
X0035676Y0025011D01*
X0033679Y0025838D01*
X0035676Y0026665D01*
X0037988Y0028977D01*
X0039239Y0031998D01*
X0039239Y0035268D01*
X0037988Y0038289D01*
X0035676Y0040601D01*
X0032655Y0041853D01*
X0019345Y0041853D01*
X0016324Y0040601D01*
X0014012Y0038289D01*
X0012761Y0035268D01*
X0012761Y0031998D01*
X0014012Y0028977D01*
X0016324Y0026665D01*
X0018321Y0025838D01*
X0016324Y0025011D01*
X0014012Y0022699D01*
X0012761Y0019678D01*
X0012761Y0016408D01*
X0014012Y0013386D01*
X0016324Y0011074D01*
X0017378Y0010638D01*
X0013200Y0010638D01*
X0014051Y0013347D02*
X0010491Y0013347D01*
X0010000Y0014945D02*
X0013366Y0014945D01*
X0012761Y0016544D02*
X0010000Y0016544D01*
X0010000Y0018143D02*
X0012761Y0018143D01*
X0012787Y0019741D02*
X0010000Y0019741D01*
X0010000Y0021340D02*
X0013449Y0021340D01*
X0014251Y0022938D02*
X0010000Y0022938D01*
X0010000Y0024537D02*
X0015850Y0024537D01*
X0017603Y0026135D02*
X0010000Y0026135D01*
X0010000Y0027734D02*
X0015255Y0027734D01*
X0013865Y0029332D02*
X0010000Y0029332D01*
X0010000Y0030931D02*
X0013203Y0030931D01*
X0012761Y0032529D02*
X0010000Y0032529D01*
X0010000Y0034128D02*
X0012761Y0034128D01*
X0012950Y0035726D02*
X0010000Y0035726D01*
X0010000Y0037325D02*
X0013612Y0037325D01*
X0014646Y0038923D02*
X0010000Y0038923D01*
X0010000Y0040522D02*
X0016245Y0040522D01*
X0010000Y0042120D02*
X0080458Y0042120D01*
X0080458Y0040522D02*
X0035755Y0040522D01*
X0037354Y0038923D02*
X0080458Y0038923D01*
X0080458Y0037325D02*
X0038388Y0037325D01*
X0039050Y0035726D02*
X0080458Y0035726D01*
X0080458Y0034128D02*
X0039239Y0034128D01*
X0039239Y0032529D02*
X0080458Y0032529D01*
X0080458Y0030931D02*
X0038797Y0030931D01*
X0038135Y0029332D02*
X0080458Y0029332D01*
X0080458Y0027734D02*
X0036745Y0027734D01*
X0034397Y0026135D02*
X0078095Y0026135D01*
X0076496Y0024537D02*
X0073524Y0024537D01*
X0075122Y0022938D02*
X0075200Y0022938D01*
X0071000Y0022938D02*
X0071000Y0022938D01*
X0071000Y0021340D02*
X0071000Y0021340D01*
X0071000Y0020838D02*
X0071000Y0016438D01*
X0071000Y0020838D01*
X0071000Y0020838D01*
X0071000Y0019741D02*
X0071000Y0019741D01*
X0071000Y0018143D02*
X0071000Y0018143D01*
X0071000Y0016544D02*
X0071000Y0016544D01*
X0072929Y0016544D02*
X0077091Y0016544D01*
X0075493Y0018143D02*
X0074527Y0018143D01*
X0069071Y0016544D02*
X0039239Y0016544D01*
X0039239Y0018143D02*
X0067473Y0018143D01*
X0066600Y0019741D02*
X0039213Y0019741D01*
X0038551Y0021340D02*
X0066600Y0021340D01*
X0066878Y0022938D02*
X0037749Y0022938D01*
X0036150Y0024537D02*
X0068476Y0024537D01*
X0071000Y0024537D02*
X0071000Y0024537D01*
X0084909Y0016544D02*
X0100000Y0016544D01*
X0100000Y0014945D02*
X0038634Y0014945D01*
X0037949Y0013347D02*
X0100000Y0013347D01*
X0098911Y0011748D02*
X0036350Y0011748D01*
X0010000Y0043719D02*
X0080458Y0043719D01*
X0080458Y0045317D02*
X0010000Y0045317D01*
X0010000Y0046916D02*
X0018190Y0046916D01*
X0015498Y0048514D02*
X0010000Y0048514D01*
X0010000Y0050113D02*
X0013966Y0050113D01*
X0013303Y0051711D02*
X0010000Y0051711D01*
X0010000Y0053310D02*
X0012761Y0053310D01*
X0012761Y0054908D02*
X0010000Y0054908D01*
X0010000Y0056507D02*
X0012850Y0056507D01*
X0013512Y0058105D02*
X0010000Y0058105D01*
X0010000Y0059704D02*
X0014403Y0059704D01*
X0016002Y0061302D02*
X0010000Y0061302D01*
X0010000Y0062901D02*
X0017237Y0062901D01*
X0015104Y0064499D02*
X0010000Y0064499D01*
X0010000Y0066098D02*
X0011110Y0066098D01*
X0016400Y0077247D02*
X0016400Y0080774D01*
X0016474Y0080699D01*
X0017183Y0080155D01*
X0017958Y0079708D01*
X0018783Y0079366D01*
X0019647Y0079135D01*
X0020533Y0079018D01*
X0025200Y0079018D01*
X0025200Y0085038D01*
X0026800Y0085038D01*
X0026800Y0086638D01*
X0025200Y0086638D01*
X0025200Y0092657D01*
X0020533Y0092657D01*
X0019647Y0092541D01*
X0018783Y0092309D01*
X0017958Y0091967D01*
X0017183Y0091520D01*
X0016474Y0090976D01*
X0016400Y0090902D01*
X0016400Y0094429D01*
X0019345Y0093209D01*
X0032655Y0093209D01*
X0035676Y0094460D01*
X0037988Y0096772D01*
X0039239Y0099793D01*
X0039239Y0103063D01*
X0037988Y0106084D01*
X0035676Y0108397D01*
X0033679Y0109224D01*
X0035676Y0110051D01*
X0037988Y0112363D01*
X0039239Y0115384D01*
X0039239Y0118654D01*
X0037988Y0121675D01*
X0037150Y0122512D01*
X0048976Y0134338D01*
X0081833Y0134338D01*
X0082729Y0133442D01*
X0084849Y0132564D01*
X0084321Y0132392D01*
X0083707Y0132079D01*
X0083150Y0131675D01*
X0082663Y0131188D01*
X0082258Y0130631D01*
X0081946Y0130017D01*
X0081733Y0129362D01*
X0081625Y0128682D01*
X0081625Y0128338D01*
X0086000Y0128338D01*
X0090375Y0128338D01*
X0090375Y0128682D01*
X0090267Y0129362D01*
X0090054Y0130017D01*
X0089742Y0130631D01*
X0089337Y0131188D01*
X0088850Y0131675D01*
X0088293Y0132079D01*
X0087679Y0132392D01*
X0087151Y0132564D01*
X0089271Y0133442D01*
X0090225Y0134396D01*
X0090225Y0132189D01*
X0091104Y0130067D01*
X0092729Y0128442D01*
X0092981Y0128338D01*
X0092729Y0128233D01*
X0091104Y0126609D01*
X0090225Y0124486D01*
X0090225Y0122279D01*
X0089271Y0123233D01*
X0087151Y0124112D01*
X0087679Y0124284D01*
X0088293Y0124596D01*
X0088850Y0125001D01*
X0089337Y0125488D01*
X0089742Y0126045D01*
X0090054Y0126658D01*
X0090267Y0127313D01*
X0090375Y0127993D01*
X0090375Y0128338D01*
X0086000Y0128338D01*
X0086000Y0128338D01*
X0086000Y0128338D01*
X0081625Y0128338D01*
X0081625Y0127993D01*
X0081733Y0127313D01*
X0081946Y0126658D01*
X0082258Y0126045D01*
X0082663Y0125488D01*
X0083150Y0125001D01*
X0083707Y0124596D01*
X0084321Y0124284D01*
X0084849Y0124112D01*
X0082729Y0123233D01*
X0081104Y0121609D01*
X0080225Y0119486D01*
X0080225Y0117189D01*
X0081104Y0115067D01*
X0082000Y0114171D01*
X0082000Y0112495D01*
X0052032Y0082527D01*
X0051058Y0082527D01*
X0048311Y0079780D01*
X0048311Y0075896D01*
X0049559Y0074647D01*
X0038094Y0074647D01*
X0037988Y0074903D01*
X0035676Y0077216D01*
X0032655Y0078467D01*
X0019345Y0078467D01*
X0016400Y0077247D01*
X0016400Y0077287D02*
X0016498Y0077287D01*
X0016400Y0078886D02*
X0048311Y0078886D01*
X0048311Y0077287D02*
X0035502Y0077287D01*
X0037202Y0075689D02*
X0048518Y0075689D01*
X0049015Y0080484D02*
X0035246Y0080484D01*
X0035526Y0080699D02*
X0036158Y0081332D01*
X0036702Y0082041D01*
X0037149Y0082815D01*
X0037491Y0083641D01*
X0037723Y0084504D01*
X0037793Y0085038D01*
X0026800Y0085038D01*
X0026800Y0079018D01*
X0031467Y0079018D01*
X0032353Y0079135D01*
X0033216Y0079366D01*
X0034042Y0079708D01*
X0034817Y0080155D01*
X0035526Y0080699D01*
X0036727Y0082083D02*
X0050614Y0082083D01*
X0053187Y0083681D02*
X0037502Y0083681D01*
X0037793Y0086638D02*
X0037723Y0087171D01*
X0037491Y0088035D01*
X0037149Y0088861D01*
X0036702Y0089635D01*
X0036158Y0090344D01*
X0035526Y0090976D01*
X0034817Y0091520D01*
X0034042Y0091967D01*
X0033216Y0092309D01*
X0032353Y0092541D01*
X0031467Y0092657D01*
X0026800Y0092657D01*
X0026800Y0086638D01*
X0037793Y0086638D01*
X0037761Y0086879D02*
X0056384Y0086879D01*
X0057982Y0088477D02*
X0037308Y0088477D01*
X0036364Y0090076D02*
X0059581Y0090076D01*
X0061179Y0091674D02*
X0034550Y0091674D01*
X0036087Y0094871D02*
X0064376Y0094871D01*
X0062778Y0093273D02*
X0032809Y0093273D01*
X0026800Y0091674D02*
X0025200Y0091674D01*
X0025200Y0090076D02*
X0026800Y0090076D01*
X0026800Y0088477D02*
X0025200Y0088477D01*
X0025200Y0086879D02*
X0026800Y0086879D01*
X0026800Y0085280D02*
X0054785Y0085280D01*
X0059705Y0078886D02*
X0080146Y0078886D01*
X0080167Y0080484D02*
X0061304Y0080484D01*
X0062902Y0082083D02*
X0080762Y0082083D01*
X0082339Y0083681D02*
X0064501Y0083681D01*
X0066099Y0085280D02*
X0088761Y0085280D01*
X0087620Y0086420D02*
X0090244Y0083796D01*
X0093673Y0082376D01*
X0097383Y0082376D01*
X0100812Y0083796D01*
X0103435Y0086420D01*
X0104855Y0089849D01*
X0104855Y0093559D01*
X0103435Y0096988D01*
X0100812Y0099611D01*
X0097383Y0101031D01*
X0093673Y0101031D01*
X0090244Y0099611D01*
X0087620Y0096988D01*
X0086200Y0093559D01*
X0086200Y0089849D01*
X0087620Y0086420D01*
X0087431Y0086879D02*
X0067698Y0086879D01*
X0069296Y0088477D02*
X0086768Y0088477D01*
X0086200Y0090076D02*
X0070895Y0090076D01*
X0072493Y0091674D02*
X0086200Y0091674D01*
X0086200Y0093273D02*
X0074092Y0093273D01*
X0075690Y0094871D02*
X0086744Y0094871D01*
X0087406Y0096470D02*
X0077289Y0096470D01*
X0078887Y0098068D02*
X0088701Y0098068D01*
X0090377Y0099667D02*
X0080486Y0099667D01*
X0082084Y0101265D02*
X0115185Y0101265D01*
X0113138Y0102864D02*
X0083683Y0102864D01*
X0085281Y0104462D02*
X0111751Y0104462D01*
X0110828Y0106061D02*
X0086880Y0106061D01*
X0088478Y0107659D02*
X0110259Y0107659D01*
X0109831Y0109258D02*
X0089675Y0109258D01*
X0090000Y0110856D02*
X0109802Y0110856D01*
X0109841Y0112455D02*
X0090000Y0112455D01*
X0090000Y0114053D02*
X0110269Y0114053D01*
X0110849Y0115652D02*
X0091138Y0115652D01*
X0091775Y0117250D02*
X0111772Y0117250D01*
X0113175Y0118849D02*
X0099678Y0118849D01*
X0101053Y0120447D02*
X0115249Y0120447D01*
X0122000Y0122046D02*
X0101715Y0122046D01*
X0102529Y0123644D02*
X0122000Y0123644D01*
X0122000Y0125243D02*
X0104128Y0125243D01*
X0105726Y0126841D02*
X0122000Y0126841D01*
X0122000Y0128440D02*
X0107325Y0128440D01*
X0108923Y0130038D02*
X0122000Y0130038D01*
X0122000Y0131637D02*
X0110058Y0131637D01*
X0110400Y0133235D02*
X0122000Y0133235D01*
X0122000Y0134834D02*
X0110400Y0134834D01*
X0110400Y0136432D02*
X0122000Y0136432D01*
X0122000Y0138031D02*
X0110400Y0138031D01*
X0110400Y0139629D02*
X0122000Y0139629D01*
X0115250Y0141228D02*
X0110400Y0141228D01*
X0110400Y0142826D02*
X0113176Y0142826D01*
X0111773Y0144425D02*
X0110400Y0144425D01*
X0110400Y0146023D02*
X0110850Y0146023D01*
X0110269Y0147622D02*
X0110023Y0147622D01*
X0109841Y0149220D02*
X0108840Y0149220D01*
X0109802Y0150819D02*
X0107241Y0150819D01*
X0105643Y0152417D02*
X0109831Y0152417D01*
X0110259Y0154016D02*
X0104044Y0154016D01*
X0102446Y0155614D02*
X0110828Y0155614D01*
X0111751Y0157213D02*
X0100847Y0157213D01*
X0096382Y0149233D02*
X0096503Y0149113D01*
X0094851Y0149113D01*
X0092729Y0148233D01*
X0091104Y0146609D01*
X0090225Y0144486D01*
X0090225Y0142279D01*
X0089271Y0143233D01*
X0087149Y0144113D01*
X0084851Y0144113D01*
X0082729Y0143233D01*
X0081833Y0142338D01*
X0046523Y0142338D01*
X0045053Y0141729D01*
X0028563Y0125239D01*
X0019345Y0125239D01*
X0016400Y0124019D01*
X0016400Y0132978D01*
X0016474Y0132904D01*
X0017183Y0132360D01*
X0017958Y0131913D01*
X0018783Y0131571D01*
X0019647Y0131340D01*
X0020533Y0131223D01*
X0025200Y0131223D01*
X0025200Y0137242D01*
X0026800Y0137242D01*
X0026800Y0131223D01*
X0031467Y0131223D01*
X0032353Y0131340D01*
X0033216Y0131571D01*
X0034042Y0131913D01*
X0034817Y0132360D01*
X0035526Y0132904D01*
X0036158Y0133536D01*
X0036702Y0134246D01*
X0037149Y0135020D01*
X0037491Y0135846D01*
X0037723Y0136709D01*
X0037793Y0137243D01*
X0026800Y0137243D01*
X0026800Y0138842D01*
X0037793Y0138842D01*
X0037723Y0139376D01*
X0037491Y0140239D01*
X0037149Y0141065D01*
X0036702Y0141839D01*
X0036158Y0142549D01*
X0035526Y0143181D01*
X0034817Y0143725D01*
X0034042Y0144172D01*
X0033216Y0144514D01*
X0032353Y0144746D01*
X0031467Y0144862D01*
X0026800Y0144862D01*
X0026800Y0138843D01*
X0025200Y0138843D01*
X0025200Y0144862D01*
X0023452Y0144862D01*
X0024003Y0145413D01*
X0032655Y0145413D01*
X0035676Y0146665D01*
X0037988Y0148977D01*
X0038094Y0149233D01*
X0096382Y0149233D01*
X0096395Y0149220D02*
X0038089Y0149220D01*
X0036633Y0147622D02*
X0092117Y0147622D01*
X0090862Y0146023D02*
X0034127Y0146023D01*
X0033432Y0144425D02*
X0090225Y0144425D01*
X0090225Y0142826D02*
X0089678Y0142826D01*
X0086000Y0138338D02*
X0047319Y0138338D01*
X0026000Y0117019D01*
X0028567Y0125243D02*
X0016400Y0125243D01*
X0016400Y0126841D02*
X0030166Y0126841D01*
X0031764Y0128440D02*
X0016400Y0128440D01*
X0016400Y0130038D02*
X0033363Y0130038D01*
X0033376Y0131637D02*
X0034961Y0131637D01*
X0035857Y0133235D02*
X0036560Y0133235D01*
X0037042Y0134834D02*
X0038158Y0134834D01*
X0037648Y0136432D02*
X0039757Y0136432D01*
X0041355Y0138031D02*
X0026800Y0138031D01*
X0026800Y0139629D02*
X0025200Y0139629D01*
X0025200Y0141228D02*
X0026800Y0141228D01*
X0026800Y0142826D02*
X0025200Y0142826D01*
X0025200Y0144425D02*
X0026800Y0144425D01*
X0026800Y0136432D02*
X0025200Y0136432D01*
X0025200Y0134834D02*
X0026800Y0134834D01*
X0026800Y0133235D02*
X0025200Y0133235D01*
X0025200Y0131637D02*
X0026800Y0131637D01*
X0018624Y0131637D02*
X0016400Y0131637D01*
X0035880Y0142826D02*
X0082322Y0142826D01*
X0083228Y0133235D02*
X0047873Y0133235D01*
X0046275Y0131637D02*
X0083112Y0131637D01*
X0081957Y0130038D02*
X0044676Y0130038D01*
X0043078Y0128440D02*
X0081625Y0128440D01*
X0081886Y0126841D02*
X0041479Y0126841D01*
X0039881Y0125243D02*
X0082908Y0125243D01*
X0083721Y0123644D02*
X0038282Y0123644D01*
X0037617Y0122046D02*
X0081541Y0122046D01*
X0080623Y0120447D02*
X0038497Y0120447D01*
X0039159Y0118849D02*
X0080225Y0118849D01*
X0080225Y0117250D02*
X0039239Y0117250D01*
X0039239Y0115652D02*
X0080862Y0115652D01*
X0082000Y0114053D02*
X0038688Y0114053D01*
X0038026Y0112455D02*
X0081960Y0112455D01*
X0080362Y0110856D02*
X0036481Y0110856D01*
X0033761Y0109258D02*
X0078763Y0109258D01*
X0077165Y0107659D02*
X0036413Y0107659D01*
X0037998Y0106061D02*
X0075566Y0106061D01*
X0073967Y0104462D02*
X0038660Y0104462D01*
X0039239Y0102864D02*
X0072369Y0102864D01*
X0070770Y0101265D02*
X0039239Y0101265D01*
X0039187Y0099667D02*
X0069172Y0099667D01*
X0067573Y0098068D02*
X0038525Y0098068D01*
X0037685Y0096470D02*
X0065975Y0096470D01*
X0058106Y0077287D02*
X0080693Y0077287D01*
X0082153Y0075689D02*
X0057482Y0075689D01*
X0053000Y0077838D02*
X0086000Y0110838D01*
X0086000Y0118338D01*
X0088279Y0123644D02*
X0090225Y0123644D01*
X0090538Y0125243D02*
X0089092Y0125243D01*
X0090114Y0126841D02*
X0091337Y0126841D01*
X0090375Y0128440D02*
X0092734Y0128440D01*
X0091133Y0130038D02*
X0090043Y0130038D01*
X0090454Y0131637D02*
X0088888Y0131637D01*
X0088772Y0133235D02*
X0090225Y0133235D01*
X0091775Y0118849D02*
X0092322Y0118849D01*
X0100678Y0099667D02*
X0119427Y0099667D01*
X0120000Y0098068D02*
X0102355Y0098068D01*
X0103650Y0096470D02*
X0120000Y0096470D01*
X0120000Y0094871D02*
X0104312Y0094871D01*
X0104855Y0093273D02*
X0120000Y0093273D01*
X0120000Y0091674D02*
X0104855Y0091674D01*
X0104855Y0090076D02*
X0120000Y0090076D01*
X0120000Y0088477D02*
X0104287Y0088477D01*
X0103625Y0086879D02*
X0120000Y0086879D01*
X0120000Y0085280D02*
X0102295Y0085280D01*
X0100534Y0083681D02*
X0120000Y0083681D01*
X0120000Y0082083D02*
X0088954Y0082083D01*
X0088936Y0082117D02*
X0088495Y0082724D01*
X0087964Y0083255D01*
X0087357Y0083696D01*
X0086688Y0084037D01*
X0085974Y0084269D01*
X0085233Y0084386D01*
X0085042Y0084386D01*
X0085042Y0079802D01*
X0089626Y0079802D01*
X0089626Y0079993D01*
X0089509Y0080734D01*
X0089277Y0081448D01*
X0088936Y0082117D01*
X0089549Y0080484D02*
X0120000Y0080484D01*
X0120000Y0078886D02*
X0089570Y0078886D01*
X0089022Y0077287D02*
X0120000Y0077287D01*
X0120000Y0075689D02*
X0087563Y0075689D01*
X0089266Y0074090D02*
X0120000Y0074090D01*
X0120000Y0072492D02*
X0090409Y0072492D01*
X0091026Y0070893D02*
X0120000Y0070893D01*
X0120000Y0069295D02*
X0091026Y0069295D01*
X0090674Y0067696D02*
X0120000Y0067696D01*
X0120000Y0066098D02*
X0089905Y0066098D01*
X0090458Y0064499D02*
X0120000Y0064499D01*
X0120000Y0062901D02*
X0091026Y0062901D01*
X0091026Y0061302D02*
X0120000Y0061302D01*
X0120000Y0059704D02*
X0090625Y0059704D01*
X0089786Y0058105D02*
X0120000Y0058105D01*
X0120000Y0056507D02*
X0089133Y0056507D01*
X0090354Y0054908D02*
X0120000Y0054908D01*
X0120000Y0053310D02*
X0091016Y0053310D01*
X0091026Y0051711D02*
X0120000Y0051711D01*
X0120000Y0050113D02*
X0090729Y0050113D01*
X0090038Y0048514D02*
X0091777Y0048514D01*
X0089281Y0046916D02*
X0089258Y0046916D01*
X0080458Y0046916D02*
X0033810Y0046916D01*
X0036502Y0048514D02*
X0079678Y0048514D01*
X0078987Y0050113D02*
X0038034Y0050113D01*
X0038697Y0051711D02*
X0078689Y0051711D01*
X0077383Y0053310D02*
X0039239Y0053310D01*
X0039239Y0054908D02*
X0075785Y0054908D01*
X0074186Y0056507D02*
X0039150Y0056507D01*
X0038488Y0058105D02*
X0072588Y0058105D01*
X0070989Y0059704D02*
X0037597Y0059704D01*
X0035998Y0061302D02*
X0069391Y0061302D01*
X0067792Y0062901D02*
X0034763Y0062901D01*
X0036896Y0064499D02*
X0066194Y0064499D01*
X0072245Y0070893D02*
X0078689Y0070893D01*
X0078689Y0069295D02*
X0073843Y0069295D01*
X0075442Y0067696D02*
X0079042Y0067696D01*
X0079811Y0066098D02*
X0077040Y0066098D01*
X0078639Y0064499D02*
X0079258Y0064499D01*
X0079307Y0072492D02*
X0070646Y0072492D01*
X0068888Y0074090D02*
X0080450Y0074090D01*
X0084674Y0080484D02*
X0085042Y0080484D01*
X0085042Y0082083D02*
X0084674Y0082083D01*
X0084674Y0083681D02*
X0085042Y0083681D01*
X0087377Y0083681D02*
X0090522Y0083681D01*
X0099278Y0048514D02*
X0120000Y0048514D01*
X0120000Y0046916D02*
X0101775Y0046916D01*
X0103374Y0045317D02*
X0120000Y0045317D01*
X0120000Y0043719D02*
X0104072Y0043719D01*
X0104734Y0042120D02*
X0120000Y0042120D01*
X0119684Y0040522D02*
X0104855Y0040522D01*
X0104855Y0038923D02*
X0118085Y0038923D01*
X0116487Y0037325D02*
X0104528Y0037325D01*
X0103865Y0035726D02*
X0114888Y0035726D01*
X0113290Y0034128D02*
X0102875Y0034128D01*
X0101277Y0032529D02*
X0111691Y0032529D01*
X0110093Y0030931D02*
X0098075Y0030931D01*
X0092981Y0030931D02*
X0089258Y0030931D01*
X0089258Y0032529D02*
X0089779Y0032529D01*
X0089258Y0029332D02*
X0108494Y0029332D01*
X0106896Y0027734D02*
X0089258Y0027734D01*
X0089258Y0026135D02*
X0105297Y0026135D01*
X0103699Y0024537D02*
X0089258Y0024537D01*
X0088892Y0022938D02*
X0102100Y0022938D01*
X0100502Y0021340D02*
X0087724Y0021340D01*
X0086800Y0019741D02*
X0100000Y0019741D01*
X0100000Y0018143D02*
X0086507Y0018143D01*
X0026800Y0080484D02*
X0025200Y0080484D01*
X0025200Y0082083D02*
X0026800Y0082083D01*
X0026800Y0083681D02*
X0025200Y0083681D01*
X0017450Y0091674D02*
X0016400Y0091674D01*
X0016400Y0093273D02*
X0019191Y0093273D01*
X0016754Y0080484D02*
X0016400Y0080484D01*
X0037655Y0139629D02*
X0042954Y0139629D01*
X0044552Y0141228D02*
X0037055Y0141228D01*
X0037466Y0158812D02*
X0112026Y0158812D01*
D15*
X0106000Y0145838D02*
X0106000Y0133338D01*
X0096000Y0123338D01*
X0106000Y0145838D02*
X0098205Y0153633D01*
X0026000Y0153633D01*
X0019029Y0146662D01*
X0017410Y0146662D01*
X0012000Y0141252D01*
X0012000Y0070838D01*
X0012591Y0070247D01*
X0066669Y0070247D01*
X0026000Y0070247D01*
X0066669Y0070247D02*
X0084858Y0052058D01*
X0084858Y0024696D01*
X0081000Y0020838D01*
D16*
X0053000Y0077838D03*
M02*
