G75*
%MOIN*%
%OFA0B0*%
%FSLAX25Y25*%
%IPPOS*%
%LPD*%
%AMOC8*
5,1,8,0,0,1.08239X$1,22.5*
%
%ADD10C,0.00000*%
%ADD11C,0.00500*%
%ADD12C,0.00400*%
%ADD13C,0.00800*%
%ADD14C,0.00300*%
%ADD15C,0.00600*%
%ADD16C,0.01000*%
D10*
X0001000Y0005838D02*
X0001000Y0164539D01*
X0155921Y0164539D01*
X0155921Y0005838D01*
X0001000Y0005838D01*
X0091000Y0039972D02*
X0091002Y0040106D01*
X0091008Y0040240D01*
X0091018Y0040374D01*
X0091032Y0040508D01*
X0091050Y0040641D01*
X0091071Y0040773D01*
X0091097Y0040905D01*
X0091127Y0041036D01*
X0091160Y0041166D01*
X0091197Y0041294D01*
X0091239Y0041422D01*
X0091283Y0041549D01*
X0091332Y0041674D01*
X0091384Y0041797D01*
X0091440Y0041919D01*
X0091500Y0042040D01*
X0091563Y0042158D01*
X0091629Y0042275D01*
X0091699Y0042389D01*
X0091772Y0042502D01*
X0091849Y0042612D01*
X0091929Y0042720D01*
X0092012Y0042825D01*
X0092098Y0042928D01*
X0092187Y0043028D01*
X0092279Y0043126D01*
X0092374Y0043221D01*
X0092472Y0043313D01*
X0092572Y0043402D01*
X0092675Y0043488D01*
X0092780Y0043571D01*
X0092888Y0043651D01*
X0092998Y0043728D01*
X0093111Y0043801D01*
X0093225Y0043871D01*
X0093342Y0043937D01*
X0093460Y0044000D01*
X0093581Y0044060D01*
X0093703Y0044116D01*
X0093826Y0044168D01*
X0093951Y0044217D01*
X0094078Y0044261D01*
X0094206Y0044303D01*
X0094334Y0044340D01*
X0094464Y0044373D01*
X0094595Y0044403D01*
X0094727Y0044429D01*
X0094859Y0044450D01*
X0094992Y0044468D01*
X0095126Y0044482D01*
X0095260Y0044492D01*
X0095394Y0044498D01*
X0095528Y0044500D01*
X0095662Y0044498D01*
X0095796Y0044492D01*
X0095930Y0044482D01*
X0096064Y0044468D01*
X0096197Y0044450D01*
X0096329Y0044429D01*
X0096461Y0044403D01*
X0096592Y0044373D01*
X0096722Y0044340D01*
X0096850Y0044303D01*
X0096978Y0044261D01*
X0097105Y0044217D01*
X0097230Y0044168D01*
X0097353Y0044116D01*
X0097475Y0044060D01*
X0097596Y0044000D01*
X0097714Y0043937D01*
X0097831Y0043871D01*
X0097945Y0043801D01*
X0098058Y0043728D01*
X0098168Y0043651D01*
X0098276Y0043571D01*
X0098381Y0043488D01*
X0098484Y0043402D01*
X0098584Y0043313D01*
X0098682Y0043221D01*
X0098777Y0043126D01*
X0098869Y0043028D01*
X0098958Y0042928D01*
X0099044Y0042825D01*
X0099127Y0042720D01*
X0099207Y0042612D01*
X0099284Y0042502D01*
X0099357Y0042389D01*
X0099427Y0042275D01*
X0099493Y0042158D01*
X0099556Y0042040D01*
X0099616Y0041919D01*
X0099672Y0041797D01*
X0099724Y0041674D01*
X0099773Y0041549D01*
X0099817Y0041422D01*
X0099859Y0041294D01*
X0099896Y0041166D01*
X0099929Y0041036D01*
X0099959Y0040905D01*
X0099985Y0040773D01*
X0100006Y0040641D01*
X0100024Y0040508D01*
X0100038Y0040374D01*
X0100048Y0040240D01*
X0100054Y0040106D01*
X0100056Y0039972D01*
X0100054Y0039838D01*
X0100048Y0039704D01*
X0100038Y0039570D01*
X0100024Y0039436D01*
X0100006Y0039303D01*
X0099985Y0039171D01*
X0099959Y0039039D01*
X0099929Y0038908D01*
X0099896Y0038778D01*
X0099859Y0038650D01*
X0099817Y0038522D01*
X0099773Y0038395D01*
X0099724Y0038270D01*
X0099672Y0038147D01*
X0099616Y0038025D01*
X0099556Y0037904D01*
X0099493Y0037786D01*
X0099427Y0037669D01*
X0099357Y0037555D01*
X0099284Y0037442D01*
X0099207Y0037332D01*
X0099127Y0037224D01*
X0099044Y0037119D01*
X0098958Y0037016D01*
X0098869Y0036916D01*
X0098777Y0036818D01*
X0098682Y0036723D01*
X0098584Y0036631D01*
X0098484Y0036542D01*
X0098381Y0036456D01*
X0098276Y0036373D01*
X0098168Y0036293D01*
X0098058Y0036216D01*
X0097945Y0036143D01*
X0097831Y0036073D01*
X0097714Y0036007D01*
X0097596Y0035944D01*
X0097475Y0035884D01*
X0097353Y0035828D01*
X0097230Y0035776D01*
X0097105Y0035727D01*
X0096978Y0035683D01*
X0096850Y0035641D01*
X0096722Y0035604D01*
X0096592Y0035571D01*
X0096461Y0035541D01*
X0096329Y0035515D01*
X0096197Y0035494D01*
X0096064Y0035476D01*
X0095930Y0035462D01*
X0095796Y0035452D01*
X0095662Y0035446D01*
X0095528Y0035444D01*
X0095394Y0035446D01*
X0095260Y0035452D01*
X0095126Y0035462D01*
X0094992Y0035476D01*
X0094859Y0035494D01*
X0094727Y0035515D01*
X0094595Y0035541D01*
X0094464Y0035571D01*
X0094334Y0035604D01*
X0094206Y0035641D01*
X0094078Y0035683D01*
X0093951Y0035727D01*
X0093826Y0035776D01*
X0093703Y0035828D01*
X0093581Y0035884D01*
X0093460Y0035944D01*
X0093342Y0036007D01*
X0093225Y0036073D01*
X0093111Y0036143D01*
X0092998Y0036216D01*
X0092888Y0036293D01*
X0092780Y0036373D01*
X0092675Y0036456D01*
X0092572Y0036542D01*
X0092472Y0036631D01*
X0092374Y0036723D01*
X0092279Y0036818D01*
X0092187Y0036916D01*
X0092098Y0037016D01*
X0092012Y0037119D01*
X0091929Y0037224D01*
X0091849Y0037332D01*
X0091772Y0037442D01*
X0091699Y0037555D01*
X0091629Y0037669D01*
X0091563Y0037786D01*
X0091500Y0037904D01*
X0091440Y0038025D01*
X0091384Y0038147D01*
X0091332Y0038270D01*
X0091283Y0038395D01*
X0091239Y0038522D01*
X0091197Y0038650D01*
X0091160Y0038778D01*
X0091127Y0038908D01*
X0091097Y0039039D01*
X0091071Y0039171D01*
X0091050Y0039303D01*
X0091032Y0039436D01*
X0091018Y0039570D01*
X0091008Y0039704D01*
X0091002Y0039838D01*
X0091000Y0039972D01*
X0091000Y0091704D02*
X0091002Y0091838D01*
X0091008Y0091972D01*
X0091018Y0092106D01*
X0091032Y0092240D01*
X0091050Y0092373D01*
X0091071Y0092505D01*
X0091097Y0092637D01*
X0091127Y0092768D01*
X0091160Y0092898D01*
X0091197Y0093026D01*
X0091239Y0093154D01*
X0091283Y0093281D01*
X0091332Y0093406D01*
X0091384Y0093529D01*
X0091440Y0093651D01*
X0091500Y0093772D01*
X0091563Y0093890D01*
X0091629Y0094007D01*
X0091699Y0094121D01*
X0091772Y0094234D01*
X0091849Y0094344D01*
X0091929Y0094452D01*
X0092012Y0094557D01*
X0092098Y0094660D01*
X0092187Y0094760D01*
X0092279Y0094858D01*
X0092374Y0094953D01*
X0092472Y0095045D01*
X0092572Y0095134D01*
X0092675Y0095220D01*
X0092780Y0095303D01*
X0092888Y0095383D01*
X0092998Y0095460D01*
X0093111Y0095533D01*
X0093225Y0095603D01*
X0093342Y0095669D01*
X0093460Y0095732D01*
X0093581Y0095792D01*
X0093703Y0095848D01*
X0093826Y0095900D01*
X0093951Y0095949D01*
X0094078Y0095993D01*
X0094206Y0096035D01*
X0094334Y0096072D01*
X0094464Y0096105D01*
X0094595Y0096135D01*
X0094727Y0096161D01*
X0094859Y0096182D01*
X0094992Y0096200D01*
X0095126Y0096214D01*
X0095260Y0096224D01*
X0095394Y0096230D01*
X0095528Y0096232D01*
X0095662Y0096230D01*
X0095796Y0096224D01*
X0095930Y0096214D01*
X0096064Y0096200D01*
X0096197Y0096182D01*
X0096329Y0096161D01*
X0096461Y0096135D01*
X0096592Y0096105D01*
X0096722Y0096072D01*
X0096850Y0096035D01*
X0096978Y0095993D01*
X0097105Y0095949D01*
X0097230Y0095900D01*
X0097353Y0095848D01*
X0097475Y0095792D01*
X0097596Y0095732D01*
X0097714Y0095669D01*
X0097831Y0095603D01*
X0097945Y0095533D01*
X0098058Y0095460D01*
X0098168Y0095383D01*
X0098276Y0095303D01*
X0098381Y0095220D01*
X0098484Y0095134D01*
X0098584Y0095045D01*
X0098682Y0094953D01*
X0098777Y0094858D01*
X0098869Y0094760D01*
X0098958Y0094660D01*
X0099044Y0094557D01*
X0099127Y0094452D01*
X0099207Y0094344D01*
X0099284Y0094234D01*
X0099357Y0094121D01*
X0099427Y0094007D01*
X0099493Y0093890D01*
X0099556Y0093772D01*
X0099616Y0093651D01*
X0099672Y0093529D01*
X0099724Y0093406D01*
X0099773Y0093281D01*
X0099817Y0093154D01*
X0099859Y0093026D01*
X0099896Y0092898D01*
X0099929Y0092768D01*
X0099959Y0092637D01*
X0099985Y0092505D01*
X0100006Y0092373D01*
X0100024Y0092240D01*
X0100038Y0092106D01*
X0100048Y0091972D01*
X0100054Y0091838D01*
X0100056Y0091704D01*
X0100054Y0091570D01*
X0100048Y0091436D01*
X0100038Y0091302D01*
X0100024Y0091168D01*
X0100006Y0091035D01*
X0099985Y0090903D01*
X0099959Y0090771D01*
X0099929Y0090640D01*
X0099896Y0090510D01*
X0099859Y0090382D01*
X0099817Y0090254D01*
X0099773Y0090127D01*
X0099724Y0090002D01*
X0099672Y0089879D01*
X0099616Y0089757D01*
X0099556Y0089636D01*
X0099493Y0089518D01*
X0099427Y0089401D01*
X0099357Y0089287D01*
X0099284Y0089174D01*
X0099207Y0089064D01*
X0099127Y0088956D01*
X0099044Y0088851D01*
X0098958Y0088748D01*
X0098869Y0088648D01*
X0098777Y0088550D01*
X0098682Y0088455D01*
X0098584Y0088363D01*
X0098484Y0088274D01*
X0098381Y0088188D01*
X0098276Y0088105D01*
X0098168Y0088025D01*
X0098058Y0087948D01*
X0097945Y0087875D01*
X0097831Y0087805D01*
X0097714Y0087739D01*
X0097596Y0087676D01*
X0097475Y0087616D01*
X0097353Y0087560D01*
X0097230Y0087508D01*
X0097105Y0087459D01*
X0096978Y0087415D01*
X0096850Y0087373D01*
X0096722Y0087336D01*
X0096592Y0087303D01*
X0096461Y0087273D01*
X0096329Y0087247D01*
X0096197Y0087226D01*
X0096064Y0087208D01*
X0095930Y0087194D01*
X0095796Y0087184D01*
X0095662Y0087178D01*
X0095528Y0087176D01*
X0095394Y0087178D01*
X0095260Y0087184D01*
X0095126Y0087194D01*
X0094992Y0087208D01*
X0094859Y0087226D01*
X0094727Y0087247D01*
X0094595Y0087273D01*
X0094464Y0087303D01*
X0094334Y0087336D01*
X0094206Y0087373D01*
X0094078Y0087415D01*
X0093951Y0087459D01*
X0093826Y0087508D01*
X0093703Y0087560D01*
X0093581Y0087616D01*
X0093460Y0087676D01*
X0093342Y0087739D01*
X0093225Y0087805D01*
X0093111Y0087875D01*
X0092998Y0087948D01*
X0092888Y0088025D01*
X0092780Y0088105D01*
X0092675Y0088188D01*
X0092572Y0088274D01*
X0092472Y0088363D01*
X0092374Y0088455D01*
X0092279Y0088550D01*
X0092187Y0088648D01*
X0092098Y0088748D01*
X0092012Y0088851D01*
X0091929Y0088956D01*
X0091849Y0089064D01*
X0091772Y0089174D01*
X0091699Y0089287D01*
X0091629Y0089401D01*
X0091563Y0089518D01*
X0091500Y0089636D01*
X0091440Y0089757D01*
X0091384Y0089879D01*
X0091332Y0090002D01*
X0091283Y0090127D01*
X0091239Y0090254D01*
X0091197Y0090382D01*
X0091160Y0090510D01*
X0091127Y0090640D01*
X0091097Y0090771D01*
X0091071Y0090903D01*
X0091050Y0091035D01*
X0091032Y0091168D01*
X0091018Y0091302D01*
X0091008Y0091436D01*
X0091002Y0091570D01*
X0091000Y0091704D01*
X0114602Y0110838D02*
X0114604Y0110998D01*
X0114610Y0111157D01*
X0114620Y0111316D01*
X0114634Y0111475D01*
X0114652Y0111634D01*
X0114673Y0111792D01*
X0114699Y0111949D01*
X0114729Y0112106D01*
X0114762Y0112262D01*
X0114800Y0112417D01*
X0114841Y0112571D01*
X0114886Y0112724D01*
X0114935Y0112876D01*
X0114988Y0113026D01*
X0115044Y0113175D01*
X0115104Y0113323D01*
X0115168Y0113469D01*
X0115236Y0113614D01*
X0115307Y0113757D01*
X0115381Y0113898D01*
X0115459Y0114037D01*
X0115541Y0114174D01*
X0115626Y0114309D01*
X0115714Y0114442D01*
X0115805Y0114573D01*
X0115900Y0114701D01*
X0115998Y0114827D01*
X0116099Y0114951D01*
X0116203Y0115071D01*
X0116310Y0115190D01*
X0116420Y0115305D01*
X0116533Y0115418D01*
X0116648Y0115528D01*
X0116767Y0115635D01*
X0116887Y0115739D01*
X0117011Y0115840D01*
X0117137Y0115938D01*
X0117265Y0116033D01*
X0117396Y0116124D01*
X0117529Y0116212D01*
X0117664Y0116297D01*
X0117801Y0116379D01*
X0117940Y0116457D01*
X0118081Y0116531D01*
X0118224Y0116602D01*
X0118369Y0116670D01*
X0118515Y0116734D01*
X0118663Y0116794D01*
X0118812Y0116850D01*
X0118962Y0116903D01*
X0119114Y0116952D01*
X0119267Y0116997D01*
X0119421Y0117038D01*
X0119576Y0117076D01*
X0119732Y0117109D01*
X0119889Y0117139D01*
X0120046Y0117165D01*
X0120204Y0117186D01*
X0120363Y0117204D01*
X0120522Y0117218D01*
X0120681Y0117228D01*
X0120840Y0117234D01*
X0121000Y0117236D01*
X0121160Y0117234D01*
X0121319Y0117228D01*
X0121478Y0117218D01*
X0121637Y0117204D01*
X0121796Y0117186D01*
X0121954Y0117165D01*
X0122111Y0117139D01*
X0122268Y0117109D01*
X0122424Y0117076D01*
X0122579Y0117038D01*
X0122733Y0116997D01*
X0122886Y0116952D01*
X0123038Y0116903D01*
X0123188Y0116850D01*
X0123337Y0116794D01*
X0123485Y0116734D01*
X0123631Y0116670D01*
X0123776Y0116602D01*
X0123919Y0116531D01*
X0124060Y0116457D01*
X0124199Y0116379D01*
X0124336Y0116297D01*
X0124471Y0116212D01*
X0124604Y0116124D01*
X0124735Y0116033D01*
X0124863Y0115938D01*
X0124989Y0115840D01*
X0125113Y0115739D01*
X0125233Y0115635D01*
X0125352Y0115528D01*
X0125467Y0115418D01*
X0125580Y0115305D01*
X0125690Y0115190D01*
X0125797Y0115071D01*
X0125901Y0114951D01*
X0126002Y0114827D01*
X0126100Y0114701D01*
X0126195Y0114573D01*
X0126286Y0114442D01*
X0126374Y0114309D01*
X0126459Y0114174D01*
X0126541Y0114037D01*
X0126619Y0113898D01*
X0126693Y0113757D01*
X0126764Y0113614D01*
X0126832Y0113469D01*
X0126896Y0113323D01*
X0126956Y0113175D01*
X0127012Y0113026D01*
X0127065Y0112876D01*
X0127114Y0112724D01*
X0127159Y0112571D01*
X0127200Y0112417D01*
X0127238Y0112262D01*
X0127271Y0112106D01*
X0127301Y0111949D01*
X0127327Y0111792D01*
X0127348Y0111634D01*
X0127366Y0111475D01*
X0127380Y0111316D01*
X0127390Y0111157D01*
X0127396Y0110998D01*
X0127398Y0110838D01*
X0127396Y0110678D01*
X0127390Y0110519D01*
X0127380Y0110360D01*
X0127366Y0110201D01*
X0127348Y0110042D01*
X0127327Y0109884D01*
X0127301Y0109727D01*
X0127271Y0109570D01*
X0127238Y0109414D01*
X0127200Y0109259D01*
X0127159Y0109105D01*
X0127114Y0108952D01*
X0127065Y0108800D01*
X0127012Y0108650D01*
X0126956Y0108501D01*
X0126896Y0108353D01*
X0126832Y0108207D01*
X0126764Y0108062D01*
X0126693Y0107919D01*
X0126619Y0107778D01*
X0126541Y0107639D01*
X0126459Y0107502D01*
X0126374Y0107367D01*
X0126286Y0107234D01*
X0126195Y0107103D01*
X0126100Y0106975D01*
X0126002Y0106849D01*
X0125901Y0106725D01*
X0125797Y0106605D01*
X0125690Y0106486D01*
X0125580Y0106371D01*
X0125467Y0106258D01*
X0125352Y0106148D01*
X0125233Y0106041D01*
X0125113Y0105937D01*
X0124989Y0105836D01*
X0124863Y0105738D01*
X0124735Y0105643D01*
X0124604Y0105552D01*
X0124471Y0105464D01*
X0124336Y0105379D01*
X0124199Y0105297D01*
X0124060Y0105219D01*
X0123919Y0105145D01*
X0123776Y0105074D01*
X0123631Y0105006D01*
X0123485Y0104942D01*
X0123337Y0104882D01*
X0123188Y0104826D01*
X0123038Y0104773D01*
X0122886Y0104724D01*
X0122733Y0104679D01*
X0122579Y0104638D01*
X0122424Y0104600D01*
X0122268Y0104567D01*
X0122111Y0104537D01*
X0121954Y0104511D01*
X0121796Y0104490D01*
X0121637Y0104472D01*
X0121478Y0104458D01*
X0121319Y0104448D01*
X0121160Y0104442D01*
X0121000Y0104440D01*
X0120840Y0104442D01*
X0120681Y0104448D01*
X0120522Y0104458D01*
X0120363Y0104472D01*
X0120204Y0104490D01*
X0120046Y0104511D01*
X0119889Y0104537D01*
X0119732Y0104567D01*
X0119576Y0104600D01*
X0119421Y0104638D01*
X0119267Y0104679D01*
X0119114Y0104724D01*
X0118962Y0104773D01*
X0118812Y0104826D01*
X0118663Y0104882D01*
X0118515Y0104942D01*
X0118369Y0105006D01*
X0118224Y0105074D01*
X0118081Y0105145D01*
X0117940Y0105219D01*
X0117801Y0105297D01*
X0117664Y0105379D01*
X0117529Y0105464D01*
X0117396Y0105552D01*
X0117265Y0105643D01*
X0117137Y0105738D01*
X0117011Y0105836D01*
X0116887Y0105937D01*
X0116767Y0106041D01*
X0116648Y0106148D01*
X0116533Y0106258D01*
X0116420Y0106371D01*
X0116310Y0106486D01*
X0116203Y0106605D01*
X0116099Y0106725D01*
X0115998Y0106849D01*
X0115900Y0106975D01*
X0115805Y0107103D01*
X0115714Y0107234D01*
X0115626Y0107367D01*
X0115541Y0107502D01*
X0115459Y0107639D01*
X0115381Y0107778D01*
X0115307Y0107919D01*
X0115236Y0108062D01*
X0115168Y0108207D01*
X0115104Y0108353D01*
X0115044Y0108501D01*
X0114988Y0108650D01*
X0114935Y0108800D01*
X0114886Y0108952D01*
X0114841Y0109105D01*
X0114800Y0109259D01*
X0114762Y0109414D01*
X0114729Y0109570D01*
X0114699Y0109727D01*
X0114673Y0109884D01*
X0114652Y0110042D01*
X0114634Y0110201D01*
X0114620Y0110360D01*
X0114610Y0110519D01*
X0114604Y0110678D01*
X0114602Y0110838D01*
X0114602Y0150838D02*
X0114604Y0150998D01*
X0114610Y0151157D01*
X0114620Y0151316D01*
X0114634Y0151475D01*
X0114652Y0151634D01*
X0114673Y0151792D01*
X0114699Y0151949D01*
X0114729Y0152106D01*
X0114762Y0152262D01*
X0114800Y0152417D01*
X0114841Y0152571D01*
X0114886Y0152724D01*
X0114935Y0152876D01*
X0114988Y0153026D01*
X0115044Y0153175D01*
X0115104Y0153323D01*
X0115168Y0153469D01*
X0115236Y0153614D01*
X0115307Y0153757D01*
X0115381Y0153898D01*
X0115459Y0154037D01*
X0115541Y0154174D01*
X0115626Y0154309D01*
X0115714Y0154442D01*
X0115805Y0154573D01*
X0115900Y0154701D01*
X0115998Y0154827D01*
X0116099Y0154951D01*
X0116203Y0155071D01*
X0116310Y0155190D01*
X0116420Y0155305D01*
X0116533Y0155418D01*
X0116648Y0155528D01*
X0116767Y0155635D01*
X0116887Y0155739D01*
X0117011Y0155840D01*
X0117137Y0155938D01*
X0117265Y0156033D01*
X0117396Y0156124D01*
X0117529Y0156212D01*
X0117664Y0156297D01*
X0117801Y0156379D01*
X0117940Y0156457D01*
X0118081Y0156531D01*
X0118224Y0156602D01*
X0118369Y0156670D01*
X0118515Y0156734D01*
X0118663Y0156794D01*
X0118812Y0156850D01*
X0118962Y0156903D01*
X0119114Y0156952D01*
X0119267Y0156997D01*
X0119421Y0157038D01*
X0119576Y0157076D01*
X0119732Y0157109D01*
X0119889Y0157139D01*
X0120046Y0157165D01*
X0120204Y0157186D01*
X0120363Y0157204D01*
X0120522Y0157218D01*
X0120681Y0157228D01*
X0120840Y0157234D01*
X0121000Y0157236D01*
X0121160Y0157234D01*
X0121319Y0157228D01*
X0121478Y0157218D01*
X0121637Y0157204D01*
X0121796Y0157186D01*
X0121954Y0157165D01*
X0122111Y0157139D01*
X0122268Y0157109D01*
X0122424Y0157076D01*
X0122579Y0157038D01*
X0122733Y0156997D01*
X0122886Y0156952D01*
X0123038Y0156903D01*
X0123188Y0156850D01*
X0123337Y0156794D01*
X0123485Y0156734D01*
X0123631Y0156670D01*
X0123776Y0156602D01*
X0123919Y0156531D01*
X0124060Y0156457D01*
X0124199Y0156379D01*
X0124336Y0156297D01*
X0124471Y0156212D01*
X0124604Y0156124D01*
X0124735Y0156033D01*
X0124863Y0155938D01*
X0124989Y0155840D01*
X0125113Y0155739D01*
X0125233Y0155635D01*
X0125352Y0155528D01*
X0125467Y0155418D01*
X0125580Y0155305D01*
X0125690Y0155190D01*
X0125797Y0155071D01*
X0125901Y0154951D01*
X0126002Y0154827D01*
X0126100Y0154701D01*
X0126195Y0154573D01*
X0126286Y0154442D01*
X0126374Y0154309D01*
X0126459Y0154174D01*
X0126541Y0154037D01*
X0126619Y0153898D01*
X0126693Y0153757D01*
X0126764Y0153614D01*
X0126832Y0153469D01*
X0126896Y0153323D01*
X0126956Y0153175D01*
X0127012Y0153026D01*
X0127065Y0152876D01*
X0127114Y0152724D01*
X0127159Y0152571D01*
X0127200Y0152417D01*
X0127238Y0152262D01*
X0127271Y0152106D01*
X0127301Y0151949D01*
X0127327Y0151792D01*
X0127348Y0151634D01*
X0127366Y0151475D01*
X0127380Y0151316D01*
X0127390Y0151157D01*
X0127396Y0150998D01*
X0127398Y0150838D01*
X0127396Y0150678D01*
X0127390Y0150519D01*
X0127380Y0150360D01*
X0127366Y0150201D01*
X0127348Y0150042D01*
X0127327Y0149884D01*
X0127301Y0149727D01*
X0127271Y0149570D01*
X0127238Y0149414D01*
X0127200Y0149259D01*
X0127159Y0149105D01*
X0127114Y0148952D01*
X0127065Y0148800D01*
X0127012Y0148650D01*
X0126956Y0148501D01*
X0126896Y0148353D01*
X0126832Y0148207D01*
X0126764Y0148062D01*
X0126693Y0147919D01*
X0126619Y0147778D01*
X0126541Y0147639D01*
X0126459Y0147502D01*
X0126374Y0147367D01*
X0126286Y0147234D01*
X0126195Y0147103D01*
X0126100Y0146975D01*
X0126002Y0146849D01*
X0125901Y0146725D01*
X0125797Y0146605D01*
X0125690Y0146486D01*
X0125580Y0146371D01*
X0125467Y0146258D01*
X0125352Y0146148D01*
X0125233Y0146041D01*
X0125113Y0145937D01*
X0124989Y0145836D01*
X0124863Y0145738D01*
X0124735Y0145643D01*
X0124604Y0145552D01*
X0124471Y0145464D01*
X0124336Y0145379D01*
X0124199Y0145297D01*
X0124060Y0145219D01*
X0123919Y0145145D01*
X0123776Y0145074D01*
X0123631Y0145006D01*
X0123485Y0144942D01*
X0123337Y0144882D01*
X0123188Y0144826D01*
X0123038Y0144773D01*
X0122886Y0144724D01*
X0122733Y0144679D01*
X0122579Y0144638D01*
X0122424Y0144600D01*
X0122268Y0144567D01*
X0122111Y0144537D01*
X0121954Y0144511D01*
X0121796Y0144490D01*
X0121637Y0144472D01*
X0121478Y0144458D01*
X0121319Y0144448D01*
X0121160Y0144442D01*
X0121000Y0144440D01*
X0120840Y0144442D01*
X0120681Y0144448D01*
X0120522Y0144458D01*
X0120363Y0144472D01*
X0120204Y0144490D01*
X0120046Y0144511D01*
X0119889Y0144537D01*
X0119732Y0144567D01*
X0119576Y0144600D01*
X0119421Y0144638D01*
X0119267Y0144679D01*
X0119114Y0144724D01*
X0118962Y0144773D01*
X0118812Y0144826D01*
X0118663Y0144882D01*
X0118515Y0144942D01*
X0118369Y0145006D01*
X0118224Y0145074D01*
X0118081Y0145145D01*
X0117940Y0145219D01*
X0117801Y0145297D01*
X0117664Y0145379D01*
X0117529Y0145464D01*
X0117396Y0145552D01*
X0117265Y0145643D01*
X0117137Y0145738D01*
X0117011Y0145836D01*
X0116887Y0145937D01*
X0116767Y0146041D01*
X0116648Y0146148D01*
X0116533Y0146258D01*
X0116420Y0146371D01*
X0116310Y0146486D01*
X0116203Y0146605D01*
X0116099Y0146725D01*
X0115998Y0146849D01*
X0115900Y0146975D01*
X0115805Y0147103D01*
X0115714Y0147234D01*
X0115626Y0147367D01*
X0115541Y0147502D01*
X0115459Y0147639D01*
X0115381Y0147778D01*
X0115307Y0147919D01*
X0115236Y0148062D01*
X0115168Y0148207D01*
X0115104Y0148353D01*
X0115044Y0148501D01*
X0114988Y0148650D01*
X0114935Y0148800D01*
X0114886Y0148952D01*
X0114841Y0149105D01*
X0114800Y0149259D01*
X0114762Y0149414D01*
X0114729Y0149570D01*
X0114699Y0149727D01*
X0114673Y0149884D01*
X0114652Y0150042D01*
X0114634Y0150201D01*
X0114620Y0150360D01*
X0114610Y0150519D01*
X0114604Y0150678D01*
X0114602Y0150838D01*
D11*
X0101000Y0133338D02*
X0133500Y0133338D01*
X0133500Y0138338D02*
X0091000Y0138338D01*
X0091000Y0128338D02*
X0133500Y0128338D01*
X0133500Y0123338D02*
X0101000Y0123338D01*
X0078500Y0103338D02*
X0078500Y0158338D01*
X0151000Y0158338D01*
X0151000Y0103338D01*
X0078500Y0103338D01*
X0151000Y0103338D02*
X0153500Y0103338D01*
X0153500Y0158338D01*
X0151000Y0158338D01*
X0083500Y0013088D02*
X0082250Y0012088D01*
X0083500Y0013088D02*
X0083500Y0008588D01*
X0082250Y0008588D02*
X0084750Y0008588D01*
X0080485Y0008588D02*
X0079485Y0008588D01*
X0079425Y0008590D01*
X0079364Y0008595D01*
X0079305Y0008604D01*
X0079246Y0008617D01*
X0079187Y0008633D01*
X0079130Y0008653D01*
X0079075Y0008676D01*
X0079020Y0008703D01*
X0078968Y0008732D01*
X0078917Y0008765D01*
X0078868Y0008801D01*
X0078822Y0008839D01*
X0078778Y0008881D01*
X0078736Y0008925D01*
X0078698Y0008971D01*
X0078662Y0009020D01*
X0078629Y0009071D01*
X0078600Y0009123D01*
X0078573Y0009178D01*
X0078550Y0009233D01*
X0078530Y0009290D01*
X0078514Y0009349D01*
X0078501Y0009408D01*
X0078492Y0009467D01*
X0078487Y0009528D01*
X0078485Y0009588D01*
X0078485Y0012088D01*
X0078487Y0012148D01*
X0078492Y0012209D01*
X0078501Y0012268D01*
X0078514Y0012327D01*
X0078530Y0012386D01*
X0078550Y0012443D01*
X0078573Y0012498D01*
X0078600Y0012553D01*
X0078629Y0012605D01*
X0078662Y0012656D01*
X0078698Y0012705D01*
X0078736Y0012751D01*
X0078778Y0012795D01*
X0078822Y0012837D01*
X0078868Y0012875D01*
X0078917Y0012911D01*
X0078968Y0012944D01*
X0079020Y0012973D01*
X0079075Y0013000D01*
X0079130Y0013023D01*
X0079187Y0013043D01*
X0079246Y0013059D01*
X0079305Y0013072D01*
X0079364Y0013081D01*
X0079425Y0013086D01*
X0079485Y0013088D01*
X0080485Y0013088D01*
D12*
X0078713Y0040447D02*
X0074113Y0043514D01*
X0075135Y0045202D02*
X0074113Y0046480D01*
X0078713Y0046480D01*
X0078713Y0045202D02*
X0078713Y0047758D01*
X0078713Y0043514D02*
X0074113Y0040447D01*
X0043300Y0041036D02*
X0040744Y0041036D01*
X0041767Y0044614D01*
X0042533Y0042059D02*
X0042533Y0040014D01*
X0039056Y0040014D02*
X0035989Y0044614D01*
X0039056Y0044614D02*
X0035989Y0040014D01*
X0035989Y0008000D02*
X0039056Y0003400D01*
X0040744Y0003400D02*
X0043300Y0003400D01*
X0040744Y0003400D02*
X0042917Y0005956D01*
X0042150Y0008000D02*
X0042076Y0007998D01*
X0042002Y0007993D01*
X0041928Y0007983D01*
X0041855Y0007970D01*
X0041782Y0007954D01*
X0041711Y0007933D01*
X0041641Y0007909D01*
X0041572Y0007882D01*
X0041504Y0007851D01*
X0041438Y0007817D01*
X0041374Y0007780D01*
X0041312Y0007739D01*
X0041252Y0007695D01*
X0041194Y0007649D01*
X0041138Y0007599D01*
X0041085Y0007547D01*
X0041035Y0007492D01*
X0040988Y0007435D01*
X0040944Y0007375D01*
X0040902Y0007313D01*
X0040864Y0007250D01*
X0040829Y0007184D01*
X0040798Y0007117D01*
X0040770Y0007048D01*
X0040745Y0006978D01*
X0042917Y0005956D02*
X0042964Y0006003D01*
X0043008Y0006053D01*
X0043050Y0006105D01*
X0043089Y0006159D01*
X0043124Y0006215D01*
X0043157Y0006273D01*
X0043187Y0006333D01*
X0043213Y0006394D01*
X0043236Y0006457D01*
X0043255Y0006521D01*
X0043271Y0006585D01*
X0043284Y0006651D01*
X0043293Y0006717D01*
X0043298Y0006783D01*
X0043300Y0006850D01*
X0043298Y0006917D01*
X0043292Y0006984D01*
X0043283Y0007050D01*
X0043269Y0007115D01*
X0043252Y0007180D01*
X0043231Y0007243D01*
X0043206Y0007305D01*
X0043178Y0007366D01*
X0043146Y0007425D01*
X0043111Y0007482D01*
X0043072Y0007537D01*
X0043031Y0007589D01*
X0042986Y0007639D01*
X0042939Y0007686D01*
X0042889Y0007731D01*
X0042837Y0007772D01*
X0042782Y0007811D01*
X0042725Y0007846D01*
X0042666Y0007878D01*
X0042605Y0007906D01*
X0042543Y0007931D01*
X0042480Y0007952D01*
X0042415Y0007969D01*
X0042350Y0007983D01*
X0042284Y0007992D01*
X0042217Y0007998D01*
X0042150Y0008000D01*
X0039056Y0008000D02*
X0035989Y0003400D01*
X0035989Y0123400D02*
X0039056Y0128000D01*
X0040744Y0128000D02*
X0042278Y0128000D01*
X0042341Y0127998D01*
X0042404Y0127992D01*
X0042466Y0127983D01*
X0042527Y0127969D01*
X0042588Y0127952D01*
X0042647Y0127931D01*
X0042705Y0127906D01*
X0042762Y0127878D01*
X0042816Y0127847D01*
X0042868Y0127812D01*
X0042919Y0127774D01*
X0042967Y0127733D01*
X0043012Y0127689D01*
X0043054Y0127643D01*
X0043094Y0127594D01*
X0043130Y0127543D01*
X0043163Y0127489D01*
X0043193Y0127434D01*
X0043219Y0127376D01*
X0043242Y0127318D01*
X0043261Y0127258D01*
X0043276Y0127197D01*
X0043288Y0127135D01*
X0043296Y0127072D01*
X0043300Y0127009D01*
X0043300Y0126947D01*
X0043296Y0126884D01*
X0043288Y0126821D01*
X0043276Y0126759D01*
X0043261Y0126698D01*
X0043242Y0126638D01*
X0043219Y0126580D01*
X0043193Y0126522D01*
X0043163Y0126467D01*
X0043130Y0126413D01*
X0043094Y0126362D01*
X0043054Y0126313D01*
X0043012Y0126267D01*
X0042967Y0126223D01*
X0042919Y0126182D01*
X0042868Y0126144D01*
X0042816Y0126109D01*
X0042762Y0126078D01*
X0042705Y0126050D01*
X0042647Y0126025D01*
X0042588Y0126004D01*
X0042527Y0125987D01*
X0042466Y0125973D01*
X0042404Y0125964D01*
X0042341Y0125958D01*
X0042278Y0125956D01*
X0041256Y0125956D01*
X0042022Y0125956D02*
X0042092Y0125954D01*
X0042163Y0125948D01*
X0042232Y0125939D01*
X0042301Y0125925D01*
X0042370Y0125908D01*
X0042437Y0125887D01*
X0042503Y0125862D01*
X0042567Y0125834D01*
X0042630Y0125802D01*
X0042691Y0125767D01*
X0042750Y0125728D01*
X0042807Y0125687D01*
X0042861Y0125642D01*
X0042913Y0125594D01*
X0042962Y0125544D01*
X0043009Y0125490D01*
X0043052Y0125435D01*
X0043092Y0125377D01*
X0043129Y0125317D01*
X0043162Y0125255D01*
X0043192Y0125191D01*
X0043219Y0125126D01*
X0043242Y0125060D01*
X0043261Y0124992D01*
X0043276Y0124923D01*
X0043288Y0124854D01*
X0043296Y0124784D01*
X0043300Y0124713D01*
X0043300Y0124643D01*
X0043296Y0124572D01*
X0043288Y0124502D01*
X0043276Y0124433D01*
X0043261Y0124364D01*
X0043242Y0124296D01*
X0043219Y0124230D01*
X0043192Y0124165D01*
X0043162Y0124101D01*
X0043129Y0124039D01*
X0043092Y0123979D01*
X0043052Y0123921D01*
X0043009Y0123866D01*
X0042962Y0123812D01*
X0042913Y0123762D01*
X0042861Y0123714D01*
X0042807Y0123669D01*
X0042750Y0123628D01*
X0042691Y0123589D01*
X0042630Y0123554D01*
X0042567Y0123522D01*
X0042503Y0123494D01*
X0042437Y0123469D01*
X0042370Y0123448D01*
X0042301Y0123431D01*
X0042232Y0123417D01*
X0042163Y0123408D01*
X0042092Y0123402D01*
X0042022Y0123400D01*
X0040744Y0123400D01*
X0039056Y0123400D02*
X0035989Y0128000D01*
X0081200Y0158538D02*
X0081711Y0158538D01*
X0081773Y0158540D01*
X0081834Y0158545D01*
X0081895Y0158555D01*
X0081956Y0158568D01*
X0082015Y0158584D01*
X0082073Y0158604D01*
X0082130Y0158628D01*
X0082186Y0158655D01*
X0082240Y0158685D01*
X0082292Y0158719D01*
X0082341Y0158755D01*
X0082389Y0158795D01*
X0082434Y0158837D01*
X0082476Y0158882D01*
X0082516Y0158930D01*
X0082552Y0158979D01*
X0082586Y0159031D01*
X0082616Y0159085D01*
X0082643Y0159141D01*
X0082667Y0159198D01*
X0082687Y0159256D01*
X0082703Y0159315D01*
X0082716Y0159376D01*
X0082726Y0159437D01*
X0082731Y0159498D01*
X0082733Y0159560D01*
X0082733Y0163138D01*
X0084809Y0162116D02*
X0086087Y0163138D01*
X0086087Y0158538D01*
X0084809Y0158538D02*
X0087365Y0158538D01*
D13*
X0044996Y0160838D02*
X0044996Y0130936D01*
X0006512Y0130936D01*
X0006512Y0138023D01*
X0016059Y0138023D01*
X0016059Y0153751D01*
X0006512Y0153751D01*
X0006512Y0138023D01*
X0006512Y0124224D02*
X0044996Y0124224D01*
X0044996Y0047550D01*
X0006512Y0047550D01*
X0006512Y0054637D01*
X0016059Y0054637D01*
X0016059Y0117137D01*
X0006512Y0117137D01*
X0006512Y0054637D01*
X0006512Y0040838D02*
X0044996Y0040838D01*
X0044996Y0010936D01*
X0006512Y0010936D01*
X0006512Y0018023D01*
X0016059Y0018023D01*
X0016059Y0033751D01*
X0006512Y0033751D01*
X0006512Y0018023D01*
X0006512Y0033751D02*
X0006512Y0040838D01*
X0006512Y0117137D02*
X0006512Y0124224D01*
X0006512Y0153751D02*
X0006512Y0160838D01*
X0044996Y0160838D01*
X0092693Y0097334D02*
X0098598Y0097334D01*
X0100567Y0091428D01*
X0090724Y0091428D01*
X0092693Y0097334D01*
X0090724Y0091428D02*
X0081276Y0091428D01*
X0081276Y0040247D01*
X0090724Y0040247D01*
X0092693Y0034342D01*
X0098598Y0034342D01*
X0100567Y0040247D01*
X0134819Y0040247D01*
X0134819Y0040248D01*
X0134819Y0041428D01*
X0134821Y0041494D01*
X0134826Y0041560D01*
X0134836Y0041626D01*
X0134849Y0041691D01*
X0134865Y0041755D01*
X0134885Y0041818D01*
X0134909Y0041880D01*
X0134936Y0041940D01*
X0134966Y0041999D01*
X0135000Y0042056D01*
X0135037Y0042111D01*
X0135077Y0042164D01*
X0135119Y0042215D01*
X0135165Y0042263D01*
X0135213Y0042309D01*
X0135264Y0042351D01*
X0135317Y0042391D01*
X0135372Y0042428D01*
X0135429Y0042462D01*
X0135488Y0042492D01*
X0135548Y0042519D01*
X0135610Y0042543D01*
X0135673Y0042563D01*
X0135737Y0042579D01*
X0135802Y0042592D01*
X0135868Y0042602D01*
X0135934Y0042607D01*
X0136000Y0042609D01*
X0136000Y0089066D01*
X0136000Y0089067D02*
X0135931Y0089069D01*
X0135863Y0089075D01*
X0135795Y0089085D01*
X0135728Y0089099D01*
X0135661Y0089117D01*
X0135596Y0089138D01*
X0135532Y0089164D01*
X0135470Y0089193D01*
X0135410Y0089225D01*
X0135351Y0089261D01*
X0135295Y0089301D01*
X0135241Y0089343D01*
X0135190Y0089389D01*
X0135141Y0089437D01*
X0135095Y0089489D01*
X0135053Y0089543D01*
X0135013Y0089599D01*
X0134977Y0089657D01*
X0134945Y0089718D01*
X0134916Y0089780D01*
X0134890Y0089844D01*
X0134869Y0089909D01*
X0134851Y0089975D01*
X0134837Y0090043D01*
X0134827Y0090111D01*
X0134821Y0090179D01*
X0134819Y0090248D01*
X0134819Y0090247D02*
X0134819Y0091428D01*
X0100567Y0091428D01*
X0104504Y0085523D02*
X0128126Y0081586D01*
X0128126Y0077649D01*
X0104504Y0073712D01*
X0104504Y0057964D02*
X0128126Y0054027D01*
X0128126Y0050090D01*
X0104504Y0046153D01*
X0100567Y0040247D02*
X0090724Y0040247D01*
X0134819Y0040248D02*
X0134885Y0040246D01*
X0134951Y0040241D01*
X0135017Y0040231D01*
X0135082Y0040218D01*
X0135146Y0040202D01*
X0135209Y0040182D01*
X0135271Y0040158D01*
X0135331Y0040131D01*
X0135390Y0040101D01*
X0135447Y0040067D01*
X0135502Y0040030D01*
X0135555Y0039990D01*
X0135606Y0039948D01*
X0135654Y0039902D01*
X0135700Y0039854D01*
X0135742Y0039803D01*
X0135782Y0039750D01*
X0135819Y0039695D01*
X0135853Y0039638D01*
X0135883Y0039579D01*
X0135910Y0039519D01*
X0135934Y0039457D01*
X0135954Y0039394D01*
X0135970Y0039330D01*
X0135983Y0039265D01*
X0135993Y0039199D01*
X0135998Y0039133D01*
X0136000Y0039067D01*
X0136000Y0039066D02*
X0136000Y0038279D01*
X0136000Y0092609D02*
X0136000Y0093397D01*
X0136000Y0092609D02*
X0135998Y0092543D01*
X0135993Y0092477D01*
X0135983Y0092411D01*
X0135970Y0092346D01*
X0135954Y0092282D01*
X0135934Y0092219D01*
X0135910Y0092157D01*
X0135883Y0092097D01*
X0135853Y0092038D01*
X0135819Y0091981D01*
X0135782Y0091926D01*
X0135742Y0091873D01*
X0135700Y0091822D01*
X0135654Y0091774D01*
X0135606Y0091728D01*
X0135555Y0091686D01*
X0135502Y0091646D01*
X0135447Y0091609D01*
X0135390Y0091575D01*
X0135331Y0091545D01*
X0135271Y0091518D01*
X0135209Y0091494D01*
X0135146Y0091474D01*
X0135082Y0091458D01*
X0135017Y0091445D01*
X0134951Y0091435D01*
X0134885Y0091430D01*
X0134819Y0091428D01*
D14*
X0133350Y0087369D02*
X0133350Y0085313D01*
X0133350Y0086341D02*
X0129650Y0086341D01*
X0130472Y0085313D01*
X0131911Y0083734D02*
X0131911Y0081268D01*
X0132117Y0079689D02*
X0132322Y0079689D01*
X0132117Y0079689D02*
X0132061Y0079687D01*
X0132005Y0079681D01*
X0131950Y0079672D01*
X0131895Y0079659D01*
X0131842Y0079642D01*
X0131790Y0079621D01*
X0131739Y0079597D01*
X0131690Y0079569D01*
X0131643Y0079539D01*
X0131598Y0079505D01*
X0131556Y0079468D01*
X0131516Y0079428D01*
X0131479Y0079386D01*
X0131445Y0079341D01*
X0131415Y0079294D01*
X0131387Y0079245D01*
X0131363Y0079194D01*
X0131342Y0079142D01*
X0131325Y0079089D01*
X0131312Y0079034D01*
X0131303Y0078979D01*
X0131297Y0078923D01*
X0131295Y0078867D01*
X0131294Y0078867D02*
X0131294Y0077633D01*
X0132322Y0077633D01*
X0132385Y0077635D01*
X0132448Y0077641D01*
X0132511Y0077651D01*
X0132573Y0077664D01*
X0132634Y0077681D01*
X0132693Y0077702D01*
X0132752Y0077727D01*
X0132808Y0077755D01*
X0132863Y0077787D01*
X0132916Y0077822D01*
X0132966Y0077860D01*
X0133015Y0077901D01*
X0133060Y0077945D01*
X0133103Y0077992D01*
X0133142Y0078041D01*
X0133179Y0078093D01*
X0133212Y0078147D01*
X0133242Y0078203D01*
X0133269Y0078260D01*
X0133292Y0078319D01*
X0133311Y0078380D01*
X0133326Y0078441D01*
X0133338Y0078503D01*
X0133346Y0078566D01*
X0133350Y0078629D01*
X0133350Y0078693D01*
X0133346Y0078756D01*
X0133338Y0078819D01*
X0133326Y0078881D01*
X0133311Y0078942D01*
X0133292Y0079003D01*
X0133269Y0079062D01*
X0133242Y0079119D01*
X0133212Y0079175D01*
X0133179Y0079229D01*
X0133142Y0079281D01*
X0133103Y0079330D01*
X0133060Y0079377D01*
X0133015Y0079421D01*
X0132966Y0079462D01*
X0132916Y0079500D01*
X0132863Y0079535D01*
X0132808Y0079567D01*
X0132752Y0079595D01*
X0132693Y0079620D01*
X0132634Y0079641D01*
X0132573Y0079658D01*
X0132511Y0079671D01*
X0132448Y0079681D01*
X0132385Y0079687D01*
X0132322Y0079689D01*
X0131294Y0077634D02*
X0131213Y0077636D01*
X0131133Y0077642D01*
X0131053Y0077652D01*
X0130973Y0077666D01*
X0130895Y0077683D01*
X0130817Y0077705D01*
X0130740Y0077730D01*
X0130665Y0077759D01*
X0130591Y0077792D01*
X0130519Y0077828D01*
X0130449Y0077868D01*
X0130381Y0077911D01*
X0130315Y0077958D01*
X0130251Y0078007D01*
X0130190Y0078060D01*
X0130132Y0078116D01*
X0130076Y0078174D01*
X0130023Y0078235D01*
X0129974Y0078299D01*
X0129927Y0078365D01*
X0129884Y0078433D01*
X0129844Y0078503D01*
X0129808Y0078575D01*
X0129775Y0078649D01*
X0129746Y0078724D01*
X0129721Y0078801D01*
X0129699Y0078879D01*
X0129682Y0078957D01*
X0129668Y0079037D01*
X0129658Y0079117D01*
X0129652Y0079197D01*
X0129650Y0079278D01*
X0129650Y0075061D02*
X0133350Y0075061D01*
X0133350Y0074033D02*
X0133350Y0076089D01*
X0130472Y0074033D02*
X0129650Y0075061D01*
X0129650Y0072078D02*
X0129652Y0071997D01*
X0129658Y0071917D01*
X0129668Y0071837D01*
X0129682Y0071757D01*
X0129699Y0071679D01*
X0129721Y0071601D01*
X0129746Y0071524D01*
X0129775Y0071449D01*
X0129808Y0071375D01*
X0129844Y0071303D01*
X0129884Y0071233D01*
X0129927Y0071165D01*
X0129974Y0071099D01*
X0130023Y0071035D01*
X0130076Y0070974D01*
X0130132Y0070916D01*
X0130190Y0070860D01*
X0130251Y0070807D01*
X0130315Y0070758D01*
X0130381Y0070711D01*
X0130449Y0070668D01*
X0130519Y0070628D01*
X0130591Y0070592D01*
X0130665Y0070559D01*
X0130740Y0070530D01*
X0130817Y0070505D01*
X0130895Y0070483D01*
X0130973Y0070466D01*
X0131053Y0070452D01*
X0131133Y0070442D01*
X0131213Y0070436D01*
X0131294Y0070434D01*
X0131294Y0070433D02*
X0132322Y0070433D01*
X0131294Y0070433D02*
X0131294Y0071667D01*
X0131295Y0071667D02*
X0131297Y0071723D01*
X0131303Y0071779D01*
X0131312Y0071834D01*
X0131325Y0071889D01*
X0131342Y0071942D01*
X0131363Y0071994D01*
X0131387Y0072045D01*
X0131415Y0072094D01*
X0131445Y0072141D01*
X0131479Y0072186D01*
X0131516Y0072228D01*
X0131556Y0072268D01*
X0131598Y0072305D01*
X0131643Y0072339D01*
X0131690Y0072369D01*
X0131739Y0072397D01*
X0131790Y0072421D01*
X0131842Y0072442D01*
X0131895Y0072459D01*
X0131950Y0072472D01*
X0132005Y0072481D01*
X0132061Y0072487D01*
X0132117Y0072489D01*
X0132322Y0072489D01*
X0132385Y0072487D01*
X0132448Y0072481D01*
X0132511Y0072471D01*
X0132573Y0072458D01*
X0132634Y0072441D01*
X0132693Y0072420D01*
X0132752Y0072395D01*
X0132808Y0072367D01*
X0132863Y0072335D01*
X0132916Y0072300D01*
X0132966Y0072262D01*
X0133015Y0072221D01*
X0133060Y0072177D01*
X0133103Y0072130D01*
X0133142Y0072081D01*
X0133179Y0072029D01*
X0133212Y0071975D01*
X0133242Y0071919D01*
X0133269Y0071862D01*
X0133292Y0071803D01*
X0133311Y0071742D01*
X0133326Y0071681D01*
X0133338Y0071619D01*
X0133346Y0071556D01*
X0133350Y0071493D01*
X0133350Y0071429D01*
X0133346Y0071366D01*
X0133338Y0071303D01*
X0133326Y0071241D01*
X0133311Y0071180D01*
X0133292Y0071119D01*
X0133269Y0071060D01*
X0133242Y0071003D01*
X0133212Y0070947D01*
X0133179Y0070893D01*
X0133142Y0070841D01*
X0133103Y0070792D01*
X0133060Y0070745D01*
X0133015Y0070701D01*
X0132966Y0070660D01*
X0132916Y0070622D01*
X0132863Y0070587D01*
X0132808Y0070555D01*
X0132752Y0070527D01*
X0132693Y0070502D01*
X0132634Y0070481D01*
X0132573Y0070464D01*
X0132511Y0070451D01*
X0132448Y0070441D01*
X0132385Y0070435D01*
X0132322Y0070433D01*
X0133350Y0067861D02*
X0129650Y0068889D01*
X0129650Y0066833D01*
X0130061Y0066833D01*
X0130472Y0065083D02*
X0130528Y0065081D01*
X0130584Y0065075D01*
X0130639Y0065066D01*
X0130694Y0065053D01*
X0130747Y0065036D01*
X0130799Y0065015D01*
X0130850Y0064991D01*
X0130899Y0064963D01*
X0130946Y0064933D01*
X0130991Y0064899D01*
X0131033Y0064862D01*
X0131073Y0064822D01*
X0131110Y0064780D01*
X0131144Y0064735D01*
X0131174Y0064688D01*
X0131202Y0064639D01*
X0131226Y0064588D01*
X0131247Y0064536D01*
X0131264Y0064483D01*
X0131277Y0064428D01*
X0131286Y0064373D01*
X0131292Y0064317D01*
X0131294Y0064261D01*
X0131292Y0064205D01*
X0131286Y0064149D01*
X0131277Y0064094D01*
X0131264Y0064039D01*
X0131247Y0063986D01*
X0131226Y0063934D01*
X0131202Y0063883D01*
X0131174Y0063834D01*
X0131144Y0063787D01*
X0131110Y0063742D01*
X0131073Y0063700D01*
X0131033Y0063660D01*
X0130991Y0063623D01*
X0130946Y0063589D01*
X0130899Y0063559D01*
X0130850Y0063531D01*
X0130799Y0063507D01*
X0130747Y0063486D01*
X0130694Y0063469D01*
X0130639Y0063456D01*
X0130584Y0063447D01*
X0130528Y0063441D01*
X0130472Y0063439D01*
X0130416Y0063441D01*
X0130360Y0063447D01*
X0130305Y0063456D01*
X0130250Y0063469D01*
X0130197Y0063486D01*
X0130145Y0063507D01*
X0130094Y0063531D01*
X0130045Y0063559D01*
X0129998Y0063589D01*
X0129953Y0063623D01*
X0129911Y0063660D01*
X0129871Y0063700D01*
X0129834Y0063742D01*
X0129800Y0063787D01*
X0129770Y0063834D01*
X0129742Y0063883D01*
X0129718Y0063934D01*
X0129697Y0063986D01*
X0129680Y0064039D01*
X0129667Y0064094D01*
X0129658Y0064149D01*
X0129652Y0064205D01*
X0129650Y0064261D01*
X0129652Y0064317D01*
X0129658Y0064373D01*
X0129667Y0064428D01*
X0129680Y0064483D01*
X0129697Y0064536D01*
X0129718Y0064588D01*
X0129742Y0064639D01*
X0129770Y0064688D01*
X0129800Y0064735D01*
X0129834Y0064780D01*
X0129871Y0064822D01*
X0129911Y0064862D01*
X0129953Y0064899D01*
X0129998Y0064933D01*
X0130045Y0064963D01*
X0130094Y0064991D01*
X0130145Y0065015D01*
X0130197Y0065036D01*
X0130250Y0065053D01*
X0130305Y0065066D01*
X0130360Y0065075D01*
X0130416Y0065081D01*
X0130472Y0065083D01*
X0132322Y0065289D02*
X0132385Y0065287D01*
X0132448Y0065281D01*
X0132511Y0065271D01*
X0132573Y0065258D01*
X0132634Y0065241D01*
X0132693Y0065220D01*
X0132752Y0065195D01*
X0132808Y0065167D01*
X0132863Y0065135D01*
X0132916Y0065100D01*
X0132966Y0065062D01*
X0133015Y0065021D01*
X0133060Y0064977D01*
X0133103Y0064930D01*
X0133142Y0064881D01*
X0133179Y0064829D01*
X0133212Y0064775D01*
X0133242Y0064719D01*
X0133269Y0064662D01*
X0133292Y0064603D01*
X0133311Y0064542D01*
X0133326Y0064481D01*
X0133338Y0064419D01*
X0133346Y0064356D01*
X0133350Y0064293D01*
X0133350Y0064229D01*
X0133346Y0064166D01*
X0133338Y0064103D01*
X0133326Y0064041D01*
X0133311Y0063980D01*
X0133292Y0063919D01*
X0133269Y0063860D01*
X0133242Y0063803D01*
X0133212Y0063747D01*
X0133179Y0063693D01*
X0133142Y0063641D01*
X0133103Y0063592D01*
X0133060Y0063545D01*
X0133015Y0063501D01*
X0132966Y0063460D01*
X0132916Y0063422D01*
X0132863Y0063387D01*
X0132808Y0063355D01*
X0132752Y0063327D01*
X0132693Y0063302D01*
X0132634Y0063281D01*
X0132573Y0063264D01*
X0132511Y0063251D01*
X0132448Y0063241D01*
X0132385Y0063235D01*
X0132322Y0063233D01*
X0132259Y0063235D01*
X0132196Y0063241D01*
X0132133Y0063251D01*
X0132071Y0063264D01*
X0132010Y0063281D01*
X0131951Y0063302D01*
X0131892Y0063327D01*
X0131836Y0063355D01*
X0131781Y0063387D01*
X0131728Y0063422D01*
X0131678Y0063460D01*
X0131629Y0063501D01*
X0131584Y0063545D01*
X0131541Y0063592D01*
X0131502Y0063641D01*
X0131465Y0063693D01*
X0131432Y0063747D01*
X0131402Y0063803D01*
X0131375Y0063860D01*
X0131352Y0063919D01*
X0131333Y0063980D01*
X0131318Y0064041D01*
X0131306Y0064103D01*
X0131298Y0064166D01*
X0131294Y0064229D01*
X0131294Y0064293D01*
X0131298Y0064356D01*
X0131306Y0064419D01*
X0131318Y0064481D01*
X0131333Y0064542D01*
X0131352Y0064603D01*
X0131375Y0064662D01*
X0131402Y0064719D01*
X0131432Y0064775D01*
X0131465Y0064829D01*
X0131502Y0064881D01*
X0131541Y0064930D01*
X0131584Y0064977D01*
X0131629Y0065021D01*
X0131678Y0065062D01*
X0131728Y0065100D01*
X0131781Y0065135D01*
X0131836Y0065167D01*
X0131892Y0065195D01*
X0131951Y0065220D01*
X0132010Y0065241D01*
X0132071Y0065258D01*
X0132133Y0065271D01*
X0132196Y0065281D01*
X0132259Y0065287D01*
X0132322Y0065289D01*
X0129650Y0061689D02*
X0133350Y0060661D01*
X0130061Y0059633D02*
X0129650Y0059633D01*
X0129650Y0061689D01*
X0129650Y0055313D02*
X0129650Y0054285D01*
X0133350Y0054285D01*
X0131706Y0054285D02*
X0131706Y0055313D01*
X0131704Y0055376D01*
X0131698Y0055439D01*
X0131688Y0055502D01*
X0131675Y0055564D01*
X0131658Y0055625D01*
X0131637Y0055684D01*
X0131612Y0055743D01*
X0131584Y0055799D01*
X0131552Y0055854D01*
X0131517Y0055907D01*
X0131479Y0055957D01*
X0131438Y0056006D01*
X0131394Y0056051D01*
X0131347Y0056094D01*
X0131298Y0056133D01*
X0131246Y0056170D01*
X0131192Y0056203D01*
X0131136Y0056233D01*
X0131079Y0056260D01*
X0131020Y0056283D01*
X0130959Y0056302D01*
X0130898Y0056317D01*
X0130836Y0056329D01*
X0130773Y0056337D01*
X0130710Y0056341D01*
X0130646Y0056341D01*
X0130583Y0056337D01*
X0130520Y0056329D01*
X0130458Y0056317D01*
X0130397Y0056302D01*
X0130336Y0056283D01*
X0130277Y0056260D01*
X0130220Y0056233D01*
X0130164Y0056203D01*
X0130110Y0056170D01*
X0130058Y0056133D01*
X0130009Y0056094D01*
X0129962Y0056051D01*
X0129918Y0056006D01*
X0129877Y0055957D01*
X0129839Y0055907D01*
X0129804Y0055854D01*
X0129772Y0055799D01*
X0129744Y0055743D01*
X0129719Y0055684D01*
X0129698Y0055625D01*
X0129681Y0055564D01*
X0129668Y0055502D01*
X0129658Y0055439D01*
X0129652Y0055376D01*
X0129650Y0055313D01*
X0129650Y0052414D02*
X0133350Y0052414D01*
X0131706Y0051181D02*
X0129650Y0052414D01*
X0131706Y0051181D02*
X0129650Y0049948D01*
X0133350Y0049948D01*
X0133350Y0048454D02*
X0129650Y0047221D01*
X0133350Y0045988D01*
X0132425Y0046296D02*
X0132425Y0048146D01*
D15*
X0085500Y0025838D02*
X0085500Y0015838D01*
X0085498Y0015778D01*
X0085493Y0015717D01*
X0085484Y0015658D01*
X0085471Y0015599D01*
X0085455Y0015540D01*
X0085435Y0015483D01*
X0085412Y0015428D01*
X0085385Y0015373D01*
X0085356Y0015321D01*
X0085323Y0015270D01*
X0085287Y0015221D01*
X0085249Y0015175D01*
X0085207Y0015131D01*
X0085163Y0015089D01*
X0085117Y0015051D01*
X0085068Y0015015D01*
X0085017Y0014982D01*
X0084965Y0014953D01*
X0084910Y0014926D01*
X0084855Y0014903D01*
X0084798Y0014883D01*
X0084739Y0014867D01*
X0084680Y0014854D01*
X0084621Y0014845D01*
X0084560Y0014840D01*
X0084500Y0014838D01*
X0067500Y0014838D01*
X0067440Y0014840D01*
X0067379Y0014845D01*
X0067320Y0014854D01*
X0067261Y0014867D01*
X0067202Y0014883D01*
X0067145Y0014903D01*
X0067090Y0014926D01*
X0067035Y0014953D01*
X0066983Y0014982D01*
X0066932Y0015015D01*
X0066883Y0015051D01*
X0066837Y0015089D01*
X0066793Y0015131D01*
X0066751Y0015175D01*
X0066713Y0015221D01*
X0066677Y0015270D01*
X0066644Y0015321D01*
X0066615Y0015373D01*
X0066588Y0015428D01*
X0066565Y0015483D01*
X0066545Y0015540D01*
X0066529Y0015599D01*
X0066516Y0015658D01*
X0066507Y0015717D01*
X0066502Y0015778D01*
X0066500Y0015838D01*
X0066500Y0025838D01*
X0066502Y0025898D01*
X0066507Y0025959D01*
X0066516Y0026018D01*
X0066529Y0026077D01*
X0066545Y0026136D01*
X0066565Y0026193D01*
X0066588Y0026248D01*
X0066615Y0026303D01*
X0066644Y0026355D01*
X0066677Y0026406D01*
X0066713Y0026455D01*
X0066751Y0026501D01*
X0066793Y0026545D01*
X0066837Y0026587D01*
X0066883Y0026625D01*
X0066932Y0026661D01*
X0066983Y0026694D01*
X0067035Y0026723D01*
X0067090Y0026750D01*
X0067145Y0026773D01*
X0067202Y0026793D01*
X0067261Y0026809D01*
X0067320Y0026822D01*
X0067379Y0026831D01*
X0067440Y0026836D01*
X0067500Y0026838D01*
X0084500Y0026838D01*
X0084560Y0026836D01*
X0084621Y0026831D01*
X0084680Y0026822D01*
X0084739Y0026809D01*
X0084798Y0026793D01*
X0084855Y0026773D01*
X0084910Y0026750D01*
X0084965Y0026723D01*
X0085017Y0026694D01*
X0085068Y0026661D01*
X0085117Y0026625D01*
X0085163Y0026587D01*
X0085207Y0026545D01*
X0085249Y0026501D01*
X0085287Y0026455D01*
X0085323Y0026406D01*
X0085356Y0026355D01*
X0085385Y0026303D01*
X0085412Y0026248D01*
X0085435Y0026193D01*
X0085455Y0026136D01*
X0085471Y0026077D01*
X0085484Y0026018D01*
X0085493Y0025959D01*
X0085498Y0025898D01*
X0085500Y0025838D01*
X0077500Y0020838D02*
X0077000Y0020838D01*
X0075000Y0020838D02*
X0074500Y0020838D01*
D16*
X0075000Y0020838D02*
X0075000Y0023838D01*
X0077000Y0023838D02*
X0077000Y0020838D01*
X0077000Y0017838D01*
X0075000Y0017838D02*
X0075000Y0020838D01*
M02*
