%
M48
M72
T01C0.01378
T02C0.03150
T03C0.03200
T04C0.03937
T05C0.06693
T06C0.09055
T07C0.12795
%
T01
X53000Y77838
T02
X86000Y118338
X86000Y128338
X86000Y138338
X96000Y143338
X96000Y133338
X96000Y123338
T03
X81000Y20838
X71000Y20838
T04
X84858Y52058
X84858Y61901
X84858Y69775
X84858Y79618
T05
X26000Y18043
X26000Y33633
X26000Y54657
X26000Y70247
X26000Y85838
X26000Y101428
X26000Y117019
X26000Y138043
X26000Y153633
T06
X95528Y91704
X95528Y39972
T07
X121000Y110838
X121000Y150838
M30
