G75*
%MOIN*%
%OFA0B0*%
%FSLAX25Y25*%
%IPPOS*%
%LPD*%
%AMOC8*
5,1,8,0,0,1.08239X$1,22.5*
%
%ADD10C,0.00000*%
D10*
X0001000Y0005838D02*
X0001000Y0164539D01*
X0155921Y0164539D01*
X0155921Y0005838D01*
X0001000Y0005838D01*
X0091000Y0039972D02*
X0091002Y0040106D01*
X0091008Y0040240D01*
X0091018Y0040374D01*
X0091032Y0040508D01*
X0091050Y0040641D01*
X0091071Y0040773D01*
X0091097Y0040905D01*
X0091127Y0041036D01*
X0091160Y0041166D01*
X0091197Y0041294D01*
X0091239Y0041422D01*
X0091283Y0041549D01*
X0091332Y0041674D01*
X0091384Y0041797D01*
X0091440Y0041919D01*
X0091500Y0042040D01*
X0091563Y0042158D01*
X0091629Y0042275D01*
X0091699Y0042389D01*
X0091772Y0042502D01*
X0091849Y0042612D01*
X0091929Y0042720D01*
X0092012Y0042825D01*
X0092098Y0042928D01*
X0092187Y0043028D01*
X0092279Y0043126D01*
X0092374Y0043221D01*
X0092472Y0043313D01*
X0092572Y0043402D01*
X0092675Y0043488D01*
X0092780Y0043571D01*
X0092888Y0043651D01*
X0092998Y0043728D01*
X0093111Y0043801D01*
X0093225Y0043871D01*
X0093342Y0043937D01*
X0093460Y0044000D01*
X0093581Y0044060D01*
X0093703Y0044116D01*
X0093826Y0044168D01*
X0093951Y0044217D01*
X0094078Y0044261D01*
X0094206Y0044303D01*
X0094334Y0044340D01*
X0094464Y0044373D01*
X0094595Y0044403D01*
X0094727Y0044429D01*
X0094859Y0044450D01*
X0094992Y0044468D01*
X0095126Y0044482D01*
X0095260Y0044492D01*
X0095394Y0044498D01*
X0095528Y0044500D01*
X0095662Y0044498D01*
X0095796Y0044492D01*
X0095930Y0044482D01*
X0096064Y0044468D01*
X0096197Y0044450D01*
X0096329Y0044429D01*
X0096461Y0044403D01*
X0096592Y0044373D01*
X0096722Y0044340D01*
X0096850Y0044303D01*
X0096978Y0044261D01*
X0097105Y0044217D01*
X0097230Y0044168D01*
X0097353Y0044116D01*
X0097475Y0044060D01*
X0097596Y0044000D01*
X0097714Y0043937D01*
X0097831Y0043871D01*
X0097945Y0043801D01*
X0098058Y0043728D01*
X0098168Y0043651D01*
X0098276Y0043571D01*
X0098381Y0043488D01*
X0098484Y0043402D01*
X0098584Y0043313D01*
X0098682Y0043221D01*
X0098777Y0043126D01*
X0098869Y0043028D01*
X0098958Y0042928D01*
X0099044Y0042825D01*
X0099127Y0042720D01*
X0099207Y0042612D01*
X0099284Y0042502D01*
X0099357Y0042389D01*
X0099427Y0042275D01*
X0099493Y0042158D01*
X0099556Y0042040D01*
X0099616Y0041919D01*
X0099672Y0041797D01*
X0099724Y0041674D01*
X0099773Y0041549D01*
X0099817Y0041422D01*
X0099859Y0041294D01*
X0099896Y0041166D01*
X0099929Y0041036D01*
X0099959Y0040905D01*
X0099985Y0040773D01*
X0100006Y0040641D01*
X0100024Y0040508D01*
X0100038Y0040374D01*
X0100048Y0040240D01*
X0100054Y0040106D01*
X0100056Y0039972D01*
X0100054Y0039838D01*
X0100048Y0039704D01*
X0100038Y0039570D01*
X0100024Y0039436D01*
X0100006Y0039303D01*
X0099985Y0039171D01*
X0099959Y0039039D01*
X0099929Y0038908D01*
X0099896Y0038778D01*
X0099859Y0038650D01*
X0099817Y0038522D01*
X0099773Y0038395D01*
X0099724Y0038270D01*
X0099672Y0038147D01*
X0099616Y0038025D01*
X0099556Y0037904D01*
X0099493Y0037786D01*
X0099427Y0037669D01*
X0099357Y0037555D01*
X0099284Y0037442D01*
X0099207Y0037332D01*
X0099127Y0037224D01*
X0099044Y0037119D01*
X0098958Y0037016D01*
X0098869Y0036916D01*
X0098777Y0036818D01*
X0098682Y0036723D01*
X0098584Y0036631D01*
X0098484Y0036542D01*
X0098381Y0036456D01*
X0098276Y0036373D01*
X0098168Y0036293D01*
X0098058Y0036216D01*
X0097945Y0036143D01*
X0097831Y0036073D01*
X0097714Y0036007D01*
X0097596Y0035944D01*
X0097475Y0035884D01*
X0097353Y0035828D01*
X0097230Y0035776D01*
X0097105Y0035727D01*
X0096978Y0035683D01*
X0096850Y0035641D01*
X0096722Y0035604D01*
X0096592Y0035571D01*
X0096461Y0035541D01*
X0096329Y0035515D01*
X0096197Y0035494D01*
X0096064Y0035476D01*
X0095930Y0035462D01*
X0095796Y0035452D01*
X0095662Y0035446D01*
X0095528Y0035444D01*
X0095394Y0035446D01*
X0095260Y0035452D01*
X0095126Y0035462D01*
X0094992Y0035476D01*
X0094859Y0035494D01*
X0094727Y0035515D01*
X0094595Y0035541D01*
X0094464Y0035571D01*
X0094334Y0035604D01*
X0094206Y0035641D01*
X0094078Y0035683D01*
X0093951Y0035727D01*
X0093826Y0035776D01*
X0093703Y0035828D01*
X0093581Y0035884D01*
X0093460Y0035944D01*
X0093342Y0036007D01*
X0093225Y0036073D01*
X0093111Y0036143D01*
X0092998Y0036216D01*
X0092888Y0036293D01*
X0092780Y0036373D01*
X0092675Y0036456D01*
X0092572Y0036542D01*
X0092472Y0036631D01*
X0092374Y0036723D01*
X0092279Y0036818D01*
X0092187Y0036916D01*
X0092098Y0037016D01*
X0092012Y0037119D01*
X0091929Y0037224D01*
X0091849Y0037332D01*
X0091772Y0037442D01*
X0091699Y0037555D01*
X0091629Y0037669D01*
X0091563Y0037786D01*
X0091500Y0037904D01*
X0091440Y0038025D01*
X0091384Y0038147D01*
X0091332Y0038270D01*
X0091283Y0038395D01*
X0091239Y0038522D01*
X0091197Y0038650D01*
X0091160Y0038778D01*
X0091127Y0038908D01*
X0091097Y0039039D01*
X0091071Y0039171D01*
X0091050Y0039303D01*
X0091032Y0039436D01*
X0091018Y0039570D01*
X0091008Y0039704D01*
X0091002Y0039838D01*
X0091000Y0039972D01*
X0091000Y0091704D02*
X0091002Y0091838D01*
X0091008Y0091972D01*
X0091018Y0092106D01*
X0091032Y0092240D01*
X0091050Y0092373D01*
X0091071Y0092505D01*
X0091097Y0092637D01*
X0091127Y0092768D01*
X0091160Y0092898D01*
X0091197Y0093026D01*
X0091239Y0093154D01*
X0091283Y0093281D01*
X0091332Y0093406D01*
X0091384Y0093529D01*
X0091440Y0093651D01*
X0091500Y0093772D01*
X0091563Y0093890D01*
X0091629Y0094007D01*
X0091699Y0094121D01*
X0091772Y0094234D01*
X0091849Y0094344D01*
X0091929Y0094452D01*
X0092012Y0094557D01*
X0092098Y0094660D01*
X0092187Y0094760D01*
X0092279Y0094858D01*
X0092374Y0094953D01*
X0092472Y0095045D01*
X0092572Y0095134D01*
X0092675Y0095220D01*
X0092780Y0095303D01*
X0092888Y0095383D01*
X0092998Y0095460D01*
X0093111Y0095533D01*
X0093225Y0095603D01*
X0093342Y0095669D01*
X0093460Y0095732D01*
X0093581Y0095792D01*
X0093703Y0095848D01*
X0093826Y0095900D01*
X0093951Y0095949D01*
X0094078Y0095993D01*
X0094206Y0096035D01*
X0094334Y0096072D01*
X0094464Y0096105D01*
X0094595Y0096135D01*
X0094727Y0096161D01*
X0094859Y0096182D01*
X0094992Y0096200D01*
X0095126Y0096214D01*
X0095260Y0096224D01*
X0095394Y0096230D01*
X0095528Y0096232D01*
X0095662Y0096230D01*
X0095796Y0096224D01*
X0095930Y0096214D01*
X0096064Y0096200D01*
X0096197Y0096182D01*
X0096329Y0096161D01*
X0096461Y0096135D01*
X0096592Y0096105D01*
X0096722Y0096072D01*
X0096850Y0096035D01*
X0096978Y0095993D01*
X0097105Y0095949D01*
X0097230Y0095900D01*
X0097353Y0095848D01*
X0097475Y0095792D01*
X0097596Y0095732D01*
X0097714Y0095669D01*
X0097831Y0095603D01*
X0097945Y0095533D01*
X0098058Y0095460D01*
X0098168Y0095383D01*
X0098276Y0095303D01*
X0098381Y0095220D01*
X0098484Y0095134D01*
X0098584Y0095045D01*
X0098682Y0094953D01*
X0098777Y0094858D01*
X0098869Y0094760D01*
X0098958Y0094660D01*
X0099044Y0094557D01*
X0099127Y0094452D01*
X0099207Y0094344D01*
X0099284Y0094234D01*
X0099357Y0094121D01*
X0099427Y0094007D01*
X0099493Y0093890D01*
X0099556Y0093772D01*
X0099616Y0093651D01*
X0099672Y0093529D01*
X0099724Y0093406D01*
X0099773Y0093281D01*
X0099817Y0093154D01*
X0099859Y0093026D01*
X0099896Y0092898D01*
X0099929Y0092768D01*
X0099959Y0092637D01*
X0099985Y0092505D01*
X0100006Y0092373D01*
X0100024Y0092240D01*
X0100038Y0092106D01*
X0100048Y0091972D01*
X0100054Y0091838D01*
X0100056Y0091704D01*
X0100054Y0091570D01*
X0100048Y0091436D01*
X0100038Y0091302D01*
X0100024Y0091168D01*
X0100006Y0091035D01*
X0099985Y0090903D01*
X0099959Y0090771D01*
X0099929Y0090640D01*
X0099896Y0090510D01*
X0099859Y0090382D01*
X0099817Y0090254D01*
X0099773Y0090127D01*
X0099724Y0090002D01*
X0099672Y0089879D01*
X0099616Y0089757D01*
X0099556Y0089636D01*
X0099493Y0089518D01*
X0099427Y0089401D01*
X0099357Y0089287D01*
X0099284Y0089174D01*
X0099207Y0089064D01*
X0099127Y0088956D01*
X0099044Y0088851D01*
X0098958Y0088748D01*
X0098869Y0088648D01*
X0098777Y0088550D01*
X0098682Y0088455D01*
X0098584Y0088363D01*
X0098484Y0088274D01*
X0098381Y0088188D01*
X0098276Y0088105D01*
X0098168Y0088025D01*
X0098058Y0087948D01*
X0097945Y0087875D01*
X0097831Y0087805D01*
X0097714Y0087739D01*
X0097596Y0087676D01*
X0097475Y0087616D01*
X0097353Y0087560D01*
X0097230Y0087508D01*
X0097105Y0087459D01*
X0096978Y0087415D01*
X0096850Y0087373D01*
X0096722Y0087336D01*
X0096592Y0087303D01*
X0096461Y0087273D01*
X0096329Y0087247D01*
X0096197Y0087226D01*
X0096064Y0087208D01*
X0095930Y0087194D01*
X0095796Y0087184D01*
X0095662Y0087178D01*
X0095528Y0087176D01*
X0095394Y0087178D01*
X0095260Y0087184D01*
X0095126Y0087194D01*
X0094992Y0087208D01*
X0094859Y0087226D01*
X0094727Y0087247D01*
X0094595Y0087273D01*
X0094464Y0087303D01*
X0094334Y0087336D01*
X0094206Y0087373D01*
X0094078Y0087415D01*
X0093951Y0087459D01*
X0093826Y0087508D01*
X0093703Y0087560D01*
X0093581Y0087616D01*
X0093460Y0087676D01*
X0093342Y0087739D01*
X0093225Y0087805D01*
X0093111Y0087875D01*
X0092998Y0087948D01*
X0092888Y0088025D01*
X0092780Y0088105D01*
X0092675Y0088188D01*
X0092572Y0088274D01*
X0092472Y0088363D01*
X0092374Y0088455D01*
X0092279Y0088550D01*
X0092187Y0088648D01*
X0092098Y0088748D01*
X0092012Y0088851D01*
X0091929Y0088956D01*
X0091849Y0089064D01*
X0091772Y0089174D01*
X0091699Y0089287D01*
X0091629Y0089401D01*
X0091563Y0089518D01*
X0091500Y0089636D01*
X0091440Y0089757D01*
X0091384Y0089879D01*
X0091332Y0090002D01*
X0091283Y0090127D01*
X0091239Y0090254D01*
X0091197Y0090382D01*
X0091160Y0090510D01*
X0091127Y0090640D01*
X0091097Y0090771D01*
X0091071Y0090903D01*
X0091050Y0091035D01*
X0091032Y0091168D01*
X0091018Y0091302D01*
X0091008Y0091436D01*
X0091002Y0091570D01*
X0091000Y0091704D01*
X0114602Y0110838D02*
X0114604Y0110998D01*
X0114610Y0111157D01*
X0114620Y0111316D01*
X0114634Y0111475D01*
X0114652Y0111634D01*
X0114673Y0111792D01*
X0114699Y0111949D01*
X0114729Y0112106D01*
X0114762Y0112262D01*
X0114800Y0112417D01*
X0114841Y0112571D01*
X0114886Y0112724D01*
X0114935Y0112876D01*
X0114988Y0113026D01*
X0115044Y0113175D01*
X0115104Y0113323D01*
X0115168Y0113469D01*
X0115236Y0113614D01*
X0115307Y0113757D01*
X0115381Y0113898D01*
X0115459Y0114037D01*
X0115541Y0114174D01*
X0115626Y0114309D01*
X0115714Y0114442D01*
X0115805Y0114573D01*
X0115900Y0114701D01*
X0115998Y0114827D01*
X0116099Y0114951D01*
X0116203Y0115071D01*
X0116310Y0115190D01*
X0116420Y0115305D01*
X0116533Y0115418D01*
X0116648Y0115528D01*
X0116767Y0115635D01*
X0116887Y0115739D01*
X0117011Y0115840D01*
X0117137Y0115938D01*
X0117265Y0116033D01*
X0117396Y0116124D01*
X0117529Y0116212D01*
X0117664Y0116297D01*
X0117801Y0116379D01*
X0117940Y0116457D01*
X0118081Y0116531D01*
X0118224Y0116602D01*
X0118369Y0116670D01*
X0118515Y0116734D01*
X0118663Y0116794D01*
X0118812Y0116850D01*
X0118962Y0116903D01*
X0119114Y0116952D01*
X0119267Y0116997D01*
X0119421Y0117038D01*
X0119576Y0117076D01*
X0119732Y0117109D01*
X0119889Y0117139D01*
X0120046Y0117165D01*
X0120204Y0117186D01*
X0120363Y0117204D01*
X0120522Y0117218D01*
X0120681Y0117228D01*
X0120840Y0117234D01*
X0121000Y0117236D01*
X0121160Y0117234D01*
X0121319Y0117228D01*
X0121478Y0117218D01*
X0121637Y0117204D01*
X0121796Y0117186D01*
X0121954Y0117165D01*
X0122111Y0117139D01*
X0122268Y0117109D01*
X0122424Y0117076D01*
X0122579Y0117038D01*
X0122733Y0116997D01*
X0122886Y0116952D01*
X0123038Y0116903D01*
X0123188Y0116850D01*
X0123337Y0116794D01*
X0123485Y0116734D01*
X0123631Y0116670D01*
X0123776Y0116602D01*
X0123919Y0116531D01*
X0124060Y0116457D01*
X0124199Y0116379D01*
X0124336Y0116297D01*
X0124471Y0116212D01*
X0124604Y0116124D01*
X0124735Y0116033D01*
X0124863Y0115938D01*
X0124989Y0115840D01*
X0125113Y0115739D01*
X0125233Y0115635D01*
X0125352Y0115528D01*
X0125467Y0115418D01*
X0125580Y0115305D01*
X0125690Y0115190D01*
X0125797Y0115071D01*
X0125901Y0114951D01*
X0126002Y0114827D01*
X0126100Y0114701D01*
X0126195Y0114573D01*
X0126286Y0114442D01*
X0126374Y0114309D01*
X0126459Y0114174D01*
X0126541Y0114037D01*
X0126619Y0113898D01*
X0126693Y0113757D01*
X0126764Y0113614D01*
X0126832Y0113469D01*
X0126896Y0113323D01*
X0126956Y0113175D01*
X0127012Y0113026D01*
X0127065Y0112876D01*
X0127114Y0112724D01*
X0127159Y0112571D01*
X0127200Y0112417D01*
X0127238Y0112262D01*
X0127271Y0112106D01*
X0127301Y0111949D01*
X0127327Y0111792D01*
X0127348Y0111634D01*
X0127366Y0111475D01*
X0127380Y0111316D01*
X0127390Y0111157D01*
X0127396Y0110998D01*
X0127398Y0110838D01*
X0127396Y0110678D01*
X0127390Y0110519D01*
X0127380Y0110360D01*
X0127366Y0110201D01*
X0127348Y0110042D01*
X0127327Y0109884D01*
X0127301Y0109727D01*
X0127271Y0109570D01*
X0127238Y0109414D01*
X0127200Y0109259D01*
X0127159Y0109105D01*
X0127114Y0108952D01*
X0127065Y0108800D01*
X0127012Y0108650D01*
X0126956Y0108501D01*
X0126896Y0108353D01*
X0126832Y0108207D01*
X0126764Y0108062D01*
X0126693Y0107919D01*
X0126619Y0107778D01*
X0126541Y0107639D01*
X0126459Y0107502D01*
X0126374Y0107367D01*
X0126286Y0107234D01*
X0126195Y0107103D01*
X0126100Y0106975D01*
X0126002Y0106849D01*
X0125901Y0106725D01*
X0125797Y0106605D01*
X0125690Y0106486D01*
X0125580Y0106371D01*
X0125467Y0106258D01*
X0125352Y0106148D01*
X0125233Y0106041D01*
X0125113Y0105937D01*
X0124989Y0105836D01*
X0124863Y0105738D01*
X0124735Y0105643D01*
X0124604Y0105552D01*
X0124471Y0105464D01*
X0124336Y0105379D01*
X0124199Y0105297D01*
X0124060Y0105219D01*
X0123919Y0105145D01*
X0123776Y0105074D01*
X0123631Y0105006D01*
X0123485Y0104942D01*
X0123337Y0104882D01*
X0123188Y0104826D01*
X0123038Y0104773D01*
X0122886Y0104724D01*
X0122733Y0104679D01*
X0122579Y0104638D01*
X0122424Y0104600D01*
X0122268Y0104567D01*
X0122111Y0104537D01*
X0121954Y0104511D01*
X0121796Y0104490D01*
X0121637Y0104472D01*
X0121478Y0104458D01*
X0121319Y0104448D01*
X0121160Y0104442D01*
X0121000Y0104440D01*
X0120840Y0104442D01*
X0120681Y0104448D01*
X0120522Y0104458D01*
X0120363Y0104472D01*
X0120204Y0104490D01*
X0120046Y0104511D01*
X0119889Y0104537D01*
X0119732Y0104567D01*
X0119576Y0104600D01*
X0119421Y0104638D01*
X0119267Y0104679D01*
X0119114Y0104724D01*
X0118962Y0104773D01*
X0118812Y0104826D01*
X0118663Y0104882D01*
X0118515Y0104942D01*
X0118369Y0105006D01*
X0118224Y0105074D01*
X0118081Y0105145D01*
X0117940Y0105219D01*
X0117801Y0105297D01*
X0117664Y0105379D01*
X0117529Y0105464D01*
X0117396Y0105552D01*
X0117265Y0105643D01*
X0117137Y0105738D01*
X0117011Y0105836D01*
X0116887Y0105937D01*
X0116767Y0106041D01*
X0116648Y0106148D01*
X0116533Y0106258D01*
X0116420Y0106371D01*
X0116310Y0106486D01*
X0116203Y0106605D01*
X0116099Y0106725D01*
X0115998Y0106849D01*
X0115900Y0106975D01*
X0115805Y0107103D01*
X0115714Y0107234D01*
X0115626Y0107367D01*
X0115541Y0107502D01*
X0115459Y0107639D01*
X0115381Y0107778D01*
X0115307Y0107919D01*
X0115236Y0108062D01*
X0115168Y0108207D01*
X0115104Y0108353D01*
X0115044Y0108501D01*
X0114988Y0108650D01*
X0114935Y0108800D01*
X0114886Y0108952D01*
X0114841Y0109105D01*
X0114800Y0109259D01*
X0114762Y0109414D01*
X0114729Y0109570D01*
X0114699Y0109727D01*
X0114673Y0109884D01*
X0114652Y0110042D01*
X0114634Y0110201D01*
X0114620Y0110360D01*
X0114610Y0110519D01*
X0114604Y0110678D01*
X0114602Y0110838D01*
X0114602Y0150838D02*
X0114604Y0150998D01*
X0114610Y0151157D01*
X0114620Y0151316D01*
X0114634Y0151475D01*
X0114652Y0151634D01*
X0114673Y0151792D01*
X0114699Y0151949D01*
X0114729Y0152106D01*
X0114762Y0152262D01*
X0114800Y0152417D01*
X0114841Y0152571D01*
X0114886Y0152724D01*
X0114935Y0152876D01*
X0114988Y0153026D01*
X0115044Y0153175D01*
X0115104Y0153323D01*
X0115168Y0153469D01*
X0115236Y0153614D01*
X0115307Y0153757D01*
X0115381Y0153898D01*
X0115459Y0154037D01*
X0115541Y0154174D01*
X0115626Y0154309D01*
X0115714Y0154442D01*
X0115805Y0154573D01*
X0115900Y0154701D01*
X0115998Y0154827D01*
X0116099Y0154951D01*
X0116203Y0155071D01*
X0116310Y0155190D01*
X0116420Y0155305D01*
X0116533Y0155418D01*
X0116648Y0155528D01*
X0116767Y0155635D01*
X0116887Y0155739D01*
X0117011Y0155840D01*
X0117137Y0155938D01*
X0117265Y0156033D01*
X0117396Y0156124D01*
X0117529Y0156212D01*
X0117664Y0156297D01*
X0117801Y0156379D01*
X0117940Y0156457D01*
X0118081Y0156531D01*
X0118224Y0156602D01*
X0118369Y0156670D01*
X0118515Y0156734D01*
X0118663Y0156794D01*
X0118812Y0156850D01*
X0118962Y0156903D01*
X0119114Y0156952D01*
X0119267Y0156997D01*
X0119421Y0157038D01*
X0119576Y0157076D01*
X0119732Y0157109D01*
X0119889Y0157139D01*
X0120046Y0157165D01*
X0120204Y0157186D01*
X0120363Y0157204D01*
X0120522Y0157218D01*
X0120681Y0157228D01*
X0120840Y0157234D01*
X0121000Y0157236D01*
X0121160Y0157234D01*
X0121319Y0157228D01*
X0121478Y0157218D01*
X0121637Y0157204D01*
X0121796Y0157186D01*
X0121954Y0157165D01*
X0122111Y0157139D01*
X0122268Y0157109D01*
X0122424Y0157076D01*
X0122579Y0157038D01*
X0122733Y0156997D01*
X0122886Y0156952D01*
X0123038Y0156903D01*
X0123188Y0156850D01*
X0123337Y0156794D01*
X0123485Y0156734D01*
X0123631Y0156670D01*
X0123776Y0156602D01*
X0123919Y0156531D01*
X0124060Y0156457D01*
X0124199Y0156379D01*
X0124336Y0156297D01*
X0124471Y0156212D01*
X0124604Y0156124D01*
X0124735Y0156033D01*
X0124863Y0155938D01*
X0124989Y0155840D01*
X0125113Y0155739D01*
X0125233Y0155635D01*
X0125352Y0155528D01*
X0125467Y0155418D01*
X0125580Y0155305D01*
X0125690Y0155190D01*
X0125797Y0155071D01*
X0125901Y0154951D01*
X0126002Y0154827D01*
X0126100Y0154701D01*
X0126195Y0154573D01*
X0126286Y0154442D01*
X0126374Y0154309D01*
X0126459Y0154174D01*
X0126541Y0154037D01*
X0126619Y0153898D01*
X0126693Y0153757D01*
X0126764Y0153614D01*
X0126832Y0153469D01*
X0126896Y0153323D01*
X0126956Y0153175D01*
X0127012Y0153026D01*
X0127065Y0152876D01*
X0127114Y0152724D01*
X0127159Y0152571D01*
X0127200Y0152417D01*
X0127238Y0152262D01*
X0127271Y0152106D01*
X0127301Y0151949D01*
X0127327Y0151792D01*
X0127348Y0151634D01*
X0127366Y0151475D01*
X0127380Y0151316D01*
X0127390Y0151157D01*
X0127396Y0150998D01*
X0127398Y0150838D01*
X0127396Y0150678D01*
X0127390Y0150519D01*
X0127380Y0150360D01*
X0127366Y0150201D01*
X0127348Y0150042D01*
X0127327Y0149884D01*
X0127301Y0149727D01*
X0127271Y0149570D01*
X0127238Y0149414D01*
X0127200Y0149259D01*
X0127159Y0149105D01*
X0127114Y0148952D01*
X0127065Y0148800D01*
X0127012Y0148650D01*
X0126956Y0148501D01*
X0126896Y0148353D01*
X0126832Y0148207D01*
X0126764Y0148062D01*
X0126693Y0147919D01*
X0126619Y0147778D01*
X0126541Y0147639D01*
X0126459Y0147502D01*
X0126374Y0147367D01*
X0126286Y0147234D01*
X0126195Y0147103D01*
X0126100Y0146975D01*
X0126002Y0146849D01*
X0125901Y0146725D01*
X0125797Y0146605D01*
X0125690Y0146486D01*
X0125580Y0146371D01*
X0125467Y0146258D01*
X0125352Y0146148D01*
X0125233Y0146041D01*
X0125113Y0145937D01*
X0124989Y0145836D01*
X0124863Y0145738D01*
X0124735Y0145643D01*
X0124604Y0145552D01*
X0124471Y0145464D01*
X0124336Y0145379D01*
X0124199Y0145297D01*
X0124060Y0145219D01*
X0123919Y0145145D01*
X0123776Y0145074D01*
X0123631Y0145006D01*
X0123485Y0144942D01*
X0123337Y0144882D01*
X0123188Y0144826D01*
X0123038Y0144773D01*
X0122886Y0144724D01*
X0122733Y0144679D01*
X0122579Y0144638D01*
X0122424Y0144600D01*
X0122268Y0144567D01*
X0122111Y0144537D01*
X0121954Y0144511D01*
X0121796Y0144490D01*
X0121637Y0144472D01*
X0121478Y0144458D01*
X0121319Y0144448D01*
X0121160Y0144442D01*
X0121000Y0144440D01*
X0120840Y0144442D01*
X0120681Y0144448D01*
X0120522Y0144458D01*
X0120363Y0144472D01*
X0120204Y0144490D01*
X0120046Y0144511D01*
X0119889Y0144537D01*
X0119732Y0144567D01*
X0119576Y0144600D01*
X0119421Y0144638D01*
X0119267Y0144679D01*
X0119114Y0144724D01*
X0118962Y0144773D01*
X0118812Y0144826D01*
X0118663Y0144882D01*
X0118515Y0144942D01*
X0118369Y0145006D01*
X0118224Y0145074D01*
X0118081Y0145145D01*
X0117940Y0145219D01*
X0117801Y0145297D01*
X0117664Y0145379D01*
X0117529Y0145464D01*
X0117396Y0145552D01*
X0117265Y0145643D01*
X0117137Y0145738D01*
X0117011Y0145836D01*
X0116887Y0145937D01*
X0116767Y0146041D01*
X0116648Y0146148D01*
X0116533Y0146258D01*
X0116420Y0146371D01*
X0116310Y0146486D01*
X0116203Y0146605D01*
X0116099Y0146725D01*
X0115998Y0146849D01*
X0115900Y0146975D01*
X0115805Y0147103D01*
X0115714Y0147234D01*
X0115626Y0147367D01*
X0115541Y0147502D01*
X0115459Y0147639D01*
X0115381Y0147778D01*
X0115307Y0147919D01*
X0115236Y0148062D01*
X0115168Y0148207D01*
X0115104Y0148353D01*
X0115044Y0148501D01*
X0114988Y0148650D01*
X0114935Y0148800D01*
X0114886Y0148952D01*
X0114841Y0149105D01*
X0114800Y0149259D01*
X0114762Y0149414D01*
X0114729Y0149570D01*
X0114699Y0149727D01*
X0114673Y0149884D01*
X0114652Y0150042D01*
X0114634Y0150201D01*
X0114620Y0150360D01*
X0114610Y0150519D01*
X0114604Y0150678D01*
X0114602Y0150838D01*
M02*
