G75*
%MOIN*%
%OFA0B0*%
%FSLAX25Y25*%
%IPPOS*%
%LPD*%
%AMOC8*
5,1,8,0,0,1.08239X$1,22.5*
%
%ADD10C,0.13398*%
%ADD11OC8,0.06000*%
%ADD12C,0.06000*%
%ADD13C,0.09650*%
%ADD14C,0.06000*%
%ADD15C,0.06343*%
%ADD16C,0.06737*%
%ADD17C,0.05200*%
%ADD18R,0.08674X0.08674*%
%ADD19R,0.06700X0.06700*%
%ADD20C,0.06700*%
%ADD21C,0.10839*%
%ADD22OC8,0.03778*%
D10*
X0030828Y0212936D03*
X0207993Y0035771D03*
X0385158Y0212936D03*
X0207993Y0390101D03*
D11*
X0231694Y0389353D03*
X0230631Y0400613D03*
X0230631Y0410613D03*
X0250316Y0411243D03*
X0250316Y0401243D03*
X0243505Y0388723D03*
X0231694Y0359353D03*
X0243505Y0358723D03*
X0214253Y0309157D03*
X0214883Y0293409D03*
X0184883Y0293409D03*
X0184253Y0309157D03*
X0185946Y0352637D03*
X0109174Y0360786D03*
X0105709Y0293605D03*
X0105709Y0263605D03*
X0125316Y0233842D03*
X0141064Y0233842D03*
X0161143Y0224826D03*
X0161143Y0214826D03*
X0141064Y0203842D03*
X0125316Y0203842D03*
X0125316Y0188409D03*
X0125316Y0178409D03*
X0145001Y0178409D03*
X0145001Y0188409D03*
X0225198Y0201991D03*
X0225198Y0211991D03*
X0226221Y0227070D03*
X0226221Y0237070D03*
X0227599Y0132188D03*
X0227599Y0102188D03*
X0235631Y0086834D03*
X0235631Y0056834D03*
X0180198Y0057149D03*
X0168859Y0059826D03*
X0157048Y0058566D03*
X0162678Y0045535D03*
X0172678Y0045535D03*
X0156418Y0024527D03*
X0157048Y0088566D03*
X0168859Y0089826D03*
X0180198Y0087149D03*
D12*
X0156418Y0032527D03*
X0185946Y0360637D03*
X0109174Y0368786D03*
D13*
X0119434Y0400968D02*
X0128284Y0400968D01*
X0068284Y0400968D02*
X0059434Y0400968D01*
D14*
X0177204Y0263172D02*
X0182404Y0263172D01*
X0182404Y0253172D02*
X0177204Y0253172D01*
X0177204Y0243172D02*
X0182404Y0243172D01*
X0182404Y0233172D02*
X0177204Y0233172D01*
X0177204Y0223172D02*
X0182404Y0223172D01*
X0182404Y0213172D02*
X0177204Y0213172D01*
X0177204Y0203172D02*
X0182404Y0203172D01*
X0182404Y0193172D02*
X0177204Y0193172D01*
X0177204Y0183172D02*
X0182404Y0183172D01*
X0182404Y0173172D02*
X0177204Y0173172D01*
X0177204Y0163172D02*
X0182404Y0163172D01*
X0182404Y0153172D02*
X0177204Y0153172D01*
X0177204Y0143172D02*
X0182404Y0143172D01*
X0182404Y0133172D02*
X0177204Y0133172D01*
X0207204Y0133172D02*
X0212404Y0133172D01*
X0212404Y0143172D02*
X0207204Y0143172D01*
X0207204Y0153172D02*
X0212404Y0153172D01*
X0212404Y0163172D02*
X0207204Y0163172D01*
X0207204Y0173172D02*
X0212404Y0173172D01*
X0212404Y0183172D02*
X0207204Y0183172D01*
X0207204Y0193172D02*
X0212404Y0193172D01*
X0212404Y0203172D02*
X0207204Y0203172D01*
X0207204Y0213172D02*
X0212404Y0213172D01*
X0212404Y0223172D02*
X0207204Y0223172D01*
X0207204Y0233172D02*
X0212404Y0233172D01*
X0212404Y0243172D02*
X0207204Y0243172D01*
X0207204Y0253172D02*
X0212404Y0253172D01*
X0212404Y0263172D02*
X0207204Y0263172D01*
X0278582Y0240180D02*
X0283782Y0240180D01*
X0283782Y0230180D02*
X0278582Y0230180D01*
X0278582Y0220180D02*
X0283782Y0220180D01*
X0283782Y0210180D02*
X0278582Y0210180D01*
X0278582Y0200180D02*
X0283782Y0200180D01*
X0283782Y0190180D02*
X0278582Y0190180D01*
X0278582Y0180180D02*
X0283782Y0180180D01*
X0283782Y0170180D02*
X0278582Y0170180D01*
X0308582Y0170180D02*
X0313782Y0170180D01*
X0313782Y0180180D02*
X0308582Y0180180D01*
X0308582Y0190180D02*
X0313782Y0190180D01*
X0313782Y0200180D02*
X0308582Y0200180D01*
X0308582Y0210180D02*
X0313782Y0210180D01*
X0313782Y0220180D02*
X0308582Y0220180D01*
X0308582Y0230180D02*
X0313782Y0230180D01*
X0313782Y0240180D02*
X0308582Y0240180D01*
X0311338Y0318212D02*
X0316538Y0318212D01*
X0316538Y0328212D02*
X0311338Y0328212D01*
X0311338Y0338212D02*
X0316538Y0338212D01*
X0316538Y0348212D02*
X0311338Y0348212D01*
X0311338Y0358212D02*
X0316538Y0358212D01*
X0316538Y0368212D02*
X0311338Y0368212D01*
X0311338Y0378212D02*
X0316538Y0378212D01*
X0316538Y0388212D02*
X0311338Y0388212D01*
X0286538Y0388212D02*
X0281338Y0388212D01*
X0281338Y0378212D02*
X0286538Y0378212D01*
X0286538Y0368212D02*
X0281338Y0368212D01*
X0281338Y0358212D02*
X0286538Y0358212D01*
X0286538Y0348212D02*
X0281338Y0348212D01*
X0281338Y0338212D02*
X0286538Y0338212D01*
X0286538Y0328212D02*
X0281338Y0328212D01*
X0281338Y0318212D02*
X0286538Y0318212D01*
X0287719Y0105771D02*
X0282519Y0105771D01*
X0282519Y0095771D02*
X0287719Y0095771D01*
X0287719Y0085771D02*
X0282519Y0085771D01*
X0282519Y0075771D02*
X0287719Y0075771D01*
X0287719Y0065771D02*
X0282519Y0065771D01*
X0282519Y0055771D02*
X0287719Y0055771D01*
X0287719Y0045771D02*
X0282519Y0045771D01*
X0282519Y0035771D02*
X0287719Y0035771D01*
X0312519Y0035771D02*
X0317719Y0035771D01*
X0317719Y0045771D02*
X0312519Y0045771D01*
X0312519Y0055771D02*
X0317719Y0055771D01*
X0317719Y0065771D02*
X0312519Y0065771D01*
X0312519Y0075771D02*
X0317719Y0075771D01*
X0317719Y0085771D02*
X0312519Y0085771D01*
X0312519Y0095771D02*
X0317719Y0095771D01*
X0317719Y0105771D02*
X0312519Y0105771D01*
X0141341Y0099786D02*
X0136141Y0099786D01*
X0136141Y0089786D02*
X0141341Y0089786D01*
X0141341Y0079786D02*
X0136141Y0079786D01*
X0136141Y0069786D02*
X0141341Y0069786D01*
X0141341Y0059786D02*
X0136141Y0059786D01*
X0136141Y0049786D02*
X0141341Y0049786D01*
X0141341Y0039786D02*
X0136141Y0039786D01*
X0136141Y0029786D02*
X0141341Y0029786D01*
X0141341Y0019786D02*
X0136141Y0019786D01*
X0111341Y0019786D02*
X0106141Y0019786D01*
X0106141Y0029786D02*
X0111341Y0029786D01*
X0111341Y0039786D02*
X0106141Y0039786D01*
X0106141Y0049786D02*
X0111341Y0049786D01*
X0111341Y0059786D02*
X0106141Y0059786D01*
X0106141Y0069786D02*
X0111341Y0069786D01*
X0111341Y0079786D02*
X0106141Y0079786D01*
X0106141Y0089786D02*
X0111341Y0089786D01*
X0111341Y0099786D02*
X0106141Y0099786D01*
D15*
X0139686Y0344062D02*
X0139686Y0349605D01*
X0146379Y0359416D02*
X0146379Y0364960D01*
X0159765Y0364960D02*
X0159765Y0359416D01*
X0166457Y0349605D02*
X0166457Y0344062D01*
X0153072Y0344062D02*
X0153072Y0349605D01*
D16*
X0162127Y0399432D03*
X0142442Y0399432D03*
D17*
X0243706Y0244786D02*
X0248106Y0244786D01*
X0248106Y0224786D02*
X0243706Y0224786D01*
D18*
X0238032Y0139708D03*
X0261654Y0139708D03*
D19*
X0147284Y0255456D03*
D20*
X0147284Y0265456D03*
X0147284Y0275456D03*
X0147284Y0285456D03*
X0117284Y0285456D03*
X0117284Y0275456D03*
X0117284Y0265456D03*
X0117284Y0255456D03*
D21*
X0081241Y0017109D02*
X0071202Y0017109D01*
X0071202Y0032700D02*
X0081241Y0032700D01*
X0081241Y0048290D02*
X0071202Y0048290D01*
X0071202Y0063881D02*
X0081241Y0063881D01*
X0081241Y0079472D02*
X0071202Y0079472D01*
X0071202Y0095062D02*
X0081241Y0095062D01*
X0081241Y0110653D02*
X0071202Y0110653D01*
X0071202Y0126243D02*
X0081241Y0126243D01*
X0081241Y0141834D02*
X0071202Y0141834D01*
X0071202Y0157424D02*
X0081241Y0157424D01*
X0081241Y0173015D02*
X0071202Y0173015D01*
X0073643Y0189944D02*
X0083682Y0189944D01*
X0083682Y0205535D02*
X0073643Y0205535D01*
X0073643Y0221125D02*
X0083682Y0221125D01*
X0083682Y0236716D02*
X0073643Y0236716D01*
X0073643Y0252306D02*
X0083682Y0252306D01*
X0082501Y0268094D02*
X0072461Y0268094D01*
X0072461Y0283684D02*
X0082501Y0283684D01*
X0082501Y0299275D02*
X0072461Y0299275D01*
X0073091Y0319314D02*
X0083131Y0319314D01*
X0083131Y0334905D02*
X0073091Y0334905D01*
X0073091Y0355298D02*
X0083131Y0355298D01*
X0083131Y0370889D02*
X0073091Y0370889D01*
X0335611Y0376912D02*
X0345650Y0376912D01*
X0345650Y0392503D02*
X0335611Y0392503D01*
X0335611Y0408094D02*
X0345650Y0408094D01*
X0345650Y0361322D02*
X0335611Y0361322D01*
X0335611Y0345731D02*
X0345650Y0345731D01*
X0345650Y0330141D02*
X0335611Y0330141D01*
X0335611Y0314550D02*
X0345650Y0314550D01*
X0345650Y0298960D02*
X0335611Y0298960D01*
X0335611Y0283251D02*
X0345650Y0283251D01*
X0345650Y0267661D02*
X0335611Y0267661D01*
X0335611Y0252070D02*
X0345650Y0252070D01*
X0345650Y0236479D02*
X0335611Y0236479D01*
X0335611Y0220889D02*
X0345650Y0220889D01*
X0345650Y0205298D02*
X0335611Y0205298D01*
X0335611Y0189708D02*
X0345650Y0189708D01*
X0345650Y0174117D02*
X0335611Y0174117D01*
X0336871Y0156598D02*
X0346910Y0156598D01*
X0346910Y0141007D02*
X0336871Y0141007D01*
X0336241Y0124629D02*
X0346280Y0124629D01*
X0346280Y0109038D02*
X0336241Y0109038D01*
X0336241Y0093448D02*
X0346280Y0093448D01*
X0346280Y0077857D02*
X0336241Y0077857D01*
X0336241Y0062267D02*
X0346280Y0062267D01*
X0346280Y0046676D02*
X0336241Y0046676D01*
X0336241Y0031086D02*
X0346280Y0031086D01*
X0346280Y0015495D02*
X0336241Y0015495D01*
X0250946Y0024885D02*
X0250946Y0034924D01*
X0235355Y0034924D02*
X0235355Y0024885D01*
D22*
X0156812Y0147975D03*
X0133190Y0159786D03*
X0117442Y0167661D03*
X0113505Y0163723D03*
X0109920Y0183409D03*
X0148938Y0207031D03*
X0153656Y0207812D03*
X0161530Y0199938D03*
X0172560Y0219115D03*
X0152875Y0222779D03*
X0148938Y0226716D03*
X0149522Y0242512D03*
X0154100Y0242464D03*
X0168623Y0246401D03*
X0156812Y0266086D03*
X0172560Y0297582D03*
X0196972Y0293645D03*
X0207993Y0333015D03*
X0204056Y0340889D03*
X0168623Y0333015D03*
X0141064Y0329078D03*
X0136775Y0309393D03*
X0196182Y0199157D03*
X0259174Y0218842D03*
X0263111Y0207031D03*
X0267096Y0200095D03*
X0270985Y0183409D03*
X0275274Y0163723D03*
X0296124Y0161304D03*
X0298544Y0222779D03*
X0259174Y0313330D03*
X0353662Y0336952D03*
M02*
