G75*
%MOIN*%
%OFA0B0*%
%FSLAX25Y25*%
%IPPOS*%
%LPD*%
%AMOC8*
5,1,8,0,0,1.08239X$1,22.5*
%
%ADD10C,0.00600*%
%ADD11C,0.00000*%
D10*
X0050513Y0006243D02*
X0050513Y0183409D01*
X0001300Y0183409D01*
X0001300Y0242464D01*
X0050513Y0242464D01*
X0050513Y0419629D01*
X0365473Y0419629D01*
X0365473Y0242464D01*
X0414686Y0242464D01*
X0414686Y0183409D01*
X0365473Y0183409D01*
X0365473Y0006243D01*
X0050513Y0006243D01*
D11*
X0201694Y0035771D02*
X0201696Y0035929D01*
X0201702Y0036087D01*
X0201712Y0036245D01*
X0201726Y0036403D01*
X0201744Y0036560D01*
X0201765Y0036717D01*
X0201791Y0036873D01*
X0201821Y0037029D01*
X0201854Y0037184D01*
X0201892Y0037337D01*
X0201933Y0037490D01*
X0201978Y0037642D01*
X0202027Y0037793D01*
X0202080Y0037942D01*
X0202136Y0038090D01*
X0202196Y0038236D01*
X0202260Y0038381D01*
X0202328Y0038524D01*
X0202399Y0038666D01*
X0202473Y0038806D01*
X0202551Y0038943D01*
X0202633Y0039079D01*
X0202717Y0039213D01*
X0202806Y0039344D01*
X0202897Y0039473D01*
X0202992Y0039600D01*
X0203089Y0039725D01*
X0203190Y0039847D01*
X0203294Y0039966D01*
X0203401Y0040083D01*
X0203511Y0040197D01*
X0203624Y0040308D01*
X0203739Y0040417D01*
X0203857Y0040522D01*
X0203978Y0040624D01*
X0204101Y0040724D01*
X0204227Y0040820D01*
X0204355Y0040913D01*
X0204485Y0041003D01*
X0204618Y0041089D01*
X0204753Y0041173D01*
X0204889Y0041252D01*
X0205028Y0041329D01*
X0205169Y0041401D01*
X0205311Y0041471D01*
X0205455Y0041536D01*
X0205601Y0041598D01*
X0205748Y0041656D01*
X0205897Y0041711D01*
X0206047Y0041762D01*
X0206198Y0041809D01*
X0206350Y0041852D01*
X0206503Y0041891D01*
X0206658Y0041927D01*
X0206813Y0041958D01*
X0206969Y0041986D01*
X0207125Y0042010D01*
X0207282Y0042030D01*
X0207440Y0042046D01*
X0207597Y0042058D01*
X0207756Y0042066D01*
X0207914Y0042070D01*
X0208072Y0042070D01*
X0208230Y0042066D01*
X0208389Y0042058D01*
X0208546Y0042046D01*
X0208704Y0042030D01*
X0208861Y0042010D01*
X0209017Y0041986D01*
X0209173Y0041958D01*
X0209328Y0041927D01*
X0209483Y0041891D01*
X0209636Y0041852D01*
X0209788Y0041809D01*
X0209939Y0041762D01*
X0210089Y0041711D01*
X0210238Y0041656D01*
X0210385Y0041598D01*
X0210531Y0041536D01*
X0210675Y0041471D01*
X0210817Y0041401D01*
X0210958Y0041329D01*
X0211097Y0041252D01*
X0211233Y0041173D01*
X0211368Y0041089D01*
X0211501Y0041003D01*
X0211631Y0040913D01*
X0211759Y0040820D01*
X0211885Y0040724D01*
X0212008Y0040624D01*
X0212129Y0040522D01*
X0212247Y0040417D01*
X0212362Y0040308D01*
X0212475Y0040197D01*
X0212585Y0040083D01*
X0212692Y0039966D01*
X0212796Y0039847D01*
X0212897Y0039725D01*
X0212994Y0039600D01*
X0213089Y0039473D01*
X0213180Y0039344D01*
X0213269Y0039213D01*
X0213353Y0039079D01*
X0213435Y0038943D01*
X0213513Y0038806D01*
X0213587Y0038666D01*
X0213658Y0038524D01*
X0213726Y0038381D01*
X0213790Y0038236D01*
X0213850Y0038090D01*
X0213906Y0037942D01*
X0213959Y0037793D01*
X0214008Y0037642D01*
X0214053Y0037490D01*
X0214094Y0037337D01*
X0214132Y0037184D01*
X0214165Y0037029D01*
X0214195Y0036873D01*
X0214221Y0036717D01*
X0214242Y0036560D01*
X0214260Y0036403D01*
X0214274Y0036245D01*
X0214284Y0036087D01*
X0214290Y0035929D01*
X0214292Y0035771D01*
X0214290Y0035613D01*
X0214284Y0035455D01*
X0214274Y0035297D01*
X0214260Y0035139D01*
X0214242Y0034982D01*
X0214221Y0034825D01*
X0214195Y0034669D01*
X0214165Y0034513D01*
X0214132Y0034358D01*
X0214094Y0034205D01*
X0214053Y0034052D01*
X0214008Y0033900D01*
X0213959Y0033749D01*
X0213906Y0033600D01*
X0213850Y0033452D01*
X0213790Y0033306D01*
X0213726Y0033161D01*
X0213658Y0033018D01*
X0213587Y0032876D01*
X0213513Y0032736D01*
X0213435Y0032599D01*
X0213353Y0032463D01*
X0213269Y0032329D01*
X0213180Y0032198D01*
X0213089Y0032069D01*
X0212994Y0031942D01*
X0212897Y0031817D01*
X0212796Y0031695D01*
X0212692Y0031576D01*
X0212585Y0031459D01*
X0212475Y0031345D01*
X0212362Y0031234D01*
X0212247Y0031125D01*
X0212129Y0031020D01*
X0212008Y0030918D01*
X0211885Y0030818D01*
X0211759Y0030722D01*
X0211631Y0030629D01*
X0211501Y0030539D01*
X0211368Y0030453D01*
X0211233Y0030369D01*
X0211097Y0030290D01*
X0210958Y0030213D01*
X0210817Y0030141D01*
X0210675Y0030071D01*
X0210531Y0030006D01*
X0210385Y0029944D01*
X0210238Y0029886D01*
X0210089Y0029831D01*
X0209939Y0029780D01*
X0209788Y0029733D01*
X0209636Y0029690D01*
X0209483Y0029651D01*
X0209328Y0029615D01*
X0209173Y0029584D01*
X0209017Y0029556D01*
X0208861Y0029532D01*
X0208704Y0029512D01*
X0208546Y0029496D01*
X0208389Y0029484D01*
X0208230Y0029476D01*
X0208072Y0029472D01*
X0207914Y0029472D01*
X0207756Y0029476D01*
X0207597Y0029484D01*
X0207440Y0029496D01*
X0207282Y0029512D01*
X0207125Y0029532D01*
X0206969Y0029556D01*
X0206813Y0029584D01*
X0206658Y0029615D01*
X0206503Y0029651D01*
X0206350Y0029690D01*
X0206198Y0029733D01*
X0206047Y0029780D01*
X0205897Y0029831D01*
X0205748Y0029886D01*
X0205601Y0029944D01*
X0205455Y0030006D01*
X0205311Y0030071D01*
X0205169Y0030141D01*
X0205028Y0030213D01*
X0204889Y0030290D01*
X0204753Y0030369D01*
X0204618Y0030453D01*
X0204485Y0030539D01*
X0204355Y0030629D01*
X0204227Y0030722D01*
X0204101Y0030818D01*
X0203978Y0030918D01*
X0203857Y0031020D01*
X0203739Y0031125D01*
X0203624Y0031234D01*
X0203511Y0031345D01*
X0203401Y0031459D01*
X0203294Y0031576D01*
X0203190Y0031695D01*
X0203089Y0031817D01*
X0202992Y0031942D01*
X0202897Y0032069D01*
X0202806Y0032198D01*
X0202717Y0032329D01*
X0202633Y0032463D01*
X0202551Y0032599D01*
X0202473Y0032736D01*
X0202399Y0032876D01*
X0202328Y0033018D01*
X0202260Y0033161D01*
X0202196Y0033306D01*
X0202136Y0033452D01*
X0202080Y0033600D01*
X0202027Y0033749D01*
X0201978Y0033900D01*
X0201933Y0034052D01*
X0201892Y0034205D01*
X0201854Y0034358D01*
X0201821Y0034513D01*
X0201791Y0034669D01*
X0201765Y0034825D01*
X0201744Y0034982D01*
X0201726Y0035139D01*
X0201712Y0035297D01*
X0201702Y0035455D01*
X0201696Y0035613D01*
X0201694Y0035771D01*
X0024529Y0212936D02*
X0024531Y0213094D01*
X0024537Y0213252D01*
X0024547Y0213410D01*
X0024561Y0213568D01*
X0024579Y0213725D01*
X0024600Y0213882D01*
X0024626Y0214038D01*
X0024656Y0214194D01*
X0024689Y0214349D01*
X0024727Y0214502D01*
X0024768Y0214655D01*
X0024813Y0214807D01*
X0024862Y0214958D01*
X0024915Y0215107D01*
X0024971Y0215255D01*
X0025031Y0215401D01*
X0025095Y0215546D01*
X0025163Y0215689D01*
X0025234Y0215831D01*
X0025308Y0215971D01*
X0025386Y0216108D01*
X0025468Y0216244D01*
X0025552Y0216378D01*
X0025641Y0216509D01*
X0025732Y0216638D01*
X0025827Y0216765D01*
X0025924Y0216890D01*
X0026025Y0217012D01*
X0026129Y0217131D01*
X0026236Y0217248D01*
X0026346Y0217362D01*
X0026459Y0217473D01*
X0026574Y0217582D01*
X0026692Y0217687D01*
X0026813Y0217789D01*
X0026936Y0217889D01*
X0027062Y0217985D01*
X0027190Y0218078D01*
X0027320Y0218168D01*
X0027453Y0218254D01*
X0027588Y0218338D01*
X0027724Y0218417D01*
X0027863Y0218494D01*
X0028004Y0218566D01*
X0028146Y0218636D01*
X0028290Y0218701D01*
X0028436Y0218763D01*
X0028583Y0218821D01*
X0028732Y0218876D01*
X0028882Y0218927D01*
X0029033Y0218974D01*
X0029185Y0219017D01*
X0029338Y0219056D01*
X0029493Y0219092D01*
X0029648Y0219123D01*
X0029804Y0219151D01*
X0029960Y0219175D01*
X0030117Y0219195D01*
X0030275Y0219211D01*
X0030432Y0219223D01*
X0030591Y0219231D01*
X0030749Y0219235D01*
X0030907Y0219235D01*
X0031065Y0219231D01*
X0031224Y0219223D01*
X0031381Y0219211D01*
X0031539Y0219195D01*
X0031696Y0219175D01*
X0031852Y0219151D01*
X0032008Y0219123D01*
X0032163Y0219092D01*
X0032318Y0219056D01*
X0032471Y0219017D01*
X0032623Y0218974D01*
X0032774Y0218927D01*
X0032924Y0218876D01*
X0033073Y0218821D01*
X0033220Y0218763D01*
X0033366Y0218701D01*
X0033510Y0218636D01*
X0033652Y0218566D01*
X0033793Y0218494D01*
X0033932Y0218417D01*
X0034068Y0218338D01*
X0034203Y0218254D01*
X0034336Y0218168D01*
X0034466Y0218078D01*
X0034594Y0217985D01*
X0034720Y0217889D01*
X0034843Y0217789D01*
X0034964Y0217687D01*
X0035082Y0217582D01*
X0035197Y0217473D01*
X0035310Y0217362D01*
X0035420Y0217248D01*
X0035527Y0217131D01*
X0035631Y0217012D01*
X0035732Y0216890D01*
X0035829Y0216765D01*
X0035924Y0216638D01*
X0036015Y0216509D01*
X0036104Y0216378D01*
X0036188Y0216244D01*
X0036270Y0216108D01*
X0036348Y0215971D01*
X0036422Y0215831D01*
X0036493Y0215689D01*
X0036561Y0215546D01*
X0036625Y0215401D01*
X0036685Y0215255D01*
X0036741Y0215107D01*
X0036794Y0214958D01*
X0036843Y0214807D01*
X0036888Y0214655D01*
X0036929Y0214502D01*
X0036967Y0214349D01*
X0037000Y0214194D01*
X0037030Y0214038D01*
X0037056Y0213882D01*
X0037077Y0213725D01*
X0037095Y0213568D01*
X0037109Y0213410D01*
X0037119Y0213252D01*
X0037125Y0213094D01*
X0037127Y0212936D01*
X0037125Y0212778D01*
X0037119Y0212620D01*
X0037109Y0212462D01*
X0037095Y0212304D01*
X0037077Y0212147D01*
X0037056Y0211990D01*
X0037030Y0211834D01*
X0037000Y0211678D01*
X0036967Y0211523D01*
X0036929Y0211370D01*
X0036888Y0211217D01*
X0036843Y0211065D01*
X0036794Y0210914D01*
X0036741Y0210765D01*
X0036685Y0210617D01*
X0036625Y0210471D01*
X0036561Y0210326D01*
X0036493Y0210183D01*
X0036422Y0210041D01*
X0036348Y0209901D01*
X0036270Y0209764D01*
X0036188Y0209628D01*
X0036104Y0209494D01*
X0036015Y0209363D01*
X0035924Y0209234D01*
X0035829Y0209107D01*
X0035732Y0208982D01*
X0035631Y0208860D01*
X0035527Y0208741D01*
X0035420Y0208624D01*
X0035310Y0208510D01*
X0035197Y0208399D01*
X0035082Y0208290D01*
X0034964Y0208185D01*
X0034843Y0208083D01*
X0034720Y0207983D01*
X0034594Y0207887D01*
X0034466Y0207794D01*
X0034336Y0207704D01*
X0034203Y0207618D01*
X0034068Y0207534D01*
X0033932Y0207455D01*
X0033793Y0207378D01*
X0033652Y0207306D01*
X0033510Y0207236D01*
X0033366Y0207171D01*
X0033220Y0207109D01*
X0033073Y0207051D01*
X0032924Y0206996D01*
X0032774Y0206945D01*
X0032623Y0206898D01*
X0032471Y0206855D01*
X0032318Y0206816D01*
X0032163Y0206780D01*
X0032008Y0206749D01*
X0031852Y0206721D01*
X0031696Y0206697D01*
X0031539Y0206677D01*
X0031381Y0206661D01*
X0031224Y0206649D01*
X0031065Y0206641D01*
X0030907Y0206637D01*
X0030749Y0206637D01*
X0030591Y0206641D01*
X0030432Y0206649D01*
X0030275Y0206661D01*
X0030117Y0206677D01*
X0029960Y0206697D01*
X0029804Y0206721D01*
X0029648Y0206749D01*
X0029493Y0206780D01*
X0029338Y0206816D01*
X0029185Y0206855D01*
X0029033Y0206898D01*
X0028882Y0206945D01*
X0028732Y0206996D01*
X0028583Y0207051D01*
X0028436Y0207109D01*
X0028290Y0207171D01*
X0028146Y0207236D01*
X0028004Y0207306D01*
X0027863Y0207378D01*
X0027724Y0207455D01*
X0027588Y0207534D01*
X0027453Y0207618D01*
X0027320Y0207704D01*
X0027190Y0207794D01*
X0027062Y0207887D01*
X0026936Y0207983D01*
X0026813Y0208083D01*
X0026692Y0208185D01*
X0026574Y0208290D01*
X0026459Y0208399D01*
X0026346Y0208510D01*
X0026236Y0208624D01*
X0026129Y0208741D01*
X0026025Y0208860D01*
X0025924Y0208982D01*
X0025827Y0209107D01*
X0025732Y0209234D01*
X0025641Y0209363D01*
X0025552Y0209494D01*
X0025468Y0209628D01*
X0025386Y0209764D01*
X0025308Y0209901D01*
X0025234Y0210041D01*
X0025163Y0210183D01*
X0025095Y0210326D01*
X0025031Y0210471D01*
X0024971Y0210617D01*
X0024915Y0210765D01*
X0024862Y0210914D01*
X0024813Y0211065D01*
X0024768Y0211217D01*
X0024727Y0211370D01*
X0024689Y0211523D01*
X0024656Y0211678D01*
X0024626Y0211834D01*
X0024600Y0211990D01*
X0024579Y0212147D01*
X0024561Y0212304D01*
X0024547Y0212462D01*
X0024537Y0212620D01*
X0024531Y0212778D01*
X0024529Y0212936D01*
X0201694Y0390101D02*
X0201696Y0390259D01*
X0201702Y0390417D01*
X0201712Y0390575D01*
X0201726Y0390733D01*
X0201744Y0390890D01*
X0201765Y0391047D01*
X0201791Y0391203D01*
X0201821Y0391359D01*
X0201854Y0391514D01*
X0201892Y0391667D01*
X0201933Y0391820D01*
X0201978Y0391972D01*
X0202027Y0392123D01*
X0202080Y0392272D01*
X0202136Y0392420D01*
X0202196Y0392566D01*
X0202260Y0392711D01*
X0202328Y0392854D01*
X0202399Y0392996D01*
X0202473Y0393136D01*
X0202551Y0393273D01*
X0202633Y0393409D01*
X0202717Y0393543D01*
X0202806Y0393674D01*
X0202897Y0393803D01*
X0202992Y0393930D01*
X0203089Y0394055D01*
X0203190Y0394177D01*
X0203294Y0394296D01*
X0203401Y0394413D01*
X0203511Y0394527D01*
X0203624Y0394638D01*
X0203739Y0394747D01*
X0203857Y0394852D01*
X0203978Y0394954D01*
X0204101Y0395054D01*
X0204227Y0395150D01*
X0204355Y0395243D01*
X0204485Y0395333D01*
X0204618Y0395419D01*
X0204753Y0395503D01*
X0204889Y0395582D01*
X0205028Y0395659D01*
X0205169Y0395731D01*
X0205311Y0395801D01*
X0205455Y0395866D01*
X0205601Y0395928D01*
X0205748Y0395986D01*
X0205897Y0396041D01*
X0206047Y0396092D01*
X0206198Y0396139D01*
X0206350Y0396182D01*
X0206503Y0396221D01*
X0206658Y0396257D01*
X0206813Y0396288D01*
X0206969Y0396316D01*
X0207125Y0396340D01*
X0207282Y0396360D01*
X0207440Y0396376D01*
X0207597Y0396388D01*
X0207756Y0396396D01*
X0207914Y0396400D01*
X0208072Y0396400D01*
X0208230Y0396396D01*
X0208389Y0396388D01*
X0208546Y0396376D01*
X0208704Y0396360D01*
X0208861Y0396340D01*
X0209017Y0396316D01*
X0209173Y0396288D01*
X0209328Y0396257D01*
X0209483Y0396221D01*
X0209636Y0396182D01*
X0209788Y0396139D01*
X0209939Y0396092D01*
X0210089Y0396041D01*
X0210238Y0395986D01*
X0210385Y0395928D01*
X0210531Y0395866D01*
X0210675Y0395801D01*
X0210817Y0395731D01*
X0210958Y0395659D01*
X0211097Y0395582D01*
X0211233Y0395503D01*
X0211368Y0395419D01*
X0211501Y0395333D01*
X0211631Y0395243D01*
X0211759Y0395150D01*
X0211885Y0395054D01*
X0212008Y0394954D01*
X0212129Y0394852D01*
X0212247Y0394747D01*
X0212362Y0394638D01*
X0212475Y0394527D01*
X0212585Y0394413D01*
X0212692Y0394296D01*
X0212796Y0394177D01*
X0212897Y0394055D01*
X0212994Y0393930D01*
X0213089Y0393803D01*
X0213180Y0393674D01*
X0213269Y0393543D01*
X0213353Y0393409D01*
X0213435Y0393273D01*
X0213513Y0393136D01*
X0213587Y0392996D01*
X0213658Y0392854D01*
X0213726Y0392711D01*
X0213790Y0392566D01*
X0213850Y0392420D01*
X0213906Y0392272D01*
X0213959Y0392123D01*
X0214008Y0391972D01*
X0214053Y0391820D01*
X0214094Y0391667D01*
X0214132Y0391514D01*
X0214165Y0391359D01*
X0214195Y0391203D01*
X0214221Y0391047D01*
X0214242Y0390890D01*
X0214260Y0390733D01*
X0214274Y0390575D01*
X0214284Y0390417D01*
X0214290Y0390259D01*
X0214292Y0390101D01*
X0214290Y0389943D01*
X0214284Y0389785D01*
X0214274Y0389627D01*
X0214260Y0389469D01*
X0214242Y0389312D01*
X0214221Y0389155D01*
X0214195Y0388999D01*
X0214165Y0388843D01*
X0214132Y0388688D01*
X0214094Y0388535D01*
X0214053Y0388382D01*
X0214008Y0388230D01*
X0213959Y0388079D01*
X0213906Y0387930D01*
X0213850Y0387782D01*
X0213790Y0387636D01*
X0213726Y0387491D01*
X0213658Y0387348D01*
X0213587Y0387206D01*
X0213513Y0387066D01*
X0213435Y0386929D01*
X0213353Y0386793D01*
X0213269Y0386659D01*
X0213180Y0386528D01*
X0213089Y0386399D01*
X0212994Y0386272D01*
X0212897Y0386147D01*
X0212796Y0386025D01*
X0212692Y0385906D01*
X0212585Y0385789D01*
X0212475Y0385675D01*
X0212362Y0385564D01*
X0212247Y0385455D01*
X0212129Y0385350D01*
X0212008Y0385248D01*
X0211885Y0385148D01*
X0211759Y0385052D01*
X0211631Y0384959D01*
X0211501Y0384869D01*
X0211368Y0384783D01*
X0211233Y0384699D01*
X0211097Y0384620D01*
X0210958Y0384543D01*
X0210817Y0384471D01*
X0210675Y0384401D01*
X0210531Y0384336D01*
X0210385Y0384274D01*
X0210238Y0384216D01*
X0210089Y0384161D01*
X0209939Y0384110D01*
X0209788Y0384063D01*
X0209636Y0384020D01*
X0209483Y0383981D01*
X0209328Y0383945D01*
X0209173Y0383914D01*
X0209017Y0383886D01*
X0208861Y0383862D01*
X0208704Y0383842D01*
X0208546Y0383826D01*
X0208389Y0383814D01*
X0208230Y0383806D01*
X0208072Y0383802D01*
X0207914Y0383802D01*
X0207756Y0383806D01*
X0207597Y0383814D01*
X0207440Y0383826D01*
X0207282Y0383842D01*
X0207125Y0383862D01*
X0206969Y0383886D01*
X0206813Y0383914D01*
X0206658Y0383945D01*
X0206503Y0383981D01*
X0206350Y0384020D01*
X0206198Y0384063D01*
X0206047Y0384110D01*
X0205897Y0384161D01*
X0205748Y0384216D01*
X0205601Y0384274D01*
X0205455Y0384336D01*
X0205311Y0384401D01*
X0205169Y0384471D01*
X0205028Y0384543D01*
X0204889Y0384620D01*
X0204753Y0384699D01*
X0204618Y0384783D01*
X0204485Y0384869D01*
X0204355Y0384959D01*
X0204227Y0385052D01*
X0204101Y0385148D01*
X0203978Y0385248D01*
X0203857Y0385350D01*
X0203739Y0385455D01*
X0203624Y0385564D01*
X0203511Y0385675D01*
X0203401Y0385789D01*
X0203294Y0385906D01*
X0203190Y0386025D01*
X0203089Y0386147D01*
X0202992Y0386272D01*
X0202897Y0386399D01*
X0202806Y0386528D01*
X0202717Y0386659D01*
X0202633Y0386793D01*
X0202551Y0386929D01*
X0202473Y0387066D01*
X0202399Y0387206D01*
X0202328Y0387348D01*
X0202260Y0387491D01*
X0202196Y0387636D01*
X0202136Y0387782D01*
X0202080Y0387930D01*
X0202027Y0388079D01*
X0201978Y0388230D01*
X0201933Y0388382D01*
X0201892Y0388535D01*
X0201854Y0388688D01*
X0201821Y0388843D01*
X0201791Y0388999D01*
X0201765Y0389155D01*
X0201744Y0389312D01*
X0201726Y0389469D01*
X0201712Y0389627D01*
X0201702Y0389785D01*
X0201696Y0389943D01*
X0201694Y0390101D01*
X0378859Y0212936D02*
X0378861Y0213094D01*
X0378867Y0213252D01*
X0378877Y0213410D01*
X0378891Y0213568D01*
X0378909Y0213725D01*
X0378930Y0213882D01*
X0378956Y0214038D01*
X0378986Y0214194D01*
X0379019Y0214349D01*
X0379057Y0214502D01*
X0379098Y0214655D01*
X0379143Y0214807D01*
X0379192Y0214958D01*
X0379245Y0215107D01*
X0379301Y0215255D01*
X0379361Y0215401D01*
X0379425Y0215546D01*
X0379493Y0215689D01*
X0379564Y0215831D01*
X0379638Y0215971D01*
X0379716Y0216108D01*
X0379798Y0216244D01*
X0379882Y0216378D01*
X0379971Y0216509D01*
X0380062Y0216638D01*
X0380157Y0216765D01*
X0380254Y0216890D01*
X0380355Y0217012D01*
X0380459Y0217131D01*
X0380566Y0217248D01*
X0380676Y0217362D01*
X0380789Y0217473D01*
X0380904Y0217582D01*
X0381022Y0217687D01*
X0381143Y0217789D01*
X0381266Y0217889D01*
X0381392Y0217985D01*
X0381520Y0218078D01*
X0381650Y0218168D01*
X0381783Y0218254D01*
X0381918Y0218338D01*
X0382054Y0218417D01*
X0382193Y0218494D01*
X0382334Y0218566D01*
X0382476Y0218636D01*
X0382620Y0218701D01*
X0382766Y0218763D01*
X0382913Y0218821D01*
X0383062Y0218876D01*
X0383212Y0218927D01*
X0383363Y0218974D01*
X0383515Y0219017D01*
X0383668Y0219056D01*
X0383823Y0219092D01*
X0383978Y0219123D01*
X0384134Y0219151D01*
X0384290Y0219175D01*
X0384447Y0219195D01*
X0384605Y0219211D01*
X0384762Y0219223D01*
X0384921Y0219231D01*
X0385079Y0219235D01*
X0385237Y0219235D01*
X0385395Y0219231D01*
X0385554Y0219223D01*
X0385711Y0219211D01*
X0385869Y0219195D01*
X0386026Y0219175D01*
X0386182Y0219151D01*
X0386338Y0219123D01*
X0386493Y0219092D01*
X0386648Y0219056D01*
X0386801Y0219017D01*
X0386953Y0218974D01*
X0387104Y0218927D01*
X0387254Y0218876D01*
X0387403Y0218821D01*
X0387550Y0218763D01*
X0387696Y0218701D01*
X0387840Y0218636D01*
X0387982Y0218566D01*
X0388123Y0218494D01*
X0388262Y0218417D01*
X0388398Y0218338D01*
X0388533Y0218254D01*
X0388666Y0218168D01*
X0388796Y0218078D01*
X0388924Y0217985D01*
X0389050Y0217889D01*
X0389173Y0217789D01*
X0389294Y0217687D01*
X0389412Y0217582D01*
X0389527Y0217473D01*
X0389640Y0217362D01*
X0389750Y0217248D01*
X0389857Y0217131D01*
X0389961Y0217012D01*
X0390062Y0216890D01*
X0390159Y0216765D01*
X0390254Y0216638D01*
X0390345Y0216509D01*
X0390434Y0216378D01*
X0390518Y0216244D01*
X0390600Y0216108D01*
X0390678Y0215971D01*
X0390752Y0215831D01*
X0390823Y0215689D01*
X0390891Y0215546D01*
X0390955Y0215401D01*
X0391015Y0215255D01*
X0391071Y0215107D01*
X0391124Y0214958D01*
X0391173Y0214807D01*
X0391218Y0214655D01*
X0391259Y0214502D01*
X0391297Y0214349D01*
X0391330Y0214194D01*
X0391360Y0214038D01*
X0391386Y0213882D01*
X0391407Y0213725D01*
X0391425Y0213568D01*
X0391439Y0213410D01*
X0391449Y0213252D01*
X0391455Y0213094D01*
X0391457Y0212936D01*
X0391455Y0212778D01*
X0391449Y0212620D01*
X0391439Y0212462D01*
X0391425Y0212304D01*
X0391407Y0212147D01*
X0391386Y0211990D01*
X0391360Y0211834D01*
X0391330Y0211678D01*
X0391297Y0211523D01*
X0391259Y0211370D01*
X0391218Y0211217D01*
X0391173Y0211065D01*
X0391124Y0210914D01*
X0391071Y0210765D01*
X0391015Y0210617D01*
X0390955Y0210471D01*
X0390891Y0210326D01*
X0390823Y0210183D01*
X0390752Y0210041D01*
X0390678Y0209901D01*
X0390600Y0209764D01*
X0390518Y0209628D01*
X0390434Y0209494D01*
X0390345Y0209363D01*
X0390254Y0209234D01*
X0390159Y0209107D01*
X0390062Y0208982D01*
X0389961Y0208860D01*
X0389857Y0208741D01*
X0389750Y0208624D01*
X0389640Y0208510D01*
X0389527Y0208399D01*
X0389412Y0208290D01*
X0389294Y0208185D01*
X0389173Y0208083D01*
X0389050Y0207983D01*
X0388924Y0207887D01*
X0388796Y0207794D01*
X0388666Y0207704D01*
X0388533Y0207618D01*
X0388398Y0207534D01*
X0388262Y0207455D01*
X0388123Y0207378D01*
X0387982Y0207306D01*
X0387840Y0207236D01*
X0387696Y0207171D01*
X0387550Y0207109D01*
X0387403Y0207051D01*
X0387254Y0206996D01*
X0387104Y0206945D01*
X0386953Y0206898D01*
X0386801Y0206855D01*
X0386648Y0206816D01*
X0386493Y0206780D01*
X0386338Y0206749D01*
X0386182Y0206721D01*
X0386026Y0206697D01*
X0385869Y0206677D01*
X0385711Y0206661D01*
X0385554Y0206649D01*
X0385395Y0206641D01*
X0385237Y0206637D01*
X0385079Y0206637D01*
X0384921Y0206641D01*
X0384762Y0206649D01*
X0384605Y0206661D01*
X0384447Y0206677D01*
X0384290Y0206697D01*
X0384134Y0206721D01*
X0383978Y0206749D01*
X0383823Y0206780D01*
X0383668Y0206816D01*
X0383515Y0206855D01*
X0383363Y0206898D01*
X0383212Y0206945D01*
X0383062Y0206996D01*
X0382913Y0207051D01*
X0382766Y0207109D01*
X0382620Y0207171D01*
X0382476Y0207236D01*
X0382334Y0207306D01*
X0382193Y0207378D01*
X0382054Y0207455D01*
X0381918Y0207534D01*
X0381783Y0207618D01*
X0381650Y0207704D01*
X0381520Y0207794D01*
X0381392Y0207887D01*
X0381266Y0207983D01*
X0381143Y0208083D01*
X0381022Y0208185D01*
X0380904Y0208290D01*
X0380789Y0208399D01*
X0380676Y0208510D01*
X0380566Y0208624D01*
X0380459Y0208741D01*
X0380355Y0208860D01*
X0380254Y0208982D01*
X0380157Y0209107D01*
X0380062Y0209234D01*
X0379971Y0209363D01*
X0379882Y0209494D01*
X0379798Y0209628D01*
X0379716Y0209764D01*
X0379638Y0209901D01*
X0379564Y0210041D01*
X0379493Y0210183D01*
X0379425Y0210326D01*
X0379361Y0210471D01*
X0379301Y0210617D01*
X0379245Y0210765D01*
X0379192Y0210914D01*
X0379143Y0211065D01*
X0379098Y0211217D01*
X0379057Y0211370D01*
X0379019Y0211523D01*
X0378986Y0211678D01*
X0378956Y0211834D01*
X0378930Y0211990D01*
X0378909Y0212147D01*
X0378891Y0212304D01*
X0378877Y0212462D01*
X0378867Y0212620D01*
X0378861Y0212778D01*
X0378859Y0212936D01*
M02*
