%
M48
M72
T01C0.01378
T02C0.02400
T03C0.03200
T04C0.03543
T05C0.03900
T06C0.03937
T07C0.05900
T08C0.06693
T09C0.12598
%
T01
X133190Y159786
X117442Y167661
X113505Y163723
X109920Y183409
X148938Y207031
X153656Y207812
X161530Y199938
X172560Y219115
X152875Y222779
X148938Y226716
X149522Y242512
X154100Y242464
X168623Y246401
X156812Y266086
X172560Y297582
X196972Y293645
X207993Y333015
X204056Y340889
X168623Y333015
X141064Y329078
X136775Y309393
X196182Y199157
X156812Y147975
X259174Y218842
X263111Y207031
X267096Y200095
X270985Y183409
X275274Y163723
X296124Y161304
X298544Y222779
X259174Y313330
X353662Y336952
T02
X245906Y244786
X245906Y224786
T03
X226221Y227070
X226221Y237070
X209804Y233172
X209804Y223172
X209804Y213172
X209804Y203172
X209804Y193172
X209804Y183172
X209804Y173172
X209804Y163172
X209804Y153172
X209804Y143172
X209804Y133172
X227599Y132188
X227599Y102188
X235631Y86834
X235631Y56834
X285119Y55771
X285119Y45771
X285119Y35771
X285119Y65771
X285119Y75771
X285119Y85771
X285119Y95771
X285119Y105771
X315119Y105771
X315119Y95771
X315119Y85771
X315119Y75771
X315119Y65771
X315119Y55771
X315119Y45771
X315119Y35771
X311182Y170180
X311182Y180180
X311182Y190180
X311182Y200180
X311182Y210180
X311182Y220180
X311182Y230180
X311182Y240180
X281182Y240180
X281182Y230180
X281182Y220180
X281182Y210180
X281182Y200180
X281182Y190180
X281182Y180180
X281182Y170180
X225198Y201991
X225198Y211991
X209804Y243172
X209804Y253172
X209804Y263172
X179804Y263172
X179804Y253172
X179804Y243172
X179804Y233172
X179804Y223172
X179804Y213172
X179804Y203172
X179804Y193172
X179804Y183172
X179804Y173172
X179804Y163172
X179804Y153172
X179804Y143172
X179804Y133172
X168859Y89826
X180198Y87149
X157048Y88566
X138741Y89786
X138741Y79786
X138741Y69786
X138741Y59786
X138741Y49786
X138741Y39786
X138741Y29786
X138741Y19786
X156418Y24527
X156418Y32527
X162678Y45535
X172678Y45535
X180198Y57149
X168859Y59826
X157048Y58566
X138741Y99786
X108741Y99786
X108741Y89786
X108741Y79786
X108741Y69786
X108741Y59786
X108741Y49786
X108741Y39786
X108741Y29786
X108741Y19786
X125316Y178409
X125316Y188409
X125316Y203842
X141064Y203842
X145001Y188409
X145001Y178409
X161143Y214826
X161143Y224826
X141064Y233842
X125316Y233842
X105709Y263605
X105709Y293605
X109174Y360786
X109174Y368786
X185946Y360637
X185946Y352637
X184253Y309157
X184883Y293409
X214883Y293409
X214253Y309157
X243505Y358723
X231694Y359353
X243505Y388723
X231694Y389353
X230631Y400613
X230631Y410613
X250316Y411243
X250316Y401243
X283938Y388212
X283938Y378212
X283938Y368212
X283938Y358212
X283938Y348212
X283938Y338212
X283938Y328212
X283938Y318212
X313938Y318212
X313938Y328212
X313938Y338212
X313938Y348212
X313938Y358212
X313938Y368212
X313938Y378212
X313938Y388212
T04
X166457Y346834
X159765Y362188
X146379Y362188
X153072Y346834
X139686Y346834
T05
X147284Y285456
X147284Y275456
X147284Y265456
X147284Y255456
X117284Y255456
X117284Y265456
X117284Y275456
X117284Y285456
T06
X142442Y399432
X162127Y399432
T07
X123859Y400968
X63859Y400968
T08
X76221Y17109
X76221Y32700
X76221Y48290
X76221Y63881
X76221Y79472
X76221Y95062
X76221Y110653
X76221Y126243
X76221Y141834
X76221Y157424
X76221Y173015
X78662Y189944
X78662Y205535
X78662Y221125
X78662Y236716
X78662Y252306
X77481Y268094
X77481Y283684
X77481Y299275
X78111Y319314
X78111Y334905
X78111Y355298
X78111Y370889
X340631Y376912
X340631Y392503
X340631Y408094
X340631Y361322
X340631Y345731
X340631Y330141
X340631Y314550
X340631Y298960
X340631Y283251
X340631Y267661
X340631Y252070
X340631Y236479
X340631Y220889
X340631Y205298
X340631Y189708
X340631Y174117
X341891Y156598
X341891Y141007
X341261Y124629
X341261Y109038
X341261Y93448
X341261Y77857
X341261Y62267
X341261Y46676
X341261Y31086
X341261Y15495
X250946Y29905
X235355Y29905
T09
X207993Y35771
X385158Y212936
X207993Y390101
X30828Y212936
M30
