G75*
%MOIN*%
%OFA0B0*%
%FSLAX25Y25*%
%IPPOS*%
%LPD*%
%AMOC8*
5,1,8,0,0,1.08239X$1,22.5*
%
%ADD10C,0.13398*%
%ADD11C,0.01200*%
%ADD12C,0.06000*%
%ADD13OC8,0.06000*%
%ADD14C,0.10839*%
%ADD15OC8,0.03778*%
D10*
X0021041Y0058949D03*
X0139151Y0204618D03*
X0243482Y0025484D03*
D11*
X0216427Y0148630D02*
X0215827Y0149230D01*
X0217815Y0149230D01*
X0219220Y0147825D01*
X0219220Y0145837D01*
X0217815Y0144432D01*
X0215827Y0144432D01*
X0214422Y0145837D01*
X0214422Y0147825D01*
X0215827Y0149230D01*
X0216200Y0148330D01*
X0217442Y0148330D01*
X0218320Y0147452D01*
X0218320Y0146210D01*
X0217442Y0145332D01*
X0216200Y0145332D01*
X0215322Y0146210D01*
X0215322Y0147452D01*
X0216200Y0148330D01*
X0216573Y0147430D01*
X0217069Y0147430D01*
X0217420Y0147079D01*
X0217420Y0146583D01*
X0217069Y0146232D01*
X0216573Y0146232D01*
X0216222Y0146583D01*
X0216222Y0147079D01*
X0216573Y0147430D01*
X0209355Y0155701D02*
X0208755Y0156301D01*
X0210743Y0156301D01*
X0212148Y0154896D01*
X0212148Y0152908D01*
X0210743Y0151503D01*
X0208755Y0151503D01*
X0207350Y0152908D01*
X0207350Y0154896D01*
X0208755Y0156301D01*
X0209128Y0155401D01*
X0210370Y0155401D01*
X0211248Y0154523D01*
X0211248Y0153281D01*
X0210370Y0152403D01*
X0209128Y0152403D01*
X0208250Y0153281D01*
X0208250Y0154523D01*
X0209128Y0155401D01*
X0209501Y0154501D01*
X0209997Y0154501D01*
X0210348Y0154150D01*
X0210348Y0153654D01*
X0209997Y0153303D01*
X0209501Y0153303D01*
X0209150Y0153654D01*
X0209150Y0154150D01*
X0209501Y0154501D01*
D12*
X0208324Y0135486D02*
X0208324Y0130286D01*
X0198324Y0130286D02*
X0198324Y0135486D01*
X0188324Y0135486D02*
X0188324Y0130286D01*
X0178324Y0130286D02*
X0178324Y0135486D01*
X0168324Y0135486D02*
X0168324Y0130286D01*
X0159230Y0130286D02*
X0159230Y0135486D01*
X0149230Y0135486D02*
X0149230Y0130286D01*
X0139230Y0130286D02*
X0139230Y0135486D01*
X0129230Y0135486D02*
X0129230Y0130286D01*
X0119230Y0130286D02*
X0119230Y0135486D01*
X0110135Y0135486D02*
X0110135Y0130286D01*
X0100135Y0130286D02*
X0100135Y0135486D01*
X0090135Y0135486D02*
X0090135Y0130286D01*
X0080135Y0130286D02*
X0080135Y0135486D01*
X0070135Y0135486D02*
X0070135Y0130286D01*
X0070135Y0075486D02*
X0070135Y0070286D01*
X0080135Y0070286D02*
X0080135Y0075486D01*
X0090135Y0075486D02*
X0090135Y0070286D01*
X0100135Y0070286D02*
X0100135Y0075486D01*
X0110135Y0075486D02*
X0110135Y0070286D01*
X0119230Y0070286D02*
X0119230Y0075486D01*
X0129230Y0075486D02*
X0129230Y0070286D01*
X0139230Y0070286D02*
X0139230Y0075486D01*
X0149230Y0075486D02*
X0149230Y0070286D01*
X0159230Y0070286D02*
X0159230Y0075486D01*
X0168324Y0075486D02*
X0168324Y0070286D01*
X0178324Y0070286D02*
X0178324Y0075486D01*
X0188324Y0075486D02*
X0188324Y0070286D01*
X0198324Y0070286D02*
X0198324Y0075486D01*
X0208324Y0075486D02*
X0208324Y0070286D01*
D13*
X0061844Y0043650D03*
X0076513Y0057413D03*
X0084289Y0048571D03*
X0106513Y0057413D03*
X0115175Y0058043D03*
X0114289Y0048571D03*
X0122919Y0049201D03*
X0145175Y0058043D03*
X0152919Y0049201D03*
X0160978Y0049543D03*
X0178403Y0059539D03*
X0190978Y0049543D03*
X0208403Y0059539D03*
X0218708Y0105366D03*
X0218708Y0135366D03*
X0206356Y0143531D03*
X0176356Y0143531D03*
X0171600Y0150752D03*
X0141600Y0150752D03*
X0136380Y0144343D03*
X0106380Y0144343D03*
X0097931Y0144343D03*
X0067931Y0144343D03*
X0056671Y0153791D03*
X0048797Y0128831D03*
X0056671Y0123791D03*
X0060844Y0116390D03*
X0048797Y0098831D03*
X0048403Y0089224D03*
X0060844Y0086390D03*
X0061844Y0073650D03*
X0048403Y0059224D03*
D14*
X0069427Y0170307D02*
X0069427Y0180346D01*
X0085017Y0180346D02*
X0085017Y0170307D01*
X0100608Y0170307D02*
X0100608Y0180346D01*
X0116198Y0180346D02*
X0116198Y0170307D01*
X0131789Y0170307D02*
X0131789Y0180346D01*
X0147380Y0180346D02*
X0147380Y0170307D01*
X0162970Y0170307D02*
X0162970Y0180346D01*
X0180529Y0179717D02*
X0180529Y0169677D01*
X0196120Y0169677D02*
X0196120Y0179717D01*
X0219538Y0174140D02*
X0226637Y0181239D01*
X0237662Y0170215D02*
X0230563Y0163116D01*
X0236174Y0140753D02*
X0246213Y0140753D01*
X0246213Y0125162D02*
X0236174Y0125162D01*
X0236174Y0109572D02*
X0246213Y0109572D01*
X0246213Y0093981D02*
X0236174Y0093981D01*
X0236174Y0078391D02*
X0246213Y0078391D01*
X0246213Y0062800D02*
X0236174Y0062800D01*
X0236174Y0047209D02*
X0246213Y0047209D01*
D15*
X0230356Y0083933D03*
X0220356Y0093933D03*
X0210356Y0098933D03*
X0208356Y0110933D03*
X0166356Y0058933D03*
X0125356Y0105622D03*
X0115356Y0115933D03*
X0103356Y0111933D03*
X0092356Y0114933D03*
X0091356Y0099933D03*
X0089856Y0087433D03*
X0098356Y0087433D03*
X0108356Y0099933D03*
X0074356Y0117933D03*
X0074893Y0127280D03*
X0063356Y0130933D03*
X0054356Y0086933D03*
X0094856Y0062933D03*
X0117356Y0154933D03*
M02*
