%
M48
M72
T01C0.01378
T02C0.03200
T03C0.06693
T04C0.12598
%
T01
X54356Y86933
X89856Y87433
X98356Y87433
X91356Y99933
X103356Y111933
X92356Y114933
X108356Y99933
X115356Y115933
X125356Y105622
X94856Y62933
X74356Y117933
X74893Y127280
X63356Y130933
X117356Y154933
X208356Y110933
X210356Y98933
X220356Y93933
X230356Y83933
X166356Y58933
T02
X61844Y43650
X76513Y57413
X84289Y48571
X106513Y57413
X115175Y58043
X114289Y48571
X122919Y49201
X145175Y58043
X152919Y49201
X160978Y49543
X178403Y59539
X190978Y49543
X208403Y59539
X208324Y72886
X198324Y72886
X188324Y72886
X178324Y72886
X168324Y72886
X159230Y72886
X149230Y72886
X139230Y72886
X129230Y72886
X119230Y72886
X110135Y72886
X100135Y72886
X90135Y72886
X80135Y72886
X70135Y72886
X61844Y73650
X60844Y86390
X48403Y89224
X48797Y98831
X60844Y116390
X56671Y123791
X48797Y128831
X67931Y144343
X70135Y132886
X80135Y132886
X90135Y132886
X100135Y132886
X110135Y132886
X119230Y132886
X129230Y132886
X139230Y132886
X149230Y132886
X159230Y132886
X168324Y132886
X178324Y132886
X188324Y132886
X198324Y132886
X208324Y132886
X218708Y135366
X216821Y146831
X209749Y153902
X206356Y143531
X176356Y143531
X171600Y150752
X141600Y150752
X136380Y144343
X106380Y144343
X97931Y144343
X56671Y153791
X48403Y59224
X218708Y105366
T03
X241194Y109572
X241194Y125162
X241194Y140753
X234112Y166665
X223088Y177689
X196120Y174697
X180529Y174697
X162970Y175327
X147380Y175327
X131789Y175327
X116198Y175327
X100608Y175327
X85017Y175327
X69427Y175327
X241194Y93981
X241194Y78391
X241194Y62800
X241194Y47209
T04
X243482Y25484
X139151Y204618
X21041Y58949
M30
