%
M48
M72
T01C0.01378
T02C0.03200
T03C0.06693
T04C0.12598
%
T01
X57775Y64339
X61275Y88839
X52775Y88839
X54275Y101339
X66275Y113339
X55275Y116339
X37275Y119339
X37812Y128687
X26275Y132339
X71275Y101339
X88275Y107028
X78275Y117339
X80275Y156339
X17275Y88339
X129275Y60339
X173275Y100339
X183275Y95339
X193275Y85339
X171275Y112339
T02
X183527Y106772
X171244Y134292
X161244Y134292
X151244Y134292
X141244Y134292
X131244Y134292
X122149Y134292
X112149Y134292
X102149Y134292
X92149Y134292
X82149Y134292
X73055Y134292
X63055Y134292
X53055Y134292
X43055Y134292
X33055Y134292
X30850Y145749
X19590Y155198
X11716Y130237
X19590Y125198
X23763Y117796
X11716Y100237
X11322Y90631
X23763Y87796
X24763Y75056
X33055Y74292
X43055Y74292
X53055Y74292
X63055Y74292
X73055Y74292
X82149Y74292
X92149Y74292
X102149Y74292
X112149Y74292
X122149Y74292
X131244Y74292
X141244Y74292
X151244Y74292
X161244Y74292
X171244Y74292
X171322Y60946
X153897Y50950
X141322Y60946
X123897Y50950
X115838Y50607
X108094Y59450
X85838Y50607
X77208Y49977
X78094Y59450
X69433Y58820
X47208Y49977
X39433Y58820
X24763Y45056
X11322Y60631
X60850Y145749
X69299Y145749
X99299Y145749
X104519Y152158
X134519Y152158
X139275Y144938
X169275Y144938
X179740Y148237
X172669Y155308
X183527Y136772
T03
X211913Y143859
X211913Y128269
X211913Y112678
X211913Y97087
X211913Y81497
X211913Y65906
X211913Y50316
X197031Y168071
X186007Y179096
X159039Y176103
X143448Y176103
X125889Y176733
X110299Y176733
X94708Y176733
X79118Y176733
X63527Y176733
X47936Y176733
X32346Y176733
T04
X23330Y20985
X102070Y217835
X259551Y60355
M30
