G75*
%MOIN*%
%OFA0B0*%
%FSLAX25Y25*%
%IPPOS*%
%LPD*%
%AMOC8*
5,1,8,0,0,1.08239X$1,22.5*
%
%ADD10C,0.01040*%
%ADD11C,0.05200*%
%ADD12OC8,0.05200*%
%ADD13C,0.10039*%
%ADD14C,0.01200*%
%ADD15OC8,0.02978*%
%ADD16C,0.01600*%
D10*
X0179399Y0149796D02*
X0178879Y0150316D01*
X0180601Y0150316D01*
X0181819Y0149098D01*
X0181819Y0147376D01*
X0180601Y0146158D01*
X0178879Y0146158D01*
X0177661Y0147376D01*
X0177661Y0149098D01*
X0178879Y0150316D01*
X0179202Y0149536D01*
X0180278Y0149536D01*
X0181039Y0148775D01*
X0181039Y0147699D01*
X0180278Y0146938D01*
X0179202Y0146938D01*
X0178441Y0147699D01*
X0178441Y0148775D01*
X0179202Y0149536D01*
X0179525Y0148756D01*
X0179955Y0148756D01*
X0180259Y0148452D01*
X0180259Y0148022D01*
X0179955Y0147718D01*
X0179525Y0147718D01*
X0179221Y0148022D01*
X0179221Y0148452D01*
X0179525Y0148756D01*
X0172328Y0156867D02*
X0171808Y0157387D01*
X0173530Y0157387D01*
X0174748Y0156169D01*
X0174748Y0154447D01*
X0173530Y0153229D01*
X0171808Y0153229D01*
X0170590Y0154447D01*
X0170590Y0156169D01*
X0171808Y0157387D01*
X0172131Y0156607D01*
X0173207Y0156607D01*
X0173968Y0155846D01*
X0173968Y0154770D01*
X0173207Y0154009D01*
X0172131Y0154009D01*
X0171370Y0154770D01*
X0171370Y0155846D01*
X0172131Y0156607D01*
X0172454Y0155827D01*
X0172884Y0155827D01*
X0173188Y0155523D01*
X0173188Y0155093D01*
X0172884Y0154789D01*
X0172454Y0154789D01*
X0172150Y0155093D01*
X0172150Y0155523D01*
X0172454Y0155827D01*
D11*
X0171244Y0136892D02*
X0171244Y0131692D01*
X0161244Y0131692D02*
X0161244Y0136892D01*
X0151244Y0136892D02*
X0151244Y0131692D01*
X0141244Y0131692D02*
X0141244Y0136892D01*
X0131244Y0136892D02*
X0131244Y0131692D01*
X0122149Y0131692D02*
X0122149Y0136892D01*
X0112149Y0136892D02*
X0112149Y0131692D01*
X0102149Y0131692D02*
X0102149Y0136892D01*
X0092149Y0136892D02*
X0092149Y0131692D01*
X0082149Y0131692D02*
X0082149Y0136892D01*
X0073055Y0136892D02*
X0073055Y0131692D01*
X0063055Y0131692D02*
X0063055Y0136892D01*
X0053055Y0136892D02*
X0053055Y0131692D01*
X0043055Y0131692D02*
X0043055Y0136892D01*
X0033055Y0136892D02*
X0033055Y0131692D01*
X0033055Y0076892D02*
X0033055Y0071692D01*
X0043055Y0071692D02*
X0043055Y0076892D01*
X0053055Y0076892D02*
X0053055Y0071692D01*
X0063055Y0071692D02*
X0063055Y0076892D01*
X0073055Y0076892D02*
X0073055Y0071692D01*
X0082149Y0071692D02*
X0082149Y0076892D01*
X0092149Y0076892D02*
X0092149Y0071692D01*
X0102149Y0071692D02*
X0102149Y0076892D01*
X0112149Y0076892D02*
X0112149Y0071692D01*
X0122149Y0071692D02*
X0122149Y0076892D01*
X0131244Y0076892D02*
X0131244Y0071692D01*
X0141244Y0071692D02*
X0141244Y0076892D01*
X0151244Y0076892D02*
X0151244Y0071692D01*
X0161244Y0071692D02*
X0161244Y0076892D01*
X0171244Y0076892D02*
X0171244Y0071692D01*
D12*
X0024763Y0045056D03*
X0039433Y0058820D03*
X0047208Y0049977D03*
X0069433Y0058820D03*
X0078094Y0059450D03*
X0085838Y0050607D03*
X0077208Y0049977D03*
X0108094Y0059450D03*
X0115838Y0050607D03*
X0123897Y0050950D03*
X0141322Y0060946D03*
X0153897Y0050950D03*
X0171322Y0060946D03*
X0183527Y0106772D03*
X0183527Y0136772D03*
X0169275Y0144938D03*
X0139275Y0144938D03*
X0134519Y0152158D03*
X0104519Y0152158D03*
X0099299Y0145749D03*
X0069299Y0145749D03*
X0060850Y0145749D03*
X0030850Y0145749D03*
X0019590Y0155198D03*
X0011716Y0130237D03*
X0019590Y0125198D03*
X0023763Y0117796D03*
X0011716Y0100237D03*
X0011322Y0090631D03*
X0023763Y0087796D03*
X0024763Y0075056D03*
X0011322Y0060631D03*
D13*
X0032346Y0171713D02*
X0032346Y0181753D01*
X0047936Y0181753D02*
X0047936Y0171713D01*
X0063527Y0171713D02*
X0063527Y0181753D01*
X0079118Y0181753D02*
X0079118Y0171713D01*
X0094708Y0171713D02*
X0094708Y0181753D01*
X0110299Y0181753D02*
X0110299Y0171713D01*
X0125889Y0171713D02*
X0125889Y0181753D01*
X0143448Y0181123D02*
X0143448Y0171083D01*
X0159039Y0171083D02*
X0159039Y0181123D01*
X0182458Y0175546D02*
X0189556Y0182645D01*
X0200581Y0171621D02*
X0193482Y0164522D01*
X0206893Y0143859D02*
X0216933Y0143859D01*
X0216933Y0128269D02*
X0206893Y0128269D01*
X0206893Y0112678D02*
X0216933Y0112678D01*
X0216933Y0097087D02*
X0206893Y0097087D01*
X0206893Y0081497D02*
X0216933Y0081497D01*
X0216933Y0065906D02*
X0206893Y0065906D01*
X0206893Y0050316D02*
X0216933Y0050316D01*
D14*
X0198873Y0073938D02*
X0179985Y0055550D01*
X0117815Y0056550D01*
X0115658Y0055707D01*
X0111018Y0055707D01*
X0107418Y0049607D01*
X0085838Y0050607D01*
X0078094Y0059450D02*
X0100174Y0059450D01*
X0105774Y0065050D01*
X0109985Y0065050D01*
X0111028Y0066092D01*
X0123522Y0066092D01*
X0129275Y0060339D01*
X0171322Y0060946D02*
X0174881Y0060946D01*
X0178275Y0064339D01*
X0178275Y0104105D01*
X0177927Y0104453D01*
X0177927Y0138128D01*
X0173563Y0142492D01*
X0171721Y0142492D01*
X0169275Y0144938D01*
X0171275Y0112339D02*
X0142677Y0112339D01*
X0125644Y0129373D01*
X0125644Y0130798D01*
X0122149Y0134292D01*
X0117549Y0129787D02*
X0146996Y0100339D01*
X0173275Y0100339D01*
X0183275Y0095339D02*
X0193275Y0085339D01*
X0198873Y0084819D02*
X0198873Y0073938D01*
X0198873Y0084819D02*
X0203571Y0089517D01*
X0204342Y0089517D01*
X0211913Y0097087D01*
X0117549Y0129787D02*
X0117549Y0139128D01*
X0104519Y0152158D01*
X0099299Y0145749D02*
X0087684Y0145749D01*
X0085275Y0143339D01*
X0085275Y0137418D01*
X0082149Y0134292D01*
X0073275Y0134072D02*
X0073055Y0134292D01*
X0073275Y0134072D02*
X0073275Y0117339D01*
X0069275Y0113339D01*
X0066275Y0113339D01*
X0063055Y0117119D02*
X0063055Y0134292D01*
X0077775Y0123339D02*
X0088775Y0112339D01*
X0093275Y0112339D01*
X0093275Y0104839D01*
X0077275Y0088839D01*
X0061275Y0088839D01*
X0057775Y0096339D02*
X0078275Y0117339D01*
X0077775Y0123339D02*
X0077775Y0153839D01*
X0080275Y0156339D01*
X0069935Y0161339D02*
X0103275Y0161339D01*
X0110299Y0168363D01*
X0110299Y0176733D01*
X0079118Y0176733D02*
X0064724Y0162339D01*
X0015275Y0162339D01*
X0015275Y0157388D01*
X0014990Y0157103D01*
X0014990Y0143624D01*
X0026275Y0132339D01*
X0019590Y0125198D02*
X0046417Y0125198D01*
X0055275Y0116339D01*
X0057275Y0111339D02*
X0063055Y0117119D01*
X0057275Y0111339D02*
X0022818Y0111339D01*
X0011716Y0100237D01*
X0011322Y0090631D02*
X0022031Y0101339D01*
X0054275Y0101339D01*
X0057775Y0096339D02*
X0057775Y0064339D01*
X0047208Y0049977D02*
X0013137Y0049977D01*
X0006775Y0055339D01*
X0006275Y0169339D01*
X0027275Y0190339D01*
X0056275Y0190339D01*
X0063527Y0183087D01*
X0063527Y0176733D01*
X0069935Y0161339D02*
X0058944Y0150349D01*
X0050006Y0150349D01*
X0038455Y0138798D01*
X0038455Y0129330D01*
X0037812Y0128687D01*
X0037275Y0119339D02*
X0035732Y0117796D01*
X0023763Y0117796D01*
X0037047Y0088839D02*
X0024763Y0075056D01*
X0017275Y0069339D02*
X0027795Y0058820D01*
X0039433Y0058820D01*
X0017275Y0069339D02*
X0017275Y0088339D01*
X0037047Y0088839D02*
X0052775Y0088839D01*
X0071275Y0101339D02*
X0082586Y0101339D01*
X0088275Y0107028D01*
D15*
X0088275Y0107028D03*
X0078275Y0117339D03*
X0066275Y0113339D03*
X0055275Y0116339D03*
X0054275Y0101339D03*
X0052775Y0088839D03*
X0061275Y0088839D03*
X0071275Y0101339D03*
X0037275Y0119339D03*
X0037812Y0128687D03*
X0026275Y0132339D03*
X0017275Y0088339D03*
X0057775Y0064339D03*
X0129275Y0060339D03*
X0173275Y0100339D03*
X0183275Y0095339D03*
X0193275Y0085339D03*
X0171275Y0112339D03*
X0080275Y0156339D03*
D16*
X0172669Y0155308D02*
X0185262Y0167901D01*
X0185262Y0167927D01*
X0186007Y0168672D01*
X0186007Y0179096D01*
M02*
